<svg xmlns="http://www.w3.org/2000/svg" width="20.318" height="20.318" viewBox="0 0 20.318 20.318"><defs><style>.a{fill:#85cbf8;}.b{fill:#ed7899;}.c{fill:#ace3ff;}.d{fill:#ffefb8;}.e{fill:#9fddff;}.f{fill:#fff;}.g{fill:#faefde;}.h{fill:#8d6c9f;}</style></defs><g transform="translate(-5 -5)"><path class="a" d="M6.753,12H24.813a.752.752,0,0,1,.753.753v15.8a.752.752,0,0,1-.753.753H6.753A.752.752,0,0,1,6,28.556v-15.8A.752.752,0,0,1,6.753,12Zm0,0" transform="translate(-0.624 -4.366)"/><path class="b" d="M7.505,52H24.061a1.5,1.5,0,0,1,1.505,1.505.754.754,0,0,1-.753.753H6.753A.754.754,0,0,1,6,53.505,1.5,1.5,0,0,1,7.505,52Zm0,0" transform="translate(-0.624 -29.316)"/><path class="c" d="M6.753,12H24.813a.752.752,0,0,1,.753.753V15.01a1.129,1.129,0,0,1-1.129,1.129H7.129A1.129,1.129,0,0,1,6,15.01V12.753A.752.752,0,0,1,6.753,12Zm0,0" transform="translate(-0.624 -4.366)"/><path class="d" d="M14.753,6a.752.752,0,0,1,.753.753v3.01a.753.753,0,1,1-1.505,0V6.753A.752.752,0,0,1,14.753,6Zm6.02,0a.752.752,0,0,1,.753.753v3.01a.753.753,0,1,1-1.505,0V6.753A.752.752,0,0,1,20.773,6Zm6.02,0a.752.752,0,0,1,.753.753v3.01a.753.753,0,1,1-1.505,0V6.753A.752.752,0,0,1,26.793,6Zm0,0" transform="translate(-5.614 -0.624)"/><path class="e" d="M10.317,31l.466.851.851.466-.851.466-.466.851-.466-.851L9,32.317l.851-.466Zm15.052,3.01.329.606.61.337-.61.329-.329.61-.337-.61-.606-.329.606-.337Zm-15.8,2.258.2.362.362.2-.362.2-.2.366-.2-.366L9,36.831l.366-.2Zm0,0" transform="translate(-2.495 -16.217)"/><path class="f" d="M17.386,29h3.386v3.386H17.386ZM14,29h3.386v3.386H14Zm6.773,0h3.386v3.386H20.773Zm0,0" transform="translate(-5.614 -14.97)"/><path class="g" d="M41,29h3.386v3.386H41Zm0,0" transform="translate(-22.454 -14.97)"/><path class="f" d="M14,38h3.386v3.386H14Zm3.386,0h3.386v3.386H17.386Zm3.386,0h3.386v3.386H20.773Zm0,0" transform="translate(-5.614 -20.583)"/><path class="g" d="M41,38h3.386v3.386H41Zm0,0" transform="translate(-22.454 -20.583)"/><path class="h" d="M10.129,22.505a.377.377,0,0,0,.376-.376v-.753a.376.376,0,1,0-.753,0v.753A.377.377,0,0,0,10.129,22.505Zm1.881,0a.377.377,0,0,0,.376-.376v-.753a.376.376,0,1,0-.753,0v.753A.377.377,0,0,0,12.01,22.505Zm1.881,0a.377.377,0,0,0,.376-.376v-.753a.376.376,0,1,0-.753,0v.753A.377.377,0,0,0,13.891,22.505Zm1.881,0a.377.377,0,0,0,.376-.376v-.753a.376.376,0,1,0-.753,0v.753A.377.377,0,0,0,15.773,22.505Zm1.881,0a.377.377,0,0,0,.376-.376v-.753a.376.376,0,1,0-.753,0v.753A.377.377,0,0,0,17.654,22.505Zm1.881,0a.377.377,0,0,0,.376-.376v-.753a.376.376,0,1,0-.753,0v.753A.377.377,0,0,0,19.535,22.505Zm1.881,0a.377.377,0,0,0,.376-.376v-.753a.376.376,0,1,0-.753,0v.753A.377.377,0,0,0,21.417,22.505Zm1.881,0a.377.377,0,0,0,.376-.376v-.753a.376.376,0,1,0-.753,0v.753A.377.377,0,0,0,23.3,22.505Zm1.881,0a.377.377,0,0,0,.376-.376v-.753a.376.376,0,1,0-.753,0v.753A.377.377,0,0,0,25.179,22.505Zm.753,9.783H9.376a.376.376,0,1,0,0,.753H25.932a.376.376,0,1,0,0-.753Zm0,0" transform="translate(-2.495 -9.98)"/><path class="h" d="M24.19,7.258H22.308V6.129a1.129,1.129,0,1,0-2.258,0V7.258H16.288V6.129a1.129,1.129,0,0,0-2.258,0V7.258H10.268V6.129a1.129,1.129,0,0,0-2.258,0V7.258H6.129A1.129,1.129,0,0,0,5,8.386v15.8a1.129,1.129,0,0,0,1.129,1.129H24.19a1.129,1.129,0,0,0,1.129-1.129V8.386A1.129,1.129,0,0,0,24.19,7.258ZM20.8,6.129a.376.376,0,1,1,.753,0v3.01a.376.376,0,1,1-.753,0Zm-6.02,0a.376.376,0,1,1,.753,0v3.01a.376.376,0,0,1-.753,0Zm-6.02,0a.376.376,0,0,1,.753,0v3.01a.376.376,0,0,1-.753,0Zm15.8,18.061a.377.377,0,0,1-.376.376H6.129a.377.377,0,0,1-.376-.376V12.525a.377.377,0,0,0,.376-.376V11.4a.377.377,0,0,0-.376-.376V8.386a.377.377,0,0,1,.376-.376H8.01V9.139a1.129,1.129,0,0,0,2.258,0V8.01H14.03V9.139a1.129,1.129,0,0,0,2.258,0V8.01h3.763V9.139a1.129,1.129,0,1,0,2.258,0V8.01H24.19a.377.377,0,0,1,.376.376V11.02a.377.377,0,0,0-.376.376v.753a.377.377,0,0,0,.376.376Zm0,0"/><path class="h" d="M26.922,28H13.376a.377.377,0,0,0-.376.376v6.773a.377.377,0,0,0,.376.376H26.922a.377.377,0,0,0,.376-.376V28.376A.377.377,0,0,0,26.922,28Zm-.376,3.386H23.912V28.753h2.634Zm-3.386,0H20.525V28.753h2.634Zm-3.386,0H17.139V28.753h2.634Zm-6.02-2.634h2.634v2.634H13.753Zm0,3.386h2.634v2.634H13.753Zm3.386,0h2.634v2.634H17.139Zm3.386,0h2.634v2.634H20.525Zm6.02,2.634H23.912V32.139h2.634Zm0,0" transform="translate(-4.99 -14.346)"/></g></svg>