<svg xmlns="http://www.w3.org/2000/svg" width="58" height="58" viewBox="0 0 58 58"><defs><style>.a{fill:#f1c40f;}</style></defs><g transform="translate(-2 -2)"><path class="a" d="M31,2A29,29,0,1,0,60,31,29.031,29.031,0,0,0,31,2Zm0,2A27,27,0,1,1,4,31,27.032,27.032,0,0,1,31,4Zm-.437,4.008A23,23,0,0,0,14.734,47.266a1,1,0,0,0,1.418,0,1,1,0,0,0,0-1.418c-.461-.457-.887-.934-1.3-1.426.012-.02.035-.035.047-.059a16.039,16.039,0,0,1,10.766-8.828A7.653,7.653,0,0,0,31,38a7.646,7.646,0,0,0,5.332-2.465A16.027,16.027,0,0,1,47.1,44.363c.012.023.027.043.039.063-.41.488-.836.969-1.293,1.422a1,1,0,0,0,0,1.418,1,1,0,0,0,1.418,0,23.01,23.01,0,0,0,0-32.531,24.022,24.022,0,0,0-2.094-1.855,1,1,0,1,0-1.234,1.574,21.206,21.206,0,0,1,1.91,1.7A21,21,0,0,1,48.469,42.66,18.023,18.023,0,0,0,37.75,33.828,12.561,12.561,0,0,0,40,27V25a9,9,0,0,0-18,0v2a12.529,12.529,0,0,0,2.25,6.828A18.012,18.012,0,0,0,13.531,42.66a21,21,0,0,1,2.621-26.508A21.068,21.068,0,0,1,34.34,10.266a1,1,0,0,0,.316-1.977A22.6,22.6,0,0,0,30.563,8.008Zm8.1,1.379a1,1,0,0,0-.309,1.938,21.689,21.689,0,0,1,2.1.914.993.993,0,0,0,.453.109,1,1,0,0,0,.449-1.895,23.553,23.553,0,0,0-2.3-1A1.037,1.037,0,0,0,38.66,9.387ZM31,18a7.008,7.008,0,0,1,7,7v2c0,3.969-3.3,9-7,9s-7-5.031-7-9V25A7.008,7.008,0,0,1,31,18ZM21.375,47.395a.992.992,0,0,0-.988.492l-1,1.734a1,1,0,1,0,1.727,1l1-1.734a1,1,0,0,0-.363-1.367A1.038,1.038,0,0,0,21.375,47.395Zm19.25,0a1.038,1.038,0,0,0-.375.125,1,1,0,0,0-.363,1.371l1,1.73a1,1,0,0,0,.863.5.965.965,0,0,0,.5-.137.993.993,0,0,0,.363-1.363l-1-1.73A1,1,0,0,0,40.625,47.395ZM25.813,49.344a1.007,1.007,0,0,0-.828.734l-.516,1.934a1,1,0,0,0,1.934.516l.516-1.934a1,1,0,0,0-.7-1.223A.946.946,0,0,0,25.813,49.344Zm10.375,0a.946.946,0,0,0-.4.027,1,1,0,0,0-.707,1.223l.52,1.934a1,1,0,0,0,.965.742,1.027,1.027,0,0,0,.262-.035,1,1,0,0,0,.707-1.223l-.516-1.934A1.007,1.007,0,0,0,36.188,49.344ZM31,50a1,1,0,0,0-1,1v2a1,1,0,0,0,2,0V51A1,1,0,0,0,31,50Zm0,0"/></g></svg>
