<svg xmlns="http://www.w3.org/2000/svg" width="64" height="51.996" viewBox="0 0 64 51.996"><defs><style>.a{fill:#fff;}</style></defs><g transform="translate(0 -6)"><path class="a" d="M17.891,6A17.913,17.913,0,0,0,0,23.891c0,5.2,2.758,10.84,8.2,16.781,6.84,7.52,16.133,13.609,21.066,16.574a5.221,5.221,0,0,0,2.7.75h.063a5.221,5.221,0,0,0,2.7-.75c4.934-2.965,14.227-9.055,21.063-16.57C61.238,34.73,64,29.086,64,23.891A17.913,17.913,0,0,0,46.109,6a17.728,17.728,0,0,0-12.559,5.168A2.906,2.906,0,0,1,32,12a2.885,2.885,0,0,1-1.551-.836A17.757,17.757,0,0,0,17.891,6Zm0,2a15.742,15.742,0,0,1,11.145,4.582A4.715,4.715,0,0,0,32,14a4.687,4.687,0,0,0,2.957-1.414A15.88,15.88,0,0,1,62,23.891c0,4.676-2.582,9.871-7.684,15.434C47.406,46.93,37.6,53.191,33.7,55.531a3.225,3.225,0,0,1-1.7.465h-.016a3.161,3.161,0,0,1-1.7-.465c-3.9-2.34-13.7-8.6-20.617-16.207C4.582,33.762,2,28.57,2,23.891A15.909,15.909,0,0,1,17.891,8ZM46,11a1,1,0,0,0,0,2,11.088,11.088,0,0,1,3.27.492,1,1,0,1,0,.594-1.91A12.986,12.986,0,0,0,46,11Zm6.848,2.273a1,1,0,0,0-.422,1.8,11.021,11.021,0,0,1,4.25,6.262,1,1,0,0,0,.969.762,1.056,1.056,0,0,0,.242-.031,1,1,0,0,0,.73-1.211,13.058,13.058,0,0,0-5.02-7.406,1.035,1.035,0,0,0-.746-.172ZM13.027,32.957a1,1,0,0,0-.727.238L10.785,34.5a1,1,0,0,0,1.3,1.512l1.516-1.3a1,1,0,0,0-.578-1.754Zm3.309,3.621a.989.989,0,0,0-.711.289l-1.43,1.4a1,1,0,0,0,.7,1.711.974.974,0,0,0,.7-.285l1.43-1.4a1,1,0,0,0-.691-1.715Zm3.582,3.34a1.02,1.02,0,0,0-.691.332l-1.336,1.488a1,1,0,1,0,1.488,1.336l1.336-1.488a1,1,0,0,0-.8-1.668Zm3.762,3.113a1.014,1.014,0,0,0-.668.375L21.777,44.98a1,1,0,0,0,.168,1.4,1,1,0,0,0,1.4-.168l1.238-1.57a1,1,0,0,0-.168-1.406A1.029,1.029,0,0,0,23.68,43.031Zm3.945,2.9a.984.984,0,0,0-.641.414l-1.133,1.648A1,1,0,0,0,27.5,49.125l1.133-1.648a1,1,0,0,0-1.008-1.547Zm4.5,2.57a1,1,0,0,0-1,.48L30.109,50.7a1,1,0,0,0,.348,1.371.964.964,0,0,0,.512.141,1,1,0,0,0,.859-.488L32.852,50a1,1,0,0,0-.348-1.371A1.081,1.081,0,0,0,32.129,48.5Zm0,0"/></g></svg>