<?xml version="1.0" encoding="UTF-8"?>
<svg xmlns="http://www.w3.org/2000/svg" xmlns:xlink="http://www.w3.org/1999/xlink" width="64pt" height="64pt" viewBox="0 0 64 64" version="1.1">
<g id="surface376502">
<path style=" stroke:none;fill-rule:nonzero;fill:rgb(100%,100%,100%);fill-opacity:1;" d="M 17.890625 6 C 8.027344 6 0 14.027344 0 23.890625 C 0 29.085938 2.757812 34.730469 8.199219 40.671875 C 15.039062 48.191406 24.332031 54.28125 29.265625 57.246094 C 30.078125 57.738281 31.015625 57.996094 31.96875 57.996094 L 32.03125 57.996094 C 32.984375 57.996094 33.921875 57.738281 34.734375 57.246094 C 39.667969 54.28125 48.960938 48.191406 55.796875 40.675781 C 61.238281 34.730469 64 29.085938 64 23.890625 C 64 14.027344 55.972656 6 46.109375 6 C 41.375 6 36.917969 7.832031 33.550781 11.167969 C 33.277344 11.4375 32.539062 12 32 12 C 31.460938 12 30.722656 11.4375 30.449219 11.164062 C 27.082031 7.835938 22.625 6 17.890625 6 Z M 17.890625 8 C 22.09375 8 26.054688 9.628906 29.035156 12.582031 C 29.273438 12.820312 30.527344 14 32 14 C 33.472656 14 34.726562 12.820312 34.957031 12.585938 C 37.945312 9.628906 41.90625 8 46.109375 8 C 54.871094 8 62 15.128906 62 23.890625 C 62 28.566406 59.417969 33.761719 54.316406 39.324219 C 47.40625 46.929688 37.597656 53.191406 33.703125 55.53125 C 33.191406 55.84375 32.625 55.992188 32.007812 55.996094 L 31.992188 55.996094 C 31.363281 55.996094 30.808594 55.84375 30.296875 55.53125 C 26.398438 53.191406 16.59375 46.929688 9.679688 39.324219 C 4.582031 33.761719 2 28.570312 2 23.890625 C 2 15.128906 9.128906 8 17.890625 8 Z M 46 11 C 45.449219 11 45 11.445312 45 12 C 45 12.554688 45.449219 13 46 13 C 47.117188 13 48.21875 13.167969 49.269531 13.492188 C 49.371094 13.523438 49.46875 13.539062 49.566406 13.539062 C 49.996094 13.539062 50.390625 13.265625 50.523438 12.835938 C 50.6875 12.308594 50.394531 11.746094 49.863281 11.582031 C 48.621094 11.195312 47.320312 11 46 11 Z M 52.847656 13.273438 C 52.597656 13.3125 52.359375 13.453125 52.199219 13.675781 C 51.875 14.125 51.976562 14.746094 52.425781 15.070312 C 54.539062 16.59375 56.050781 18.820312 56.675781 21.332031 C 56.789062 21.789062 57.195312 22.09375 57.644531 22.09375 C 57.722656 22.09375 57.804688 22.082031 57.886719 22.0625 C 58.421875 21.929688 58.75 21.386719 58.617188 20.851562 C 57.875 17.878906 56.09375 15.25 53.597656 13.445312 C 53.371094 13.289062 53.101562 13.234375 52.851562 13.273438 Z M 13.027344 32.957031 C 12.773438 32.9375 12.511719 33.015625 12.300781 33.195312 L 10.785156 34.503906 C 10.363281 34.863281 10.320312 35.492188 10.679688 35.910156 C 10.875 36.140625 11.15625 36.257812 11.4375 36.257812 C 11.667969 36.257812 11.902344 36.179688 12.089844 36.015625 L 13.605469 34.710938 C 14.023438 34.351562 14.070312 33.722656 13.710938 33.300781 C 13.53125 33.09375 13.28125 32.976562 13.027344 32.957031 Z M 16.335938 36.578125 C 16.078125 36.574219 15.824219 36.671875 15.625 36.867188 L 14.195312 38.265625 C 13.800781 38.652344 13.796875 39.285156 14.183594 39.679688 C 14.378906 39.878906 14.640625 39.976562 14.898438 39.976562 C 15.152344 39.976562 15.402344 39.886719 15.597656 39.691406 L 17.027344 38.292969 C 17.421875 37.90625 17.429688 37.273438 17.042969 36.878906 C 16.847656 36.679688 16.59375 36.582031 16.335938 36.578125 Z M 19.917969 39.917969 C 19.664062 39.933594 19.410156 40.046875 19.226562 40.25 L 17.890625 41.738281 C 17.523438 42.148438 17.554688 42.78125 17.964844 43.152344 C 18.15625 43.324219 18.398438 43.40625 18.632812 43.40625 C 18.90625 43.40625 19.183594 43.292969 19.378906 43.074219 L 20.714844 41.585938 C 21.082031 41.175781 21.050781 40.542969 20.636719 40.171875 C 20.433594 39.988281 20.171875 39.90625 19.917969 39.917969 Z M 23.679688 43.03125 C 23.425781 43.0625 23.183594 43.191406 23.011719 43.40625 L 21.777344 44.980469 C 21.433594 45.414062 21.511719 46.042969 21.945312 46.382812 C 22.128906 46.53125 22.347656 46.597656 22.5625 46.597656 C 22.859375 46.597656 23.152344 46.46875 23.347656 46.214844 L 24.585938 44.644531 C 24.929688 44.210938 24.851562 43.582031 24.417969 43.238281 C 24.199219 43.070312 23.933594 43.003906 23.679688 43.03125 Z M 27.625 45.929688 C 27.375 45.972656 27.140625 46.117188 26.984375 46.34375 L 25.851562 47.992188 C 25.539062 48.449219 25.65625 49.070312 26.109375 49.382812 C 26.28125 49.5 26.480469 49.558594 26.675781 49.558594 C 26.992188 49.558594 27.308594 49.40625 27.5 49.125 L 28.632812 47.476562 C 28.945312 47.019531 28.828125 46.398438 28.375 46.085938 C 28.148438 45.929688 27.875 45.882812 27.625 45.929688 Z M 32.128906 48.5 C 31.742188 48.445312 31.34375 48.625 31.132812 48.980469 L 30.109375 50.699219 C 29.824219 51.175781 29.980469 51.789062 30.457031 52.070312 C 30.613281 52.167969 30.792969 52.210938 30.96875 52.210938 C 31.308594 52.210938 31.640625 52.039062 31.828125 51.722656 L 32.851562 50.003906 C 33.132812 49.527344 32.976562 48.914062 32.503906 48.632812 C 32.382812 48.5625 32.253906 48.519531 32.128906 48.5 Z M 32.128906 48.5 "/>
</g>
</svg>
