<?xml version="1.0" encoding="UTF-8"?>
<svg xmlns="http://www.w3.org/2000/svg" xmlns:xlink="http://www.w3.org/1999/xlink" width="64pt" height="64pt" viewBox="0 0 64 64" version="1.1">
<g id="surface13747">
<path style=" stroke:none;fill-rule:nonzero;fill:rgb(0,0,0);fill-opacity:1;" d="M 15.660156 4 C 14.320312 4 13.070312 4.519531 12.121094 5.460938 L 3.460938 14.121094 C 2.519531 15.070312 2 16.320312 2 17.660156 L 2 57 C 2 58.648438 3.351562 60 5 60 L 45 60 C 46.648438 60 48 58.648438 48 57 L 48 50 L 59.5 50 C 60.878906 50 62 48.878906 62 47.5 C 62 46.121094 60.878906 45 59.5 45 L 58.652344 45 L 56.199219 39.480469 C 55.273438 37.402344 53.753906 35.6875 51.804688 34.515625 L 50 33.433594 L 50 30.566406 L 51.804688 29.484375 C 53.753906 28.3125 55.273438 26.59375 56.199219 24.515625 L 58.652344 19 L 59.5 19 C 60.878906 19 62 17.878906 62 16.5 C 62 15.121094 60.878906 14 59.5 14 L 48 14 L 48 7 C 48 5.351562 46.648438 4 45 4 Z M 16 6 L 45 6 C 45.550781 6 46 6.449219 46 7 L 46 14 L 32.5 14 C 31.121094 14 30 15.121094 30 16.5 C 30 17.878906 31.121094 19 32.5 19 L 33.347656 19 L 35.800781 24.515625 C 36.726562 26.59375 38.246094 28.3125 40.195312 29.484375 L 42 30.566406 L 42 33.433594 L 40.195312 34.515625 C 38.246094 35.6875 36.726562 37.40625 35.800781 39.484375 L 33.347656 45 L 32.5 45 C 31.121094 45 30 46.121094 30 47.5 C 30 48.878906 31.121094 50 32.5 50 L 46 50 L 46 57 C 46 57.550781 45.550781 58 45 58 L 5 58 C 4.449219 58 4 57.550781 4 57 L 4 18 L 13 18 C 14.652344 18 16 16.652344 16 15 Z M 14 6.5 L 14 15 C 14 15.550781 13.550781 16 13 16 L 4.5 16 C 4.609375 15.835938 4.738281 15.679688 4.882812 15.539062 L 13.539062 6.882812 C 13.679688 6.738281 13.835938 6.613281 14 6.5 Z M 32.5 16 L 59.5 16 C 59.78125 16 60 16.21875 60 16.5 C 60 16.78125 59.78125 17 59.5 17 L 32.5 17 C 32.21875 17 32 16.78125 32 16.5 C 32 16.21875 32.21875 16 32.5 16 Z M 35.539062 19 L 56.460938 19 L 54.371094 23.707031 C 53.613281 25.40625 52.371094 26.8125 50.777344 27.769531 L 48.96875 28.851562 C 48.371094 29.210938 48 29.867188 48 30.566406 L 48 33.433594 C 48 34.132812 48.371094 34.789062 48.96875 35.148438 L 50.777344 36.234375 C 51.9375 36.929688 52.90625 37.867188 53.640625 38.980469 L 51.34375 38.0625 C 47.472656 36.644531 44.269531 36.648438 40.628906 38.074219 L 38.359375 38.980469 C 39.09375 37.867188 40.0625 36.929688 41.222656 36.234375 L 43.03125 35.148438 C 43.628906 34.789062 44 34.132812 44 33.433594 L 44 30.566406 C 44 29.867188 43.625 29.210938 43.027344 28.851562 L 41.222656 27.765625 C 39.628906 26.808594 38.386719 25.40625 37.628906 23.703125 Z M 11 23 C 9.894531 23 9 23.894531 9 25 C 9 26.105469 9.894531 27 11 27 C 12.105469 27 13 26.105469 13 25 C 13 23.894531 12.105469 23 11 23 Z M 17 24 C 16.449219 24 16 24.449219 16 25 C 16 25.550781 16.449219 26 17 26 L 30 26 C 30.550781 26 31 25.550781 31 25 C 31 24.449219 30.550781 24 30 24 Z M 11 29 C 9.894531 29 9 29.894531 9 31 C 9 32.105469 9.894531 33 11 33 C 12.105469 33 13 32.105469 13 31 C 13 29.894531 12.105469 29 11 29 Z M 17 30 C 16.449219 30 16 30.449219 16 31 C 16 31.550781 16.449219 32 17 32 L 26 32 C 26.550781 32 27 31.550781 27 31 C 27 30.449219 26.550781 30 26 30 Z M 30 30 C 29.449219 30 29 30.449219 29 31 C 29 31.550781 29.449219 32 30 32 L 34 32 C 34.550781 32 35 31.550781 35 31 C 35 30.449219 34.550781 30 34 30 Z M 11 35 C 9.894531 35 9 35.894531 9 37 C 9 38.105469 9.894531 39 11 39 C 12.105469 39 13 38.105469 13 37 C 13 35.894531 12.105469 35 11 35 Z M 17 36 C 16.449219 36 16 36.449219 16 37 C 16 37.550781 16.449219 38 17 38 L 31 38 C 31.550781 38 32 37.550781 32 37 C 32 36.449219 31.550781 36 31 36 Z M 45.917969 39 C 47.410156 39 48.933594 39.308594 50.628906 39.925781 L 54.972656 41.667969 C 54.976562 41.667969 54.976562 41.667969 54.980469 41.667969 L 56.460938 45 L 35.539062 45 L 37.019531 41.671875 L 41.363281 39.933594 C 42.953125 39.3125 44.421875 39 45.917969 39 Z M 11 41 C 9.894531 41 9 41.894531 9 43 C 9 44.105469 9.894531 45 11 45 C 12.105469 45 13 44.105469 13 43 C 13 41.894531 12.105469 41 11 41 Z M 17 42 C 16.449219 42 16 42.449219 16 43 C 16 43.550781 16.449219 44 17 44 L 28 44 C 28.550781 44 29 43.550781 29 43 C 29 42.449219 28.550781 42 28 42 Z M 32.5 47 L 59.5 47 C 59.78125 47 60 47.21875 60 47.5 C 60 47.78125 59.78125 48 59.5 48 L 32.5 48 C 32.21875 48 32 47.78125 32 47.5 C 32 47.21875 32.21875 47 32.5 47 Z M 7 52 C 6.449219 52 6 52.449219 6 53 L 6 55 C 6 55.550781 6.449219 56 7 56 C 7.550781 56 8 55.550781 8 55 L 8 53 C 8 52.449219 7.550781 52 7 52 Z M 12 52 C 11.449219 52 11 52.449219 11 53 L 11 55 C 11 55.550781 11.449219 56 12 56 C 12.550781 56 13 55.550781 13 55 L 13 53 C 13 52.449219 12.550781 52 12 52 Z M 17 52 C 16.449219 52 16 52.449219 16 53 L 16 55 C 16 55.550781 16.449219 56 17 56 C 17.550781 56 18 55.550781 18 55 L 18 53 C 18 52.449219 17.550781 52 17 52 Z M 22 52 C 21.449219 52 21 52.449219 21 53 L 21 55 C 21 55.550781 21.449219 56 22 56 C 22.550781 56 23 55.550781 23 55 L 23 53 C 23 52.449219 22.550781 52 22 52 Z M 27 52 C 26.449219 52 26 52.449219 26 53 L 26 55 C 26 55.550781 26.449219 56 27 56 C 27.550781 56 28 55.550781 28 55 L 28 53 C 28 52.449219 27.550781 52 27 52 Z M 32 52 C 31.449219 52 31 52.449219 31 53 L 31 55 C 31 55.550781 31.449219 56 32 56 C 32.550781 56 33 55.550781 33 55 L 33 53 C 33 52.449219 32.550781 52 32 52 Z M 37 52 C 36.449219 52 36 52.449219 36 53 L 36 55 C 36 55.550781 36.449219 56 37 56 C 37.550781 56 38 55.550781 38 55 L 38 53 C 38 52.449219 37.550781 52 37 52 Z M 42 52 C 41.449219 52 41 52.449219 41 53 L 41 55 C 41 55.550781 41.449219 56 42 56 C 42.550781 56 43 55.550781 43 55 L 43 53 C 43 52.449219 42.550781 52 42 52 Z M 42 52 "/>
</g>
</svg>
