<svg xmlns="http://www.w3.org/2000/svg" width="60" height="56" viewBox="0 0 60 56"><defs><style>.a{fill:#f1c40f;}</style></defs><g transform="translate(-2 -4)"><path class="a" d="M15.66,4a4.985,4.985,0,0,0-3.539,1.461l-8.66,8.66A4.985,4.985,0,0,0,2,17.66V57a3.011,3.011,0,0,0,3,3H45a3.011,3.011,0,0,0,3-3V50H59.5a2.5,2.5,0,0,0,0-5h-.848L56.2,39.48A10.976,10.976,0,0,0,51.8,34.516L50,33.434V30.566l1.8-1.082A10.985,10.985,0,0,0,56.2,24.516L58.652,19H59.5a2.5,2.5,0,0,0,0-5H48V7a3.011,3.011,0,0,0-3-3ZM16,6H45a1,1,0,0,1,1,1v7H32.5a2.5,2.5,0,0,0,0,5h.848L35.8,24.516A10.985,10.985,0,0,0,40.2,29.484L42,30.566v2.867l-1.8,1.082A10.985,10.985,0,0,0,35.8,39.484L33.348,45H32.5a2.5,2.5,0,0,0,0,5H46v7a1,1,0,0,1-1,1H5a1,1,0,0,1-1-1V18h9a3.006,3.006,0,0,0,3-3Zm-2,.5V15a1,1,0,0,1-1,1H4.5a2.856,2.856,0,0,1,.383-.461l8.656-8.656A3.075,3.075,0,0,1,14,6.5ZM32.5,16h27a.5.5,0,0,1,0,1h-27a.5.5,0,0,1,0-1Zm3.039,3H56.461l-2.09,4.707a8.982,8.982,0,0,1-3.594,4.063l-1.809,1.082A2.01,2.01,0,0,0,48,30.566v2.867a2.01,2.01,0,0,0,.969,1.715l1.809,1.086a8.909,8.909,0,0,1,2.863,2.746l-2.3-.918a13.986,13.986,0,0,0-10.715.012l-2.27.906a8.909,8.909,0,0,1,2.863-2.746l1.809-1.086A2.01,2.01,0,0,0,44,33.434V30.566a2.013,2.013,0,0,0-.973-1.715l-1.8-1.086A8.962,8.962,0,0,1,37.629,23.7ZM11,23a2,2,0,1,0,2,2A2,2,0,0,0,11,23Zm6,1a1,1,0,0,0,0,2H30a1,1,0,0,0,0-2Zm-6,5a2,2,0,1,0,2,2A2,2,0,0,0,11,29Zm6,1a1,1,0,0,0,0,2h9a1,1,0,0,0,0-2Zm13,0a1,1,0,0,0,0,2h4a1,1,0,0,0,0-2ZM11,35a2,2,0,1,0,2,2A2,2,0,0,0,11,35Zm6,1a1,1,0,0,0,0,2H31a1,1,0,0,0,0-2Zm28.918,3a13.638,13.638,0,0,1,4.711.926l4.344,1.742h.008L56.461,45H35.539l1.48-3.328,4.344-1.738A12.317,12.317,0,0,1,45.918,39ZM11,41a2,2,0,1,0,2,2A2,2,0,0,0,11,41Zm6,1a1,1,0,0,0,0,2H28a1,1,0,0,0,0-2Zm15.5,5h27a.5.5,0,0,1,0,1h-27a.5.5,0,0,1,0-1ZM7,52a1,1,0,0,0-1,1v2a1,1,0,0,0,2,0V53A1,1,0,0,0,7,52Zm5,0a1,1,0,0,0-1,1v2a1,1,0,0,0,2,0V53A1,1,0,0,0,12,52Zm5,0a1,1,0,0,0-1,1v2a1,1,0,0,0,2,0V53A1,1,0,0,0,17,52Zm5,0a1,1,0,0,0-1,1v2a1,1,0,0,0,2,0V53A1,1,0,0,0,22,52Zm5,0a1,1,0,0,0-1,1v2a1,1,0,0,0,2,0V53A1,1,0,0,0,27,52Zm5,0a1,1,0,0,0-1,1v2a1,1,0,0,0,2,0V53A1,1,0,0,0,32,52Zm5,0a1,1,0,0,0-1,1v2a1,1,0,0,0,2,0V53A1,1,0,0,0,37,52Zm5,0a1,1,0,0,0-1,1v2a1,1,0,0,0,2,0V53A1,1,0,0,0,42,52Zm0,0"/></g></svg>