<svg xmlns="http://www.w3.org/2000/svg" width="58" height="58" viewBox="0 0 58 58"><defs><style>.a{fill:#f1c40f;}</style></defs><g transform="translate(-2 -2)"><path class="a" d="M31,2A29,29,0,1,0,60,31,29.033,29.033,0,0,0,31,2Zm0,2A27,27,0,1,1,4,31,27.032,27.032,0,0,1,31,4Zm-.437,4.008A22.994,22.994,0,0,0,14.734,47.262a1,1,0,1,0,1.418-1.414A21,21,0,0,1,34.34,10.266a1,1,0,0,0,.316-1.977A22.574,22.574,0,0,0,30.563,8.008Zm8.1,1.379a1,1,0,0,0-.309,1.938,21.757,21.757,0,0,1,2.1.914.977.977,0,0,0,.449.109,1,1,0,0,0,.449-1.895,23.148,23.148,0,0,0-2.3-1A1.049,1.049,0,0,0,38.66,9.387Zm5.773,3.289a1,1,0,0,0-.5,1.777,20.685,20.685,0,0,1,1.91,1.7,21.014,21.014,0,0,1,0,29.7,1,1,0,0,0,0,1.418,1,1,0,0,0,1.418,0,23.036,23.036,0,0,0,0-32.531,24.17,24.17,0,0,0-2.094-1.855A1.013,1.013,0,0,0,44.434,12.676Zm-13.508,4.59a1,1,0,0,0-.926.625L26.977,25.3l-8.215.75a1,1,0,0,0-.57,1.75l6.2,5.422L22.488,41a1,1,0,0,0,1.5,1.09L30.926,37.8l6.938,4.293a1.012,1.012,0,0,0,.527.145.987.987,0,0,0,.586-.187A1,1,0,0,0,39.359,41l-1.9-7.781,6.2-5.422a1,1,0,0,0-.566-1.75l-8.219-.75-3.023-7.406A1,1,0,0,0,30.926,17.266Zm0,3.648,2.324,5.7a1.009,1.009,0,0,0,.84.621l6.5.59-4.9,4.285a1.006,1.006,0,0,0-.312,1L36.84,39.1l-5.387-3.332a1.026,1.026,0,0,0-.527-.148,1,1,0,0,0-.523.148L25.016,39.1l1.469-5.992a1.023,1.023,0,0,0-.312-1l-4.906-4.285,6.5-.59a1,1,0,0,0,.832-.621Zm-9.551,26.48a.992.992,0,0,0-.988.492l-1,1.734a1,1,0,1,0,1.727,1l1-1.734a1,1,0,0,0-.363-1.367A1.038,1.038,0,0,0,21.375,47.395Zm19.25,0a1.014,1.014,0,0,0-.375.125,1,1,0,0,0-.363,1.371l1,1.73a1,1,0,0,0,.863.5.965.965,0,0,0,.5-.137.993.993,0,0,0,.363-1.363l-1-1.73A1,1,0,0,0,40.625,47.395ZM25.816,49.344a1.007,1.007,0,0,0-.832.734l-.516,1.934a1,1,0,0,0,.707,1.223.983.983,0,0,0,.262.035,1.007,1.007,0,0,0,.965-.742l.52-1.934a1,1,0,0,0-.707-1.223A.989.989,0,0,0,25.816,49.344Zm10.371,0a1.013,1.013,0,0,0-.4.027,1,1,0,0,0-.707,1.223l.52,1.934a1,1,0,0,0,.965.742.983.983,0,0,0,.262-.035,1,1,0,0,0,.707-1.223l-.516-1.934A1.007,1.007,0,0,0,36.188,49.344ZM31,50a1,1,0,0,0-1,1v2a1,1,0,0,0,2,0V51A1,1,0,0,0,31,50Zm0,0"/></g></svg>
