<svg xmlns="http://www.w3.org/2000/svg" width="60" height="60" viewBox="0 0 60 60"><defs><style>.a{fill:#fff;}</style></defs><g transform="translate(-2 -2)"><path class="a" d="M29.563,2a2.989,2.989,0,0,0-2.91,2.273l-1.73,6.891a20.89,20.89,0,0,0-2.641,1.113L16.176,8.609a3,3,0,0,0-3.664.453L9.063,12.512a3,3,0,0,0-.453,3.664l3.66,6.105a21.016,21.016,0,0,0-1.1,2.645l-6.9,1.726A2.992,2.992,0,0,0,2,29.563v4.875a2.989,2.989,0,0,0,2.273,2.91l6.891,1.73a20.743,20.743,0,0,0,1.113,2.641L8.609,47.824a3,3,0,0,0,.453,3.664l3.449,3.449a3,3,0,0,0,3.664.453l6.105-3.66a20.81,20.81,0,0,0,2.645,1.1l1.726,6.9A2.993,2.993,0,0,0,29.563,62h4.875a2.99,2.99,0,0,0,2.91-2.27l1.73-6.895a20.891,20.891,0,0,0,2.641-1.113l6.105,3.668a3,3,0,0,0,3.664-.453l3.449-3.449a3,3,0,0,0,.453-3.664l-3.66-6.105a21.009,21.009,0,0,0,1.1-2.645l6.9-1.727A2.992,2.992,0,0,0,62,34.438V29.563a2.993,2.993,0,0,0-2.27-2.91l-6.895-1.73a20.736,20.736,0,0,0-1.113-2.641l3.668-6.105a3,3,0,0,0-.453-3.664L51.488,9.063a3,3,0,0,0-3.664-.453l-6.105,3.66a20.812,20.812,0,0,0-2.645-1.1l-1.727-6.9A2.992,2.992,0,0,0,34.438,2Zm0,2h4.875a1,1,0,0,1,.969.758l1.727,6.9a2,2,0,0,0,1.3,1.4,19.762,19.762,0,0,1,2.394,1,1.982,1.982,0,0,0,1.918-.074l6.109-3.66a.992.992,0,0,1,1.219.148l3.449,3.445a1,1,0,0,1,.149,1.223l-3.66,6.106a2,2,0,0,0-.074,1.922,19.351,19.351,0,0,1,1,2.395,1.992,1.992,0,0,0,1.4,1.3l6.895,1.726a1,1,0,0,1,.762.973v4.875a1,1,0,0,1-.758.969l-6.9,1.727a2,2,0,0,0-1.4,1.3,18.771,18.771,0,0,1-1,2.394,1.993,1.993,0,0,0,.074,1.918l3.664,6.109a1,1,0,0,1-.148,1.219l-3.449,3.449a1,1,0,0,1-1.223.149l-6.105-3.66a2,2,0,0,0-1.922-.074,19.864,19.864,0,0,1-2.394,1,1.992,1.992,0,0,0-1.3,1.4L35.41,59.238a1,1,0,0,1-.973.762H29.563a1,1,0,0,1-.969-.758l-1.727-6.9a2,2,0,0,0-1.3-1.4,19.768,19.768,0,0,1-2.395-1,2.035,2.035,0,0,0-.9-.211,1.944,1.944,0,0,0-1.019.285l-6.109,3.66a.993.993,0,0,1-1.219-.149l-3.449-3.445a1,1,0,0,1-.148-1.223l3.66-6.105a2,2,0,0,0,.074-1.922,19.351,19.351,0,0,1-1-2.394,1.992,1.992,0,0,0-1.4-1.3l-6.9-1.727A1,1,0,0,1,4,34.438V29.563a1,1,0,0,1,.758-.973l6.9-1.726a1.992,1.992,0,0,0,1.4-1.3,18.771,18.771,0,0,1,1-2.395,2,2,0,0,0-.074-1.922l-3.664-6.106a1.01,1.01,0,0,1,.149-1.223l3.449-3.445a1,1,0,0,1,1.223-.148l6.106,3.66a2,2,0,0,0,1.922.074,19.254,19.254,0,0,1,2.395-1,2,2,0,0,0,1.3-1.4l1.726-6.9A1,1,0,0,1,29.563,4Zm4.313,14.125a1,1,0,0,0-.266,1.984,11.992,11.992,0,0,1,2.121.48,1.035,1.035,0,0,0,.3.051,1,1,0,0,0,.313-1.953A13.744,13.744,0,0,0,33.875,18.125Zm-4.832.262a.988.988,0,0,0-.4.02,14,14,0,0,0-3.2,25.969.971.971,0,0,0,.469.117,1,1,0,0,0,.469-1.883,12,12,0,0,1,2.738-22.262,1,1,0,0,0-.082-1.961Zm12.148,3.422a1,1,0,0,0-.707.293L39.07,23.516a1,1,0,1,0,1.414,1.414L41.9,23.516a1,1,0,0,0-.707-1.707ZM32,24a8,8,0,1,0,8,8A8.01,8.01,0,0,0,32,24Zm11.965,1.922a.964.964,0,0,0-.387.078l-1.844.781a1,1,0,0,0,.391,1.922,1.055,1.055,0,0,0,.391-.078l1.844-.781a1,1,0,0,0,.527-1.312A.989.989,0,0,0,43.965,25.922ZM32,26a6,6,0,1,1-6,6A6.007,6.007,0,0,1,32,26Zm0,4a2,2,0,1,0,2,2A2,2,0,0,0,32,30Zm11,1a1,1,0,0,0,0,2h2a1,1,0,0,0,0-2Zm-.816,4.121a1,1,0,0,0-.359,1.926l1.855.75a.967.967,0,0,0,.371.074,1,1,0,0,0,.375-1.93l-1.852-.75A.985.985,0,0,0,42.184,35.121Zm-2.406,3.656a1,1,0,0,0-.707,1.707L40.484,41.9A1,1,0,1,0,41.9,40.484L40.484,39.07A1,1,0,0,0,39.777,38.777ZM36.3,41.125a1.071,1.071,0,0,0-.391.078,1,1,0,0,0-.531,1.313l.781,1.844a1.01,1.01,0,0,0,.922.609,1.04,1.04,0,0,0,.391-.078A1,1,0,0,0,38,43.578l-.781-1.844A1,1,0,0,0,36.3,41.125ZM32,42a1,1,0,0,0-1,1v2a1,1,0,0,0,2,0V43A1,1,0,0,0,32,42Zm0,0"/></g></svg>