<?xml version="1.0" encoding="UTF-8"?>
<svg xmlns="http://www.w3.org/2000/svg" xmlns:xlink="http://www.w3.org/1999/xlink" width="50pt" height="50pt" viewBox="0 0 50 50" version="1.1">
<g id="surface400168">
<path style=" stroke:none;fill-rule:nonzero;fill:rgb(1,1,1);fill-opacity:1;" d="M 14 0 C 12.089844 0 10.242188 0.320312 8.5 1.085938 C 8.164062 1.21875 7.925781 1.527344 7.882812 1.890625 C 7.835938 2.253906 7.992188 2.609375 8.289062 2.820312 C 8.582031 3.035156 8.972656 3.070312 9.300781 2.914062 C 10.757812 2.277344 12.3125 2 14 2 C 20.664062 2 26 7.335938 26 14 C 26 20.664062 20.664062 26 14 26 C 7.335938 26 2 20.664062 2 14 C 2 10.960938 3.164062 8.242188 5 6.085938 L 5 8.699219 C 4.996094 9.058594 5.183594 9.394531 5.496094 9.578125 C 5.808594 9.757812 6.191406 9.757812 6.503906 9.578125 C 6.816406 9.394531 7.003906 9.058594 7 8.699219 L 7 3 L 1.300781 3 C 0.941406 2.996094 0.605469 3.183594 0.421875 3.496094 C 0.242188 3.808594 0.242188 4.191406 0.421875 4.503906 C 0.605469 4.816406 0.941406 5.003906 1.300781 5 L 3.292969 5 C 1.285156 7.449219 0 10.554688 0 14 C 0 21.738281 6.261719 28 14 28 C 21.738281 28 28 21.738281 28 14 C 28 6.261719 21.738281 0 14 0 Z M 38 0 C 36.90625 0 36 0.90625 36 2 L 36 4 L 26.46875 4 C 26.976562 4.628906 27.429688 5.300781 27.835938 6 L 36 6 L 36 8 C 36 9.09375 36.90625 10 38 10 L 40 10 C 41.09375 10 42 9.09375 42 8 L 42 6 L 47 6 L 47 13 L 29.949219 13 C 29.96875 13.332031 30 13.660156 30 14 C 30 14.339844 29.96875 14.667969 29.949219 15 L 47 15 L 47 46 L 5 46 L 5 27.21875 C 4.285156 26.730469 3.625 26.179688 3 25.589844 L 3 46 C 3 47.160156 3.839844 48 5 48 L 47 48 C 48.160156 48 49 47.160156 49 46 L 49 6 C 49 4.839844 48.160156 4 47 4 L 42 4 L 42 2 C 42 0.90625 41.09375 0 40 0 Z M 38 2 L 40 2 L 40 8 L 38 8 Z M 13.984375 4.984375 C 13.433594 4.996094 12.992188 5.449219 13 6 L 13 13.839844 C 12.96875 14.054688 13.003906 14.273438 13.109375 14.464844 C 13.199219 14.644531 13.34375 14.792969 13.519531 14.890625 L 17.402344 17.800781 C 17.84375 18.132812 18.46875 18.042969 18.800781 17.597656 C 19.132812 17.15625 19.042969 16.53125 18.597656 16.199219 L 15 13.5 L 15 6 C 15.003906 5.730469 14.898438 5.46875 14.707031 5.277344 C 14.515625 5.085938 14.253906 4.980469 13.984375 4.984375 Z M 29.1875 19 C 28.960938 19.691406 28.679688 20.355469 28.363281 21 L 32 21 L 32 26 L 25 26 L 25 33 L 20 33 L 20 28.824219 C 19.355469 29.085938 18.683594 29.296875 18 29.472656 L 18 33 L 13 33 L 13 29.949219 C 12.320312 29.90625 11.652344 29.832031 11 29.707031 L 11 42 L 41 42 L 41 19 Z M 34 21 L 39 21 L 39 26 L 34 26 Z M 27 28 L 32 28 L 32 33 L 27 33 Z M 34 28 L 39 28 L 39 33 L 34 33 Z M 13 35 L 18 35 L 18 40 L 13 40 Z M 20 35 L 25 35 L 25 40 L 20 40 Z M 27 35 L 32 35 L 32 40 L 27 40 Z M 34 35 L 39 35 L 39 40 L 34 40 Z M 34 35 "/>
</g>
</svg>
