<?xml version="1.0" encoding="UTF-8"?>
<svg xmlns="http://www.w3.org/2000/svg" xmlns:xlink="http://www.w3.org/1999/xlink" width="64pt" height="64pt" viewBox="0 0 64 64" version="1.1">
<g id="surface400348">
<path style=" stroke:none;fill-rule:nonzero;fill:rgb(94.509804%,76.862745%,5.882353%);fill-opacity:1;" d="M 8 4 C 6.300781 4 5 5.300781 5 7 L 5 57 C 5 58.628906 6.199219 59.890625 7.800781 59.988281 C 7.859375 60 7.929688 60 8 60 L 54 60 C 56.207031 60 58 58.207031 58 56 L 58 21 C 58 18.792969 56.207031 17 54 17 L 39 17 L 39 7 C 39 5.300781 37.699219 4 36 4 Z M 8 6 L 36 6 C 36.601562 6 37 6.398438 37 7 L 37 17 L 34 17 C 31.792969 17 30 18.792969 30 21 L 30 25.777344 C 28.003906 24.058594 25.1875 23 22 23 C 17.601562 23 13.898438 25.101562 12.097656 28 L 10 28 C 9.398438 28 9 28.398438 9 29 C 9 29.601562 9.398438 30 10 30 L 11.300781 30 C 11.101562 30.601562 11 31.300781 11 32 C 11 32.699219 11.101562 33.398438 11.300781 34 L 10 34 C 9.398438 34 9 34.398438 9 35 C 9 35.601562 9.398438 36 10 36 L 12.097656 36 C 13.898438 39 17.601562 41 22 41 C 25.195312 41 28.007812 39.886719 30 38.171875 L 30 56 C 30 56.730469 30.210938 57.410156 30.554688 58 L 8 58 C 7.398438 58 7 57.601562 7 57 L 7 7 C 7 6.398438 7.398438 6 8 6 Z M 11 8 C 10.398438 8 10 8.398438 10 9 L 10 14 C 10 14.601562 10.398438 15 11 15 C 11.601562 15 12 14.601562 12 14 L 12 9 C 12 8.398438 11.601562 8 11 8 Z M 33 8 C 32.398438 8 32 8.398438 32 9 L 32 14 C 32 14.601562 32.398438 15 33 15 C 33.601562 15 34 14.601562 34 14 L 34 9 C 34 8.398438 33.601562 8 33 8 Z M 23 10 C 20.800781 10 19 11.800781 19 14 C 19 16.199219 20.800781 18 23 18 C 25.199219 18 27 16.199219 27 14 C 27 11.800781 25.199219 10 23 10 Z M 23 11.800781 C 24.199219 11.800781 25.199219 12.800781 25.199219 14 C 25.199219 15.199219 24.199219 16.199219 23 16.199219 C 21.800781 16.199219 20.800781 15.199219 20.800781 14 C 20.800781 12.800781 21.800781 11.800781 23 11.800781 Z M 10 18 C 9.398438 18 9 18.398438 9 19 C 9 19.601562 9.398438 20 10 20 L 12 20 C 12.601562 20 13 19.601562 13 19 C 13 18.398438 12.601562 18 12 18 Z M 34 19 L 45 19 L 45 58 L 34 58 C 32.898438 58 32 57.101562 32 56 L 32 21 C 32 19.898438 32.898438 19 34 19 Z M 47 19 L 51 19 L 51 58 L 47 58 Z M 53 19 L 54 19 C 55.101562 19 56 19.898438 56 21 L 56 56 C 56 57.101562 55.101562 58 54 58 L 53 58 Z M 40 21 C 39.398438 21 39 21.398438 39 22 L 39 36 C 39 36.601562 39.398438 37 40 37 C 40.601562 37 41 36.601562 41 36 L 41 22 C 41 21.398438 40.601562 21 40 21 Z M 10 23 C 9.398438 23 9 23.398438 9 24 C 9 24.601562 9.398438 25 10 25 L 12 25 C 12.601562 25 13 24.601562 13 24 C 13 23.398438 12.601562 23 12 23 Z M 22 24.902344 C 25.445312 24.902344 28.425781 26.363281 30 28.511719 L 30 35.492188 C 29.925781 35.59375 29.851562 35.699219 29.769531 35.800781 C 29.300781 36.371094 28.730469 36.890625 28.070312 37.320312 C 27.390625 37.789062 26.628906 38.179688 25.789062 38.460938 C 25.179688 38.679688 24.53125 38.847656 23.859375 38.949219 L 23.847656 38.949219 C 23.488281 39.007812 23.121094 39.050781 22.75 39.070312 C 22.5 39.089844 22.25 39.097656 22 39.097656 C 16.898438 39.097656 12.800781 35.898438 12.800781 32 C 12.800781 31.738281 12.820312 31.480469 12.859375 31.222656 C 12.890625 30.941406 12.949219 30.671875 13.039062 30.410156 C 13.179688 29.898438 13.398438 29.421875 13.679688 28.960938 C 14.078125 28.320312 14.609375 27.71875 15.230469 27.199219 C 15.839844 26.679688 16.550781 26.242188 17.339844 25.890625 C 18.699219 25.261719 20.300781 24.902344 22 24.902344 Z M 10 39 C 9.398438 39 9 39.398438 9 40 C 9 40.601562 9.398438 41 10 41 L 12 41 C 12.601562 41 13 40.601562 13 40 C 13 39.398438 12.601562 39 12 39 Z M 40 41 C 39.398438 41 39 41.398438 39 42 L 39 46 C 39 46.601562 39.398438 47 40 47 C 40.601562 47 41 46.601562 41 46 L 41 42 C 41 41.398438 40.601562 41 40 41 Z M 10 44 C 9.398438 44 9 44.398438 9 45 C 9 45.601562 9.398438 46 10 46 L 12 46 C 12.601562 46 13 45.601562 13 45 C 13 44.398438 12.601562 44 12 44 Z M 23 46 C 20.800781 46 19 47.800781 19 50 C 19 52.199219 20.800781 54 23 54 C 25.199219 54 27 52.199219 27 50 C 27 47.800781 25.199219 46 23 46 Z M 23 47.800781 C 24.199219 47.800781 25.199219 48.800781 25.199219 50 C 25.199219 51.199219 24.199219 52.199219 23 52.199219 C 21.800781 52.199219 20.800781 51.199219 20.800781 50 C 20.800781 48.800781 21.800781 47.800781 23 47.800781 Z M 11 49 C 10.398438 49 10 49.398438 10 50 L 10 55 C 10 55.601562 10.398438 56 11 56 C 11.601562 56 12 55.601562 12 55 L 12 50 C 12 49.398438 11.601562 49 11 49 Z M 11 49 "/>
</g>
</svg>
