<svg xmlns="http://www.w3.org/2000/svg" width="52" height="52" viewBox="0 0 52 52"><defs><style>.a{fill:#fff;}</style></defs><g transform="translate(-6 -6)"><path class="a" d="M8,6A2,2,0,0,0,6,8V56a2,2,0,0,0,2,2H56a2,2,0,0,0,2-2V8a2,2,0,0,0-2-2ZM8,8H31V56H8ZM33,8H56V56H33ZM19,12.285c-3.937,0-6,4.1-6,8.152a6.7,6.7,0,0,0,3,5.68V43a3,3,0,0,0,6,0V26.117a6.7,6.7,0,0,0,3-5.68C25,16.512,23.121,12.285,19,12.285ZM37,13a1,1,0,0,0,0,2H52a1,1,0,0,0,0-2ZM19,14.285c3.164,0,4,4.023,4,6.152a4.611,4.611,0,0,1-2.437,4.2,1,1,0,0,0-.562.9V43a1,1,0,0,1-2,0V25.531a1,1,0,0,0-.562-.9A4.611,4.611,0,0,1,15,20.438C15,17.965,16.066,14.285,19,14.285ZM37,19a1,1,0,0,0,0,2H52a1,1,0,0,0,0-2Zm0,6a1,1,0,0,0,0,2H52a1,1,0,0,0,0-2Zm0,6a1,1,0,0,0,0,2H52a1,1,0,0,0,0-2Zm0,6a1,1,0,0,0,0,2H52a1,1,0,0,0,0-2Zm0,6a1,1,0,0,0,0,2H52a1,1,0,0,0,0-2ZM11,50a1,1,0,0,0-1,1v2a1,1,0,0,0,2,0V51A1,1,0,0,0,11,50Zm5,0a1,1,0,0,0-1,1v2a1,1,0,0,0,2,0V51A1,1,0,0,0,16,50Zm5,0a1,1,0,0,0-1,1v2a1,1,0,0,0,2,0V51A1,1,0,0,0,21,50Zm5,0a1,1,0,0,0-1,1v2a1,1,0,0,0,2,0V51A1,1,0,0,0,26,50Zm12,0a1,1,0,0,0-1,1v2a1,1,0,0,0,2,0V51A1,1,0,0,0,38,50Zm5,0a1,1,0,0,0-1,1v2a1,1,0,0,0,2,0V51A1,1,0,0,0,43,50Zm5,0a1,1,0,0,0-1,1v2a1,1,0,0,0,2,0V51A1,1,0,0,0,48,50Zm5,0a1,1,0,0,0-1,1v2a1,1,0,0,0,2,0V51A1,1,0,0,0,53,50Zm0,0"/></g></svg>