<svg xmlns="http://www.w3.org/2000/svg" width="53" height="56" viewBox="0 0 53 56"><defs><style>.a{fill:#fff;}</style></defs><g transform="translate(-5 -4)"><path class="a" d="M8,4A2.947,2.947,0,0,0,5,7V57a2.939,2.939,0,0,0,2.8,2.988A1.074,1.074,0,0,0,8,60H54a4,4,0,0,0,4-4V21a4,4,0,0,0-4-4H39V7a2.947,2.947,0,0,0-3-3ZM8,6H36a.943.943,0,0,1,1,1V17H34a4,4,0,0,0-4,4v4.777A12.217,12.217,0,0,0,22,23a11.574,11.574,0,0,0-9.9,5H10a1,1,0,0,0,0,2h1.3a6.8,6.8,0,0,0,0,4H10a1,1,0,0,0,0,2h2.1c1.8,3,5.5,5,9.9,5a12.245,12.245,0,0,0,8-2.828V56a3.961,3.961,0,0,0,.555,2H8a.943.943,0,0,1-1-1V7A.943.943,0,0,1,8,6Zm3,2a.943.943,0,0,0-1,1v5a.943.943,0,0,0,1,1,.943.943,0,0,0,1-1V9A.943.943,0,0,0,11,8ZM33,8a.943.943,0,0,0-1,1v5a1,1,0,0,0,2,0V9A.943.943,0,0,0,33,8ZM23,10a4,4,0,1,0,4,4A4.013,4.013,0,0,0,23,10Zm0,1.8A2.2,2.2,0,1,1,20.8,14,2.219,2.219,0,0,1,23,11.8ZM10,18a1,1,0,0,0,0,2h2a1,1,0,0,0,0-2Zm24,1H45V58H34a2,2,0,0,1-2-2V21A2,2,0,0,1,34,19Zm13,0h4V58H47Zm6,0h1a2,2,0,0,1,2,2V56a2,2,0,0,1-2,2H53ZM40,21a.943.943,0,0,0-1,1V36a1,1,0,0,0,2,0V22A.943.943,0,0,0,40,21ZM10,23a1,1,0,0,0,0,2h2a1,1,0,0,0,0-2Zm12,1.9a9.882,9.882,0,0,1,8,3.609v6.98c-.074.1-.148.207-.23.309a7.493,7.493,0,0,1-1.7,1.52,9.1,9.1,0,0,1-2.281,1.141,10.257,10.257,0,0,1-1.93.488h-.012a10.133,10.133,0,0,1-1.1.121c-.25.02-.5.027-.75.027-5.1,0-9.2-3.2-9.2-7.1a5.163,5.163,0,0,1,.059-.777,3.762,3.762,0,0,1,.18-.812,5.636,5.636,0,0,1,.641-1.449A7.475,7.475,0,0,1,15.231,27.2a8.693,8.693,0,0,1,2.109-1.309A11.15,11.15,0,0,1,22,24.9ZM10,39a1,1,0,0,0,0,2h2a1,1,0,0,0,0-2Zm30,2a.943.943,0,0,0-1,1v4a1,1,0,0,0,2,0V42A.943.943,0,0,0,40,41ZM10,44a1,1,0,0,0,0,2h2a1,1,0,0,0,0-2Zm13,2a4,4,0,1,0,4,4A4.013,4.013,0,0,0,23,46Zm0,1.8A2.2,2.2,0,1,1,20.8,50,2.219,2.219,0,0,1,23,47.8ZM11,49a.943.943,0,0,0-1,1v5a.943.943,0,0,0,1,1,.943.943,0,0,0,1-1V50A.943.943,0,0,0,11,49Zm0,0"/></g></svg>