<svg xmlns="http://www.w3.org/2000/svg" width="48" height="52" viewBox="0 0 48 52"><defs><style>.a{fill:#fff;}</style></defs><g transform="translate(-8 -6)"><path class="a" d="M11,6A2.947,2.947,0,0,0,8,9V51a2.947,2.947,0,0,0,3,3h1v1a2.714,2.714,0,0,0,.9,2.1A2.865,2.865,0,0,0,15,58H53a2.947,2.947,0,0,0,3-3V13a2.947,2.947,0,0,0-3-3H52V9a2.947,2.947,0,0,0-3-3Zm0,2H49a.943.943,0,0,1,1,1V51a.943.943,0,0,1-1,1H11a1,1,0,0,1-1-1V9A.943.943,0,0,1,11,8Zm4,2a3.084,3.084,0,0,0-3,3V39a3.038,3.038,0,0,0,.9,2.1A2.714,2.714,0,0,0,15,42H45a2.714,2.714,0,0,0,2.1-.9A2.865,2.865,0,0,0,48,39V13a3.038,3.038,0,0,0-.9-2.1A2.714,2.714,0,0,0,45,10Zm0,2H45a.907.907,0,0,1,.7.3c.2.1.3.5.3.7V39.1a1.085,1.085,0,0,1-.3.7.9.9,0,0,1-.7.3H15a.9.9,0,0,1-.7-.3c-.2-.1-.3-.5-.3-.7V13a1.084,1.084,0,0,1,.3-.7A.907.907,0,0,1,15,12Zm37,0h1a.943.943,0,0,1,1,1V55a.943.943,0,0,1-1,1H15a1.028,1.028,0,0,1-1-1V54H49a2.947,2.947,0,0,0,3-3ZM19,14a2.947,2.947,0,0,0-3,3,3,3,0,0,0,6,0A2.947,2.947,0,0,0,19,14Zm14,1a4.013,4.013,0,0,0-4,4v.2A7.161,7.161,0,0,0,26,25a6.924,6.924,0,0,0,6,6.9V37a1,1,0,0,0,2,0V31.9A7,7,0,0,0,40,25a6.846,6.846,0,0,0-3-5.7V19A4.013,4.013,0,0,0,33,15Zm-14,.6A1.4,1.4,0,1,1,17.6,17,1.37,1.37,0,0,1,19,15.6Zm14,1a2.179,2.179,0,0,1,2.1,2.1,4.534,4.534,0,0,0-.1.5,1.155,1.155,0,0,0,.5,1.2,5.55,5.55,0,0,1,2.8,4.7A5.185,5.185,0,0,1,34,30.3V28a1,1,0,0,0-2,0v2.3a5.263,5.263,0,0,1-4.3-5.2,5.55,5.55,0,0,1,2.8-4.7,1.089,1.089,0,0,0,.5-1.2.886.886,0,0,1-.1-.5A2.111,2.111,0,0,1,33,16.6ZM33,22a.943.943,0,0,0-1,1v2a1,1,0,0,0,2,0V23A.943.943,0,0,0,33,22ZM18,34a.943.943,0,0,0-1,1v2a1,1,0,0,0,2,0V35A.943.943,0,0,0,18,34Zm5,0a.943.943,0,0,0-1,1v2a1,1,0,0,0,2,0V35A.943.943,0,0,0,23,34Zm5,0a.943.943,0,0,0-1,1v2a1,1,0,0,0,2,0V35A.943.943,0,0,0,28,34Zm10,0a.943.943,0,0,0-1,1v2a1,1,0,0,0,2,0V35A.943.943,0,0,0,38,34Zm5,0a.943.943,0,0,0-1,1v2a1,1,0,0,0,2,0V35A.943.943,0,0,0,43,34ZM13,46a1,1,0,0,0,0,2h4a1,1,0,0,0,0-2Zm8,0a.943.943,0,0,0-1,1,1,1,0,0,0,1,1h8a.943.943,0,0,0,1-1,1,1,0,0,0-1-1Zm0,0"/></g></svg>