<svg xmlns="http://www.w3.org/2000/svg" width="50" height="64" viewBox="0 0 50 64"><defs><style>.a{fill:#f1c40f;}</style></defs><g transform="translate(-15 -8)"><path class="a" d="M25,8a5.015,5.015,0,0,0-5,5v3.762l-5,10V32a5.015,5.015,0,0,0,5,5V67a5.015,5.015,0,0,0,5,5H55a5.015,5.015,0,0,0,5-5V37a5.015,5.015,0,0,0,5-5V26.762l-5-10V13a5.015,5.015,0,0,0-5-5Zm0,2H55a2.986,2.986,0,0,1,3,3v3H22V13A2.986,2.986,0,0,1,25,10Zm6.945,2a1,1,0,1,0,1,1A1,1,0,0,0,31.945,12ZM36,12a1,1,0,1,0,0,2h8a1,1,0,1,0,0-2ZM21.617,18H58.383L63,27.238V32a3,3,0,0,1-6,0H55a3,3,0,0,1-6,0H47a3,3,0,0,1-6,0H39a3,3,0,0,1-6,0H31a3,3,0,0,1-6,0H23a3,3,0,0,1-6,0V27.238ZM20,27a1,1,0,1,0,1,1A1,1,0,0,0,20,27Zm4,0a1,1,0,1,0,1,1A1,1,0,0,0,24,27Zm4,0a1,1,0,1,0,1,1A1,1,0,0,0,28,27Zm4,0a1,1,0,1,0,1,1A1,1,0,0,0,32,27Zm4,0a1,1,0,1,0,1,1A1,1,0,0,0,36,27Zm4,0a1,1,0,1,0,1,1A1,1,0,0,0,40,27Zm4,0a1,1,0,1,0,1,1A1,1,0,0,0,44,27Zm4,0a1,1,0,1,0,1,1A1,1,0,0,0,48,27Zm4,0a1,1,0,1,0,1,1A1,1,0,0,0,52,27Zm4,0a1,1,0,1,0,1,1A1,1,0,0,0,56,27Zm4,0a1,1,0,1,0,1,1A1,1,0,0,0,60,27ZM24,34.84a4.783,4.783,0,0,0,8,0,4.783,4.783,0,0,0,8,0,4.783,4.783,0,0,0,8,0A4.919,4.919,0,0,0,52,37a4.991,4.991,0,0,0,4-2.035,5.139,5.139,0,0,0,2,1.6V60H22V36.539A5.287,5.287,0,0,0,24,34.84ZM26,39a1,1,0,1,0,1,1A1,1,0,0,0,26,39Zm0,4a1,1,0,1,0,1,1A1,1,0,0,0,26,43Zm0,4a1,1,0,1,0,1,1A1,1,0,0,0,26,47Zm0,4a1,1,0,1,0,1,1A1,1,0,0,0,26,51Zm0,4a1,1,0,1,0,1,1A1,1,0,0,0,26,55Zm-4,7H58v5a2.986,2.986,0,0,1-3,3H25a2.986,2.986,0,0,1-3-3Zm18,2a2,2,0,1,0,2,2A2,2,0,0,0,40,64Zm0,0"/></g></svg>