<svg xmlns="http://www.w3.org/2000/svg" width="65" height="67" viewBox="0 0 65 67"><defs><style>.a{fill:#fff;}</style></defs><g transform="translate(-5 -3)"><path class="a" d="M22,3a16.964,16.964,0,0,0-8.406,2.219l.988,1.742A15.067,15.067,0,1,1,9.2,12.2L11,14l1-6L6,9l1.75,1.75A16.957,16.957,0,0,0,10,32.031V65a5.015,5.015,0,0,0,5,5H65a5.015,5.015,0,0,0,5-5V15a5.015,5.015,0,0,0-5-5H58V7a2.014,2.014,0,0,0-2-2H54a2.014,2.014,0,0,0-2,2v3H35.719A16.966,16.966,0,0,0,22,3ZM54,7h2v8H54ZM27.168,10.445,22.125,18c-.039,0-.082,0-.125,0a2,2,0,0,0,0,4,2.072,2.072,0,0,0,.516-.066l4.777,4.773,1.414-1.414L23.93,20.516A1.908,1.908,0,0,0,24,20a2,2,0,0,0-.207-.887l5.039-7.559ZM36.992,12H52v3a2.014,2.014,0,0,0,2,2h2a2.014,2.014,0,0,0,2-2V12h7a2.986,2.986,0,0,1,3,3v7H38.871a16.664,16.664,0,0,0-1.879-10ZM38.5,24H68V65a2.986,2.986,0,0,1-3,3H15a2.986,2.986,0,0,1-3-3V33.719A16.948,16.948,0,0,0,38.5,24ZM40,32a1,1,0,1,0,1,1A1,1,0,0,0,40,32Zm4,0a1,1,0,1,0,1,1A1,1,0,0,0,44,32Zm4,0a1,1,0,1,0,1,1A1,1,0,0,0,48,32Zm4,0a1,1,0,1,0,1,1A1,1,0,0,0,52,32Zm4,0a1,1,0,1,0,1,1A1,1,0,0,0,56,32ZM40,36a1,1,0,1,0,1,1A1,1,0,0,0,40,36Zm8,0a1,1,0,1,0,1,1A1,1,0,0,0,48,36Zm8,0a1,1,0,1,0,1,1A1,1,0,0,0,56,36ZM24,40a1,1,0,1,0,1,1A1,1,0,0,0,24,40Zm4,0a1,1,0,1,0,1,1A1,1,0,0,0,28,40Zm4,0a1,1,0,1,0,1,1A1,1,0,0,0,32,40Zm4,0a1,1,0,1,0,1,1A1,1,0,0,0,36,40Zm4,0a1,1,0,1,0,1,1A1,1,0,0,0,40,40Zm4,0a1,1,0,1,0,1,1A1,1,0,0,0,44,40Zm4,0a1,1,0,1,0,1,1A1,1,0,0,0,48,40Zm4,0a1,1,0,1,0,1,1A1,1,0,0,0,52,40Zm4,0a1,1,0,1,0,1,1A1,1,0,0,0,56,40ZM24,44a1,1,0,1,0,1,1A1,1,0,0,0,24,44Zm8,0a1,1,0,1,0,1,1A1,1,0,0,0,32,44Zm8,0a1,1,0,1,0,1,1A1,1,0,0,0,40,44Zm8,0a1,1,0,1,0,1,1A1,1,0,0,0,48,44Zm8,0a1,1,0,1,0,1,1A1,1,0,0,0,56,44ZM24,48a1,1,0,1,0,1,1A1,1,0,0,0,24,48Zm4,0a1,1,0,1,0,1,1A1,1,0,0,0,28,48Zm4,0a1,1,0,1,0,1,1A1,1,0,0,0,32,48Zm4,0a1,1,0,1,0,1,1A1,1,0,0,0,36,48Zm4,0a1,1,0,1,0,1,1A1,1,0,0,0,40,48Zm4,0a1,1,0,1,0,1,1A1,1,0,0,0,44,48Zm4,0a1,1,0,1,0,1,1A1,1,0,0,0,48,48Zm4,0a1,1,0,1,0,1,1A1,1,0,0,0,52,48Zm4,0a1,1,0,1,0,1,1A1,1,0,0,0,56,48ZM24,52a1,1,0,1,0,1,1A1,1,0,0,0,24,52Zm8,0a1,1,0,1,0,1,1A1,1,0,0,0,32,52Zm8,0a1,1,0,1,0,1,1A1,1,0,0,0,40,52Zm8,0a1,1,0,1,0,1,1A1,1,0,0,0,48,52Zm8,0a1,1,0,1,0,1,1A1,1,0,0,0,56,52ZM24,56a1,1,0,1,0,1,1A1,1,0,0,0,24,56Zm4,0a1,1,0,1,0,1,1A1,1,0,0,0,28,56Zm4,0a1,1,0,1,0,1,1A1,1,0,0,0,32,56Zm4,0a1,1,0,1,0,1,1A1,1,0,0,0,36,56Zm4,0a1,1,0,1,0,1,1A1,1,0,0,0,40,56Zm4,0a1,1,0,1,0,1,1A1,1,0,0,0,44,56Zm4,0a1,1,0,1,0,1,1A1,1,0,0,0,48,56Zm4,0a1,1,0,1,0,1,1A1,1,0,0,0,52,56Zm4,0a1,1,0,1,0,1,1A1,1,0,0,0,56,56Zm0,0"/></g></svg>