<svg xmlns="http://www.w3.org/2000/svg" viewBox="0 0 1920 1080"><defs><style>.cls-1,.cls-9{fill:#bebec0;}.cls-2{fill:#95969a;}.cls-19,.cls-3{fill:#d4d4d5;}.cls-10,.cls-4{fill:#989c9f;}.cls-5{fill:#c7b299;}.cls-11,.cls-18,.cls-6{fill:#ee4037;}.cls-11,.cls-12,.cls-13,.cls-16,.cls-18,.cls-19,.cls-26,.cls-6{stroke:#44494d;stroke-width:15px;}.cls-6{stroke-linecap:round;}.cls-11,.cls-12,.cls-16,.cls-18,.cls-19,.cls-26,.cls-6{stroke-linejoin:round;}.cls-20,.cls-21,.cls-23,.cls-24,.cls-7,.cls-8{fill:#333;}.cls-10,.cls-11,.cls-14,.cls-22,.cls-23,.cls-24,.cls-8,.cls-9{fill-rule:evenodd;}.cls-20,.cls-21,.cls-23,.cls-8{opacity:0.2;}.cls-12,.cls-13{fill:#bce4e6;}.cls-13,.cls-20,.cls-23,.cls-24{stroke-miterlimit:10;}.cls-14,.cls-26{fill:#fcfcfc;}.cls-15{fill:#f6981f;}.cls-16{fill:none;}.cls-17,.cls-22,.cls-27{fill:#44494d;}.cls-20,.cls-23,.cls-24{stroke:#333;}.cls-25{fill:#fff;}.cls-27{font-size:48px;font-family:Colette-Black, Colette;font-weight:800;}</style></defs><title>404</title><g id="SIDEWALK"><g id="sidewalk-2" data-name="sidewalk"><rect class="cls-1" y="800.49" width="1920" height="279.51"/><rect class="cls-2" y="772.49" width="1920" height="28"/><rect class="cls-3" y="760.49" width="1920" height="12"/><g id="sidewalk-3" data-name="sidewalk"><rect class="cls-1" y="703.5" width="1920" height="57"/><polygon class="cls-4" points="190.25 703.5 145.32 760.5 150.43 760.5 195.36 703.5 190.25 703.5"/><polygon class="cls-4" points="1729.96 704 1774.89 761 1769.79 761 1724.85 704 1729.96 704"/></g><polygon class="cls-4" points="392.13 800.49 171.77 1080 196.81 1080 417.17 800.49 392.13 800.49"/><polygon class="cls-4" points="1526.87 800.49 1747.22 1080 1722.18 1080 1501.83 800.49 1526.87 800.49"/></g></g><g id="WALL"><rect class="cls-5" y="642.02" width="1920" height="61.48"/><rect class="cls-5" y="316.63" width="1920" height="61.48"/><rect class="cls-5" y="387.11" width="1920" height="245.92"/><rect class="cls-5" x="806.19" y="-806.19" width="307.63" height="1920" transform="translate(806.19 1113.81) rotate(-90)"/><g id="Isolation_Mode" data-name="Isolation Mode"><rect class="cls-2" x="781.01" y="149.31" width="307.63" height="9" transform="translate(781.01 1088.64) rotate(-90)"/><rect class="cls-2" x="801.69" y="149.31" width="307.63" height="9" transform="translate(801.69 1109.31) rotate(-90)"/><rect class="cls-2" y="633.02" width="1920" height="9"/><rect class="cls-2" y="378.11" width="1920" height="9"/><rect class="cls-2" y="307.63" width="1920" height="9"/><rect class="cls-2" x="134.15" y="149.31" width="307.63" height="9" transform="translate(134.15 441.78) rotate(-90)"/><rect class="cls-2" x="154.83" y="149.31" width="307.63" height="9" transform="translate(154.83 462.45) rotate(-90)"/><rect class="cls-2" x="1457.55" y="149.31" width="307.63" height="9" transform="translate(1457.55 1765.17) rotate(-90)"/><rect class="cls-2" x="1478.22" y="149.31" width="307.63" height="9" transform="translate(1478.22 1785.85) rotate(-90)"/></g><line class="cls-6" x1="1514.96" y1="527.8" x2="1650.4" y2="392.37"/><circle class="cls-7" cx="1700.06" cy="614.45" r="125.62"/><circle class="cls-3" cx="1700.06" cy="614.45" r="61.28"/><circle class="cls-7" cx="1700.06" cy="614.45" r="22.09"/></g><g id="shadows"><path class="cls-8" d="M347.94,800.49H51s46.62,129.13,414,129.13,918-48.62,918-48.62L1401,848.1l-91.92-39.22L379.39,688.61Z" transform="translate(0)"/><path class="cls-8" d="M1631.47,892l-84.37,25.8s-54.94,2.48-73.54-65.4S1631.47,892,1631.47,892" transform="translate(0)"/><path class="cls-9" d="M1564.62,532s19.76-138.62,133.12-110.6,168.51-85.11,168.51-85.11,63.58-118.09-42.89-150.7S1710,259.72,1710,259.72s9.19,100.82,91.91,47.82c0,0-43.4,68.51-126.25,68.51S1564.62,532,1564.62,532Z" transform="translate(0)"/><path class="cls-10" d="M1571.34,522s-40.84-89.49,40-118.62,71.61-117.85,71.61-117.85-5.89-95-84.2-71.39-41.72,89.2-41.72,89.2,44.27,55.61,75.13-8.85c0,0-.62,57.76-51.84,91.09S1571.34,522,1571.34,522Z" transform="translate(0)"/></g><g id="TRUCK"><g id="TRUCK-2" data-name="TRUCK"><path class="cls-11" d="M1514.5,522.89l-78.17-331.17L339.75,116,295,764.42l114.12,7.89c.05-1.38.11-2.77.21-4.15a125.32,125.32,0,1,1,250,17.27c-.09,1.39-.22,2.77-.36,4.14l696.39,48.11c.05-1.38.12-2.77.21-4.15a125.32,125.32,0,1,1,250,17.27q-.15,2.09-.36,4.14l57,3.94L1678.92,618Z" transform="translate(0)"/><polygon class="cls-11" points="1472.25 205.24 307.71 124.8 310.56 83.53 1460.96 163 1472.25 205.24"/><g id="DOOR"><rect class="cls-6" x="1092.32" y="188.49" width="252.77" height="638.98" transform="translate(37.91 -82.78) rotate(3.95)"/><rect class="cls-6" x="1113.25" y="189.21" width="252.77" height="31.4" transform="translate(17.07 -84.94) rotate(3.95)"/><ellipse class="cls-12" cx="1280.5" cy="491.43" rx="6.89" ry="40.6" transform="translate(701.99 1735.02) rotate(-86.05)"/><path class="cls-13" d="M1131.2,241.63h194.55a5.36,5.36,0,0,1,5.36,5.36V446.9a0,0,0,0,1,0,0H1125.84a0,0,0,0,1,0,0V247a5.36,5.36,0,0,1,5.36-5.36Z" transform="translate(26.65 -83.84) rotate(3.95)"/><polygon class="cls-14" points="1263.22 251.46 1205.55 298.63 1263.76 307.63 1130.29 387.44 1127.17 432.47 1310.89 295.96 1256.2 289.34 1304.21 254.29 1263.22 251.46"/></g><rect class="cls-15" x="1563.27" y="641.29" width="59.74" height="29.11" rx="3" transform="translate(48.99 -108.23) rotate(3.95)"/><g id="DriverWindow"><path class="cls-12" d="M1381.34,265.36l-15.55,225.06,111.57,7.7-57.62-234.2a13.39,13.39,0,0,0-12.07-10.16l-12.05-.83A13.38,13.38,0,0,0,1381.34,265.36Z" transform="translate(0)"/><line class="cls-16" x1="1514.5" y1="522.89" x2="1501.03" y2="717.95"/></g><g id="pickup_window" data-name="pickup window"><rect class="cls-17" x="455.65" y="327.56" width="513.72" height="226.49" transform="translate(32.07 -48.05) rotate(3.95)"/><rect class="cls-18" x="467.39" y="213.59" width="513.72" height="114.37" transform="translate(20.38 -49.27) rotate(3.95)"/><path class="cls-18" d="M1006.86,329l-570-39.37s0,0,0,0l37.63-100.27,508.91,35.16,23.49,104.49Z" transform="translate(0)"/><rect class="cls-18" x="448.58" y="532.35" width="513.72" height="21.45" transform="translate(39.1 -47.32) rotate(3.95)"/></g><rect class="cls-19" x="263.82" y="740.51" width="115.66" height="43.19" transform="translate(53.29 -20.35) rotate(3.95)"/><rect class="cls-20" x="718.91" y="69.34" width="3.7" height="498.51" transform="translate(353.25 1015.69) rotate(-86.05)"/><path class="cls-21" d="M402,763.71s20.58-127.57,139.28-119.37S671.05,774.19,666.42,782l9.68.67s2.72-128.28-134.23-146.45c0,0-127.25-10.32-147,127Z" transform="translate(0)"/><path class="cls-21" d="M1349.56,829.17s20.58-127.57,139.28-119.37S1618.58,839.64,1614,847.43l9.68.67s2.72-128.29-134.23-146.45c0,0-127.25-10.33-147,127Z" transform="translate(0)"/></g><path class="cls-22" d="M657.49,785.3A125.62,125.62,0,0,0,406.85,768C406.38,774.76,657,792.58,657.49,785.3Z" transform="translate(0)"/><path class="cls-22" d="M1603.49,850.65a125.62,125.62,0,0,0-250.64-17.31C1352.38,840.11,1603,857.93,1603.49,850.65Z" transform="translate(0)"/><circle class="cls-7" cx="530.26" cy="804.3" r="125.62"/><circle class="cls-3" cx="530.26" cy="804.3" r="61.28"/><circle class="cls-19" cx="1490.48" cy="870.64" r="39.77"/><rect class="cls-19" x="1633.92" y="821.16" width="56.68" height="68.94" transform="translate(62.92 -112.52) rotate(3.95)"/><polygon class="cls-14" points="1439.62 377.52 1376.74 441.26 1375.1 464.95 1439.62 377.52"/><polygon class="cls-8" points="1462.48 196.67 315.55 118.2 316.49 104.67 1458.68 183.58 1462.48 196.67"/><rect class="cls-21" x="763.52" y="487.62" width="622.72" height="19.91" transform="translate(504.41 1535.61) rotate(-86.05)"/><rect class="cls-21" x="36.22" y="424.39" width="597.45" height="18.8" transform="translate(-120.9 738.04) rotate(-86.05)"/><polygon class="cls-21" points="448.01 542.41 446.66 562.05 959.15 597.45 960.31 580.64 448.01 542.41"/><polygon class="cls-23" points="456.44 257.66 447.55 282.64 996.7 320.57 989.8 294.51 987.13 310.93 458.86 274.44 456.44 257.66"/><path class="cls-24" d="M823.53,71.11" transform="translate(0)"/><path class="cls-24" d="M788.1,57.91" transform="translate(0)"/><g id="Isolation_Mode-2" data-name="Isolation Mode"><circle class="cls-7" cx="529.05" cy="804.3" r="22.09"/></g></g><g id="TEXT_SIGN" data-name="TEXT &amp; SIGN"><path class="cls-25" d="M583,459.21l-15.5-5.58a62,62,0,0,0-16.64-3.47,101.2,101.2,0,0,0-13.28,0,43.33,43.33,0,0,0-14,3.34l-1-.07-4.54-10.12.09-1.22q11.37-11.79,22.1-23.92a261.25,261.25,0,0,0,19.27-24.5,155.67,155.67,0,0,0,14.09-24.75,73.1,73.1,0,0,0,6.43-24.68,63.9,63.9,0,0,0,.07-7.83,61.37,61.37,0,0,0-.91-7.78,33.9,33.9,0,0,1,6.24-.77,59,59,0,0,1,6.3.09,29.12,29.12,0,0,1,10.11,2.38,21.33,21.33,0,0,1,7.09,5.1,18.71,18.71,0,0,1,4.07,7.21,23.45,23.45,0,0,1,.92,8.57,35.86,35.86,0,0,1-3.82,13,87.54,87.54,0,0,1-8.79,14.12,168.32,168.32,0,0,1-12.3,14.47q-6.88,7.28-14.29,14t-14.86,12.64q-7.47,5.94-14,10.37l.19.75a67.35,67.35,0,0,1,10.39-2.38,53.07,53.07,0,0,1,12.1-.53,71.08,71.08,0,0,1,12.51,2.13c4.45,1.13,8.83,2.27,13.16,3.39l24.41-56.74,16,1.15-16.48,57.07a36.57,36.57,0,0,0,8.3-3.87,47.22,47.22,0,0,0,8.38-6.8l.7.54A30.83,30.83,0,0,1,638,431.6a24.5,24.5,0,0,1,.49,6.77,22.75,22.75,0,0,1-2.69,9.29,26.32,26.32,0,0,1-6.18,7.57,34.05,34.05,0,0,1-8.95,5.41,40,40,0,0,1-10.92,2.82l-14.54,50.6-34.7-2.5Z" transform="translate(0)"/><path class="cls-25" d="M692.22,523.63q-14.61-1.07-24-6.63a39.89,39.89,0,0,1-14.51-14.39A54.67,54.67,0,0,1,647,482.24a119.88,119.88,0,0,1-.61-24.58,201.52,201.52,0,0,1,5.15-33.22,172.36,172.36,0,0,1,10.18-30,137.82,137.82,0,0,1,14.61-25.26A97.25,97.25,0,0,1,694.76,350a73.35,73.35,0,0,1,21.6-11.78,60.55,60.55,0,0,1,24.2-3q12.3.89,21.06,5.86a40.05,40.05,0,0,1,14.1,13.26,53.51,53.51,0,0,1,7.4,19.56,98.83,98.83,0,0,1,1.09,24.8q-.66,9.13-2.45,19.47T777,439.23a210.59,210.59,0,0,1-7.24,21.45A152.91,152.91,0,0,1,759.91,481a123.06,123.06,0,0,1-12.54,17.82A77.36,77.36,0,0,1,732,512.78a65.34,65.34,0,0,1-18.37,8.72A59.54,59.54,0,0,1,692.22,523.63ZM739.13,350q-6-.44-12.12,4.2a57.5,57.5,0,0,0-12,13,132.17,132.17,0,0,0-11.21,19.7,201.85,201.85,0,0,0-9.53,24.46,265.31,265.31,0,0,0-7.11,27.21,215.2,215.2,0,0,0-3.91,28,136.72,136.72,0,0,0-.32,13.8,54.48,54.48,0,0,0,1.57,12.11,21.32,21.32,0,0,0,4.33,8.76,11.23,11.23,0,0,0,8,3.76q6.09.43,12.22-4.07a52.67,52.67,0,0,0,11.81-12.74,121.3,121.3,0,0,0,10.72-19.54,206.24,206.24,0,0,0,9-24.57,268.47,268.47,0,0,0,6.64-27.67A258.21,258.21,0,0,0,751,387.48a108.88,108.88,0,0,0,.15-13.94,58.19,58.19,0,0,0-1.78-11.81,22.12,22.12,0,0,0-3.93-8.3A8.66,8.66,0,0,0,739.13,350Z" transform="translate(0)"/><path class="cls-25" d="M845.3,478.12l-15.51-5.58a61.89,61.89,0,0,0-16.63-3.47,101.2,101.2,0,0,0-13.28,0,43.33,43.33,0,0,0-14,3.34l-1-.07-4.54-10.12.09-1.22q11.37-11.79,22.1-23.92a261.25,261.25,0,0,0,19.27-24.5,155.67,155.67,0,0,0,14.09-24.75,73.33,73.33,0,0,0,6.43-24.68,63.9,63.9,0,0,0,.07-7.83,61.37,61.37,0,0,0-.91-7.78,33.9,33.9,0,0,1,6.24-.77,59,59,0,0,1,6.3.09,29,29,0,0,1,10.1,2.38,21.27,21.27,0,0,1,7.1,5.1,18.71,18.71,0,0,1,4.07,7.21,23.23,23.23,0,0,1,.91,8.57,35.64,35.64,0,0,1-3.81,13,87.54,87.54,0,0,1-8.79,14.12,168.32,168.32,0,0,1-12.3,14.47q-6.9,7.27-14.29,14t-14.86,12.64q-7.47,5.94-14,10.37l.19.75A67.35,67.35,0,0,1,818.72,447a53.07,53.07,0,0,1,12.1-.53,71.23,71.23,0,0,1,12.51,2.13c4.45,1.13,8.83,2.27,13.16,3.39l24.4-56.74,16,1.15-16.47,57.07a36.31,36.31,0,0,0,8.29-3.87,46.91,46.91,0,0,0,8.39-6.8l.69.54a30.42,30.42,0,0,1,2.55,7.16,24.5,24.5,0,0,1,.49,6.77,22.75,22.75,0,0,1-2.69,9.29,26.32,26.32,0,0,1-6.18,7.57,34.05,34.05,0,0,1-8.95,5.41A40,40,0,0,1,872,482.37L857.5,533l-34.7-2.5Z" transform="translate(0)"/><rect class="cls-26" x="817.68" y="688.61" width="589.68" height="241.01"/><text class="cls-27" transform="translate(860.6 759.29)">Well, this is awkward.<tspan x="72.81" y="60">Please go back, </tspan><tspan x="18.7" y="120">nothing to see here!</tspan></text></g></svg>