<?xml version="1.0" encoding="UTF-8"?>
<svg xmlns="http://www.w3.org/2000/svg" xmlns:xlink="http://www.w3.org/1999/xlink" width="50px" height="50px" viewBox="0 0 50 50" version="1.1">
<g id="surface17083">
<path style=" stroke:none;fill-rule:nonzero;fill:rgb(20%,20%,20%);fill-opacity:1;" d="M 13 3 C 7.488281 3 3 7.488281 3 13 L 3 37 C 3 42.511719 7.488281 47 13 47 L 37 47 C 42.511719 47 47 42.511719 47 37 L 47 13 C 47 7.488281 42.511719 3 37 3 Z M 13 5 L 37 5 C 41.429688 5 45 8.566406 45 13 L 45 37 C 45 41.429688 41.429688 45 37 45 L 13 45 C 8.570312 45 5 41.429688 5 37 L 5 13 C 5 8.570312 8.570312 5 13 5 Z M 30.691406 14 C 27.089844 14 24.152344 16.949219 24.152344 20.554688 C 24.152344 20.582031 24.164062 20.605469 24.164062 20.632812 C 20.351562 20.121094 16.976562 18.234375 14.65625 15.386719 C 14.449219 15.128906 14.128906 14.992188 13.800781 15.019531 C 13.472656 15.042969 13.179688 15.230469 13.015625 15.515625 C 12.453125 16.484375 12.132812 17.613281 12.132812 18.808594 C 12.132812 19.875 12.429688 20.863281 12.878906 21.757812 C 12.417969 21.855469 12.085938 22.265625 12.085938 22.738281 L 12.085938 22.808594 C 12.085938 24.746094 12.992188 26.425781 14.332031 27.628906 C 14.058594 27.890625 13.957031 28.289062 14.074219 28.65625 C 14.632812 30.394531 15.933594 31.761719 17.5625 32.53125 C 16.261719 33.140625 14.863281 33.582031 13.320312 33.582031 C 12.910156 33.582031 12.511719 33.558594 12.121094 33.511719 C 11.65625 33.457031 11.21875 33.726562 11.058594 34.164062 C 10.902344 34.605469 11.066406 35.09375 11.457031 35.347656 C 14.0625 37.023438 17.167969 38 20.488281 38 C 25.863281 38 30.105469 35.738281 32.941406 32.511719 C 35.78125 29.285156 37.253906 25.121094 37.253906 21.199219 C 37.253906 21.082031 37.25 20.964844 37.246094 20.851562 C 38.21875 20.066406 39.136719 19.199219 39.832031 18.160156 C 40.066406 17.804688 40.050781 17.347656 39.796875 17.007812 C 39.546875 16.671875 39.109375 16.527344 38.707031 16.652344 C 38.867188 16.332031 39.097656 16.054688 39.207031 15.710938 C 39.332031 15.316406 39.203125 14.882812 38.875 14.621094 C 38.550781 14.363281 38.097656 14.332031 37.742188 14.546875 C 36.867188 15.066406 35.886719 15.410156 34.871094 15.648438 C 33.726562 14.671875 32.304688 14 30.695312 14 Z M 30.691406 16 C 32.003906 16 33.179688 16.550781 34.003906 17.4375 C 34.242188 17.6875 34.589844 17.800781 34.929688 17.734375 C 35.085938 17.703125 35.207031 17.605469 35.359375 17.566406 C 35.339844 17.582031 35.324219 17.609375 35.300781 17.621094 C 34.914062 17.855469 34.730469 18.320312 34.855469 18.753906 C 34.980469 19.191406 35.382812 19.488281 35.835938 19.480469 C 35.765625 19.53125 35.722656 19.617188 35.652344 19.671875 C 35.378906 19.867188 35.226562 20.1875 35.238281 20.523438 C 35.246094 20.746094 35.253906 20.972656 35.253906 21.199219 C 35.253906 24.613281 33.941406 28.351562 31.441406 31.191406 C 28.945312 34.03125 25.308594 36 20.488281 36 C 18.832031 36 17.273438 35.664062 15.789062 35.160156 C 17.636719 34.769531 19.386719 34.117188 20.816406 32.992188 C 21.148438 32.730469 21.28125 32.285156 21.148438 31.886719 C 21.011719 31.484375 20.640625 31.214844 20.21875 31.207031 C 18.800781 31.179688 17.710938 30.375 16.894531 29.339844 C 17.195312 29.300781 17.507812 29.296875 17.792969 29.21875 C 18.242188 29.09375 18.546875 28.679688 18.53125 28.21875 C 18.515625 27.753906 18.179688 27.363281 17.726562 27.273438 C 16.074219 26.9375 14.785156 25.691406 14.3125 24.085938 C 14.738281 24.1875 15.113281 24.417969 15.566406 24.433594 C 16.011719 24.445312 16.410156 24.164062 16.546875 23.738281 C 16.683594 23.3125 16.523438 22.851562 16.152344 22.601562 C 14.933594 21.785156 14.132812 20.398438 14.132812 18.808594 C 14.132812 18.480469 14.308594 18.21875 14.371094 17.914062 C 17.214844 20.730469 20.992188 22.601562 25.246094 22.820312 C 25.5625 22.835938 25.867188 22.703125 26.066406 22.460938 C 26.269531 22.21875 26.34375 21.894531 26.269531 21.589844 C 26.195312 21.257812 26.152344 20.914062 26.152344 20.554688 C 26.152344 18.027344 28.175781 16 30.691406 16 Z M 30.691406 16 "/>
</g>
</svg>
