<svg xmlns="http://www.w3.org/2000/svg" width="293.032" height="292.338" viewBox="0 0 293.032 292.338"><defs><style>.a{fill:#fff;}.b{fill:none;stroke:#fff;stroke-miterlimit:10;stroke-width:1.388px;}</style></defs><g transform="translate(-163.696 -156.09)"><path class="a" d="M222.68,427.19c1.95,3.22,2.88,7.54,1.5,10.31-2.74,5.85-15.53,9.28-30.33-1.08-26.96-20.42-19.86-42.24-18.42-55.15a31.57,31.57,0,0,1-8.5-9.25c-7.99-13.65.56-15.13,6.97-4.27a86.432,86.432,0,0,1,6.81,13.26,11.278,11.278,0,0,0,4-2.19,36.678,36.678,0,0,0,3.23-2.95,46.726,46.726,0,0,1-4.46-5.49c-14.21-22.44,1.62-29.25,8.47-16.3a11.153,11.153,0,0,1,1.97,6.89,2,2,0,0,1-.24-.04,10.827,10.827,0,0,0-2-6.62c-6.58-12.39-21.74-5.95-7.86,15.9a45.743,45.743,0,0,0,4.42,5.43,49.479,49.479,0,0,1,3.72-3.38c7.03-5.27,15.89-3.24,20.89,1.78a5.676,5.676,0,0,1,.25,8.23c-2.79,3.06-9.63,4.82-18.62-.89a14.074,14.074,0,0,1-12.43,2.92c6.51,16.45,10.61,36.37,31.84,49.24,5.89,3.41,8.62,2.62,9.63.66.8-1.54.59-4.1-1.32-7.29A4.339,4.339,0,0,0,222.68,427.19Zm-47.22-46.78c.48-4.84.28-8.96-2.22-12.95-5.62-9.56-13.55-8.43-6.02,4.37C170.27,376.65,173.07,379.22,175.46,380.41Zm19.32.69c8.55,5.34,15.13,3.76,17.92.73a5.162,5.162,0,0,0-.06-7.46c-4.05-4.17-7.51-3.38-10.3-.95C199.46,375.95,196.67,379.33,194.78,381.1Z"/><path class="a" d="M202.54,387.43c.83-.85.39-1.54-.33-2.27a6.042,6.042,0,0,0-7.28-.43l-.32-.35c3.24-2.21,7.16-.65,9.9,2,2.17,2.12,3.57,4.76,1.91,6.66-1.75,2.09-9.44,4.28-11.83,6.71-1.06,1.13-.51,2.5.76,3.66a13.4,13.4,0,0,0,6.93,2.95c.07-.08.14-.17.21-.25,1.25-1.38,10.96-7.03,13.51-8.88a9.317,9.317,0,0,0,2.33,2.55,15.156,15.156,0,0,0,3.22,1.7c.39-.3.77-.61,1.16-.91.12.08.24.16.36.25-2.72,2.43-14.06,9.42-15.64,11.32-.54.72.1,1.65,1.27,2.5,1.68,1.23,5.5,2.06,7.79-.68l.45.3c-2.7,2.96-6.77,2.48-11.59-1.14-2.53-1.9-4.21-4.59-3.21-6.48-2.92-.14-7.89-2.63-11.13-5.8-2.74-2.66-4.12-5.58-2.26-7.33C190.59,391.91,201.06,389.11,202.54,387.43Z"/><path class="a" d="M237.26,421.84c-1.65,3.5-2.29,7.03,2.8,9.16a12.515,12.515,0,0,0,9.77-.09c.09.1.19.19.28.29-3.46,2.08-9.87,1.86-14.57-.25-5.84-2.62-7.2-6.48-4.79-11.14-4.54,5.43-9.91,3.78-12.83,1.96-3.82-2.31-6.48-6.31-5.13-8.23.93-1.33,3.36-1.56,5.71-.05,1.85,1.2,2.91,3.01,2.09,4.37s-3.08,1.75-5.89-.09a5.745,5.745,0,0,1-1.55-1.59c.3,1.21,2.27,3.69,4.94,5.31,7.69,4.57,12.41-1.68,14.16-5.05,1.92-3.69,1.92-6.4-1.56-8.37a12.224,12.224,0,0,0-9.15-1.47c-.06-.11-.12-.23-.18-.34,3.79-1.15,9.05-.25,13,1.86,4.94,2.64,5.98,6.4,3.97,10.9,4.29-5.58,9.26-4.63,12.03-3.6,3.54,1.37,6.62,4.2,5.92,6.43-.49,1.54-2.65,2.53-5.17,1.64-1.98-.7-3.25-2.27-2.67-3.75s2.54-2.29,5.3-1.32a4.662,4.662,0,0,1,1.65,1.06c-.52-1.04-2.64-2.79-5.15-3.75C243.44,413.07,239.06,418.05,237.26,421.84Z"/><path class="a" d="M276.87,426.56c-.48,3.35-7.02,7.28-18.16,4.86-.64,3.21.84,6.46,5.77,7.61,3.31.76,6.5.24,9.74-2.94.15.03.31.05.46.08-3.58,3.96-8.99,4.72-15.58,2.98-17.33-5.45-5.31-21.76,12.25-17.49C275.47,422.51,277.21,424.45,276.87,426.56Zm-18.13,4.53c10.89,2.35,17.13-1.56,17.6-4.69.31-1.85-1.15-3.53-4.5-4.2C265.85,420.97,260.03,426.05,258.74,431.09Z"/><path class="a" d="M312.16,441.71c.09,1.18,1.15,1.5,2.24,1.4a5.672,5.672,0,0,0,4.62-5.6l.47-.06c0,3.92-3.53,6.33-7.7,6.63-3.3.25-6.4-.88-6.47-3.4-.04-3.3,3.6-10.5,3.35-13.42-.07-1.11-.65-1.73-1.61-1.68-1.33.08-4.23,2.18-5.66,3.48-.56,3.15-4.04,12.24-5.15,14.9a13.005,13.005,0,0,0-3.68-.78,23.511,23.511,0,0,0-3.97.23c-.2.46-.39.91-.59,1.37-.16-.01-.33-.02-.49-.04,1.57-3.36,6.85-14.83,6.84-17.34.04-1.12-.47-1.78-1.43-1.83-1.33-.06-4.49,1.74-6.05,2.93-.9,3.22-5.22,11.78-6.59,14.28a12.736,12.736,0,0,0-3.59-1.14,22.828,22.828,0,0,0-3.98-.16c-.24.43-.48.87-.73,1.3l-.48-.09c1.92-3.18,8.75-14.85,8.97-17.35.1-.75-.51-1.38-1.47-1.52a7.081,7.081,0,0,0-4.44.94c-.16-.05-.31-.11-.47-.16,1.79-1.28,4.85-1.49,7.55-1.14,2.85.38,5.71,1.28,5.47,4.08a1.036,1.036,0,0,1-.09.39,16.754,16.754,0,0,1,9.68-3.31c2.87.07,4.75.82,4.79,3.63v.25a16.458,16.458,0,0,1,9.23-4.25c2.87-.22,4.81.34,5.14,3.13C316.21,429.42,312.08,439.29,312.16,441.71Z"/><path class="a" d="M321.84,417.91c5.71-26.16,24.17-34.08,28.96-26.24,3.08,5.44-2.8,20.13-22.54,25.47q-.27,3.855-.67,7.71a13.713,13.713,0,0,1,7.13-4.23c5.98-1.56,9.64.85,10.85,4.42,2.61,7.27-6.32,15.11-15.03,16.69-5.81,1.13-10.96-.45-11.53-5.27-.35-2.43.88-6.44,2.45-16.34.06-.59.18-1.19.29-1.8-17.26,1.66-23.28-5.75-23.09-10.71.2-7.14,8.54-8.3,8.84-4.3a3.313,3.313,0,0,1-1.17,2.59c-.12-.02-.25-.04-.37-.05a3.038,3.038,0,0,0,1.09-2.51c-.24-3.55-7.73-2.35-7.88,4.28C299.03,412.18,304.64,419.6,321.84,417.91Zm5.7,7.53c-.96,7.53-2.23,12.91-2.04,13.97.3,1.85,2.12,2.36,4.41,1.93,4-.69,10.8-7.09,8.09-16.34-.79-2.81-2.86-3.85-4.79-3.38A12.411,12.411,0,0,0,327.54,425.44Zm.79-8.72c20-5.49,24.74-19.9,21.98-24.82-4.03-6.72-20.07-1.65-21.9,23.51C328.38,415.85,328.35,416.28,328.33,416.72Z"/><path class="a" d="M369.31,414.39c2.8,4.81.13,14.73-9,18.48-7.15,2.88-11.66.76-12.85-2.91-2.01-6.47,2.28-13.9,10.6-17.72,1.24-.56,3.83-1.61,6.11-1.17.07.09.13.18.2.26a10.043,10.043,0,0,0-5.37.87c-5.12,2.4-6.51,9.61-4.79,14.21,1.31,3.42,4.48,5.36,9.33,3.25,5.82-2.56,7.62-10.86,5.21-15.09-.07-.13-.14-.25-.21-.38.37,1.4-.51,3.31-2.69,4.39-1.92.96-3.97.79-4.64-.65s.02-3.64,2.68-4.98A3.839,3.839,0,0,1,369.31,414.39Z"/><path class="a" d="M372.01,407.12c-.62-1.02-1.37-.78-2.22-.28a5.844,5.844,0,0,0-2.04,6.83c-.13.07-.27.14-.4.21-1.35-3.68.97-7,4.12-8.92,2.52-1.52,5.37-2.17,6.78-.08,1.56,2.23,1.82,10.18,3.57,13.1.82,1.32,2.26,1.15,3.67.23a13.285,13.285,0,0,0,4.52-5.9c-.06-.09-.13-.18-.19-.26-1.02-1.56-4.03-12.39-5.17-15.33a9.334,9.334,0,0,0,3.07-1.62,15.4,15.4,0,0,0,2.49-2.71c-.19-.45-.39-.91-.58-1.36.11-.1.22-.2.34-.29,1.64,3.26,5.47,16.06,6.9,18.07.56.71,1.63.32,2.75-.61,1.63-1.33,3.45-4.86,1.39-7.78.14-.12.28-.25.41-.37,2.16,3.38.6,7.26-4.14,11.02-2.49,1.97-5.49,2.9-7.06,1.45-.87,2.79-4.46,6.91-8.22,9.17-3.16,1.92-6.2,2.46-7.43.22C373.51,419.73,373.26,408.97,372.01,407.12Z"/><path class="a" d="M390.7,394.78c.11-2.17,1.92-4.95,4.04-6.98,2.33-2.21,5.15-3.61,6.87-1.96.05.05.1.1.16.15a13.713,13.713,0,0,1,2.78-8.34c2.21-2.59,4.8-4.2,6.48-2.89,1.28.99,1.37,3.48-.46,5.69-1.44,1.74-3.43,2.46-4.61,1.4-1.82-1.63-.2-4.38.51-5.38a5.977,5.977,0,0,0-1.65,1.35,13.163,13.163,0,0,0-2.56,8.9c1.9,2.83,5.43,11.1,6.47,13.74a14.416,14.416,0,0,0-3.28,2.21,26.761,26.761,0,0,0-2.77,3.12c.18.47.36.93.53,1.4-.13.11-.26.22-.39.34-1.23-3.52-5.48-15.7-7.28-17.46-.54-.58-1.38-.48-2.18.25a7.5,7.5,0,0,0-2.23,4.19C391,394.6,390.85,394.69,390.7,394.78Z"/><path class="a" d="M420.75,357.09a2.211,2.211,0,0,1-1.67-.19c-1.33-.79-1.36-2.88-.33-4.78,1.14-2.12,2.68-2.78,3.48-2.37.55.27,1.01,1.35.28,2.73-.1-.05-.19-.1-.29-.15.02-.04.04-.07.06-.11.49-.93.2-1.71-.31-1.97-.87-.44-2.14.55-2.95,2.03-1.01,1.85-.73,3.53.29,4.13a3.074,3.074,0,0,0,2.76-.2c-.05.14-.1.28-.15.41a12.758,12.758,0,0,0-3.98,4.14c-3.32,5.4-1.11,12.33,3,15.46,2.93,2.18,6.76,1.95,9.98-2.97,3.44-5.26,1.57-13.7-2.64-16.38a5.7,5.7,0,0,1-.71,4.68c-1.21,2.1-3.12,3.27-4.46,2.42s-1.88-3.22-.21-6.15c1.63-2.89,3.75-2.57,5.28-1.75,4.51,2.22,8.04,12.51,1.54,22.03-1.46,2.13-4.04,5.07-7.6,6.21a8.718,8.718,0,0,0-1.88,1.78c-2.31,2.84-2.59,5.36-1.19,6.62,4.8,4.43,22.57-27.76,34.44-22.21,5.93,2.92,3.66,20.04-6.35,32.75-23.58,28.18-41.88,20.22-56.55,30.35-14.23,7.79-8.39,23.35,15.72,8.22a24.993,24.993,0,0,0,7.24-7.34c.09.04.18.07.27.11a24.551,24.551,0,0,1-7.33,7.5c-29.54,17.6-32.67-5.42-8.78-20.92,17.32-13.1,39.66-12.56,53.32-32.28,2.24-3.11,8.08-14.47,2.05-17.71-6.12-2.81-24.58,31.37-34.47,22.04-1.34-1.22-1.34-3.99,1.37-7.32a10.926,10.926,0,0,1,1.44-1.45,6.524,6.524,0,0,1-4.4-1.3c-4.32-3.73-5.41-13.14.01-21.8A15.412,15.412,0,0,1,420.75,357.09Z"/><path class="b" d="M369.89,316.14c3.16-26.46-20.36-34.63-20.36-34.63,1.85-2.31,6.63-1.16,6.63-1.16-6.79-7.87-18.67-11.11-18.67-11.11-44.12-14.19-74.98,0-74.98,0s-11.88,3.24-18.67,11.11c0,0,4.78-1.16,6.63,1.16,0,0-23.53,8.18-20.36,34.63,0,0,4.63-6.33,8.41-6.25,0,0-16.51,23.53,1.31,35.95,0,0,8.18-20.44,20.44-15.97,0,0-17.66,14.93-10.37,26.73,0,0,4.05-8.79,11.11-4.51,0,0,.12,3.93-4.51,6.48,0,0,43.85,22.79,43.5,38.76h0c-.35-15.97,43.5-38.76,43.5-38.76-4.63-2.55-4.51-6.48-4.51-6.48,7.06-4.28,11.11,4.51,11.11,4.51,7.29-11.8-10.37-26.73-10.37-26.73,12.26-4.47,20.44,15.97,20.44,15.97,17.82-12.42,1.31-35.95,1.31-35.95C365.26,309.82,369.89,316.14,369.89,316.14Z"/><path class="a" d="M314.52,349.99c-5.15,1.27-14.52-7-14.52-7s-9.37,8.27-14.52,7c0,0-1.62,8.1,4.63,11.63a31,31,0,0,1,9.89,9.31,30.884,30.884,0,0,1,9.89-9.31C316.14,358.09,314.52,349.99,314.52,349.99Z"/><path class="a" d="M335.64,315.68s-2.55-9.83-9.95-16.89-2.78-10.41-2.78-10.41c-11.34-11.57-22.91,3.01-22.91,3.01s-11.57-14.58-22.91-3.01c0,0,4.63,3.36-2.78,10.41s-9.95,16.89-9.95,16.89,9.95,12.03,15.97,8.79c0,0-9.02,19.55,3.36,20.13s14.12-2.78,14.12-2.78,1.91-3.24-1.48-6.28-5.79-4.77-5.79-4.77-2.86-1.53,0-1.5,9.46,0,9.46,0,6.6.03,9.46,0,0,1.5,0,1.5-2.4,1.74-5.79,4.77-1.48,6.28-1.48,6.28,1.74,3.36,14.12,2.78,3.36-20.13,3.36-20.13C325.69,327.71,335.64,315.68,335.64,315.68Zm-46.36.75c1.48-5.67-1.54-7.51-1.54-7.51s-6.02-.59-7.06-2.73-5.09-3.07-5.09-3.07.81-1.97,7-1.68a14.89,14.89,0,0,1,10.01,4.98C292.54,308.68,289.28,316.43,289.28,316.43Zm31.49-10.24c-1.04,2.14-7.06,2.73-7.06,2.73s-3.03,1.84-1.54,7.51c0,0-3.26-7.75-3.32-10.01a14.89,14.89,0,0,1,10.01-4.98c6.19-.29,7,1.68,7,1.68S321.81,304.05,320.77,306.19Z"/><path class="b" d="M348.19,239.63s5.7-16.75-13.86-15.36a10.9,10.9,0,0,1,3.24-3.56,8.567,8.567,0,0,0-4.46.72s.84-3.76-5.32-6.48c0,0,4.45,6.02-.38,9.05,0,0-5.27-24.19-22.48-8.61,0,0-1.93-2.78,6.79-8.79,0,0-2.7-1.31-7.4,1.31,0,0,.46-6.79,2.31-8.25a6.949,6.949,0,0,0-5.55,6.17c-.05.48-.09,1.28-.12,2.33-.03-1.05-.07-1.85-.12-2.33a6.949,6.949,0,0,0-5.55-6.17c1.85,1.47,2.31,8.25,2.31,8.25-4.71-2.62-7.4-1.31-7.4-1.31,8.72,6.02,6.79,8.79,6.79,8.79-17.2-15.58-22.48,8.61-22.48,8.61-4.83-3.04-.38-9.05-.38-9.05-6.16,2.72-5.32,6.48-5.32,6.48a8.567,8.567,0,0,0-4.46-.72,10.8,10.8,0,0,1,3.24,3.56c-19.55-1.39-13.86,15.36-13.86,15.36-7.06-1.48-7.55,2.11-7.55,2.11,17.59.46,18.16,20.19,18.16,20.19,16.43-6.38,36.49-5.56,36.49-5.56h.24s19.27.29,36.49,5.56c0,0,.58-19.73,18.16-20.19C355.74,241.74,355.25,238.16,348.19,239.63Z"/><path class="b" d="M270.11,256.71s5.32-2.08,8.1-2.31l-6.6-23.6s-11.04-5.52-10.76,5.31C260.86,236.12,261.67,240.28,270.11,256.71Z"/><path class="b" d="M283.07,253.59l-3.7-25.45s7.52-22.79,17.24-7.06V252.9Z"/><path class="b" d="M331.95,256.71s-5.32-2.08-8.1-2.31l6.6-23.6s11.04-5.52,10.76,5.31C341.21,236.12,340.4,240.28,331.95,256.71Z"/><path class="b" d="M318.99,253.59l3.7-25.45s-7.52-22.79-17.24-7.06V252.9Z"/><path class="a" d="M263.67,163.56q3.315,9.96,6.62,19.93c-.71.24-1.42.48-2.12.73q-2.82-7.905-5.65-15.82a120.836,120.836,0,0,0-3.56,16.68c-.35.16-.69.32-1.04.48a112.788,112.788,0,0,0-15.09-7.92q4.2,7.215,8.41,14.44c-.66.38-1.32.78-1.97,1.18q-5.49-8.955-10.97-17.9c.68-.42,1.36-.82,2.05-1.23a114.767,114.767,0,0,1,16.99,8.66,122.6,122.6,0,0,1,4.15-18.48C262.19,164.05,262.93,163.8,263.67,163.56Z"/><path class="a" d="M285.96,169.74c.48,3.22.95,6.45,1.43,9.67q-1.05.15-2.1.33c-.14-.81-.27-1.62-.41-2.43-.75,1.77-2.47,3.07-5.12,3.68-3.61.83-6.33-.27-7.12-2.89-.69-2.3.42-4.86,5.48-6.02,1.86-.42,3.72-.78,5.59-1.1-.05-.32-.11-.63-.16-.95-.44-2.66-2.48-3.84-5.92-3.1a9.82,9.82,0,0,0-5.59,3.29c-.5-.41-1.01-.82-1.53-1.22a12.3,12.3,0,0,1,6.96-3.94C282.32,164.03,285.4,165.72,285.96,169.74Zm-1.56,5.35c-.14-.85-.29-1.7-.43-2.54-1.82.31-3.64.67-5.44,1.07-3.36.77-4.11,2.26-3.69,3.81.48,1.77,2.29,2.44,4.89,1.86A5.742,5.742,0,0,0,284.4,175.09Z"/><path class="a" d="M307.81,156.19q-.495,11.115-1,22.24c-.71-.03-1.42-.06-2.12-.07.03-1.04.05-2.08.08-3.12a7.791,7.791,0,0,1-6.41,3.31c-4.62.17-8.48-2.6-9.11-7.34-.63-4.72,3.01-8.48,8.49-8.7a8.158,8.158,0,0,1,7.15,3.06c.07-3.16.15-6.32.22-9.48C306.01,156.12,306.91,156.15,307.81,156.19Zm-3,14.28c.12-3.68-2.81-6.25-6.79-6.1-4.02.15-6.76,2.92-6.36,6.59a6.612,6.612,0,0,0,13.15-.49Z"/><path class="a" d="M327.24,174.01a107.831,107.831,0,0,0-14.56-2.41c-.02,3.32,2.42,5.73,6.01,6.31a7.4,7.4,0,0,0,5.48-1.08c.33.54.65,1.08.97,1.63a9.167,9.167,0,0,1-6.81,1.31c-5-.8-8.25-4.34-7.96-9.02.28-4.66,4.47-7.76,9.83-6.93s8.38,4.98,7.23,9.57C327.39,173.55,327.3,173.78,327.24,174.01Zm-14.41-3.99a111.092,111.092,0,0,1,12.54,1.94c.37-3.08-1.81-5.78-5.46-6.34C316.29,165.06,313.41,166.97,312.83,170.02Z"/><path class="a" d="M341.02,163.88a1.784,1.784,0,0,1,2.37-.77c1.06.37,1.66,1.3,1.38,2.06a2.048,2.048,0,0,1-3.75-1.29Zm-1.03,4.91c.82.28,1.64.57,2.45.86q-2.7,7.41-5.41,14.82c-.7-.26-1.41-.51-2.12-.75Q337.445,176.265,339.99,168.79Z"/><path class="a" d="M360,185.47q-2.385,3.9-4.78,7.8c-.65-.4-1.31-.79-1.97-1.18q2.25-3.87,4.5-7.73c1.69-2.86.72-5.45-2.54-7.14-3.7-1.9-6.92-.99-8.36,2.31q-1.68,3.78-3.37,7.56c-.69-.31-1.38-.61-2.08-.9q3.045-7.275,6.09-14.56c.77.32,1.54.65,2.3.99-.39.89-.79,1.77-1.18,2.66,2.02-1.2,4.89-1.12,7.9.45C360.76,177.96,362.4,181.64,360,185.47Z"/></g></svg>