<?xml version="1.0" encoding="UTF-8"?>
<svg xmlns="http://www.w3.org/2000/svg" xmlns:xlink="http://www.w3.org/1999/xlink" width="64px" height="64px" viewBox="0 0 64 64" version="1.1">
<g id="surface43232">
<path style=" stroke:none;fill-rule:nonzero;fill:rgb(100%,67.058824%,72.54902%);fill-opacity:1;" d="M 37 47.800781 L 27 47.800781 C 21.5 47.800781 17 43.300781 17 37.800781 C 17 32.300781 21.5 27.800781 27 27.800781 L 37 27.800781 C 42.5 27.800781 47 32.300781 47 37.800781 C 47 43.351562 42.5 47.800781 37 47.800781 Z M 37 47.800781 "/>
<path style=" stroke:none;fill-rule:nonzero;fill:rgb(100%,41.176471%,49.019608%);fill-opacity:1;" d="M 47 37.699219 C 46.949219 34.148438 41.949219 33.648438 41 37.050781 C 40.949219 37.300781 40.851562 37.5 40.75 37.648438 C 39.050781 40.75 35.75 42.800781 32 42.800781 L 27 42.800781 C 27 42.800781 26.75 42.800781 26.351562 42.75 C 23.148438 42.550781 22.648438 47.351562 25.800781 47.699219 C 26.199219 47.75 26.601562 47.75 27 47.75 L 37 47.75 C 42.5 47.75 47 43.25 47 37.75 C 47 37.75 47 37.75 47 37.699219 Z M 47 37.699219 "/>
<path style=" stroke:none;fill-rule:nonzero;fill:rgb(100%,100%,100%);fill-opacity:1;" d="M 37 27.800781 L 27 27.800781 C 21.5 27.800781 17 32.300781 17 37.800781 L 27 37.800781 C 32.5 37.800781 37 33.351562 37 27.800781 Z M 37 27.800781 "/>
<path style=" stroke:none;fill-rule:nonzero;fill:rgb(100%,67.058824%,72.54902%);fill-opacity:1;" d="M 57.199219 8.699219 C 60.601562 12.101562 60.601562 17.648438 57.199219 21.050781 C 53.800781 24.449219 48.25 24.449219 44.851562 21.050781 C 41.449219 17.648438 41.449219 12.101562 44.851562 8.699219 L 51 16.148438 Z M 19.199219 8.699219 C 22.601562 12.101562 22.601562 17.648438 19.199219 21.050781 C 15.800781 24.449219 10.25 24.449219 6.851562 21.050781 C 3.449219 17.648438 3.449219 12.101562 6.851562 8.699219 L 13 16.148438 Z M 19.199219 8.699219 "/>
<path style=" stroke:none;fill-rule:nonzero;fill:rgb(20%,20%,20%);fill-opacity:1;" d="M 13 51.25 C 13.851562 51.25 14.5 50.601562 14.5 49.75 L 14.5 47.851562 C 14.5 47.148438 14.699219 46.449219 15.101562 45.851562 C 15.550781 45.148438 15.398438 44.25 14.75 43.75 C 14.050781 43.300781 13.148438 43.449219 12.648438 44.101562 C 11.898438 45.199219 11.5 46.5 11.5 47.800781 L 11.5 49.699219 C 11.5 50.550781 12.148438 51.25 13 51.25 Z M 21.699219 49.800781 C 21 49.351562 20.101562 49.5 19.601562 50.148438 C 18.550781 51.648438 18 53.449219 18 55.300781 C 18 56.148438 18.648438 56.800781 19.5 56.800781 C 20.351562 56.800781 21 56.148438 21 55.300781 C 21 54.050781 21.351562 52.898438 22.050781 51.898438 C 22.550781 51.199219 22.398438 50.25 21.699219 49.800781 Z M 25.601562 23.398438 C 25.648438 23.5 25.699219 23.601562 25.75 23.648438 C 25.800781 23.75 25.851562 23.800781 25.949219 23.898438 C 26.25 24.148438 26.601562 24.351562 27 24.351562 C 27.398438 24.351562 27.800781 24.199219 28.050781 23.898438 C 28.101562 23.851562 28.199219 23.75 28.25 23.648438 C 28.300781 23.550781 28.351562 23.5 28.398438 23.398438 C 28.449219 23.300781 28.449219 23.199219 28.5 23.101562 C 28.550781 23 28.550781 22.898438 28.550781 22.800781 C 28.550781 22.398438 28.398438 22 28.101562 21.75 C 28.050781 21.699219 27.949219 21.601562 27.851562 21.550781 C 27.75 21.5 27.699219 21.449219 27.601562 21.398438 C 27.5 21.351562 27.398438 21.351562 27.300781 21.300781 C 27.101562 21.25 26.898438 21.25 26.699219 21.300781 C 26.601562 21.300781 26.5 21.351562 26.398438 21.398438 C 26.300781 21.449219 26.25 21.5 26.148438 21.550781 C 26.050781 21.601562 26 21.648438 25.898438 21.75 C 25.601562 22.050781 25.449219 22.398438 25.449219 22.800781 C 25.449219 22.898438 25.449219 23 25.5 23.101562 C 25.550781 23.199219 25.550781 23.300781 25.601562 23.398438 Z M 35.601562 23.398438 C 35.648438 23.5 35.699219 23.601562 35.75 23.648438 C 35.800781 23.75 35.851562 23.800781 35.949219 23.851562 C 36.25 24.148438 36.601562 24.300781 37 24.300781 C 37.101562 24.300781 37.199219 24.300781 37.300781 24.25 C 37.398438 24.25 37.5 24.199219 37.601562 24.148438 C 37.699219 24.101562 37.800781 24.050781 37.851562 24 C 37.949219 23.949219 38 23.898438 38.101562 23.800781 C 38.148438 23.75 38.25 23.648438 38.300781 23.601562 C 38.351562 23.5 38.398438 23.449219 38.449219 23.351562 C 38.5 23.25 38.5 23.148438 38.550781 23.050781 C 38.601562 22.949219 38.601562 22.851562 38.601562 22.75 C 38.601562 22.648438 38.601562 22.550781 38.550781 22.449219 C 38.550781 22.351562 38.5 22.25 38.449219 22.148438 C 38.398438 22.050781 38.351562 21.949219 38.300781 21.898438 C 38.25 21.800781 38.199219 21.75 38.101562 21.648438 C 38.050781 21.601562 37.949219 21.5 37.851562 21.449219 C 37.75 21.398438 37.699219 21.351562 37.601562 21.300781 C 37.5 21.25 37.398438 21.25 37.300781 21.199219 C 36.800781 21.101562 36.300781 21.25 35.949219 21.601562 C 35.648438 21.898438 35.5 22.25 35.5 22.648438 C 35.5 22.75 35.5 22.851562 35.550781 22.949219 C 35.601562 23.050781 35.550781 23.300781 35.601562 23.398438 Z M 44.800781 22.550781 C 45.199219 22.550781 45.550781 22.398438 45.851562 22.101562 C 46.449219 21.5 46.449219 20.550781 45.851562 20 C 44.5 18.648438 43.75 16.800781 43.75 14.851562 C 43.75 12.898438 44.5 11.101562 45.851562 9.699219 C 46.449219 9.101562 46.449219 8.148438 45.851562 7.601562 C 45.25 7 44.300781 7 43.75 7.601562 C 41.800781 9.550781 40.75 12.101562 40.75 14.851562 C 40.75 17.601562 41.800781 20.148438 43.75 22.101562 C 44.050781 22.398438 44.449219 22.550781 44.800781 22.550781 Z M 44.800781 22.550781 "/>
<path style=" stroke:none;fill-rule:nonzero;fill:rgb(20%,20%,20%);fill-opacity:1;" d="M 56.148438 7.648438 C 55.550781 8.25 55.550781 9.199219 56.148438 9.75 C 57.5 11.101562 58.25 12.949219 58.25 14.898438 C 58.25 16.851562 57.5 18.648438 56.148438 20.050781 C 55.449219 20.75 54.648438 21.25 53.75 21.648438 C 51.199219 22.699219 49.550781 25.148438 49.5 28 L 49.5 28.148438 C 49.5 29.851562 48.25 31.300781 46.601562 31.601562 C 44.550781 28.351562 41 26.300781 37 26.300781 L 27 26.300781 C 23 26.300781 19.449219 28.351562 17.398438 31.5 C 15.75 31.199219 14.5 29.800781 14.5 28.050781 C 14.5 26.449219 15.449219 24.949219 16.898438 24.351562 C 18.148438 23.851562 19.300781 23.101562 20.25 22.101562 C 22.199219 20.148438 23.25 17.601562 23.25 14.851562 C 23.25 12.101562 22.199219 9.550781 20.25 7.601562 C 19.648438 7 18.699219 7 18.148438 7.601562 C 17.550781 8.199219 17.550781 9.148438 18.148438 9.699219 C 19.5 11.050781 20.25 12.898438 20.25 14.851562 C 20.25 16.800781 19.5 18.648438 18.148438 20 C 17.449219 20.699219 16.648438 21.199219 15.75 21.601562 C 13.199219 22.648438 11.550781 25.101562 11.5 27.949219 L 11.5 28.101562 C 11.5 31 13.398438 33.5 16.050781 34.300781 C 15.699219 35.398438 15.5 36.601562 15.5 37.851562 C 15.5 44.199219 20.648438 49.351562 27 49.351562 L 37 49.351562 C 40.300781 49.351562 43 52.050781 43 55.351562 C 43 56.199219 43.648438 56.851562 44.5 56.851562 C 45.351562 56.851562 46 56.199219 46 55.351562 C 46 52.351562 44.5 49.699219 42.25 48.050781 C 43.949219 47.199219 45.351562 45.898438 46.449219 44.351562 C 48.148438 44.550781 49.5 46.050781 49.5 47.800781 L 49.5 49.699219 C 49.5 50.550781 50.148438 51.199219 51 51.199219 C 51.851562 51.199219 52.5 50.550781 52.5 49.699219 L 52.5 47.800781 C 52.5 44.851562 50.550781 42.398438 47.851562 41.550781 C 48.25 40.351562 48.5 39.101562 48.5 37.800781 C 48.5 36.550781 48.300781 35.351562 47.949219 34.25 C 50.601562 33.398438 52.5 30.949219 52.5 28.050781 C 52.5 26.449219 53.449219 24.949219 54.898438 24.351562 C 56.148438 23.851562 57.300781 23.101562 58.25 22.101562 C 60.199219 20.148438 61.25 17.601562 61.25 14.851562 C 61.25 12.101562 60.199219 9.550781 58.25 7.601562 C 57.648438 7.050781 56.699219 7.050781 56.148438 7.648438 Z M 37 46.300781 L 27 46.300781 C 22.300781 46.300781 18.5 42.5 18.5 37.800781 C 18.5 33.101562 22.300781 29.300781 27 29.300781 L 37 29.300781 C 41.699219 29.300781 45.5 33.101562 45.5 37.800781 C 45.5 42.5 41.699219 46.300781 37 46.300781 Z M 6.800781 22.550781 C 7.199219 22.550781 7.550781 22.398438 7.851562 22.101562 C 8.449219 21.5 8.449219 20.550781 7.851562 20 C 6.5 18.648438 5.75 16.800781 5.75 14.851562 C 5.75 12.898438 6.5 11.101562 7.851562 9.699219 C 8.449219 9.101562 8.449219 8.148438 7.851562 7.601562 C 7.25 7 6.300781 7 5.75 7.601562 C 3.800781 9.550781 2.75 12.101562 2.75 14.851562 C 2.75 17.601562 3.800781 20.148438 5.75 22.101562 C 6.050781 22.398438 6.449219 22.550781 6.800781 22.550781 Z M 6.800781 22.550781 "/>
</g>
</svg>
