<?xml version="1.0" encoding="UTF-8"?>
<svg xmlns="http://www.w3.org/2000/svg" xmlns:xlink="http://www.w3.org/1999/xlink" width="64px" height="64px" viewBox="0 0 64 64" version="1.1">
<g id="surface20221">
<path style=" stroke:none;fill-rule:nonzero;fill:rgb(97.647059%,89.019608%,68.235294%);fill-opacity:1;" d="M 55.980469 6.242188 C 55.988281 6.160156 56 6.074219 56 6 C 56 5.722656 55.511719 5.667969 55.015625 5.609375 C 54.328125 5.230469 53.628906 5 53 5 C 52.941406 5 52.871094 5.019531 52.808594 5.027344 C 52.710938 5.019531 52.617188 5 52.515625 5 C 50.273438 5 44.789062 8.945312 38.308594 14.585938 C 37.566406 15.230469 38.039062 16.863281 37.277344 17.550781 C 36.609375 18.148438 34.710938 17.792969 34.035156 18.417969 C 32.957031 19.40625 31.867188 20.429688 30.773438 21.472656 C 30.015625 22.195312 30.863281 23.980469 30.101562 24.726562 C 29.460938 25.351562 27.210938 24.929688 26.574219 25.566406 C 25.585938 26.546875 24.605469 27.539062 23.636719 28.53125 C 22.945312 29.242188 23.605469 31.1875 22.929688 31.898438 C 22.292969 32.566406 20.3125 31.996094 19.691406 32.660156 C 18.539062 33.890625 17.425781 35.109375 16.355469 36.304688 C 15.832031 36.886719 16.253906 38.503906 15.757812 39.070312 C 15.125 39.792969 13.582031 39.464844 12.996094 40.160156 C 9.304688 44.53125 6.554688 48.304688 5.488281 50.730469 C 5.179688 51.175781 5 51.59375 5 52 C 5 52.09375 5.011719 52.191406 5.019531 52.289062 C 5.011719 52.367188 5 52.445312 5 52.515625 C 5 53.050781 5.109375 53.554688 5.28125 54.03125 C 5.753906 54.199219 5.464844 56 6 56 C 6.144531 56 6.304688 55.976562 6.476562 55.941406 C 7.574219 57.605469 9.109375 59 10.484375 59 C 17.65625 59 59 18.171875 59 11 C 59 9.449219 57.617188 7.488281 55.980469 6.242188 Z M 55.980469 6.242188 "/>
<path style=" stroke:none;fill-rule:nonzero;fill:rgb(93.72549%,78.431373%,55.686275%);fill-opacity:1;" d="M 59 11 C 59 10.972656 58.992188 10.945312 58.992188 10.917969 C 56.785156 9.953125 54.148438 10.6875 52.796875 12.773438 C 46.199219 23.007812 23.007812 46.195312 12.777344 52.796875 C 10.695312 54.140625 9.960938 56.757812 10.898438 58.957031 C 19.113281 57.558594 59 18.046875 59 11 Z M 13.070312 39.964844 C 17.550781 39.964844 19.945312 40.539062 22.082031 41.441406 C 22.035156 39.070312 21.136719 36.378906 16.65625 36.378906 C 16.65625 36.378906 16.65625 38.171875 14.863281 39.070312 C 13.070312 39.964844 13.070312 39.964844 13.070312 39.964844 Z M 20.242188 32.792969 C 24.722656 32.792969 27.117188 33.367188 29.253906 34.269531 C 29.207031 31.894531 28.308594 29.207031 23.828125 29.207031 C 23.828125 29.207031 22.929688 31 22.035156 31.894531 C 21.136719 32.792969 20.242188 32.792969 20.242188 32.792969 Z M 27.414062 25.621094 C 31.898438 25.621094 34.289062 26.195312 36.425781 27.097656 C 36.378906 24.722656 35.484375 22.035156 31 22.035156 C 31 22.035156 31.898438 23.828125 30.101562 24.722656 C 28.308594 25.621094 27.414062 25.621094 27.414062 25.621094 Z M 34.585938 18.449219 C 39.070312 18.449219 41.460938 19.023438 43.597656 19.925781 C 43.550781 17.550781 42.65625 14.859375 38.171875 14.859375 C 38.171875 14.859375 39.070312 16.652344 37.273438 17.550781 C 35.484375 18.449219 34.585938 18.449219 34.585938 18.449219 Z M 34.585938 18.449219 "/>
<path style=" stroke:none;fill-rule:nonzero;fill:rgb(55.294118%,42.352941%,62.352941%);fill-opacity:1;" d="M 60 11 C 60 7.820312 55.402344 4 52.519531 4 C 50.132812 4 45.078125 7.351562 37.5 13.964844 C 37.273438 14.160156 37.148438 14.453125 37.160156 14.757812 C 37.160156 14.808594 37.167969 14.863281 37.171875 14.863281 C 37.171875 16.289062 36.011719 17.449219 34.585938 17.449219 C 34.464844 17.449219 34.347656 17.425781 34.203125 17.40625 C 33.902344 17.363281 33.601562 17.453125 33.378906 17.660156 C 32.34375 18.613281 31.292969 19.597656 30.238281 20.601562 C 29.988281 20.839844 29.882812 21.1875 29.949219 21.523438 C 29.980469 21.695312 30 21.867188 30 22.035156 C 30 23.460938 28.839844 24.621094 27.414062 24.621094 C 27.234375 24.621094 27.046875 24.597656 26.839844 24.550781 C 26.5 24.472656 26.152344 24.574219 25.910156 24.816406 C 24.9375 25.78125 23.976562 26.753906 23.023438 27.730469 C 22.785156 27.972656 22.6875 28.316406 22.761719 28.644531 C 22.804688 28.847656 22.824219 29.03125 22.824219 29.207031 C 22.824219 30.632812 21.664062 31.792969 20.238281 31.792969 C 20.089844 31.792969 19.941406 31.773438 19.796875 31.746094 C 19.464844 31.6875 19.125 31.800781 18.894531 32.050781 C 17.855469 33.160156 16.847656 34.261719 15.875 35.34375 C 15.6875 35.554688 15.59375 35.835938 15.621094 36.113281 L 15.644531 36.265625 C 15.648438 36.304688 15.65625 36.339844 15.65625 36.378906 C 15.65625 37.78125 14.550781 38.914062 13.144531 38.953125 C 13.128906 38.953125 13.117188 38.964844 13.101562 38.964844 C 13.089844 38.964844 13.082031 38.964844 13.070312 38.964844 C 12.636719 38.964844 12.273438 39.246094 12.136719 39.636719 C 4.015625 49.277344 4 51.714844 4 52.515625 C 4 55.402344 7.820312 60 11 60 C 18.785156 60 60 18.785156 60 11 Z M 11 58 C 9.179688 58 6 54.515625 6 52.515625 C 6 51.929688 6.558594 49.363281 13.617188 40.972656 C 17.648438 41.019531 19.789062 41.5625 21.691406 42.363281 C 21.820312 42.417969 21.953125 42.441406 22.082031 42.441406 C 22.472656 42.441406 22.84375 42.210938 23.003906 41.828125 C 23.21875 41.320312 22.980469 40.734375 22.472656 40.519531 C 21.09375 39.9375 19.421875 39.390625 16.726562 39.128906 C 17.300781 38.359375 17.65625 37.417969 17.65625 36.378906 C 17.65625 36.371094 17.65625 36.363281 17.65625 36.355469 C 18.421875 35.507812 19.207031 34.648438 20.011719 33.785156 C 20.085938 33.789062 20.160156 33.792969 20.242188 33.792969 C 24.648438 33.792969 26.875 34.351562 28.867188 35.191406 C 28.992188 35.242188 29.125 35.269531 29.253906 35.269531 C 29.644531 35.269531 30.015625 35.039062 30.175781 34.65625 C 30.390625 34.148438 30.152344 33.5625 29.644531 33.347656 C 28.261719 32.765625 26.59375 32.214844 23.890625 31.953125 C 24.46875 31.1875 24.828125 30.242188 24.828125 29.207031 C 24.828125 29.058594 24.820312 28.914062 24.804688 28.765625 C 25.515625 28.039062 26.234375 27.316406 26.957031 26.59375 C 27.109375 26.613281 27.261719 26.617188 27.410156 26.617188 C 27.410156 26.617188 27.414062 26.621094 27.414062 26.621094 C 27.421875 26.621094 27.425781 26.621094 27.429688 26.621094 C 27.445312 26.621094 27.464844 26.621094 27.480469 26.621094 C 31.839844 26.628906 34.058594 27.183594 36.039062 28.019531 C 36.164062 28.070312 36.296875 28.097656 36.425781 28.097656 C 36.816406 28.097656 37.1875 27.867188 37.347656 27.484375 C 37.5625 26.976562 37.324219 26.390625 36.816406 26.175781 C 35.4375 25.59375 33.773438 25.046875 31.082031 24.78125 C 31.65625 24.015625 32 23.0625 32 22.035156 C 32 21.925781 31.996094 21.8125 31.988281 21.699219 C 32.796875 20.933594 33.597656 20.179688 34.398438 19.441406 C 34.460938 19.445312 34.523438 19.449219 34.585938 19.449219 C 38.992188 19.449219 41.21875 20.007812 43.210938 20.847656 C 43.335938 20.902344 43.46875 20.925781 43.597656 20.925781 C 43.988281 20.925781 44.359375 20.695312 44.519531 20.3125 C 44.734375 19.804688 44.496094 19.21875 43.988281 19.003906 C 42.609375 18.421875 40.941406 17.875 38.25 17.613281 C 38.769531 16.921875 39.101562 16.082031 39.164062 15.167969 C 48.957031 6.667969 51.855469 6 52.519531 6 C 54.515625 6 58 9.179688 58 11 C 58 17.589844 17.589844 58 11 58 Z M 45.304688 37.1875 C 44.914062 36.796875 44.28125 36.796875 43.890625 37.1875 C 43.5 37.578125 43.5 38.210938 43.890625 38.601562 L 45.304688 40.015625 C 45.5 40.210938 45.753906 40.308594 46.011719 40.308594 C 46.265625 40.308594 46.523438 40.210938 46.71875 40.015625 C 47.109375 39.625 47.109375 38.992188 46.71875 38.601562 Z M 41.769531 40.722656 C 41.378906 40.332031 40.746094 40.332031 40.355469 40.722656 C 39.964844 41.113281 39.964844 41.746094 40.355469 42.136719 L 41.769531 43.550781 C 41.964844 43.746094 42.21875 43.84375 42.476562 43.84375 C 42.730469 43.84375 42.988281 43.746094 43.183594 43.550781 C 43.574219 43.160156 43.574219 42.527344 43.183594 42.136719 Z M 48.839844 33.652344 C 48.449219 33.261719 47.816406 33.261719 47.425781 33.652344 C 47.035156 34.042969 47.035156 34.675781 47.425781 35.066406 L 48.839844 36.480469 C 49.035156 36.675781 49.289062 36.773438 49.546875 36.773438 C 49.800781 36.773438 50.058594 36.675781 50.253906 36.480469 C 50.644531 36.089844 50.644531 35.457031 50.253906 35.066406 Z M 38.230469 44.257812 C 37.839844 43.867188 37.210938 43.867188 36.816406 44.257812 C 36.425781 44.648438 36.425781 45.28125 36.816406 45.671875 L 38.230469 47.085938 C 38.425781 47.28125 38.683594 47.378906 38.9375 47.378906 C 39.195312 47.378906 39.449219 47.28125 39.644531 47.085938 C 40.035156 46.695312 40.035156 46.0625 39.644531 45.671875 Z M 34.695312 47.792969 C 34.304688 47.402344 33.675781 47.402344 33.28125 47.792969 C 32.890625 48.183594 32.890625 48.816406 33.28125 49.207031 L 34.695312 50.621094 C 34.890625 50.816406 35.148438 50.914062 35.402344 50.914062 C 35.660156 50.914062 35.914062 50.816406 36.109375 50.621094 C 36.503906 50.230469 36.503906 49.597656 36.109375 49.207031 Z M 34.695312 47.792969 "/>
</g>
</svg>
