<?xml version="1.0" encoding="UTF-8"?>
<svg xmlns="http://www.w3.org/2000/svg" xmlns:xlink="http://www.w3.org/1999/xlink" width="64px" height="64px" viewBox="0 0 64 64" version="1.1">
<g id="surface20681">
<path style=" stroke:none;fill-rule:nonzero;fill:rgb(100%,100%,100%);fill-opacity:1;" d="M 32.550781 21.550781 C 29.949219 21.351562 27.5 21.898438 25.398438 23.101562 C 23.101562 24.398438 20.398438 24.601562 17.851562 24.148438 C 17.398438 24.050781 16.949219 24 16.449219 24.050781 C 12.5 24 9.148438 27.199219 9 31.148438 C 8.800781 35.449219 12.199219 39 16.5 39 C 17.648438 39 18.75 38.75 19.75 38.25 C 21.449219 43.050781 26.050781 46.5 31.5 46.5 C 38.648438 46.5 44.449219 40.449219 44 33.199219 C 43.550781 27.101562 38.648438 22.050781 32.550781 21.550781 Z M 32.550781 21.550781 "/>
<path style=" stroke:none;fill-rule:nonzero;fill:rgb(20%,20%,20%);fill-opacity:1;" d="M 10.5 28.5 C 10.199219 28.5 9.851562 28.398438 9.601562 28.199219 C 8.949219 27.699219 8.800781 26.75 9.300781 26.101562 C 11 23.851562 13.699219 22.5 16.449219 22.5 C 17 22.5 17.550781 22.550781 18.101562 22.648438 C 19.800781 22.949219 22.351562 23.050781 24.648438 21.75 C 26.050781 21 27.550781 20.449219 29.101562 20.199219 C 29.898438 20.050781 30.699219 20.601562 30.851562 21.449219 C 31 22.25 30.449219 23.050781 29.601562 23.199219 C 28.351562 23.398438 27.199219 23.800781 26.101562 24.449219 C 23.648438 25.800781 20.699219 26.25 17.550781 25.648438 C 17.199219 25.601562 16.800781 25.550781 16.449219 25.550781 C 14.601562 25.550781 12.851562 26.449219 11.699219 27.949219 C 11.398438 28.300781 10.949219 28.5 10.5 28.5 Z M 41.898438 28.601562 C 41.398438 28.601562 40.949219 28.351562 40.648438 27.949219 C 39.75 26.601562 38.601562 25.449219 37.199219 24.648438 C 36.5 24.199219 36.300781 23.300781 36.699219 22.601562 C 37.101562 21.898438 38.050781 21.699219 38.75 22.101562 C 40.449219 23.148438 41.949219 24.601562 43.101562 26.300781 C 43.550781 27 43.351562 27.898438 42.699219 28.398438 C 42.449219 28.550781 42.199219 28.601562 41.898438 28.601562 Z M 41.898438 28.601562 "/>
<path style=" stroke:none;fill-rule:nonzero;fill:rgb(100%,100%,100%);fill-opacity:1;" d="M 20.800781 53.550781 L 21.101562 53.449219 C 23.851562 52.550781 26.050781 50.351562 26.949219 47.601562 L 32 32 L 7 32 L 9.851562 49.148438 C 11.851562 52.949219 16.398438 55 20.800781 53.550781 Z M 20.800781 53.550781 "/>
<path style=" stroke:none;fill-rule:nonzero;fill:rgb(20%,20%,20%);fill-opacity:1;" d="M 47 63.5 L 39.898438 63.5 C 39.050781 63.5 38.398438 62.851562 38.398438 62 C 38.398438 61.148438 39.050781 60.5 39.898438 60.5 L 47 60.5 C 47.851562 60.5 48.5 61.148438 48.5 62 C 48.5 62.851562 47.851562 63.5 47 63.5 Z M 47 63.5 "/>
<path style=" stroke:none;fill-rule:nonzero;fill:rgb(100%,100%,100%);fill-opacity:1;" d="M 32 32 L 7 32 L 11.648438 59.898438 C 11.851562 61.101562 12.898438 62 14.101562 62 L 39.851562 62 C 41.050781 62 42.101562 61.101562 42.300781 59.898438 L 47 32 Z M 32 32 "/>
<path style=" stroke:none;fill-rule:nonzero;fill:rgb(100%,100%,100%);fill-opacity:1;" d="M 32 62 L 32 47 C 32 38.699219 38.699219 32 47 32 L 42.351562 59.898438 C 42.148438 61.101562 41.101562 62 39.898438 62 Z M 32 62 "/>
<path style=" stroke:none;fill-rule:nonzero;fill:rgb(20%,20%,20%);fill-opacity:1;" d="M 25 19.550781 C 24.300781 19.550781 23.648438 19.050781 23.5 18.300781 L 20.851562 2.25 C 20.699219 1.449219 21.25 0.648438 22.101562 0.5 C 22.898438 0.351562 23.699219 0.898438 23.851562 1.75 L 26.5 17.800781 C 26.648438 18.601562 26.101562 19.398438 25.25 19.550781 C 25.199219 19.550781 25.101562 19.550781 25 19.550781 Z M 32.851562 28.5 C 32.75 28.5 32.699219 28.5 32.601562 28.5 C 31.800781 28.351562 31.25 27.601562 31.351562 26.75 L 35.5 1.75 C 35.648438 0.949219 36.398438 0.398438 37.25 0.5 C 38.050781 0.648438 38.601562 1.398438 38.5 2.25 L 34.351562 27.25 C 34.199219 28 33.550781 28.5 32.851562 28.5 Z M 32.851562 28.5 "/>
<path style=" stroke:none;fill-rule:nonzero;fill:rgb(100%,100%,100%);fill-opacity:1;" d="M 2 47 L 7 32 L 32 32 L 27.101562 47 Z M 2 47 "/>
<path style=" stroke:none;fill-rule:nonzero;fill:rgb(20%,20%,20%);fill-opacity:1;" d="M 52 48.5 C 51.351562 48.5 50.800781 48.101562 50.601562 47.449219 L 48.101562 39.949219 C 47.851562 39.148438 48.25 38.300781 49.050781 38.050781 C 49.851562 37.800781 50.699219 38.199219 50.949219 39 L 53.449219 46.5 C 53.699219 47.300781 53.300781 48.148438 52.5 48.398438 C 52.300781 48.5 52.148438 48.5 52 48.5 Z M 48.148438 31.050781 C 47.851562 30.699219 47.449219 30.5 47 30.5 L 7 30.5 C 6.351562 30.5 5.800781 30.898438 5.601562 31.550781 L 0.601562 46.550781 C 0.398438 47 0.5 47.5 0.800781 47.898438 C 1.050781 48.25 1.5 48.5 2 48.5 L 27.101562 48.5 C 27.75 48.5 28.351562 48.101562 28.550781 47.449219 L 31.148438 39.398438 C 31.398438 38.601562 31 37.75 30.199219 37.5 C 29.398438 37.25 28.550781 37.648438 28.300781 38.449219 L 26 45.449219 L 4.101562 45.449219 L 8.101562 33.449219 L 45.25 33.449219 L 40.898438 59.601562 C 40.800781 60.101562 40.398438 60.449219 39.898438 60.449219 L 33.5 60.449219 L 33.5 51.949219 C 33.5 51.101562 32.851562 50.449219 32 50.449219 C 31.148438 50.449219 30.5 51.101562 30.5 51.949219 L 30.5 60.449219 L 14.101562 60.449219 C 13.601562 60.449219 13.199219 60.101562 13.101562 59.601562 L 11.800781 51.699219 C 11.648438 50.898438 10.898438 50.351562 10.050781 50.449219 C 9.25 50.601562 8.699219 51.351562 8.800781 52.199219 L 10.101562 60.101562 C 10.398438 62.050781 12.101562 63.449219 14.050781 63.449219 L 39.898438 63.449219 C 41.851562 63.449219 43.5 62.050781 43.851562 60.101562 L 48.5 32.25 C 48.550781 31.800781 48.449219 31.351562 48.148438 31.050781 Z M 54.5 60.5 C 53.671875 60.5 53 61.171875 53 62 C 53 62.828125 53.671875 63.5 54.5 63.5 C 55.328125 63.5 56 62.828125 56 62 C 56 61.171875 55.328125 60.5 54.5 60.5 Z M 4.5 25.5 C 3.671875 25.5 3 26.171875 3 27 C 3 27.828125 3.671875 28.5 4.5 28.5 C 5.328125 28.5 6 27.828125 6 27 C 6 26.171875 5.328125 25.5 4.5 25.5 Z M 4.5 25.5 "/>
</g>
</svg>
