<?xml version="1.0" encoding="UTF-8"?>
<svg xmlns="http://www.w3.org/2000/svg" xmlns:xlink="http://www.w3.org/1999/xlink" width="48px" height="48px" viewBox="0 0 48 48" version="1.1">
<g id="surface21070">
<path style=" stroke:none;fill-rule:nonzero;fill:rgb(47.45098%,33.333333%,28.235294%);fill-opacity:1;" d="M 27 14 C 39 14 40 17 40 17 C 40 17 42 21 42 25 C 42 32.214844 40 42 27 42 C 14 42 12 32.214844 12 25 C 12 21 14 17 14 17 C 14 17 15 14 27 14 Z M 27 14 "/>
<path style=" stroke:none;fill-rule:nonzero;fill:rgb(30.588235%,20.392157%,18.039216%);fill-opacity:1;" d="M 27 13 C 19.820312 13 14 15.015625 14 17.5 C 14 19.984375 19.820312 22 27 22 C 34.179688 22 40 19.984375 40 17.5 C 40 15.015625 34.179688 13 27 13 Z M 27 13 "/>
<path style=" stroke:none;fill-rule:nonzero;fill:rgb(98.039216%,98.039216%,98.039216%);fill-opacity:1;" d="M 37.941406 17.5 C 37.28125 16.6875 33.539062 15 27 15 C 20.460938 15 16.71875 16.6875 16.058594 17.5 C 16.71875 18.3125 20.460938 20 27 20 C 28.246094 20 29.394531 19.9375 30.4375 19.832031 L 32.726562 21.53125 C 33.6875 23.257812 34.355469 25.714844 34.707031 28.449219 C 34.710938 28.441406 34.710938 28.4375 34.714844 28.429688 C 34.785156 27.664062 35.070312 23.199219 34.429688 19.976562 C 34.367188 19.710938 34.316406 19.449219 34.246094 19.179688 L 34.148438 19.191406 C 36.296875 18.644531 37.582031 17.941406 37.941406 17.5 Z M 37.941406 17.5 "/>
<path style=" stroke:none;fill-rule:nonzero;fill:rgb(24.313725%,15.294118%,13.72549%);fill-opacity:1;" d="M 34.246094 19.179688 C 35.125 22.40625 34.792969 27.601562 34.714844 28.429688 C 34.925781 29.523438 35.03125 34.492188 34.984375 36.09375 C 35.46875 35.046875 35.960938 33.273438 35.960938 33.273438 C 36.035156 33.011719 37.578125 27.480469 36.53125 20.5625 Z M 34.246094 19.179688 "/>
<path style=" stroke:none;fill-rule:nonzero;fill:rgb(100%,9.019608%,26.666667%);fill-opacity:1;" d="M 30.28125 19.847656 L 36.695312 7.824219 L 42 5.894531 L 41.367188 4 L 35.683594 6.050781 C 35.441406 6.132812 35.238281 6.304688 35.117188 6.53125 L 27.941406 19.984375 C 28.769531 19.964844 29.554688 19.917969 30.28125 19.847656 Z M 30.28125 19.847656 "/>
<path style=" stroke:none;fill-rule:nonzero;fill:rgb(100%,92.156863%,23.137255%);fill-opacity:1;" d="M 14.539062 16.222656 C 15.421875 16.980469 16.058594 17.5 16.058594 17.5 C 16.488281 18.027344 18.234375 18.925781 21.199219 19.488281 C 21.710938 18.4375 22 17.253906 22 16 C 22 11.582031 18.417969 8 14 8 C 9.582031 8 6 11.582031 6 16 C 6 19.75 8.582031 22.890625 12.0625 23.753906 C 12.398438 20.210938 14.0625 16.53125 14.539062 16.222656 Z M 14.539062 16.222656 "/>
<path style=" stroke:none;fill-rule:nonzero;fill:rgb(36.470588%,25.098039%,21.568627%);fill-opacity:1;" d="M 27 42 C 25.390625 42.078125 23.777344 41.550781 22.367188 40.71875 C 20.945312 39.886719 19.710938 38.699219 18.800781 37.316406 C 17.878906 35.933594 17.289062 34.363281 16.988281 32.777344 C 16.691406 31.1875 16.671875 29.566406 17 28.003906 C 17.503906 29.519531 17.945312 30.96875 18.488281 32.347656 C 19.035156 33.726562 19.683594 35.019531 20.46875 36.214844 C 22.035156 38.605469 24.199219 40.535156 27 42 Z M 27.5 31.042969 C 27.90625 31.960938 28.101562 32.882812 28.242188 33.800781 C 28.371094 34.722656 28.414062 35.644531 28.386719 36.5625 C 28.359375 37.480469 28.257812 38.402344 28.0625 39.316406 C 27.839844 40.222656 27.601562 41.164062 27 42 C 26.769531 41.039062 26.585938 40.144531 26.488281 39.230469 C 26.390625 38.316406 26.359375 37.410156 26.390625 36.5 C 26.417969 35.589844 26.507812 34.679688 26.675781 33.769531 C 26.851562 32.859375 27.074219 31.953125 27.5 31.042969 Z M 27.5 31.042969 "/>
<path style=" stroke:none;fill-rule:nonzero;fill:rgb(100%,99.215686%,90.588235%);fill-opacity:1;" d="M 13 9 L 15 9 L 15 16 L 13 16 Z M 13 9 "/>
<path style=" stroke:none;fill-rule:nonzero;fill:rgb(100%,99.215686%,90.588235%);fill-opacity:1;" d="M 9.757812 10.34375 L 8.34375 11.757812 L 13.355469 16.789062 L 14.769531 15.375 Z M 9.757812 10.34375 "/>
<path style=" stroke:none;fill-rule:nonzero;fill:rgb(100%,99.215686%,90.588235%);fill-opacity:1;" d="M 14.539062 16.222656 C 14.894531 16.527344 15.207031 16.789062 15.457031 17 L 21.125 17 L 21.125 15 L 7 15 L 7 17 L 14 17 C 14.085938 16.734375 14.324219 16.472656 14.539062 16.222656 Z M 14.539062 16.222656 "/>
<path style=" stroke:none;fill-rule:nonzero;fill:rgb(100%,99.215686%,90.588235%);fill-opacity:1;" d="M 14.539062 16.222656 C 14.683594 16.347656 14.820312 16.464844 14.953125 16.574219 L 19.65625 11.757812 L 18.242188 10.34375 L 8.34375 20.242188 L 9.757812 21.65625 L 13.660156 17.753906 C 14 16.898438 14.335938 16.464844 14.539062 16.222656 Z M 14.539062 16.222656 "/>
<path style=" stroke:none;fill-rule:nonzero;fill:rgb(100%,75.686275%,2.745098%);fill-opacity:1;" d="M 7.5 16 C 7.5 12.414062 10.414062 9.5 14 9.5 C 17.585938 9.5 20.5 12.414062 20.5 16 C 20.5 17.144531 20.195312 18.214844 19.675781 19.144531 C 20.140625 19.269531 20.648438 19.382812 21.199219 19.488281 C 21.710938 18.4375 22 17.253906 22 16 C 22 11.582031 18.417969 8 14 8 C 9.582031 8 6 11.582031 6 16 C 6 19.75 8.582031 22.890625 12.0625 23.753906 C 12.113281 23.246094 12.183594 22.746094 12.277344 22.261719 C 9.527344 21.503906 7.5 18.984375 7.5 16 Z M 7.5 16 "/>
</g>
</svg>
