<?xml version="1.0" encoding="UTF-8"?>
<svg xmlns="http://www.w3.org/2000/svg" xmlns:xlink="http://www.w3.org/1999/xlink" width="50px" height="50px" viewBox="0 0 50 50" version="1.1">
<g id="surface21039">
<path style=" stroke:none;fill-rule:nonzero;fill:rgb(20%,20%,20%);fill-opacity:1;" d="M 5 4 C 3.355469 4 2 5.355469 2 7 C 2 8.644531 3.355469 10 5 10 C 5.253906 10 5.496094 9.957031 5.730469 9.898438 L 8.015625 13.332031 C 7.769531 13.695312 7.5625 14.070312 7.476562 14.472656 C 7.476562 14.476562 7.480469 14.480469 7.484375 14.484375 C 7.179688 15.265625 7 16.109375 7 17 C 7 17.550781 7.449219 18 8 18 C 8.550781 18 9 17.550781 9 17 C 9 16.695312 9.03125 16.398438 9.085938 16.109375 C 10.054688 17.097656 11.023438 18.078125 12.003906 19.078125 C 12.011719 19.375 12.03125 19.667969 12.0625 19.957031 C 12.066406 19.972656 12.066406 19.992188 12.066406 20.011719 C 12.246094 21.507812 12.78125 22.863281 13.515625 24.0625 C 13.285156 24.488281 13 24.851562 13 25.5 C 13 27.519531 13.742188 29.386719 15 30.753906 L 15 33.40625 C 10.871094 36.875 6.496094 40.222656 3 42 C 7.164062 42 11.238281 41.160156 15.691406 38.757812 C 15.75 38.867188 15.800781 38.980469 15.859375 39.09375 C 16.355469 39.996094 17.003906 40.914062 17.703125 41.753906 C 18.398438 42.59375 19.132812 43.351562 19.828125 43.925781 C 20.523438 44.5 21.039062 45 22 45 L 28 45 C 28.945312 45 29.46875 44.515625 30.167969 43.949219 C 30.863281 43.382812 31.597656 42.636719 32.296875 41.800781 C 32.691406 41.328125 33.078125 40.835938 33.433594 40.335938 C 34.464844 43.15625 37 45 37 45 L 37 41 C 37 40.703125 37.046875 40.402344 37.125 40.09375 C 40.511719 41.472656 43.726562 42 47 42 C 44.542969 40.75 41.640625 38.710938 38.703125 36.410156 C 39.375 34.90625 40 33.15625 40 31 C 40 26.222656 38.058594 19.214844 38.015625 19.054688 C 38.988281 18.066406 39.953125 17.089844 40.917969 16.109375 C 40.96875 16.398438 41 16.695312 41 17 C 41 17.550781 41.449219 18 42 18 C 42.550781 18 43 17.550781 43 17 C 43 16.109375 42.820312 15.265625 42.515625 14.484375 C 42.519531 14.480469 42.523438 14.476562 42.527344 14.472656 C 42.4375 14.074219 42.230469 13.695312 41.984375 13.332031 L 44.269531 9.898438 C 44.503906 9.957031 44.746094 10 45 10 C 46.644531 10 48 8.644531 48 7 C 48 5.355469 46.644531 4 45 4 C 43.355469 4 42 5.355469 42 7 C 42 7.460938 42.113281 7.890625 42.300781 8.28125 L 39.589844 10.988281 C 39.207031 10.757812 38.789062 10.578125 38.359375 10.425781 C 38.351562 10.421875 38.277344 10.378906 38.277344 10.378906 L 38.265625 10.390625 C 37.550781 10.144531 36.792969 10 36 10 C 35.449219 10 35 10.449219 35 11 C 35 11.550781 35.449219 12 36 12 C 36.273438 12 36.539062 12.027344 36.800781 12.070312 C 36.53125 12.378906 36.136719 12.816406 35.796875 13.199219 C 35.273438 12.589844 34.683594 12.039062 34.035156 11.5625 C 31.757812 9.886719 28.886719 9 26.199219 9 L 23.800781 9 C 21.113281 9 18.242188 9.886719 15.964844 11.5625 C 15.316406 12.039062 14.726562 12.589844 14.203125 13.199219 C 13.863281 12.816406 13.46875 12.378906 13.199219 12.070312 C 13.460938 12.027344 13.726562 12 14 12 C 14.550781 12 15 11.550781 15 11 C 15 10.449219 14.550781 10 14 10 C 13.207031 10 12.449219 10.144531 11.734375 10.390625 L 11.722656 10.378906 C 11.722656 10.378906 11.648438 10.421875 11.640625 10.425781 C 11.210938 10.578125 10.792969 10.757812 10.410156 10.988281 L 7.695312 8.28125 C 7.886719 7.890625 8 7.460938 8 7 C 8 5.355469 6.644531 4 5 4 Z M 5 6 C 5.5625 6 6 6.4375 6 7 C 6 7.5625 5.5625 8 5 8 C 4.4375 8 4 7.5625 4 7 C 4 6.4375 4.4375 6 5 6 Z M 45 6 C 45.5625 6 46 6.4375 46 7 C 46 7.5625 45.5625 8 45 8 C 44.4375 8 44 7.5625 44 7 C 44 6.4375 44.4375 6 45 6 Z M 23.800781 11 L 26.199219 11 C 28.433594 11 30.960938 11.78125 32.851562 13.171875 C 33.472656 13.632812 34.015625 14.152344 34.480469 14.722656 C 34.609375 14.886719 34.71875 15.066406 34.839844 15.238281 C 32.742188 14.113281 29.558594 13 25 13 C 20.441406 13 17.257812 14.113281 15.160156 15.238281 C 15.28125 15.066406 15.390625 14.886719 15.519531 14.722656 C 15.984375 14.152344 16.527344 13.632812 17.148438 13.171875 C 19.039062 11.78125 21.566406 11 23.800781 11 Z M 11.667969 12.605469 C 12.089844 13.089844 12.644531 13.710938 13.296875 14.441406 C 12.789062 15.261719 12.417969 16.171875 12.203125 17.152344 C 11.351562 16.285156 10.5 15.417969 9.660156 14.5625 C 10.128906 13.730469 10.820312 13.054688 11.667969 12.605469 Z M 38.332031 12.605469 C 39.175781 13.054688 39.871094 13.730469 40.339844 14.5625 C 39.5 15.417969 38.648438 16.285156 37.796875 17.152344 C 37.582031 16.171875 37.210938 15.261719 36.703125 14.441406 C 37.355469 13.714844 37.910156 13.089844 38.332031 12.605469 Z M 25 15 C 31.347656 15 34.742188 17.3125 35.964844 18.371094 C 35.980469 18.558594 36 18.746094 36 18.941406 C 36 18.960938 35.996094 18.980469 35.996094 19 L 14.003906 19 C 14.003906 18.980469 14 18.960938 14 18.941406 C 14 18.746094 14.019531 18.558594 14.035156 18.371094 C 15.257812 17.3125 18.652344 15 25 15 Z M 14.296875 21 L 35.703125 21 C 35.644531 21.203125 35.582031 21.402344 35.507812 21.605469 C 35.511719 21.601562 35.515625 21.597656 35.515625 21.59375 C 35.285156 22.226562 34.988281 22.828125 34.609375 23.390625 L 34.203125 24 L 34.660156 24.578125 C 34.878906 24.847656 35 25.148438 35 25.5 C 35 25.804688 34.96875 26.101562 34.933594 26.390625 C 34.917969 26.484375 34.90625 26.578125 34.890625 26.667969 C 34.855469 26.855469 34.808594 27.035156 34.761719 27.214844 C 34.679688 27.507812 34.585938 27.792969 34.464844 28.0625 C 34.464844 28.0625 34.460938 28.066406 34.460938 28.070312 C 34.117188 28.832031 33.625 29.488281 33.023438 29.988281 L 33.023438 29.992188 C 32.976562 30.03125 32.929688 30.078125 32.878906 30.113281 C 32.820312 30.160156 32.769531 30.207031 32.707031 30.246094 C 32.589844 30.332031 32.460938 30.40625 32.332031 30.480469 C 32.199219 30.554688 32.0625 30.621094 31.921875 30.683594 C 31.828125 30.722656 31.738281 30.765625 31.640625 30.800781 C 31.382812 30.890625 31.121094 30.96875 30.84375 31.011719 L 30 31.144531 L 30 36 C 30 36.414062 29.75 36.769531 29.390625 36.921875 C 29.269531 36.972656 29.136719 37 29 37 L 21 37 C 20.445312 37 20.019531 36.578125 20.003906 36.027344 C 20.003906 36.019531 20 36.011719 20 36 L 20 31.144531 L 19.15625 31.011719 C 18.917969 30.972656 18.691406 30.902344 18.46875 30.828125 C 18.359375 30.792969 18.253906 30.757812 18.148438 30.714844 C 18.125 30.703125 18.101562 30.695312 18.078125 30.683594 C 17.9375 30.621094 17.800781 30.554688 17.667969 30.480469 C 17.539062 30.40625 17.410156 30.332031 17.292969 30.246094 C 17.230469 30.207031 17.179688 30.160156 17.121094 30.113281 C 16.976562 30.003906 16.832031 29.886719 16.699219 29.753906 L 16.609375 29.667969 C 15.605469 28.648438 15 27.167969 15 25.5 C 15 25.289062 15.316406 24.601562 15.339844 24.578125 L 15.800781 24.003906 L 15.390625 23.390625 C 15.011719 22.828125 14.714844 22.226562 14.484375 21.59375 C 14.484375 21.597656 14.488281 21.601562 14.492188 21.605469 C 14.417969 21.40625 14.355469 21.203125 14.296875 21 Z M 20.511719 23 C 20.117188 23.007812 19.667969 23.03125 19.230469 23.097656 C 18.789062 23.164062 18.351562 23.253906 17.914062 23.5 C 17.480469 23.75 17.011719 24.316406 17.007812 24.96875 C 16.964844 26.472656 17.4375 27.59375 18.1875 28.234375 C 18.941406 28.882812 19.820312 29 20.421875 29 L 21.3125 29 C 22.769531 29 24 27.804688 24 26.246094 L 24 25.660156 C 24 25.140625 23.863281 24.585938 23.480469 24.035156 C 23.097656 23.488281 22.359375 23 21.480469 23 C 21.25 23 20.90625 22.992188 20.511719 23 Z M 28.519531 23 C 27.640625 23 26.902344 23.488281 26.519531 24.035156 C 26.136719 24.585938 26 25.140625 26 25.660156 L 26 26.246094 C 26 27.804688 27.230469 29 28.6875 29 L 29.582031 29 C 30.183594 29 31.058594 28.882812 31.8125 28.234375 C 32.566406 27.59375 33.035156 26.472656 32.992188 24.96875 C 32.988281 24.316406 32.519531 23.75 32.085938 23.5 C 31.648438 23.253906 31.210938 23.164062 30.769531 23.097656 C 29.894531 22.96875 28.980469 23 28.519531 23 Z M 37.054688 23.65625 C 37.53125 25.941406 38 28.761719 38 31 C 38 32.777344 37.496094 34.226562 36.890625 35.578125 C 36.878906 35.597656 36.863281 35.601562 36.855469 35.625 C 36.828125 35.679688 36.789062 35.792969 36.761719 35.859375 C 36.617188 36.167969 36.472656 36.480469 36.324219 36.785156 C 35.894531 37.679688 35.476562 38.546875 35.230469 39.429688 C 35.085938 38.976562 35 38.496094 35 38 L 35 36.40625 C 35 36.398438 35 36.394531 35 36.386719 L 35 30.855469 C 36.015625 29.742188 36.667969 28.316406 36.902344 26.753906 C 36.90625 26.726562 36.90625 26.699219 36.910156 26.671875 C 36.964844 26.285156 37 25.898438 37 25.5 C 37 25.429688 36.996094 25.359375 36.988281 25.296875 C 36.996094 25.199219 37 25.101562 37 25 C 37 24.640625 36.964844 24.296875 36.894531 23.96875 C 36.953125 23.863281 37.003906 23.761719 37.054688 23.65625 Z M 21.480469 25 C 21.722656 25 21.746094 25.050781 21.84375 25.1875 C 21.9375 25.320312 22 25.59375 22 25.660156 L 22 26.246094 C 22 26.632812 21.519531 27 21.3125 27 L 20.421875 27 C 20.101562 27 19.726562 26.921875 19.484375 26.714844 C 19.261719 26.523438 19.039062 26.121094 19.027344 25.207031 C 19.128906 25.164062 19.273438 25.113281 19.519531 25.078125 C 20.132812 24.984375 20.957031 25 21.480469 25 Z M 28.519531 25 C 29.042969 25 29.867188 24.984375 30.480469 25.078125 C 30.726562 25.113281 30.871094 25.167969 30.972656 25.207031 C 30.960938 26.121094 30.738281 26.523438 30.515625 26.714844 C 30.273438 26.921875 29.898438 27 29.582031 27 L 28.6875 27 C 28.480469 27 28 26.632812 28 26.246094 L 28 25.660156 C 28 25.59375 28.0625 25.320312 28.15625 25.1875 C 28.253906 25.050781 28.277344 25 28.519531 25 Z M 25 29 C 24.34375 29 23.828125 29.351562 23.472656 29.726562 C 23.117188 30.101562 22.867188 30.53125 22.65625 30.980469 C 22.242188 31.875 22 32.773438 22 33.554688 C 22 33.757812 22.015625 33.96875 22.117188 34.21875 C 22.21875 34.46875 22.464844 34.761719 22.753906 34.890625 C 23.339844 35.152344 23.683594 34.960938 23.925781 34.875 C 24.417969 34.710938 24.789062 34.554688 25 34.554688 C 25.210938 34.554688 25.582031 34.710938 26.074219 34.875 C 26.316406 34.960938 26.660156 35.152344 27.246094 34.890625 C 27.535156 34.761719 27.78125 34.46875 27.882812 34.21875 C 27.984375 33.96875 28 33.757812 28 33.554688 C 28 32.738281 27.722656 31.851562 27.296875 30.96875 C 27.082031 30.523438 26.832031 30.101562 26.488281 29.734375 C 26.148438 29.367188 25.667969 29 25 29 Z M 24.980469 31.054688 C 24.996094 31.070312 24.996094 31.066406 25.023438 31.09375 C 25.15625 31.238281 25.339844 31.515625 25.496094 31.835938 C 25.65625 32.175781 25.671875 32.410156 25.761719 32.746094 C 25.488281 32.664062 25.375 32.554688 25 32.554688 C 24.617188 32.554688 24.496094 32.664062 24.21875 32.75 C 24.300781 32.410156 24.316406 32.160156 24.472656 31.824219 C 24.621094 31.507812 24.792969 31.238281 24.921875 31.105469 C 24.953125 31.070312 24.960938 31.070312 24.980469 31.054688 Z M 33 32.378906 L 33 36.398438 C 32.988281 37.109375 32.007812 39.03125 30.765625 40.519531 C 30.136719 41.265625 29.464844 41.941406 28.902344 42.398438 C 28.339844 42.855469 27.761719 43 28 43 L 22 43 C 22.253906 43 21.667969 42.855469 21.105469 42.386719 C 20.542969 41.917969 19.867188 41.234375 19.238281 40.476562 C 18.613281 39.71875 18.027344 38.886719 17.617188 38.136719 C 17.332031 37.613281 17.152344 37.128906 17.0625 36.773438 C 17.039062 36.640625 17 36.5 17 36.386719 L 17 32.398438 C 17.320312 32.558594 17.65625 32.691406 18 32.796875 L 18 36 C 18 36.214844 18.027344 36.425781 18.070312 36.628906 C 18.074219 36.648438 18.082031 36.660156 18.085938 36.675781 C 18.128906 36.859375 18.183594 37.035156 18.261719 37.203125 C 18.261719 37.210938 18.265625 37.21875 18.265625 37.222656 C 18.269531 37.222656 18.269531 37.222656 18.269531 37.222656 C 18.746094 38.265625 19.789062 39 21 39 L 22 39 L 22 41 L 24 41 L 24 39 L 26 39 L 26 41 L 28 41 L 28 39 L 29 39 C 30.644531 39 32 37.644531 32 36 L 32 32.707031 C 32.335938 32.605469 32.691406 32.53125 33 32.378906 Z M 15 35.359375 L 15 36.386719 C 15 36.710938 15.058594 37.03125 15.140625 37.347656 C 13.242188 38.386719 11.378906 39.164062 9.46875 39.679688 C 11.152344 38.464844 13.007812 37.003906 15 35.359375 Z M 38.0625 37.816406 C 38.910156 38.476562 39.738281 39.109375 40.519531 39.671875 C 39.558594 39.414062 38.605469 39.082031 37.652344 38.691406 C 37.777344 38.414062 37.917969 38.113281 38.0625 37.816406 Z M 38.0625 37.816406 "/>
</g>
</svg>
