<?xml version="1.0" encoding="UTF-8"?>
<svg xmlns="http://www.w3.org/2000/svg" xmlns:xlink="http://www.w3.org/1999/xlink" width="48px" height="48px" viewBox="0 0 48 48" version="1.1">
<g id="surface20778">
<path style=" stroke:none;fill-rule:nonzero;fill:rgb(47.45098%,52.54902%,79.607843%);fill-opacity:1;" d="M 40 15 C 21.101562 34.300781 13 42.5 4 41 C 18.699219 33.5 37 12 37 12 C 37 12 39.5 12.699219 40 15 Z M 8 15 C 26.898438 34.300781 35 42.5 44 41 C 29.300781 33.5 11 12 11 12 C 11 12 8.5 12.699219 8 15 Z M 8 15 "/>
<path style=" stroke:none;fill-rule:nonzero;fill:rgb(73.72549%,66.666667%,64.313725%);fill-opacity:1;" d="M 26 40 L 22 40 C 20.898438 40 17 35 17 33 L 17 29 C 17 27.898438 17.898438 27 19 27 L 29 27 C 30.101562 27 31 27.898438 31 29 L 31 33 C 31 35.101562 27.101562 40 26 40 Z M 26 40 "/>
<path style=" stroke:none;fill-rule:nonzero;fill:rgb(22.352941%,28.627451%,67.058824%);fill-opacity:1;" d="M 41 18 C 40.398438 18 40 17.601562 40 17 C 40 14.199219 37.800781 12 35 12 C 34.398438 12 34 11.601562 34 11 C 34 10.398438 34.398438 10 35 10 C 36.300781 10 37.5 10.398438 38.601562 11 L 43.300781 6.300781 C 43.398438 6.199219 43.398438 6.199219 43.5 6.101562 C 43.601562 6.101562 43.800781 6 43.898438 6 C 44 6 44.199219 6 44.300781 6.101562 C 44.398438 6.101562 44.5 6.199219 44.601562 6.300781 C 44.699219 6.398438 44.800781 6.5 44.800781 6.601562 C 44.898438 6.601562 45 6.800781 45 6.898438 C 45 7 45 7.199219 44.898438 7.300781 C 44.898438 7.398438 44.800781 7.5 44.800781 7.5 L 41 13.300781 C 41.699219 14.398438 42 15.601562 42 17 C 42 17.601562 41.601562 18 41 18 Z M 7 18 C 6.398438 18 6 17.601562 6 17 C 6 15.699219 6.398438 14.398438 7 13.300781 L 3.199219 7.601562 C 3.101562 7.5 3.101562 7.398438 3.101562 7.300781 C 3 7.199219 3 7 3 6.898438 C 3 6.800781 3.101562 6.601562 3.101562 6.5 C 3.199219 6.398438 3.199219 6.300781 3.300781 6.199219 C 3.398438 6.101562 3.5 6.101562 3.601562 6 C 3.800781 6 4 6 4.101562 6 C 4.199219 6 4.398438 6.101562 4.5 6.101562 C 4.601562 6.101562 4.601562 6.199219 4.699219 6.300781 L 9.398438 11 C 10.5 10.398438 11.699219 10 13 10 C 13.601562 10 14 10.398438 14 11 C 14 11.601562 13.601562 12 13 12 C 10.199219 12 8 14.199219 8 17 C 8 17.601562 7.601562 18 7 18 Z M 7 18 "/>
<path style=" stroke:none;fill-rule:nonzero;fill:rgb(36.078431%,41.960784%,75.294118%);fill-opacity:1;" d="M 4 5 C 5.101562 5 6 5.898438 6 7 C 6 8.101562 5.101562 9 4 9 C 2.898438 9 2 8.101562 2 7 C 2 5.898438 2.898438 5 4 5 Z M 44 5 C 42.898438 5 42 5.898438 42 7 C 42 8.101562 42.898438 9 44 9 C 45.101562 9 46 8.101562 46 7 C 46 5.898438 45.101562 5 44 5 Z M 44 5 "/>
<path style=" stroke:none;fill-rule:nonzero;fill:rgb(84.313725%,80%,78.431373%);fill-opacity:1;" d="M 34 19.5 C 34 14.800781 29.101562 12 25 12 L 23 12 C 18.898438 12 14 14.800781 14 19.5 C 14 21.101562 14.5 22.5 15.300781 23.699219 C 15.101562 24.101562 15 24.5 15 25 C 15 27.699219 16.5 29.5 19 29.898438 L 19 34 C 19 35.101562 19.898438 36 21 36 L 21 38 L 23 38 L 23 36 L 24.898438 36 L 24.898438 38 L 26.898438 38 L 26.898438 36 L 27 36 C 28.101562 36 29 35.101562 29 34 L 29 29.898438 C 31.5 29.5 33 27.699219 33 25 C 33 24.5 32.898438 24.101562 32.699219 23.699219 C 33.5 22.5 34 21.101562 34 19.5 Z M 34 19.5 "/>
<path style=" stroke:none;fill-rule:nonzero;fill:rgb(100%,23.921569%,0%);fill-opacity:1;" d="M 34 41 C 34 42.398438 35 44 35 44 C 35 44 32 42.101562 32 38 C 32 33.898438 31 33.300781 31 31 C 31 30.5 31 29.898438 31.101562 29.101562 C 32.300781 28.199219 33 26.800781 33 25 C 33 24.5 32.898438 24.101562 32.699219 23.699219 C 33.300781 22.898438 33.601562 22 33.898438 21 L 34 21 C 34 21 36 27.601562 36 31 C 36 34.398438 34 39.601562 34 41 Z M 14 19 L 14 21 C 14 21 15.300781 22 24 22 C 32.699219 22 34 21 34 21 L 34 19 C 34 19 31.101562 15 24 15 C 16.898438 15 14 19 14 19 Z M 14 19 "/>
<path style=" stroke:none;fill-rule:nonzero;fill:rgb(47.45098%,33.333333%,28.235294%);fill-opacity:1;" d="M 28 28 L 26.699219 28 C 25.699219 28 24.898438 27.199219 24.898438 26.199219 L 24.898438 25.601562 C 24.898438 25 25.101562 23.898438 26 23.898438 C 26.898438 23.898438 30.898438 23.800781 30.898438 24.898438 C 31 27.601562 29.101562 28 28 28 Z M 20 28 L 21.300781 28 C 22.300781 28 23.101562 27.199219 23.101562 26.199219 L 23.101562 25.601562 C 23.101562 25 22.898438 23.898438 22 23.898438 C 21.101562 23.898438 17 23.898438 17 25 C 17 27.601562 18.898438 28 20 28 Z M 24.101562 28 C 23 28 22.199219 30.800781 22.199219 31.898438 C 22.199219 33 23.101562 31.898438 24.101562 31.898438 C 25.101562 31.898438 26 33 26 31.898438 C 26 30.800781 25.101562 28 24.101562 28 Z M 24.101562 28 "/>
<path style=" stroke:none;fill-rule:nonzero;fill:rgb(93.72549%,92.156863%,91.372549%);fill-opacity:1;" d="M 23 36 L 21 36 L 21 34 L 23 34 Z M 26.898438 34 L 24.898438 34 L 24.898438 36 L 26.898438 36 Z M 26.898438 34 "/>
<path style=" stroke:none;fill-rule:nonzero;fill:rgb(86.666667%,17.254902%,0%);fill-opacity:1;" d="M 14 20 C 14 20 14.300781 19.800781 14.800781 19.5 C 15.300781 19.199219 16 18.898438 17 18.5 C 17.898438 18.199219 19 17.898438 20.300781 17.699219 C 21.5 17.5 22.800781 17.398438 24.101562 17.5 C 24.699219 17.5 25.398438 17.5 26 17.601562 C 26.601562 17.699219 27.300781 17.800781 27.898438 17.898438 C 28.5 18 29.101562 18.101562 29.601562 18.300781 C 30.101562 18.398438 30.601562 18.601562 31.101562 18.699219 C 32 19 32.800781 19.300781 33.300781 19.601562 C 33.699219 19.800781 34 20 34 20 C 34 20 33.699219 20 33.101562 20 C 32.5 20 31.699219 19.898438 30.800781 19.898438 C 30.300781 19.898438 29.800781 19.800781 29.300781 19.800781 C 28.800781 19.800781 28.199219 19.800781 27.601562 19.699219 C 27 19.601562 26.398438 19.699219 25.800781 19.601562 C 25.199219 19.601562 24.601562 19.601562 24 19.5 C 23.398438 19.5 22.800781 19.5 22.199219 19.5 C 21.601562 19.5 21 19.5 20.398438 19.5 C 19.800781 19.5 19.300781 19.5 18.699219 19.601562 C 18.199219 19.601562 17.699219 19.699219 17.199219 19.699219 C 16.699219 19.699219 16.300781 19.800781 15.898438 19.800781 C 15.5 19.800781 15.199219 19.898438 14.898438 19.898438 C 14.300781 19.898438 14 20 14 20 Z M 34.398438 43.199219 C 34.101562 42.601562 33.800781 41.800781 33.699219 40.699219 C 32.699219 31.398438 34 21 34 21 C 34 21 33.898438 21.101562 33.800781 21.300781 C 33.601562 22.199219 33.199219 23 32.699219 23.699219 C 32.898438 24 33 24.5 33 25 C 33 26.898438 32.300781 28.300781 31 29.101562 L 31 32.800781 C 31.5 34.199219 32 35.898438 32 38 C 32 42.101562 35 44 35 44 C 35 44 34.699219 43.699219 34.398438 43.199219 Z M 34.398438 43.199219 "/>
<path style=" stroke:none;fill-rule:nonzero;fill:rgb(100%,75.686275%,2.745098%);fill-opacity:1;" d="M 20 19.5 C 20 20.300781 19.300781 21 18.5 21 C 17.699219 21 17 20.300781 17 19.5 C 17 18.699219 17.699219 18 18.5 18 C 19.300781 18 20 18.699219 20 19.5 Z M 18.5 17 C 18.199219 17 18 17.199219 18 17.5 C 18 17.800781 18.199219 18 18.5 18 C 18.800781 18 19 17.800781 19 17.5 C 19 17.199219 18.800781 17 18.5 17 Z M 18.5 16 C 18.199219 16 18 16.199219 18 16.5 C 18 16.800781 18.199219 17 18.5 17 C 18.800781 17 19 16.800781 19 16.5 C 19 16.199219 18.800781 16 18.5 16 Z M 18.5 16 "/>
</g>
</svg>
