<?xml version="1.0" encoding="UTF-8"?>
<svg xmlns="http://www.w3.org/2000/svg" xmlns:xlink="http://www.w3.org/1999/xlink" width="64px" height="64px" viewBox="0 0 64 64" version="1.1">
<g id="surface21634">
<path style=" stroke:none;fill-rule:nonzero;fill:rgb(100%,100%,100%);fill-opacity:1;" d="M 26 41 L 22 41 L 14.042969 60.449219 C 13.546875 61.667969 14.441406 63 15.757812 63 C 16.507812 63 17.1875 62.546875 17.46875 61.851562 Z M 52 27 L 10 27 C 8.894531 27 8 26.105469 8 25 C 8 23.894531 8.894531 23 10 23 L 52 23 C 53.105469 23 54 23.894531 54 25 C 54 26.105469 53.105469 27 52 27 Z M 52 27 "/>
<path style=" stroke:none;fill-rule:nonzero;fill:rgb(100%,100%,100%);fill-opacity:1;" d="M 10.871094 27 L 11.117188 28.425781 C 12.785156 38.007812 21.097656 45 30.820312 45 L 31.179688 45 C 40.902344 45 49.214844 38.007812 50.882812 28.425781 L 51.128906 27 Z M 10.871094 27 "/>
<path style=" stroke:none;fill-rule:nonzero;fill:rgb(100%,100%,100%);fill-opacity:1;" d="M 18.167969 27 L 10.871094 27 L 11.117188 28.425781 C 12.785156 38.007812 21.097656 45 30.820312 45 L 31.179688 45 C 32.660156 45 34.101562 44.820312 35.5 44.511719 C 24.003906 41.726562 20.910156 32.347656 20.125 28.582031 C 19.929688 27.65625 19.113281 27 18.167969 27 Z M 18.167969 27 "/>
<path style=" stroke:none;fill-rule:nonzero;fill:rgb(100%,100%,100%);fill-opacity:1;" d="M 46.546875 57 L 40.46875 42.148438 C 40.1875 41.453125 39.507812 41 38.757812 41 C 37.441406 41 36.546875 42.332031 37.042969 43.550781 L 42.546875 57 Z M 46.546875 57 "/>
<path style=" stroke:none;fill-rule:nonzero;fill:rgb(100%,100%,100%);fill-opacity:1;" d="M 45 53 C 42.238281 53 40 55.238281 40 58 C 40 60.761719 42.238281 63 45 63 C 47.761719 63 50 60.761719 50 58 C 50 55.238281 47.761719 53 45 53 Z M 45 53 "/>
<path style=" stroke:none;fill-rule:nonzero;fill:rgb(20%,20%,20%);fill-opacity:1;" d="M 24.992188 19.902344 C 25.097656 19.941406 25.207031 19.957031 25.316406 19.957031 C 25.730469 19.957031 26.117188 19.695312 26.261719 19.28125 C 26.574219 18.367188 27.148438 17.695312 27.757812 16.984375 C 28.808594 15.761719 30 14.375 30 11.671875 C 30 8.96875 28.808594 7.578125 27.757812 6.351562 C 27.523438 6.078125 27.285156 5.800781 27.0625 5.507812 C 26.730469 5.066406 26.101562 4.980469 25.660156 5.3125 C 25.222656 5.644531 25.132812 6.273438 25.46875 6.714844 C 25.714844 7.039062 25.976562 7.347656 26.238281 7.652344 C 27.183594 8.753906 28 9.707031 28 11.671875 C 28 13.632812 27.183594 14.585938 26.242188 15.683594 C 25.566406 16.46875 24.804688 17.359375 24.367188 18.632812 C 24.191406 19.15625 24.46875 19.726562 24.992188 19.902344 Z M 36 11.671875 C 36 13.632812 35.183594 14.585938 34.242188 15.683594 C 33.566406 16.46875 32.804688 17.359375 32.367188 18.632812 C 32.191406 19.15625 32.46875 19.722656 32.992188 19.902344 C 33.097656 19.941406 33.207031 19.957031 33.316406 19.957031 C 33.730469 19.957031 34.121094 19.695312 34.261719 19.28125 C 34.574219 18.367188 35.148438 17.695312 35.761719 16.988281 C 36.808594 15.761719 38 14.375 38 11.671875 C 38 8.96875 36.808594 7.578125 35.757812 6.351562 C 34.816406 5.25 34 4.300781 34 2.335938 C 34 1.78125 33.550781 1.335938 33 1.335938 C 32.449219 1.335938 32 1.78125 32 2.335938 C 32 5.039062 33.191406 6.429688 34.242188 7.652344 C 35.183594 8.757812 36 9.707031 36 11.671875 Z M 43.632812 9.675781 C 43.792969 10.058594 44.164062 10.289062 44.558594 10.289062 C 44.683594 10.289062 44.816406 10.265625 44.941406 10.210938 C 45.453125 10 45.691406 9.414062 45.480469 8.902344 C 45.113281 8.027344 44.589844 7.34375 44.128906 6.789062 C 43.773438 6.363281 43.144531 6.304688 42.722656 6.660156 C 42.296875 7.015625 42.238281 7.644531 42.59375 8.066406 C 42.976562 8.53125 43.371094 9.046875 43.632812 9.675781 Z M 40.992188 19.90625 C 41.097656 19.941406 41.207031 19.960938 41.3125 19.960938 C 41.730469 19.960938 42.117188 19.695312 42.261719 19.28125 C 42.570312 18.371094 43.148438 17.699219 43.757812 16.988281 C 44.574219 16.035156 45.496094 14.960938 45.851562 13.226562 C 45.960938 12.683594 45.609375 12.15625 45.070312 12.046875 C 44.527344 11.933594 44 12.285156 43.890625 12.828125 C 43.640625 14.050781 42.992188 14.808594 42.238281 15.6875 C 41.566406 16.472656 40.804688 17.359375 40.367188 18.636719 C 40.1875 19.15625 40.46875 19.726562 40.992188 19.90625 Z M 16.992188 19.90625 C 17.097656 19.941406 17.207031 19.960938 17.3125 19.960938 C 17.730469 19.960938 18.117188 19.695312 18.261719 19.28125 C 18.570312 18.371094 19.148438 17.699219 19.757812 16.984375 C 20.808594 15.761719 22 14.371094 22 11.671875 C 22 11.117188 21.550781 10.671875 21 10.671875 C 20.449219 10.671875 20 11.117188 20 11.671875 C 20 13.632812 19.183594 14.585938 18.242188 15.683594 C 17.566406 16.46875 16.804688 17.359375 16.367188 18.636719 C 16.1875 19.15625 16.46875 19.726562 16.992188 19.90625 Z M 52 22 L 10 22 C 8.347656 22 7 23.347656 7 25 C 7 26.652344 8.347656 28 10 28 L 10.027344 28 L 10.128906 28.601562 C 11.21875 34.828125 14.960938 40.011719 20.078125 43.050781 L 13.121094 60.070312 C 12.761719 60.949219 12.859375 61.949219 13.390625 62.738281 C 13.921875 63.53125 14.808594 64 15.761719 64 C 16.921875 64 17.960938 63.300781 18.398438 62.230469 L 22.582031 52 L 39.417969 52 L 40.332031 54.230469 C 39.5 55.261719 39 56.570312 39 58 C 39 61.308594 41.691406 64 45 64 C 48.308594 64 51 61.308594 51 58 C 51 54.890625 48.628906 52.328125 45.601562 52.03125 L 41.921875 43.050781 C 47.039062 40.011719 50.78125 34.828125 51.871094 28.601562 L 51.972656 28 L 52 28 C 53.652344 28 55 26.652344 55 25 C 55 23.347656 53.652344 22 52 22 Z M 16.539062 61.46875 C 16.308594 62.058594 15.398438 62.148438 15.050781 61.621094 C 14.890625 61.378906 14.859375 61.089844 14.96875 60.828125 L 21.851562 44 C 22.359375 44.238281 22.878906 44.460938 23.421875 44.660156 Z M 23.398438 50 L 25.328125 45.28125 C 27.078125 45.75 28.929688 46 30.820312 46 L 31.179688 46 C 33.070312 46 34.921875 45.75 36.671875 45.28125 L 38.601562 50 Z M 46.53125 54.308594 C 47.980469 54.910156 49 56.328125 49 58 C 49 60.210938 47.210938 62 45 62 C 42.789062 62 41 60.210938 41 58 C 41 57.488281 41.101562 57 41.28125 56.550781 C 41.558594 55.808594 42.058594 55.179688 42.699219 54.730469 C 43.160156 54.410156 43.691406 54.171875 44.269531 54.070312 C 44.5 54.019531 44.75 54 45 54 C 45.539062 54 46.058594 54.109375 46.53125 54.308594 Z M 43.5 52.191406 C 42.941406 52.328125 42.410156 52.558594 41.929688 52.851562 L 38.578125 44.660156 L 37.96875 43.171875 C 37.921875 43.039062 37.898438 42.898438 37.910156 42.769531 C 37.921875 42.628906 37.96875 42.5 38.050781 42.378906 C 38.320312 41.980469 38.898438 41.929688 39.269531 42.199219 C 39.390625 42.269531 39.480469 42.390625 39.539062 42.53125 L 40.140625 44 Z M 49.898438 28.261719 C 48.929688 33.820312 45.628906 38.449219 41.089844 41.21875 C 40.570312 40.46875 39.710938 40 38.761719 40 C 37.800781 40 36.921875 40.46875 36.390625 41.261719 C 35.96875 41.890625 35.820312 42.660156 35.960938 43.390625 C 34.429688 43.789062 32.828125 44 31.179688 44 L 30.820312 44 C 29.191406 44 27.609375 43.800781 26.101562 43.410156 C 25.449219 43.238281 24.808594 43.039062 24.179688 42.808594 C 23.640625 42.609375 23.121094 42.390625 22.609375 42.140625 C 22 41.851562 21.410156 41.53125 20.851562 41.179688 C 16.351562 38.410156 13.070312 33.800781 12.101562 28.261719 L 12.058594 28 L 49.941406 28 Z M 52 26 L 10 26 C 9.449219 26 9 25.550781 9 25 C 9 24.449219 9.449219 24 10 24 L 52 24 C 52.550781 24 53 24.449219 53 25 C 53 25.550781 52.550781 26 52 26 Z M 52 26 "/>
<path style=" stroke:none;fill-rule:nonzero;fill:rgb(20%,20%,20%);fill-opacity:1;" d="M 45 56 C 43.894531 56 43 56.894531 43 58 C 43 59.105469 43.894531 60 45 60 C 46.105469 60 47 59.105469 47 58 C 47 56.894531 46.105469 56 45 56 Z M 16 34 C 16.550781 34 17 33.550781 17 33 L 17 31 C 17 30.449219 16.550781 30 16 30 C 15.449219 30 15 30.449219 15 31 L 15 33 C 15 33.550781 15.449219 34 16 34 Z M 21 34 C 21.550781 34 22 33.550781 22 33 L 22 31 C 22 30.449219 21.550781 30 21 30 C 20.449219 30 20 30.449219 20 31 L 20 33 C 20 33.550781 20.449219 34 21 34 Z M 26 34 C 26.550781 34 27 33.550781 27 33 L 27 31 C 27 30.449219 26.550781 30 26 30 C 25.449219 30 25 30.449219 25 31 L 25 33 C 25 33.550781 25.449219 34 26 34 Z M 36 34 C 36.550781 34 37 33.550781 37 33 L 37 31 C 37 30.449219 36.550781 30 36 30 C 35.449219 30 35 30.449219 35 31 L 35 33 C 35 33.550781 35.449219 34 36 34 Z M 31 34 C 31.550781 34 32 33.550781 32 33 L 32 31 C 32 30.449219 31.550781 30 31 30 C 30.449219 30 30 30.449219 30 31 L 30 33 C 30 33.550781 30.449219 34 31 34 Z M 41 34 C 41.550781 34 42 33.550781 42 33 L 42 31 C 42 30.449219 41.550781 30 41 30 C 40.449219 30 40 30.449219 40 31 L 40 33 C 40 33.550781 40.449219 34 41 34 Z M 46 34 C 46.550781 34 47 33.550781 47 33 L 47 31 C 47 30.449219 46.550781 30 46 30 C 45.449219 30 45 30.449219 45 31 L 45 33 C 45 33.550781 45.449219 34 46 34 Z M 46 34 "/>
</g>
</svg>
