<?xml version="1.0" encoding="UTF-8"?>
<svg xmlns="http://www.w3.org/2000/svg" xmlns:xlink="http://www.w3.org/1999/xlink" width="64px" height="64px" viewBox="0 0 64 64" version="1.1">
<g id="surface21051">
<path style=" stroke:none;fill-rule:nonzero;fill:rgb(100%,100%,100%);fill-opacity:1;" d="M 44.449219 16.601562 L 41 26.101562 L 41 14.398438 L 35 14.398438 L 35 9.398438 L 29 9.398438 L 29 19.398438 L 23 19.398438 L 23 27.5 L 19.050781 16.601562 L 13.398438 18.648438 L 21.949219 42.148438 L 23 41.800781 L 23 49.398438 L 29 49.398438 L 29 39.398438 L 36.148438 39.398438 L 35.898438 40.101562 L 41.550781 42.148438 L 50.101562 18.648438 Z M 44.449219 16.601562 "/>
<path style=" stroke:none;fill-rule:nonzero;fill:rgb(20%,20%,20%);fill-opacity:1;" d="M 16.699219 29.199219 C 16.101562 29.199219 15.5 28.800781 15.300781 28.199219 L 12 19.199219 C 11.699219 18.398438 12.101562 17.550781 12.898438 17.300781 L 17.148438 15.75 C 17.949219 15.449219 18.800781 15.851562 19.050781 16.648438 C 19.351562 17.449219 18.949219 18.300781 18.148438 18.550781 L 15.300781 19.601562 L 18.050781 27.199219 C 18.351562 28 17.949219 28.851562 17.148438 29.101562 C 17.050781 29.148438 16.851562 29.199219 16.699219 29.199219 Z M 46.800781 29.199219 C 46.648438 29.199219 46.449219 29.148438 46.300781 29.101562 C 45.5 28.800781 45.101562 27.949219 45.398438 27.199219 L 48.148438 19.601562 L 45.300781 18.550781 C 44.5 18.25 44.101562 17.398438 44.398438 16.648438 C 44.699219 15.851562 45.550781 15.449219 46.300781 15.75 L 50.550781 17.300781 C 50.898438 17.449219 51.25 17.699219 51.398438 18.101562 C 51.550781 18.449219 51.601562 18.851562 51.449219 19.25 L 48.148438 28.25 C 48 28.800781 47.449219 29.199219 46.800781 29.199219 Z M 23 28.5 C 22.148438 28.5 21.5 27.851562 21.5 27 L 21.5 19.398438 C 21.5 18.550781 22.148438 17.898438 23 17.898438 L 24.5 17.898438 C 25.351562 17.898438 26 18.550781 26 19.398438 C 26 20.25 25.351562 20.898438 24.5 20.898438 L 24.5 27 C 24.5 27.851562 23.851562 28.5 23 28.5 Z M 35 34.898438 C 34.148438 34.898438 33.5 34.25 33.5 33.398438 L 33.5 10.898438 L 30.5 10.898438 L 30.5 31.898438 C 30.5 32.75 29.851562 33.398438 29 33.398438 C 28.148438 33.398438 27.5 32.75 27.5 31.898438 L 27.5 9.398438 C 27.5 8.550781 28.148438 7.898438 29 7.898438 L 35 7.898438 C 35.851562 7.898438 36.5 8.550781 36.5 9.398438 L 36.5 33.398438 C 36.5 34.199219 35.851562 34.898438 35 34.898438 Z M 41 28.5 C 40.148438 28.5 39.5 27.851562 39.5 27 L 39.5 15.898438 C 38.648438 15.898438 38 15.25 38 14.398438 C 38 13.550781 38.648438 12.898438 39.5 12.898438 L 41 12.898438 C 41.851562 12.898438 42.5 13.550781 42.5 14.398438 L 42.5 27 C 42.5 27.851562 41.851562 28.5 41 28.5 Z M 41 28.5 "/>
<path style=" stroke:none;fill-rule:nonzero;fill:rgb(100%,100%,100%);fill-opacity:1;" d="M 40.851562 32 C 40.101562 32 39.5 32.550781 39.398438 33.25 C 38.800781 36.800781 35.699219 39.5 32 39.5 C 27.851562 39.5 24.5 36.148438 24.5 32 L 14.5 32 L 19.148438 59.898438 C 19.351562 61.101562 20.398438 62 21.601562 62 L 42.351562 62 C 43.550781 62 44.601562 61.101562 44.800781 59.898438 L 49.5 32 Z M 40.851562 32 "/>
<path style=" stroke:none;fill-rule:nonzero;fill:rgb(100%,100%,100%);fill-opacity:1;" d="M 26.25 53.5 L 45.898438 53.5 L 47.148438 46 L 26.25 46 C 23.949219 46 22.148438 48.101562 22.550781 50.351562 C 22.851562 52.148438 24.449219 53.5 26.25 53.5 Z M 26.25 53.5 "/>
<path style=" stroke:none;fill-rule:nonzero;fill:rgb(100%,100%,100%);fill-opacity:1;" d="M 39.398438 53.5 L 44.398438 53.5 L 45.648438 46 L 40.648438 46 Z M 39.398438 53.5 "/>
<path style=" stroke:none;fill-rule:nonzero;fill:rgb(20%,20%,20%);fill-opacity:1;" d="M 42.398438 63.5 L 21.601562 63.5 C 19.648438 63.5 18 62.101562 17.648438 60.148438 L 13 32.25 C 12.949219 31.800781 13.050781 31.351562 13.351562 31.050781 C 13.648438 30.75 14.050781 30.5 14.5 30.5 L 23 30.5 C 23.851562 30.5 24.5 31.148438 24.5 32 C 24.5 32.851562 23.851562 33.5 23 33.5 L 16.25 33.5 L 20.601562 59.648438 C 20.699219 60.148438 21.101562 60.5 21.601562 60.5 L 42.351562 60.5 C 42.851562 60.5 43.25 60.148438 43.351562 59.648438 L 47.75 33.5 L 40.851562 33.5 C 40.148438 37.851562 36.398438 41 32 41 C 29.699219 41 27.5 40.148438 25.851562 38.550781 C 25.25 38 25.199219 37.050781 25.800781 36.449219 C 26.351562 35.851562 27.300781 35.800781 27.898438 36.398438 C 29 37.398438 30.449219 38 32 38 C 34.949219 38 37.449219 35.898438 37.898438 33 C 38.148438 31.550781 39.398438 30.5 40.851562 30.5 L 49.5 30.5 C 49.949219 30.5 50.351562 30.699219 50.648438 31.050781 C 50.949219 31.398438 51.050781 31.851562 51 32.25 L 46.351562 60.148438 C 46 62.101562 44.351562 63.5 42.398438 63.5 Z M 42.398438 63.5 "/>
<path style=" stroke:none;fill-rule:nonzero;fill:rgb(20%,20%,20%);fill-opacity:1;" d="M 52.398438 63.5 L 31.601562 63.5 C 30.75 63.5 30.101562 62.851562 30.101562 62 C 30.101562 61.148438 30.75 60.5 31.601562 60.5 L 52.351562 60.5 C 53.199219 60.5 53.851562 61.148438 53.851562 62 C 53.851562 62.851562 53.199219 63.5 52.398438 63.5 Z M 52.398438 63.5 "/>
<path style=" stroke:none;fill-rule:nonzero;fill:rgb(20%,20%,20%);fill-opacity:1;" d="M 59.898438 60.5 C 59.070312 60.5 58.398438 61.171875 58.398438 62 C 58.398438 62.828125 59.070312 63.5 59.898438 63.5 C 60.726562 63.5 61.398438 62.828125 61.398438 62 C 61.398438 61.171875 60.726562 60.5 59.898438 60.5 Z M 59.898438 60.5 "/>
</g>
</svg>
