<?xml version="1.0" encoding="UTF-8"?>
<svg xmlns="http://www.w3.org/2000/svg" xmlns:xlink="http://www.w3.org/1999/xlink" width="64px" height="64px" viewBox="0 0 64 64" version="1.1">
<g id="surface22237">
<path style=" stroke:none;fill-rule:nonzero;fill:rgb(20%,20%,20%);fill-opacity:1;" d="M 29.4375 4 C 28.21875 4.003906 27.074219 4.695312 26.546875 5.871094 L 23.371094 12.957031 L 4.285156 55.523438 C 3.742188 56.734375 4 58.125 4.9375 59.066406 C 5.546875 59.675781 6.351562 59.996094 7.167969 59.996094 C 7.609375 59.996094 8.054688 59.902344 8.476562 59.714844 L 16.394531 56.164062 L 16.402344 56.164062 L 50.21875 41 L 58.128906 37.453125 C 59.695312 36.753906 60.410156 34.949219 59.761719 33.34375 C 54.453125 20.160156 43.84375 9.546875 30.65625 4.234375 C 30.253906 4.074219 29.84375 4 29.4375 4 Z M 29.449219 6 C 29.601562 6 29.757812 6.03125 29.910156 6.089844 C 42.59375 11.203125 52.796875 21.40625 57.910156 34.089844 C 58.152344 34.695312 57.890625 35.367188 57.3125 35.628906 L 50.390625 38.730469 C 50.144531 38.050781 49.886719 37.375 49.605469 36.703125 C 49.390625 36.195312 48.804688 35.957031 48.292969 36.171875 C 47.785156 36.386719 47.546875 36.972656 47.761719 37.484375 C 48.050781 38.164062 48.3125 38.859375 48.5625 39.550781 L 42.792969 42.136719 C 41.925781 38.027344 38.261719 35 34 35 C 29.039062 35 25 39.035156 25 44 C 25 45.921875 25.621094 47.785156 26.757812 49.328125 L 16.902344 53.746094 C 16.40625 50.289062 13.914062 47.394531 10.570312 46.394531 L 15.871094 34.566406 C 17.527344 36.121094 19.691406 37 22 37 C 26.960938 37 31 32.964844 31 28 C 31 23.316406 27.40625 19.464844 22.832031 19.042969 L 24.449219 15.433594 C 31.582031 17.980469 37.804688 22.484375 42.492188 28.503906 C 42.832031 28.941406 43.460938 29.019531 43.894531 28.679688 C 44.332031 28.34375 44.410156 27.710938 44.070312 27.277344 C 39.179688 20.996094 32.6875 16.3125 25.257812 13.625 L 28.371094 6.6875 C 28.566406 6.253906 28.992188 6 29.445312 6 Z M 31.296875 8.855469 C 30.910156 8.835938 30.527344 9.042969 30.34375 9.414062 L 29.457031 11.207031 C 29.214844 11.703125 29.417969 12.304688 29.914062 12.546875 C 30.054688 12.617188 30.207031 12.648438 30.355469 12.648438 C 30.722656 12.648438 31.078125 12.449219 31.253906 12.09375 L 32.136719 10.296875 C 32.382812 9.804688 32.179688 9.203125 31.683594 8.960938 C 31.558594 8.898438 31.429688 8.863281 31.296875 8.855469 Z M 35.691406 11.246094 C 35.308594 11.1875 34.90625 11.359375 34.6875 11.710938 L 33.640625 13.414062 C 33.351562 13.882812 33.5 14.5 33.96875 14.789062 C 34.132812 14.890625 34.3125 14.9375 34.488281 14.9375 C 34.824219 14.9375 35.15625 14.769531 35.34375 14.460938 L 36.390625 12.757812 C 36.683594 12.289062 36.535156 11.671875 36.066406 11.382812 C 35.949219 11.3125 35.820312 11.265625 35.691406 11.246094 Z M 39.464844 14.011719 C 39.210938 14.046875 38.96875 14.179688 38.804688 14.402344 L 37.601562 15.996094 C 37.269531 16.4375 37.355469 17.0625 37.796875 17.394531 C 37.976562 17.53125 38.1875 17.597656 38.398438 17.597656 C 38.703125 17.597656 39 17.460938 39.195312 17.199219 L 40.402344 15.605469 C 40.734375 15.164062 40.644531 14.535156 40.207031 14.203125 C 39.984375 14.035156 39.714844 13.976562 39.464844 14.011719 Z M 43.34375 17.132812 C 43.089844 17.148438 42.835938 17.257812 42.652344 17.460938 L 41.304688 18.9375 C 40.933594 19.347656 40.960938 19.980469 41.371094 20.351562 C 41.558594 20.527344 41.804688 20.613281 42.042969 20.613281 C 42.316406 20.613281 42.585938 20.503906 42.785156 20.285156 L 44.132812 18.808594 C 44.503906 18.398438 44.472656 17.765625 44.066406 17.394531 C 43.859375 17.207031 43.597656 17.121094 43.34375 17.132812 Z M 46.914062 20.609375 C 46.660156 20.597656 46.398438 20.683594 46.191406 20.871094 L 44.714844 22.21875 C 44.308594 22.589844 44.277344 23.222656 44.648438 23.632812 C 44.847656 23.847656 45.117188 23.957031 45.386719 23.957031 C 45.628906 23.957031 45.867188 23.871094 46.058594 23.695312 L 47.539062 22.347656 C 47.945312 21.976562 47.976562 21.34375 47.605469 20.9375 C 47.417969 20.730469 47.167969 20.621094 46.914062 20.609375 Z M 22 21 C 25.859375 21 29 24.140625 29 28 C 29 31.859375 25.859375 35 22 35 C 19.96875 35 18.085938 34.125 16.753906 32.605469 L 21.953125 21.003906 C 21.96875 21 21.984375 21 22 21 Z M 50.136719 24.40625 C 49.882812 24.371094 49.617188 24.433594 49.394531 24.597656 L 47.796875 25.804688 C 47.359375 26.136719 47.269531 26.761719 47.601562 27.203125 C 47.796875 27.460938 48.097656 27.597656 48.402344 27.597656 C 48.609375 27.597656 48.820312 27.535156 49.003906 27.398438 L 50.597656 26.195312 C 51.042969 25.863281 51.128906 25.234375 50.796875 24.792969 C 50.628906 24.574219 50.390625 24.441406 50.136719 24.40625 Z M 52.613281 28.46875 C 52.484375 28.492188 52.359375 28.535156 52.242188 28.605469 L 50.535156 29.65625 C 50.066406 29.945312 49.921875 30.5625 50.210938 31.03125 C 50.398438 31.339844 50.726562 31.507812 51.066406 31.507812 C 51.242188 31.507812 51.425781 31.460938 51.589844 31.359375 L 53.289062 30.3125 C 53.757812 30.023438 53.90625 29.40625 53.617188 28.933594 C 53.398438 28.582031 53 28.410156 52.613281 28.46875 Z M 45.390625 30.128906 C 45.261719 30.152344 45.132812 30.199219 45.015625 30.269531 C 44.550781 30.566406 44.414062 31.183594 44.707031 31.652344 C 45.222656 32.460938 45.714844 33.304688 46.171875 34.152344 C 46.351562 34.492188 46.699219 34.683594 47.054688 34.683594 C 47.214844 34.683594 47.375 34.644531 47.523438 34.5625 C 48.011719 34.300781 48.195312 33.695312 47.933594 33.210938 C 47.453125 32.316406 46.9375 31.433594 46.398438 30.582031 C 46.175781 30.230469 45.773438 30.066406 45.386719 30.132812 Z M 55.085938 32.761719 C 54.953125 32.769531 54.824219 32.800781 54.703125 32.863281 L 52.910156 33.75 C 52.414062 33.992188 52.210938 34.59375 52.453125 35.089844 C 52.628906 35.441406 52.984375 35.644531 53.351562 35.644531 C 53.5 35.644531 53.652344 35.613281 53.792969 35.542969 L 55.585938 34.65625 C 56.082031 34.414062 56.28125 33.8125 56.039062 33.316406 C 55.855469 32.945312 55.472656 32.738281 55.085938 32.761719 Z M 34 37 C 37.460938 37 40.414062 39.566406 40.914062 42.980469 L 28.640625 48.484375 C 27.585938 47.222656 27 45.636719 27 44 C 27 40.140625 30.140625 37 34 37 Z M 9.746094 48.230469 C 12.640625 48.976562 14.785156 51.546875 14.980469 54.605469 L 7.65625 57.890625 C 6.972656 58.195312 6.484375 57.785156 6.351562 57.652344 C 6.21875 57.515625 5.804688 57.027344 6.109375 56.34375 Z M 9.746094 48.230469 "/>
</g>
</svg>
