<?xml version="1.0" encoding="UTF-8"?>
<svg xmlns="http://www.w3.org/2000/svg" xmlns:xlink="http://www.w3.org/1999/xlink" width="64px" height="64px" viewBox="0 0 64 64" version="1.1">
<g id="surface21886">
<path style=" stroke:none;fill-rule:nonzero;fill:rgb(97.647059%,89.019608%,68.235294%);fill-opacity:1;" d="M 58.835938 33.71875 C 59.277344 34.8125 58.796875 36.058594 57.722656 36.539062 L 49.808594 40.089844 L 8.066406 58.804688 C 6.246094 59.617188 4.382812 57.753906 5.195312 55.933594 L 23.910156 14.191406 L 27.460938 6.277344 C 27.941406 5.203125 29.1875 4.722656 30.28125 5.164062 C 43.253906 10.390625 53.609375 20.746094 58.835938 33.71875 Z M 58.835938 33.71875 "/>
<path style=" stroke:none;fill-rule:nonzero;fill:rgb(93.72549%,78.431373%,55.686275%);fill-opacity:1;" d="M 58.835938 33.71875 C 53.609375 20.746094 43.253906 10.390625 30.28125 5.164062 C 29.1875 4.722656 27.941406 5.203125 27.460938 6.277344 L 26.4375 8.558594 C 26.550781 8.585938 26.667969 8.617188 26.78125 8.660156 C 39.753906 13.890625 50.109375 24.246094 55.335938 37.21875 C 55.382812 37.332031 55.414062 37.445312 55.4375 37.5625 L 57.722656 36.539062 C 58.796875 36.058594 59.277344 34.8125 58.835938 33.71875 Z M 58.835938 33.71875 "/>
<path style=" stroke:none;fill-rule:nonzero;fill:rgb(97.647059%,89.019608%,68.235294%);fill-opacity:1;" d="M 49.808594 40.089844 L 8.066406 58.804688 C 6.246094 59.617188 4.382812 57.753906 5.195312 55.933594 L 23.910156 14.191406 C 36.113281 18.238281 45.761719 27.886719 49.808594 40.089844 Z M 49.808594 40.089844 "/>
<path style=" stroke:none;fill-rule:nonzero;fill:rgb(96.862745%,63.137255%,78.431373%);fill-opacity:1;" d="M 8.066406 58.804688 C 6.246094 59.617188 4.382812 57.753906 5.195312 55.933594 L 9.160156 47.09375 C 13.027344 47.65625 16 50.976562 16 55 C 16 55.085938 15.988281 55.167969 15.988281 55.253906 Z M 34 36 C 29.582031 36 26 39.582031 26 44 C 26 45.988281 26.730469 47.804688 27.933594 49.207031 L 41.921875 42.933594 C 41.398438 39.019531 38.054688 36 34 36 Z M 15.191406 32.183594 C 16.597656 34.46875 19.117188 36 22 36 C 26.417969 36 30 32.417969 30 28 C 30 23.582031 26.417969 20 22 20 C 21.519531 20 21.050781 20.050781 20.59375 20.132812 Z M 15.191406 32.183594 "/>
<path style=" stroke:none;fill-rule:nonzero;fill:rgb(55.294118%,42.352941%,62.352941%);fill-opacity:1;" d="M 59.765625 33.34375 C 54.453125 20.15625 43.84375 9.550781 30.65625 4.234375 C 29.054688 3.59375 27.25 4.304688 26.546875 5.867188 L 23.371094 12.957031 L 4.285156 55.523438 C 3.742188 56.734375 3.996094 58.125 4.9375 59.0625 C 5.546875 59.675781 6.351562 59.996094 7.171875 59.996094 C 7.609375 59.996094 8.054688 59.902344 8.476562 59.714844 L 16.398438 56.164062 L 16.398438 56.160156 L 50.21875 41 L 58.128906 37.453125 C 59.691406 36.753906 60.410156 34.945312 59.765625 33.34375 Z M 22 21 C 25.859375 21 29 24.140625 29 28 C 29 31.859375 25.859375 35 22 35 C 19.96875 35 18.085938 34.125 16.753906 32.605469 L 21.953125 21.003906 C 21.96875 21 21.984375 21 22 21 Z M 6.351562 57.648438 C 6.21875 57.515625 5.804688 57.027344 6.109375 56.34375 L 9.746094 48.230469 C 12.640625 48.976562 14.785156 51.546875 14.980469 54.605469 L 7.65625 57.890625 C 6.972656 58.195312 6.484375 57.78125 6.351562 57.648438 Z M 27 44 C 27 40.140625 30.140625 37 34 37 C 37.460938 37 40.414062 39.566406 40.914062 42.980469 L 28.640625 48.484375 C 27.585938 47.222656 27 45.636719 27 44 Z M 57.3125 35.628906 L 50.390625 38.730469 C 50.144531 38.050781 49.886719 37.375 49.605469 36.703125 C 49.390625 36.195312 48.804688 35.960938 48.296875 36.171875 C 47.785156 36.386719 47.546875 36.972656 47.761719 37.484375 C 48.050781 38.164062 48.3125 38.859375 48.558594 39.554688 L 42.792969 42.140625 C 41.925781 38.027344 38.261719 35 34 35 C 29.039062 35 25 39.035156 25 44 C 25 45.921875 25.621094 47.785156 26.757812 49.328125 L 16.902344 53.746094 C 16.40625 50.289062 13.910156 47.394531 10.570312 46.394531 L 15.871094 34.566406 C 17.527344 36.121094 19.691406 37 22 37 C 26.960938 37 31 32.964844 31 28 C 31 23.316406 27.40625 19.464844 22.832031 19.042969 L 24.449219 15.433594 C 31.582031 17.980469 37.804688 22.484375 42.492188 28.507812 C 42.832031 28.941406 43.460938 29.019531 43.894531 28.679688 C 44.332031 28.34375 44.410156 27.714844 44.070312 27.277344 C 39.183594 20.996094 32.6875 16.3125 25.261719 13.628906 L 28.371094 6.6875 C 28.566406 6.257812 28.992188 6 29.445312 6 C 29.601562 6 29.757812 6.027344 29.910156 6.089844 C 42.59375 11.199219 52.796875 21.40625 57.910156 34.089844 C 58.152344 34.691406 57.890625 35.367188 57.3125 35.628906 Z M 57.3125 35.628906 "/>
<path style=" stroke:none;fill-rule:nonzero;fill:rgb(55.294118%,42.352941%,62.352941%);fill-opacity:1;" d="M 46.398438 30.582031 C 46.101562 30.117188 45.484375 29.976562 45.019531 30.273438 C 44.550781 30.566406 44.414062 31.1875 44.710938 31.652344 C 45.222656 32.464844 45.714844 33.304688 46.171875 34.15625 C 46.351562 34.492188 46.695312 34.683594 47.054688 34.683594 C 47.214844 34.683594 47.375 34.644531 47.527344 34.5625 C 48.011719 34.300781 48.195312 33.695312 47.933594 33.210938 C 47.453125 32.316406 46.9375 31.433594 46.398438 30.582031 Z M 31.683594 8.960938 C 31.1875 8.714844 30.589844 8.917969 30.34375 9.414062 L 29.460938 11.207031 C 29.214844 11.703125 29.417969 12.304688 29.914062 12.546875 C 30.054688 12.617188 30.207031 12.652344 30.355469 12.652344 C 30.722656 12.652344 31.078125 12.445312 31.253906 12.09375 L 32.136719 10.300781 C 32.382812 9.804688 32.179688 9.203125 31.683594 8.960938 Z M 36.066406 11.382812 C 35.59375 11.09375 34.980469 11.238281 34.691406 11.710938 L 33.640625 13.414062 C 33.351562 13.882812 33.496094 14.5 33.96875 14.789062 C 34.132812 14.890625 34.3125 14.9375 34.492188 14.9375 C 34.824219 14.9375 35.15625 14.769531 35.34375 14.460938 L 36.394531 12.757812 C 36.683594 12.289062 36.535156 11.671875 36.066406 11.382812 Z M 38.804688 14.398438 L 37.601562 15.996094 C 37.269531 16.4375 37.355469 17.0625 37.796875 17.398438 C 37.976562 17.53125 38.1875 17.597656 38.398438 17.597656 C 38.699219 17.597656 39 17.460938 39.195312 17.199219 L 40.402344 15.601562 C 40.734375 15.164062 40.644531 14.535156 40.203125 14.203125 C 39.761719 13.871094 39.136719 13.960938 38.804688 14.398438 Z M 44.0625 17.394531 C 43.65625 17.023438 43.023438 17.054688 42.652344 17.460938 L 41.304688 18.9375 C 40.933594 19.347656 40.960938 19.980469 41.371094 20.351562 C 41.5625 20.527344 41.804688 20.613281 42.042969 20.613281 C 42.316406 20.613281 42.585938 20.503906 42.78125 20.285156 L 44.128906 18.808594 C 44.503906 18.398438 44.472656 17.765625 44.0625 17.394531 Z M 45.386719 23.957031 C 45.628906 23.957031 45.867188 23.871094 46.0625 23.695312 L 47.539062 22.347656 C 47.949219 21.976562 47.976562 21.34375 47.605469 20.933594 C 47.234375 20.527344 46.601562 20.496094 46.191406 20.871094 L 44.714844 22.21875 C 44.304688 22.589844 44.277344 23.222656 44.648438 23.628906 C 44.847656 23.847656 45.117188 23.957031 45.386719 23.957031 Z M 50.796875 24.796875 C 50.464844 24.355469 49.839844 24.265625 49.394531 24.597656 L 47.796875 25.800781 C 47.355469 26.136719 47.269531 26.761719 47.601562 27.203125 C 47.796875 27.464844 48.097656 27.601562 48.402344 27.601562 C 48.609375 27.601562 48.820312 27.535156 49.003906 27.398438 L 50.601562 26.195312 C 51.042969 25.863281 51.128906 25.234375 50.796875 24.796875 Z M 53.617188 28.933594 C 53.328125 28.464844 52.710938 28.320312 52.242188 28.609375 L 50.539062 29.65625 C 50.066406 29.945312 49.921875 30.5625 50.210938 31.03125 C 50.398438 31.339844 50.726562 31.507812 51.0625 31.507812 C 51.242188 31.507812 51.425781 31.460938 51.585938 31.359375 L 53.289062 30.3125 C 53.761719 30.019531 53.90625 29.402344 53.617188 28.933594 Z M 54.699219 32.863281 L 52.90625 33.746094 C 52.414062 33.992188 52.210938 34.59375 52.453125 35.085938 C 52.628906 35.441406 52.980469 35.644531 53.351562 35.644531 C 53.5 35.644531 53.648438 35.613281 53.792969 35.539062 L 55.585938 34.65625 C 56.078125 34.410156 56.285156 33.8125 56.039062 33.316406 C 55.796875 32.820312 55.195312 32.617188 54.699219 32.863281 Z M 54.699219 32.863281 "/>
</g>
</svg>
