<?xml version="1.0" encoding="UTF-8"?>
<svg xmlns="http://www.w3.org/2000/svg" xmlns:xlink="http://www.w3.org/1999/xlink" width="64px" height="64px" viewBox="0 0 64 64" version="1.1">
<g id="surface171688">
<path style=" stroke:none;fill-rule:nonzero;fill:rgb(100%,100%,100%);fill-opacity:1;" d="M 29.898438 21.300781 L 57 32 L 7 32 C 7 26.601562 16.949219 22.101562 29.898438 21.300781 Z M 29.898438 21.300781 "/>
<path style=" stroke:none;fill-rule:nonzero;fill:rgb(100%,41.176471%,49.019608%);fill-opacity:1;" d="M 7 32 L 57 32 L 57 52 L 7 52 Z M 7 32 "/>
<path style=" stroke:none;fill-rule:nonzero;fill:rgb(78.823529%,31.372549%,39.607843%);fill-opacity:1;" d="M 7 44.5 L 57 44.5 L 57 52 L 7 52 Z M 7 44.5 "/>
<path style=" stroke:none;fill-rule:nonzero;fill:rgb(24.705882%,29.019608%,32.941176%);fill-opacity:1;" d="M 57 53.5 L 7 53.5 C 6.148438 53.5 5.5 52.851562 5.5 52 L 5.5 32 C 5.5 31.148438 6.148438 30.5 7 30.5 C 7.851562 30.5 8.5 31.148438 8.5 32 L 8.5 50.5 L 55.5 50.5 L 55.5 46 C 55.5 45.148438 56.148438 44.5 57 44.5 C 57.851562 44.5 58.5 45.148438 58.5 46 L 58.5 52 C 58.5 52.851562 57.851562 53.5 57 53.5 Z M 57 41 C 56.601562 41 56.199219 40.851562 55.949219 40.550781 C 55.648438 40.25 55.5 39.898438 55.5 39.5 C 55.5 39.101562 55.648438 38.699219 55.949219 38.449219 C 56 38.398438 56.101562 38.300781 56.199219 38.25 C 56.300781 38.199219 56.351562 38.148438 56.449219 38.101562 C 56.550781 38.050781 56.648438 38.050781 56.75 38 C 57.25 37.898438 57.75 38.050781 58.101562 38.398438 C 58.398438 38.699219 58.550781 39.050781 58.550781 39.449219 C 58.550781 39.851562 58.398438 40.25 58.101562 40.5 C 58.050781 40.550781 57.949219 40.648438 57.851562 40.699219 C 57.75 40.75 57.699219 40.800781 57.601562 40.851562 C 57.5 40.898438 57.398438 40.898438 57.300781 40.949219 C 57.199219 41 57.101562 41 57 41 Z M 57 41 "/>
<path style=" stroke:none;fill-rule:nonzero;fill:rgb(24.705882%,29.019608%,32.941176%);fill-opacity:1;" d="M 34.050781 33.5 L 7 33.5 C 6.148438 33.5 5.5 32.851562 5.5 32 C 5.5 31.148438 6.148438 30.5 7 30.5 L 34.050781 30.5 C 34.898438 30.5 35.550781 31.148438 35.550781 32 C 35.550781 32.851562 34.898438 33.5 34.050781 33.5 Z M 57 33.5 C 56.800781 33.5 56.648438 33.449219 56.449219 33.398438 L 29.351562 22.699219 C 28.601562 22.398438 28.199219 21.5 28.5 20.75 C 28.800781 20 29.699219 19.601562 30.449219 19.898438 L 57.550781 30.601562 C 58.300781 30.898438 58.699219 31.800781 58.398438 32.550781 C 58.148438 33.148438 57.601562 33.5 57 33.5 Z M 57 33.5 "/>
<path style=" stroke:none;fill-rule:nonzero;fill:rgb(100%,41.176471%,49.019608%);fill-opacity:1;" d="M 26 15.449219 C 23.238281 15.449219 21 17.6875 21 20.449219 C 21 23.210938 23.238281 25.449219 26 25.449219 C 28.761719 25.449219 31 23.210938 31 20.449219 C 31 17.6875 28.761719 15.449219 26 15.449219 Z M 26 15.449219 "/>
<path style=" stroke:none;fill-rule:nonzero;fill:rgb(24.705882%,29.019608%,32.941176%);fill-opacity:1;" d="M 26 27 C 25.75 27 25.449219 27 25.199219 26.949219 C 21.949219 26.550781 19.5 23.75 19.5 20.5 C 19.5 16.898438 22.398438 14 26 14 C 29.601562 14 32.5 16.898438 32.5 20.5 C 32.5 24.101562 29.601562 27 26 27 Z M 26 17 C 24.050781 17 22.5 18.550781 22.5 20.5 C 22.5 22.25 23.800781 23.75 25.550781 23.949219 C 25.699219 23.949219 25.851562 24 26 24 C 27.949219 24 29.5 22.449219 29.5 20.5 C 29.5 18.550781 27.949219 17 26 17 Z M 26 17 "/>
<path style=" stroke:none;fill-rule:nonzero;fill:rgb(100%,100%,100%);fill-opacity:1;" d="M 24.449219 20.75 C 24.050781 20.75 23.648438 20.601562 23.398438 20.300781 C 23.351562 20.25 23.25 20.148438 23.199219 20.101562 C 23.148438 20 23.101562 19.949219 23.050781 19.851562 C 23 19.75 23 19.648438 22.949219 19.550781 C 22.949219 19.449219 22.898438 19.351562 22.898438 19.25 C 22.898438 19.148438 22.898438 19.050781 22.949219 18.949219 C 22.949219 18.851562 23 18.75 23.050781 18.648438 C 23.101562 18.550781 23.148438 18.5 23.199219 18.398438 C 23.25 18.300781 23.300781 18.25 23.398438 18.148438 C 23.75 17.800781 24.25 17.648438 24.75 17.75 C 24.851562 17.75 24.949219 17.800781 25.050781 17.851562 C 25.148438 17.898438 25.25 17.949219 25.300781 18 C 25.398438 18.050781 25.449219 18.101562 25.550781 18.199219 C 25.601562 18.25 25.699219 18.351562 25.75 18.449219 C 25.800781 18.550781 25.851562 18.601562 25.898438 18.699219 C 25.949219 18.800781 25.949219 18.898438 26 19 C 26 19.101562 26.050781 19.199219 26.050781 19.300781 C 26.050781 19.398438 26.050781 19.5 26 19.601562 C 26 19.699219 25.949219 19.800781 25.898438 19.898438 C 25.851562 20 25.800781 20.101562 25.75 20.148438 C 25.699219 20.25 25.648438 20.300781 25.550781 20.351562 C 25.5 20.398438 25.398438 20.5 25.300781 20.550781 C 25.199219 20.601562 25.148438 20.648438 25.050781 20.699219 C 24.949219 20.75 24.851562 20.75 24.75 20.800781 C 24.648438 20.75 24.550781 20.75 24.449219 20.75 Z M 24.449219 20.75 "/>
<path style=" stroke:none;fill-rule:nonzero;fill:rgb(100%,41.176471%,49.019608%);fill-opacity:1;" d="M 36 15.449219 C 33.238281 15.449219 31 17.6875 31 20.449219 C 31 23.210938 33.238281 25.449219 36 25.449219 C 38.761719 25.449219 41 23.210938 41 20.449219 C 41 17.6875 38.761719 15.449219 36 15.449219 Z M 36 15.449219 "/>
<path style=" stroke:none;fill-rule:nonzero;fill:rgb(24.705882%,29.019608%,32.941176%);fill-opacity:1;" d="M 36 27 C 35.75 27 35.449219 27 35.199219 26.949219 C 31.949219 26.550781 29.5 23.75 29.5 20.5 C 29.5 16.898438 32.398438 14 36 14 C 39.601562 14 42.5 16.898438 42.5 20.5 C 42.5 24.101562 39.601562 27 36 27 Z M 36 17 C 34.050781 17 32.5 18.550781 32.5 20.5 C 32.5 22.25 33.800781 23.75 35.550781 23.949219 C 35.699219 23.949219 35.851562 24 36 24 C 37.949219 24 39.5 22.449219 39.5 20.5 C 39.5 18.550781 37.949219 17 36 17 Z M 36 17 "/>
<path style=" stroke:none;fill-rule:nonzero;fill:rgb(100%,100%,100%);fill-opacity:1;" d="M 34.449219 20.75 C 34.050781 20.75 33.648438 20.601562 33.398438 20.300781 C 33.101562 20 32.949219 19.648438 32.949219 19.25 C 32.949219 19.148438 32.949219 19.050781 33 18.949219 C 33 18.851562 33.050781 18.75 33.101562 18.648438 C 33.148438 18.550781 33.199219 18.5 33.25 18.398438 C 33.300781 18.300781 33.351562 18.25 33.449219 18.148438 C 34 17.601562 35 17.601562 35.550781 18.148438 C 35.601562 18.199219 35.699219 18.300781 35.75 18.398438 C 35.800781 18.5 35.851562 18.550781 35.898438 18.648438 C 35.949219 18.75 35.949219 18.851562 36 18.949219 C 36 19.050781 36.050781 19.148438 36.050781 19.25 C 36.050781 19.648438 35.898438 20.050781 35.601562 20.300781 C 35.25 20.601562 34.851562 20.75 34.449219 20.75 Z M 34.449219 20.75 "/>
<path style=" stroke:none;fill-rule:nonzero;fill:rgb(24.705882%,29.019608%,32.941176%);fill-opacity:1;" d="M 7 33.5 C 6.148438 33.5 5.5 32.851562 5.5 32 C 5.5 28.199219 9.050781 24.851562 15.5 22.550781 C 16.300781 22.25 17.148438 22.699219 17.398438 23.449219 C 17.699219 24.25 17.25 25.101562 16.5 25.351562 C 11.5 27.148438 8.5 29.648438 8.5 32 C 8.5 32.851562 7.851562 33.5 7 33.5 Z M 7 33.5 "/>
</g>
</svg>
