<?xml version="1.0" encoding="UTF-8"?>
<svg xmlns="http://www.w3.org/2000/svg" xmlns:xlink="http://www.w3.org/1999/xlink" width="64px" height="64px" viewBox="0 0 64 64" version="1.1">
<g id="surface22076">
<path style=" stroke:none;fill-rule:nonzero;fill:rgb(100%,100%,100%);fill-opacity:1;" d="M 22.75 58.398438 L 41.25 58.398438 C 43.5 58.398438 45.398438 56.699219 45.601562 54.5 L 49.550781 18.800781 L 14.398438 18.800781 L 18.351562 54.5 C 18.601562 56.699219 20.5 58.398438 22.75 58.398438 "/>
<path style=" stroke:none;fill-rule:nonzero;fill:rgb(90.588235%,90.588235%,90.588235%);fill-opacity:1;" d="M 46.726562 44.300781 L 39.878906 44.300781 L 38.75 54.5 C 38.5 56.699219 36.601562 58.398438 34.351562 58.398438 L 41.25 58.398438 C 43.5 58.398438 45.398438 56.699219 45.601562 54.5 L 46.726562 44.300781 M 49.550781 18.800781 L 42.699219 18.800781 L 41.582031 28.898438 L 48.433594 28.898438 L 49.550781 18.800781 "/>
<path style=" stroke:none;fill-rule:nonzero;fill:rgb(65.882353%,69.803922%,77.647059%);fill-opacity:1;" d="M 12.199219 11.648438 L 51.800781 11.648438 L 51.800781 18.25 L 12.199219 18.25 L 12.199219 11.648438 "/>
<path style=" stroke:none;fill-rule:nonzero;fill:rgb(60%,63.529412%,70.588235%);fill-opacity:1;" d="M 51.800781 12.199219 L 44.898438 12.199219 L 44.898438 18.25 L 51.800781 18.25 L 51.800781 12.199219 "/>
<path style=" stroke:none;fill-rule:nonzero;fill:rgb(65.882353%,69.803922%,77.647059%);fill-opacity:1;" d="M 16.601562 12.199219 L 19.050781 5.601562 L 44.898438 5.601562 L 47.398438 12.199219 L 16.601562 12.199219 "/>
<path style=" stroke:none;fill-rule:nonzero;fill:rgb(60%,63.529412%,70.588235%);fill-opacity:1;" d="M 44.898438 5.601562 L 38 5.601562 L 40.5 12.199219 L 47.398438 12.199219 L 47.191406 11.648438 L 44.898438 5.601562 "/>
<path style=" stroke:none;fill-rule:nonzero;fill:rgb(95.294118%,48.627451%,49.411765%);fill-opacity:1;" d="M 48.5 44.300781 L 15.5 44.300781 L 13.75 28.898438 L 50.25 28.898438 L 48.5 44.300781 "/>
<path style=" stroke:none;fill-rule:nonzero;fill:rgb(86.27451%,44.313725%,45.098039%);fill-opacity:1;" d="M 50.101562 28.898438 L 43.199219 28.898438 L 41.5 44.300781 L 48.398438 44.300781 L 50.101562 28.898438 "/>
<path style=" stroke:none;fill-rule:nonzero;fill:rgb(95.686275%,94.509804%,90.588235%);fill-opacity:1;" d="M 31.851562 32.199219 C 34.28125 32.199219 36.25 34.167969 36.25 36.601562 C 36.25 39.03125 34.28125 41 31.851562 41 C 29.417969 41 27.449219 39.03125 27.449219 36.601562 C 27.449219 34.167969 29.421875 32.199219 31.851562 32.199219 Z M 31.851562 32.199219 "/>
<path style=" stroke:none;fill-rule:nonzero;fill:rgb(27.45098%,29.803922%,33.333333%);fill-opacity:1;" d="M 51.800781 10.699219 L 48.449219 10.699219 L 46.300781 5.050781 C 46.101562 4.5 45.550781 4.101562 44.898438 4.101562 L 19.050781 4.101562 C 18.449219 4.101562 17.851562 4.449219 17.648438 5.050781 L 15.550781 10.699219 L 12.199219 10.699219 C 11.351562 10.699219 10.699219 11.351562 10.699219 12.199219 L 10.699219 18.800781 C 10.699219 19.648438 11.351562 20.300781 12.199219 20.300781 L 13.101562 20.300781 L 16.898438 54.648438 C 17.199219 57.648438 19.75 59.898438 22.75 59.898438 L 41.25 59.898438 C 44.25 59.898438 46.800781 57.648438 47.199219 54.699219 L 51 20.300781 L 51.800781 20.300781 C 52.648438 20.300781 53.300781 19.648438 53.300781 18.800781 L 53.300781 12.199219 C 53.300781 11.351562 52.648438 10.699219 51.800781 10.699219 Z M 20.101562 7.101562 L 43.851562 7.101562 L 45.199219 10.699219 L 18.75 10.699219 Z M 13.699219 13.699219 L 50.300781 13.699219 L 50.300781 17.300781 L 13.699219 17.300781 Z M 44.199219 54.351562 C 44 55.851562 42.800781 56.949219 41.300781 56.949219 L 22.800781 56.949219 C 21.300781 56.949219 20.050781 55.800781 19.898438 54.351562 L 16.148438 20.300781 L 48 20.300781 Z M 44.199219 54.351562 "/>
<path style=" stroke:none;fill-rule:nonzero;fill:rgb(27.45098%,29.803922%,33.333333%);fill-opacity:1;" d="M 48.5 45.800781 L 15.5 45.800781 C 14.75 45.800781 14.101562 45.25 14 44.449219 L 12.300781 29.050781 C 12.25 28.648438 12.398438 28.199219 12.648438 27.898438 C 12.949219 27.601562 13.351562 27.398438 13.75 27.398438 L 50.199219 27.398438 C 50.648438 27.398438 51.050781 27.601562 51.300781 27.898438 C 51.601562 28.199219 51.699219 28.648438 51.648438 29.050781 L 50 44.5 C 49.949219 45.25 49.300781 45.800781 48.5 45.800781 Z M 16.800781 42.800781 L 47.148438 42.800781 L 48.550781 30.398438 L 15.449219 30.398438 Z M 16.800781 42.800781 "/>
</g>
</svg>
