<?xml version="1.0" encoding="UTF-8"?>
<svg xmlns="http://www.w3.org/2000/svg" xmlns:xlink="http://www.w3.org/1999/xlink" width="64px" height="64px" viewBox="0 0 64 64" version="1.1">
<g id="surface19390">
<path style=" stroke:none;fill-rule:nonzero;fill:rgb(92.941176%,47.058824%,60%);fill-opacity:1;" d="M 32 1.398438 C 21.5 1.398438 13 9.898438 13 20.398438 C 13 27.199219 17.101562 33.398438 21.5 39.898438 C 25.800781 46.300781 30.199219 52.898438 31.101562 60.601562 C 31.199219 61.101562 31.601562 61.398438 32 61.398438 C 32.5 61.398438 32.898438 61 32.898438 60.601562 C 33.898438 52.800781 38.300781 46.199219 42.5 39.898438 C 46.898438 33.398438 51 27.199219 51 20.398438 C 51 10 42.5 1.398438 32 1.398438 Z M 32 1.398438 "/>
<path style=" stroke:none;fill-rule:nonzero;fill:rgb(97.647059%,86.666667%,56.078431%);fill-opacity:1;" d="M 32 11 C 27.03125 11 23 15.03125 23 20 C 23 24.96875 27.03125 29 32 29 C 36.96875 29 41 24.96875 41 20 C 41 15.03125 36.96875 11 32 11 Z M 32 11 "/>
<path style=" stroke:none;fill-rule:nonzero;fill:rgb(96.078431%,78.431373%,44.705882%);fill-opacity:1;" d="M 32 15 C 29.238281 15 27 17.238281 27 20 C 27 22.761719 29.238281 25 32 25 C 34.761719 25 37 22.761719 37 20 C 37 17.238281 34.761719 15 32 15 Z M 32 15 "/>
<path style=" stroke:none;fill-rule:nonzero;fill:rgb(55.294118%,42.352941%,62.352941%);fill-opacity:1;" d="M 8 19 C 8 18.398438 7.601562 18 7 18 L 1 18 C 0.398438 18 0 18.398438 0 19 C 0 19.601562 0.398438 20 1 20 L 7 20 C 7.601562 20 8 19.601562 8 19 Z M 63 18 L 57 18 C 56.398438 18 56 18.398438 56 19 C 56 19.601562 56.398438 20 57 20 L 63 20 C 63.601562 20 64 19.601562 64 19 C 64 18.398438 63.601562 18 63 18 Z M 8.398438 27.101562 L 4.699219 28.601562 C 4.199219 28.800781 3.898438 29.398438 4.101562 29.898438 C 4.300781 30.300781 4.601562 30.5 5 30.5 C 5.101562 30.5 5.300781 30.5 5.398438 30.398438 L 9.101562 28.898438 C 9.601562 28.699219 9.898438 28.101562 9.699219 27.601562 C 9.5 27.101562 8.898438 26.898438 8.398438 27.101562 Z M 55.300781 11 C 55.398438 11 55.601562 11 55.699219 10.898438 L 59.398438 9.398438 C 59.898438 9.199219 60.199219 8.601562 60 8.101562 C 59.800781 7.601562 59.199219 7.300781 58.699219 7.5 L 55 9 C 54.5 9.199219 54.199219 9.800781 54.398438 10.300781 C 54.5 10.800781 54.898438 11 55.300781 11 Z M 9.101562 9.101562 L 5.398438 7.601562 C 4.898438 7.398438 4.300781 7.601562 4.101562 8.199219 C 3.898438 8.699219 4.101562 9.300781 4.699219 9.5 L 8.398438 11 C 8.5 11 8.601562 11 8.699219 11 C 9.101562 11 9.5 10.800781 9.601562 10.398438 C 9.898438 9.898438 9.601562 9.300781 9.101562 9.101562 Z M 59.300781 28.601562 L 55.601562 27.101562 C 55.101562 26.898438 54.5 27.101562 54.300781 27.699219 C 54.101562 28.300781 54.300781 28.800781 54.898438 29 L 58.601562 30.5 C 58.699219 30.5 58.800781 30.601562 59 30.601562 C 59.398438 30.601562 59.800781 30.398438 59.898438 30 C 60.101562 29.398438 59.800781 28.800781 59.300781 28.601562 Z M 32 0 C 21 0 12 9 12 20 C 12 27.199219 16.300781 33.601562 20.898438 40.398438 C 25.300781 47.101562 29.898438 54 31 62.101562 C 31.101562 62.601562 31.5 63 32 63 C 32.5 63 32.898438 62.601562 33 62.101562 C 34 54 38.601562 47.101562 43.101562 40.398438 C 47.699219 33.601562 52 27.101562 52 20 C 51.898438 9 43 0 32 0 Z M 41.398438 39.300781 C 37.699219 44.898438 33.898438 50.601562 32 57.101562 C 30.101562 50.601562 26.300781 44.800781 22.601562 39.300781 C 18.101562 32.699219 14 26.5 14 20 C 14 10.101562 22.101562 2 32 2 C 41.898438 2 50 10.101562 50 20 C 49.898438 26.5 45.800781 32.699219 41.398438 39.300781 Z M 41.398438 39.300781 "/>
<path style=" stroke:none;fill-rule:nonzero;fill:rgb(55.294118%,42.352941%,62.352941%);fill-opacity:1;" d="M 26 20 C 26 23.300781 28.699219 26 32 26 C 35.300781 26 38 23.300781 38 20 C 38 16.699219 35.300781 14 32 14 C 28.699219 14 26 16.699219 26 20 Z M 32 16 C 34.199219 16 36 17.800781 36 20 C 36 22.199219 34.199219 24 32 24 C 29.800781 24 28 22.199219 28 20 C 28 17.800781 29.800781 16 32 16 Z M 32 16 "/>
<path style=" stroke:none;fill-rule:nonzero;fill:rgb(55.294118%,42.352941%,62.352941%);fill-opacity:1;" d="M 40.398438 16.601562 C 39.898438 16.800781 39.601562 17.300781 39.699219 17.800781 C 40.699219 21.5 39 25.398438 35.5 27.101562 C 31.5 29 26.699219 27.398438 24.800781 23.5 C 22.898438 19.5 24.5 14.699219 28.398438 12.800781 C 29.199219 12.398438 30.101562 12.101562 31 12 C 31.5 11.898438 31.898438 11.398438 31.898438 10.898438 C 31.800781 10.398438 31.300781 10 30.800781 10 C 29.699219 10.101562 28.601562 10.5 27.5 11 C 22.601562 13.398438 20.5 19.398438 22.898438 24.398438 C 24.601562 27.898438 28.199219 30 31.898438 30 C 33.398438 30 34.898438 29.699219 36.300781 29 C 40.601562 26.898438 42.800781 22 41.5 17.300781 C 41.5 16.699219 40.898438 16.398438 40.398438 16.601562 Z M 40.398438 16.601562 "/>
<path style=" stroke:none;fill-rule:nonzero;fill:rgb(55.294118%,42.352941%,62.352941%);fill-opacity:1;" d="M 34.898438 12.5 C 35.898438 12.898438 36.800781 13.398438 37.5 14.199219 C 37.699219 14.398438 37.898438 14.5 38.199219 14.5 C 38.5 14.5 38.699219 14.398438 38.898438 14.199219 C 39.300781 13.800781 39.300781 13.199219 38.898438 12.800781 C 38 11.898438 36.898438 11.199219 35.601562 10.699219 C 35.101562 10.5 34.5 10.699219 34.300781 11.300781 C 34.199219 11.699219 34.398438 12.300781 34.898438 12.5 Z M 34.898438 12.5 "/>
</g>
</svg>
