<?xml version="1.0" encoding="UTF-8"?>
<svg xmlns="http://www.w3.org/2000/svg" xmlns:xlink="http://www.w3.org/1999/xlink" width="64px" height="64px" viewBox="0 0 64 64" version="1.1">
<g id="surface19723">
<path style=" stroke:none;fill-rule:nonzero;fill:rgb(20%,20%,20%);fill-opacity:1;" d="M 52.515625 4 C 50.132812 4 45.082031 7.351562 37.503906 13.964844 C 37.273438 14.160156 37.144531 14.453125 37.15625 14.753906 C 37.160156 14.808594 37.167969 14.863281 37.171875 14.863281 C 37.171875 16.289062 36.011719 17.449219 34.585938 17.449219 C 34.464844 17.449219 34.347656 17.425781 34.207031 17.40625 C 33.902344 17.363281 33.601562 17.457031 33.382812 17.660156 C 32.34375 18.613281 31.292969 19.597656 30.238281 20.601562 C 29.988281 20.839844 29.878906 21.183594 29.949219 21.523438 C 29.980469 21.695312 30 21.867188 30 22.035156 C 30 23.460938 28.839844 24.621094 27.414062 24.621094 C 27.234375 24.621094 27.046875 24.597656 26.84375 24.550781 C 26.5 24.472656 26.152344 24.574219 25.910156 24.816406 C 24.9375 25.78125 23.972656 26.753906 23.019531 27.730469 C 22.785156 27.972656 22.6875 28.316406 22.757812 28.644531 C 22.804688 28.847656 22.824219 29.03125 22.824219 29.207031 C 22.824219 30.632812 21.667969 31.792969 20.238281 31.792969 C 20.089844 31.792969 19.941406 31.769531 19.796875 31.746094 C 19.464844 31.6875 19.125 31.800781 18.894531 32.046875 C 17.855469 33.160156 16.847656 34.261719 15.871094 35.34375 C 15.683594 35.554688 15.59375 35.835938 15.621094 36.113281 L 15.640625 36.265625 C 15.648438 36.304688 15.65625 36.339844 15.65625 36.378906 C 15.65625 37.78125 14.550781 38.914062 13.140625 38.953125 C 13.128906 38.953125 13.117188 38.964844 13.101562 38.964844 L 13.070312 38.964844 C 12.636719 38.964844 12.273438 39.246094 12.136719 39.632812 C 4.015625 49.277344 4 51.714844 4 52.515625 C 4 55.40625 7.820312 60 11 60 C 18.785156 60 60 18.785156 60 11 C 60 7.820312 55.402344 4 52.515625 4 Z M 52.515625 6 C 54.515625 6 58 9.179688 58 11 C 58 17.589844 17.589844 58 11 58 C 9.179688 58 6 54.515625 6 52.515625 C 6 51.929688 6.558594 49.363281 13.617188 40.972656 C 17.648438 41.023438 19.792969 41.5625 21.691406 42.363281 C 21.820312 42.417969 21.953125 42.441406 22.082031 42.441406 C 22.472656 42.441406 22.84375 42.210938 23.003906 41.832031 C 23.21875 41.320312 22.980469 40.734375 22.472656 40.519531 C 21.089844 39.9375 19.421875 39.390625 16.726562 39.128906 C 17.300781 38.359375 17.65625 37.417969 17.65625 36.378906 L 17.65625 36.351562 C 18.421875 35.507812 19.207031 34.648438 20.011719 33.785156 C 20.082031 33.789062 20.160156 33.792969 20.242188 33.792969 C 24.644531 33.792969 26.875 34.351562 28.867188 35.1875 C 28.992188 35.242188 29.125 35.269531 29.253906 35.269531 C 29.644531 35.269531 30.015625 35.039062 30.175781 34.65625 C 30.390625 34.148438 30.152344 33.5625 29.644531 33.347656 C 28.261719 32.765625 26.59375 32.214844 23.890625 31.953125 C 24.46875 31.183594 24.828125 30.238281 24.828125 29.203125 C 24.828125 29.058594 24.820312 28.914062 24.804688 28.765625 C 25.515625 28.039062 26.234375 27.316406 26.957031 26.59375 C 27.109375 26.613281 27.261719 26.617188 27.410156 26.617188 C 27.410156 26.617188 27.414062 26.617188 27.414062 26.617188 L 27.429688 26.617188 C 27.445312 26.617188 27.460938 26.621094 27.476562 26.621094 C 31.839844 26.628906 34.058594 27.183594 36.035156 28.015625 C 36.164062 28.070312 36.296875 28.097656 36.425781 28.097656 C 36.816406 28.097656 37.1875 27.867188 37.347656 27.484375 C 37.5625 26.976562 37.324219 26.390625 36.816406 26.175781 C 35.4375 25.59375 33.773438 25.046875 31.082031 24.785156 C 31.65625 24.015625 32 23.0625 32 22.035156 C 32 21.925781 31.996094 21.8125 31.988281 21.699219 C 32.792969 20.933594 33.597656 20.179688 34.394531 19.445312 C 34.460938 19.449219 34.523438 19.449219 34.585938 19.449219 C 38.992188 19.449219 41.222656 20.007812 43.210938 20.847656 C 43.339844 20.902344 43.46875 20.925781 43.597656 20.925781 C 43.988281 20.925781 44.359375 20.695312 44.523438 20.316406 C 44.734375 19.804688 44.496094 19.21875 43.988281 19.003906 C 42.609375 18.421875 40.941406 17.875 38.25 17.613281 C 38.769531 16.921875 39.101562 16.082031 39.164062 15.171875 C 48.957031 6.667969 51.855469 6 52.515625 6 Z M 48.132812 33.359375 C 47.878906 33.359375 47.621094 33.457031 47.425781 33.652344 C 47.035156 34.042969 47.035156 34.675781 47.425781 35.066406 L 48.839844 36.480469 C 49.035156 36.675781 49.289062 36.773438 49.546875 36.773438 C 49.804688 36.773438 50.058594 36.675781 50.253906 36.480469 C 50.644531 36.089844 50.644531 35.457031 50.253906 35.066406 L 48.839844 33.652344 C 48.644531 33.457031 48.386719 33.359375 48.132812 33.359375 Z M 44.597656 36.894531 C 44.34375 36.894531 44.085938 36.992188 43.890625 37.1875 C 43.5 37.578125 43.5 38.210938 43.890625 38.601562 L 45.304688 40.015625 C 45.5 40.210938 45.753906 40.308594 46.011719 40.308594 C 46.269531 40.308594 46.523438 40.210938 46.71875 40.015625 C 47.109375 39.625 47.109375 38.992188 46.71875 38.601562 L 45.304688 37.1875 C 45.109375 36.992188 44.851562 36.894531 44.597656 36.894531 Z M 41.0625 40.429688 C 40.804688 40.429688 40.550781 40.527344 40.351562 40.722656 C 39.960938 41.113281 39.960938 41.746094 40.351562 42.136719 L 41.769531 43.550781 C 41.964844 43.746094 42.21875 43.84375 42.476562 43.84375 C 42.734375 43.84375 42.988281 43.746094 43.183594 43.550781 C 43.574219 43.160156 43.574219 42.527344 43.183594 42.132812 L 41.769531 40.722656 C 41.570312 40.527344 41.316406 40.429688 41.0625 40.429688 Z M 37.527344 43.964844 C 37.269531 43.964844 37.015625 44.0625 36.816406 44.257812 C 36.425781 44.648438 36.425781 45.28125 36.816406 45.671875 L 38.230469 47.085938 C 38.425781 47.28125 38.683594 47.378906 38.9375 47.378906 C 39.195312 47.378906 39.453125 47.28125 39.648438 47.085938 C 40.039062 46.695312 40.039062 46.0625 39.648438 45.671875 L 38.234375 44.257812 C 38.035156 44.0625 37.78125 43.964844 37.527344 43.964844 Z M 33.988281 47.5 C 33.734375 47.5 33.480469 47.597656 33.28125 47.792969 C 32.890625 48.1875 32.890625 48.816406 33.28125 49.207031 L 34.695312 50.621094 C 34.890625 50.816406 35.148438 50.914062 35.402344 50.914062 C 35.660156 50.914062 35.917969 50.816406 36.109375 50.621094 C 36.503906 50.230469 36.503906 49.597656 36.109375 49.207031 L 34.695312 47.792969 C 34.5 47.597656 34.246094 47.5 33.988281 47.5 Z M 33.988281 47.5 "/>
</g>
</svg>
