<?xml version="1.0" encoding="UTF-8"?>
<svg xmlns="http://www.w3.org/2000/svg" xmlns:xlink="http://www.w3.org/1999/xlink" width="100px" height="100px" viewBox="0 0 100 100" version="1.1">
<g id="surface22463">
<path style=" stroke:none;fill-rule:nonzero;fill:rgb(63.137255%,82.745098%,63.529412%);fill-opacity:1;" d="M 87.128906 64 C 89.152344 61.933594 90.5 59.234375 90.5 56.214844 C 90.5 53.675781 89.65625 51.449219 88.140625 49.542969 C 86.789062 47.953125 86.453125 45.890625 86.960938 43.824219 C 87.128906 43.347656 87.128906 42.554688 87.128906 41.917969 C 87.128906 36.675781 83.757812 32.386719 78.359375 31.117188 C 76.503906 30.640625 75.15625 29.527344 74.3125 27.9375 C 72.457031 23.96875 68.410156 21.265625 63.519531 21.265625 C 61.328125 21.265625 59.304688 20.472656 57.789062 19.203125 C 55.597656 17.453125 52.898438 16.5 50.03125 16.5 C 47.164062 16.5 44.46875 17.453125 42.273438 19.203125 C 40.757812 20.472656 38.734375 21.265625 36.539062 21.265625 C 31.652344 21.265625 27.433594 24.128906 25.582031 28.097656 C 24.90625 29.527344 23.558594 30.640625 22.039062 30.957031 C 16.308594 32.230469 12.933594 36.675781 12.933594 41.921875 C 12.933594 42.554688 12.933594 43.351562 13.101562 43.984375 C 13.441406 46.050781 13.101562 48.113281 11.753906 49.703125 C 9.898438 52.085938 9.054688 55.105469 9.730469 58.441406 C 10.238281 60.507812 11.417969 62.570312 12.933594 64 "/>
<path style=" stroke:none;fill-rule:nonzero;fill:rgb(94.509804%,35.686275%,42.352941%);fill-opacity:1;" d="M 29.5 25.5 C 24.53125 25.5 20.5 29.53125 20.5 34.5 C 20.5 39.46875 24.53125 43.5 29.5 43.5 C 34.46875 43.5 38.5 39.46875 38.5 34.5 C 38.5 29.53125 34.46875 25.5 29.5 25.5 Z M 80.5 37.5 C 75.53125 37.5 71.5 41.53125 71.5 46.5 C 71.5 51.46875 75.53125 55.5 80.5 55.5 C 85.46875 55.5 89.5 51.46875 89.5 46.5 C 89.5 41.53125 85.46875 37.5 80.5 37.5 Z M 80.5 37.5 "/>
<path style=" stroke:none;fill-rule:nonzero;fill:rgb(97.647059%,90.196078%,36.078431%);fill-opacity:1;" d="M 72.5 26 C 68.632812 26 65.5 29.132812 65.5 33 C 65.5 36.867188 68.632812 40 72.5 40 C 76.367188 40 79.5 36.867188 79.5 33 C 79.5 29.132812 76.367188 26 72.5 26 Z M 42.5 23.5 C 38.632812 23.5 35.5 26.632812 35.5 30.5 C 35.5 34.367188 38.632812 37.5 42.5 37.5 C 46.367188 37.5 49.5 34.367188 49.5 30.5 C 49.5 26.632812 46.367188 23.5 42.5 23.5 Z M 18.5 39.5 C 14.632812 39.5 11.5 42.632812 11.5 46.5 C 11.5 50.367188 14.632812 53.5 18.5 53.5 C 22.367188 53.5 25.5 50.367188 25.5 46.5 C 25.5 42.632812 22.367188 39.5 18.5 39.5 Z M 18.5 39.5 "/>
<path style=" stroke:none;fill-rule:nonzero;fill:rgb(94.509804%,35.686275%,42.352941%);fill-opacity:1;" d="M 57.5 17.5 C 51.425781 17.5 46.5 22.425781 46.5 28.5 C 46.5 34.574219 51.425781 39.5 57.5 39.5 C 63.574219 39.5 68.5 34.574219 68.5 28.5 C 68.5 22.425781 63.574219 17.5 57.5 17.5 Z M 57.5 17.5 "/>
<path style=" stroke:none;fill-rule:nonzero;fill:rgb(91.764706%,65.882353%,44.313725%);fill-opacity:1;" d="M 81.953125 75 L 18.046875 75 C 15.1875 75 13 72.921875 13 70.199219 L 13 62.199219 C 13 42.679688 29.480469 27 50 27 C 70.519531 27 87 42.679688 87 62.199219 L 87 70.199219 C 87 72.921875 84.8125 75 81.953125 75 Z M 81.953125 75 "/>
<path style=" stroke:none;fill-rule:nonzero;fill:rgb(20%,20%,20%);fill-opacity:1;" d="M 91 56.214844 C 91 54.046875 90.402344 52.027344 89.234375 50.21875 C 89.726562 49.058594 90 47.804688 90 46.5 C 90 44.027344 89.039062 41.777344 87.484375 40.085938 C 86.839844 35.796875 83.960938 32.429688 79.71875 30.992188 C 78.921875 28.128906 76.46875 25.953125 73.457031 25.566406 C 71.703125 23.261719 69.148438 21.65625 66.242188 21.046875 C 64.128906 18.574219 60.996094 17 57.5 17 C 56.804688 17 56.121094 17.066406 55.457031 17.1875 C 55.445312 17.179688 55.4375 17.171875 55.429688 17.164062 C 53.734375 16.394531 51.921875 16 50.03125 16 C 47.058594 16 44.269531 16.972656 41.953125 18.816406 C 40.453125 20.074219 38.53125 20.765625 36.539062 20.765625 C 32.710938 20.765625 29.136719 22.4375 26.734375 25.351562 C 26.714844 25.371094 26.707031 25.398438 26.695312 25.421875 C 24.019531 26.253906 21.84375 28.234375 20.757812 30.785156 C 15.617188 32.394531 12.433594 36.636719 12.433594 41.917969 L 12.433594 42.105469 C 11.535156 43.34375 11 44.859375 11 46.5 C 11 47.441406 11.175781 48.355469 11.507812 49.207031 C 11.457031 49.269531 11.414062 49.328125 11.359375 49.394531 C 9.300781 52.042969 8.566406 55.203125 9.246094 58.558594 C 9.703125 60.4375 10.714844 62.324219 12 63.757812 L 12 70.199219 C 12 73.453125 14.65625 76 18.046875 76 L 81.953125 76 C 85.34375 76 88 73.453125 88 70.199219 L 88 63.777344 C 89.933594 61.566406 91 58.910156 91 56.214844 Z M 90 56.214844 C 90 58.296875 89.292969 60.355469 88 62.175781 C 87.996094 59.191406 87.605469 56.289062 86.886719 53.515625 C 87.605469 52.863281 88.210938 52.117188 88.691406 51.296875 C 89.542969 52.804688 90 54.449219 90 56.214844 Z M 86.582031 52.429688 C 85.015625 47.109375 82.203125 42.285156 78.464844 38.253906 C 79.128906 38.09375 79.804688 38 80.5 38 C 82.875 38 85.023438 38.980469 86.566406 40.558594 C 86.613281 40.691406 86.707031 40.796875 86.832031 40.851562 C 88.175781 42.351562 89 44.328125 89 46.5 C 89 48.746094 88.128906 50.847656 86.582031 52.429688 Z M 86.222656 38.933594 C 84.628906 37.726562 82.648438 37 80.5 37 C 79.898438 37 79.304688 37.058594 78.722656 37.171875 C 79.542969 35.945312 80 34.496094 80 33 C 80 32.714844 79.980469 32.4375 79.949219 32.160156 C 83.09375 33.40625 85.347656 35.832031 86.222656 38.933594 Z M 79 33 C 79 34.546875 78.4375 36.035156 77.449219 37.203125 C 74.902344 34.667969 71.976562 32.484375 68.753906 30.734375 C 68.898438 30 69 29.257812 69 28.5 C 69 28.183594 68.976562 27.875 68.953125 27.5625 C 70.007812 26.875 71.230469 26.5 72.5 26.5 C 76.085938 26.5 79 29.414062 79 33 Z M 72.132812 25.527344 C 70.957031 25.585938 69.828125 25.914062 68.8125 26.492188 C 68.546875 24.984375 67.988281 23.582031 67.191406 22.339844 C 69.109375 22.953125 70.816406 24.050781 72.132812 25.527344 Z M 68 28.5 C 68 29.089844 67.9375 29.671875 67.839844 30.25 C 62.515625 27.539062 56.445312 26 50 26 C 49.503906 26 49.007812 26.019531 48.515625 26.035156 C 48.238281 25.664062 47.933594 25.328125 47.597656 25.015625 C 49.074219 20.8125 53.023438 18 57.5 18 C 63.289062 18 68 22.710938 68 28.5 Z M 36.683594 28.300781 C 36.617188 28.222656 36.554688 28.144531 36.484375 28.070312 C 37.472656 25.628906 39.851562 24 42.5 24 C 44.324219 24 46.050781 24.789062 47.269531 26.105469 C 43.570312 26.355469 40.015625 27.109375 36.683594 28.300781 Z M 36.539062 21.765625 C 38.765625 21.765625 40.914062 20.992188 42.585938 19.589844 C 44.714844 17.894531 47.289062 17 50.03125 17 C 51.339844 17 52.605469 17.203125 53.816406 17.605469 C 50.628906 18.679688 48.023438 21.121094 46.777344 24.359375 C 45.535156 23.496094 44.050781 23 42.5 23 C 39.578125 23 36.949219 24.722656 35.726562 27.328125 C 34.015625 25.84375 31.808594 25 29.5 25 C 29.109375 25 28.726562 25.03125 28.347656 25.078125 C 30.511719 22.960938 33.433594 21.765625 36.539062 21.765625 Z M 29.5 26 C 31.851562 26 34.085938 26.988281 35.679688 28.675781 C 30.324219 30.761719 25.574219 33.96875 21.765625 38.003906 C 21.269531 36.910156 21 35.722656 21 34.5 C 21 29.8125 24.8125 26 29.5 26 Z M 20.351562 31.980469 C 20.128906 32.78125 20 33.625 20 34.5 C 20 36.011719 20.367188 37.472656 21.042969 38.796875 C 20.894531 38.964844 20.738281 39.132812 20.59375 39.300781 C 19.917969 39.105469 19.214844 39 18.5 39 C 16.566406 39 14.808594 39.742188 13.476562 40.945312 C 13.820312 36.8125 16.367188 33.488281 20.351562 31.980469 Z M 18.5 40 C 18.972656 40 19.4375 40.054688 19.890625 40.152344 C 17.269531 43.394531 15.214844 47.0625 13.859375 51.035156 C 12.683594 49.832031 12 48.214844 12 46.5 C 12 42.914062 14.914062 40 18.5 40 Z M 12 50.21875 C 12.398438 50.917969 12.90625 51.554688 13.515625 52.101562 C 12.539062 55.292969 12.007812 58.664062 12 62.152344 C 11.183594 61.007812 10.546875 59.667969 10.21875 58.339844 C 9.621094 55.378906 10.246094 52.574219 12 50.21875 Z M 86 70.199219 C 86 72.367188 84.261719 74 81.953125 74 L 18.046875 74 C 15.738281 74 14 72.367188 14 70.199219 L 14 62.199219 C 14 43.34375 30.148438 28 50 28 C 69.851562 28 86 43.34375 86 62.199219 Z M 86 70.199219 "/>
<path style=" stroke:none;fill-rule:nonzero;fill:rgb(20%,20%,20%);fill-opacity:1;" d="M 57.609375 32.851562 C 57.339844 32.789062 57.074219 32.960938 57.011719 33.230469 C 56.949219 33.496094 57.117188 33.765625 57.386719 33.828125 C 67.644531 36.175781 75.851562 43.390625 78.804688 52.652344 C 78.871094 52.863281 79.066406 53 79.28125 53 C 79.328125 53 79.382812 52.992188 79.429688 52.976562 C 79.695312 52.894531 79.839844 52.613281 79.757812 52.347656 C 76.699219 42.746094 68.214844 35.277344 57.609375 32.851562 Z M 55.582031 32.453125 C 54.910156 32.34375 54.234375 32.253906 53.550781 32.183594 C 53.289062 32.15625 53.03125 32.355469 53.003906 32.628906 C 52.976562 32.902344 53.175781 33.148438 53.449219 33.175781 C 54.113281 33.246094 54.769531 33.332031 55.417969 33.441406 C 55.445312 33.445312 55.472656 33.449219 55.5 33.449219 C 55.742188 33.449219 55.953125 33.273438 55.992188 33.03125 C 56.039062 32.757812 55.855469 32.5 55.582031 32.453125 Z M 51.519531 32.03125 C 51.019531 32.011719 50.511719 32 50 32 C 49.722656 32 49.5 32.222656 49.5 32.5 C 49.5 32.777344 49.722656 33 50 33 C 50.496094 33 50.988281 33.011719 51.480469 33.03125 C 51.484375 33.03125 51.492188 33.03125 51.5 33.03125 C 51.765625 33.03125 51.988281 32.820312 52 32.554688 C 52.011719 32.277344 51.796875 32.046875 51.519531 32.03125 Z M 37 53 C 37 51.347656 35.652344 50 34 50 C 32.347656 50 31 51.347656 31 53 C 31 54.652344 32.347656 56 34 56 C 35.652344 56 37 54.652344 37 53 Z M 32 53 C 32 51.898438 32.898438 51 34 51 C 35.101562 51 36 51.898438 36 53 C 36 54.101562 35.101562 55 34 55 C 32.898438 55 32 54.101562 32 53 Z M 27 56 C 25.347656 56 24 57.347656 24 59 C 24 60.652344 25.347656 62 27 62 C 28.652344 62 30 60.652344 30 59 C 30 57.347656 28.652344 56 27 56 Z M 27 61 C 25.898438 61 25 60.101562 25 59 C 25 57.898438 25.898438 57 27 57 C 28.101562 57 29 57.898438 29 59 C 29 60.101562 28.101562 61 27 61 Z M 36 59 C 34.347656 59 33 60.347656 33 62 C 33 63.652344 34.347656 65 36 65 C 37.652344 65 39 63.652344 39 62 C 39 60.347656 37.652344 59 36 59 Z M 36 64 C 34.898438 64 34 63.101562 34 62 C 34 60.898438 34.898438 60 36 60 C 37.101562 60 38 60.898438 38 62 C 38 63.101562 37.101562 64 36 64 Z M 36 64 "/>
</g>
</svg>
