<?xml version="1.0" encoding="UTF-8"?>
<svg xmlns="http://www.w3.org/2000/svg" xmlns:xlink="http://www.w3.org/1999/xlink" width="64px" height="64px" viewBox="0 0 64 64" version="1.1">
<g id="surface20292">
<path style=" stroke:none;fill-rule:nonzero;fill:rgb(100%,100%,100%);fill-opacity:1;" d="M 52 28 L 12 28 C 12 16.949219 20.949219 13 32 13 C 43.050781 13 52 16.949219 52 28 Z M 52 28 "/>
<path style=" stroke:none;fill-rule:nonzero;fill:rgb(20%,20%,20%);fill-opacity:1;" d="M 40.050781 13.851562 C 40.148438 13.949219 40.199219 14 40.300781 14.101562 C 43.300781 17.898438 40.398438 23.5 35.550781 23.5 L 24.800781 23.5 C 23.550781 23.5 22.550781 24.5 22.550781 25.75 C 22.550781 27 23.550781 28 24.800781 28 L 52 28 C 52 19.800781 47.101562 15.550781 40.050781 13.851562 Z M 40.050781 13.851562 "/>
<path style=" stroke:none;fill-rule:nonzero;fill:rgb(100%,100%,100%);fill-opacity:1;" d="M 47 51 L 17 51 C 14.25 51 12 48.75 12 46 L 12 42 L 52 42 L 52 46 C 52 48.75 49.75 51 47 51 Z M 47 51 "/>
<path style=" stroke:none;fill-rule:nonzero;fill:rgb(20%,20%,20%);fill-opacity:1;" d="M 40.449219 42 C 40.199219 44.550781 38.050781 46.5 35.5 46.5 L 24.25 46.5 C 23 46.5 22 47.5 22 48.75 C 22 50 23 51 24.25 51 L 47 51 C 49.75 51 52 48.75 52 46 L 52 42 Z M 40.449219 42 "/>
<path style=" stroke:none;fill-rule:nonzero;fill:rgb(100%,100%,100%);fill-opacity:1;" d="M 52.25 42 L 11.75 42 C 9.699219 42 8 40.300781 8 38.25 C 8 36.199219 9.699219 34.5 11.75 34.5 L 52.25 34.5 C 54.300781 34.5 56 36.199219 56 38.25 C 56 40.300781 54.300781 42 52.25 42 Z M 52.25 42 "/>
<path style=" stroke:none;fill-rule:nonzero;fill:rgb(20%,20%,20%);fill-opacity:1;" d="M 52.25 34.5 L 37.25 34.5 C 39.300781 34.5 41 36.199219 41 38.25 C 41 40.300781 39.300781 42 37.25 42 L 52.25 42 C 54.300781 42 56 40.300781 56 38.25 C 56 36.199219 54.300781 34.5 52.25 34.5 Z M 52.25 34.5 "/>
<path style=" stroke:none;fill-rule:nonzero;fill:rgb(100%,100%,100%);fill-opacity:1;" d="M 12 28 L 12 33 L 27 33 L 27 34.5 L 40 41.5 L 52 34.5 L 52 28 Z M 12 28 "/>
<path style=" stroke:none;fill-rule:nonzero;fill:rgb(100%,100%,100%);fill-opacity:1;" d="M 44.648438 38.800781 L 52 34.5 L 52 33 L 43.101562 33 C 41.398438 33 40 34.398438 40 36.101562 C 40 38.5 42.601562 40 44.648438 38.800781 Z M 44.648438 38.800781 "/>
<path style=" stroke:none;fill-rule:nonzero;fill:rgb(100%,100%,100%);fill-opacity:1;" d="M 36.5 17.5 C 35.671875 17.5 35 18.171875 35 19 C 35 19.828125 35.671875 20.5 36.5 20.5 C 37.328125 20.5 38 19.828125 38 19 C 38 18.171875 37.328125 17.5 36.5 17.5 Z M 19.5 22 C 18.671875 22 18 22.671875 18 23.5 C 18 24.328125 18.671875 25 19.5 25 C 20.328125 25 21 24.328125 21 23.5 C 21 22.671875 20.328125 22 19.5 22 Z M 26 17 C 25.171875 17 24.5 17.671875 24.5 18.5 C 24.5 19.328125 25.171875 20 26 20 C 26.828125 20 27.5 19.328125 27.5 18.5 C 27.5 17.671875 26.828125 17 26 17 Z M 26 17 "/>
<path style=" stroke:none;fill-rule:nonzero;fill:rgb(20%,20%,20%);fill-opacity:1;" d="M 52 29.5 C 51.148438 29.5 50.5 28.851562 50.5 28 C 50.5 16.851562 40.449219 14.5 32 14.5 C 23.550781 14.5 13.5 16.851562 13.5 28 C 13.5 28.851562 12.851562 29.5 12 29.5 C 11.148438 29.5 10.5 28.851562 10.5 28 C 10.5 17.351562 18.148438 11.5 32 11.5 C 45.851562 11.5 53.5 17.351562 53.5 28 C 53.5 28.851562 52.851562 29.5 52 29.5 Z M 52.25 33 C 52.199219 33 52.148438 33 52.148438 33 C 51.851562 32.949219 51.5 33.050781 51.199219 33.199219 L 39.949219 40.199219 L 27.75 33.199219 C 27.5 33.050781 27.25 33 27 33 L 12 33 C 11.949219 33 11.898438 33 11.898438 33 C 11.851562 33 11.800781 33 11.800781 33 C 8.851562 33 6.5 35.351562 6.5 38.25 C 6.5 40.699219 8.199219 42.800781 10.5 43.351562 L 10.5 46 C 10.5 49.601562 13.398438 52.5 17 52.5 L 47 52.5 C 50.601562 52.5 53.5 49.601562 53.5 46 L 53.5 43.351562 C 55.800781 42.800781 57.5 40.699219 57.5 38.25 C 57.5 35.351562 55.148438 33 52.25 33 Z M 52.25 40.5 C 52.199219 40.5 52.148438 40.5 52.148438 40.5 C 52.101562 40.5 52.050781 40.5 52.050781 40.5 C 51.199219 40.5 50.550781 41.148438 50.550781 42 L 50.550781 46 C 50.550781 47.949219 49 49.5 47.050781 49.5 L 17 49.5 C 15.050781 49.5 13.5 47.949219 13.5 46 L 13.5 42 C 13.5 41.148438 12.851562 40.5 12 40.5 C 11.949219 40.5 11.898438 40.5 11.898438 40.5 C 11.851562 40.5 11.800781 40.5 11.800781 40.5 C 10.5 40.5 9.5 39.5 9.5 38.25 C 9.5 37 10.5 36 11.75 36 C 11.800781 36 11.851562 36 11.851562 36 C 11.898438 36 11.949219 36 11.949219 36 L 26.550781 36 L 39.199219 43.300781 C 39.449219 43.449219 39.699219 43.5 39.949219 43.5 C 40.25 43.5 40.5 43.398438 40.75 43.25 L 52.398438 36 C 53.550781 36.101562 54.5 37.050781 54.5 38.25 C 54.5 39.5 53.5 40.5 52.25 40.5 Z M 52.25 40.5 "/>
</g>
</svg>
