<?xml version="1.0" encoding="UTF-8"?>
<svg xmlns="http://www.w3.org/2000/svg" xmlns:xlink="http://www.w3.org/1999/xlink" width="48px" height="48px" viewBox="0 0 48 48" version="1.1">
<g id="surface20814">
<path style=" stroke:none;fill-rule:nonzero;fill:rgb(20%,20%,20%);fill-opacity:1;" d="M 40.875 4 L 32.625 6.3125 L 24.75 22 C 24.828125 22 24.921875 22 25 22 C 26.625 22 28.070312 21.875 29.375 21.6875 L 31.0625 18.25 C 34.0625 18.851562 36 19.945312 36 21 C 36 21.609375 35.34375 22.148438 34.1875 22.625 C 34.226562 25.382812 33.914062 29.890625 32 34 C 32.359375 31.101562 32.453125 26.78125 32 23.3125 C 30.09375 23.742188 27.671875 24 25 24 C 18.921875 24 14 22.65625 14 21 C 14 20.132812 15.351562 19.234375 17.5 18.6875 C 17.5625 18.429688 17.625 18.28125 17.625 18 C 17.625 16.914062 17.203125 16.28125 16.4375 15.625 C 12.609375 16.890625 10 18.640625 10 21 L 10 22.4375 C 8.78125 21.34375 8 19.765625 8 18 C 8 14.695312 10.695312 12 14 12 C 16.070312 12 17.921875 13.03125 19 14.625 C 19.015625 14.648438 19.039062 14.71875 19.0625 14.75 C 19.664062 15.6875 20 16.8125 20 18 C 20 19.265625 19.609375 20.46875 18.9375 21.4375 C 20.164062 21.695312 21.578125 21.851562 23.1875 21.9375 C 23.710938 20.726562 24 19.40625 24 18 L 26 14 C 25.671875 13.992188 25.335938 14 25 14 C 24.375 14 23.789062 14.03125 23.1875 14.0625 C 21.65625 10.5 18.125 8 14 8 C 8.476562 8 4 12.476562 4 18 C 4 22.09375 6.484375 25.578125 10 27.125 L 10 28 C 10 36.835938 16.71875 44 25 44 C 33.28125 44 40 36.835938 40 28 L 40 21 C 40 18.460938 36.992188 16.421875 32.625 15.25 L 35.375 9.6875 L 41.9375 7.8125 Z M 40.875 4 "/>
</g>
</svg>
