<?xml version="1.0" encoding="UTF-8"?>
<svg xmlns="http://www.w3.org/2000/svg" xmlns:xlink="http://www.w3.org/1999/xlink" width="64px" height="64px" viewBox="0 0 64 64" version="1.1">
<g id="surface7625">
<path style=" stroke:none;fill-rule:nonzero;fill:rgb(1,1,1);fill-opacity:1;" d="M 8 4 C 5.792969 4 4 5.792969 4 8 C 4 10.207031 5.792969 12 8 12 C 10.207031 12 12 10.207031 12 8 C 12 5.792969 10.207031 4 8 4 Z M 8 6 C 9.101562 6 10 6.898438 10 8 C 10 9.101562 9.101562 10 8 10 C 6.898438 10 6 9.101562 6 8 C 6 6.898438 6.898438 6 8 6 Z M 15 6 C 14.449219 6 14 6.449219 14 7 L 14 9 C 14 9.550781 14.449219 10 15 10 C 15.550781 10 16 9.550781 16 9 L 16 7 C 16 6.449219 15.550781 6 15 6 Z M 20 6 C 19.449219 6 19 6.449219 19 7 L 19 9 C 19 9.550781 19.449219 10 20 10 C 20.550781 10 21 9.550781 21 9 L 21 7 C 21 6.449219 20.550781 6 20 6 Z M 25 6 C 24.449219 6 24 6.449219 24 7 L 24 9 C 24 9.550781 24.449219 10 25 10 C 25.550781 10 26 9.550781 26 9 L 26 7 C 26 6.449219 25.550781 6 25 6 Z M 30 6 C 29.449219 6 29 6.449219 29 7 L 29 9 C 29 9.550781 29.449219 10 30 10 C 30.550781 10 31 9.550781 31 9 L 31 7 C 31 6.449219 30.550781 6 30 6 Z M 35 6 C 34.449219 6 34 6.449219 34 7 L 34 9 C 34 9.550781 34.449219 10 35 10 C 35.550781 10 36 9.550781 36 9 L 36 7 C 36 6.449219 35.550781 6 35 6 Z M 40 6 C 39.449219 6 39 6.449219 39 7 L 39 9 C 39 9.550781 39.449219 10 40 10 C 40.550781 10 41 9.550781 41 9 L 41 7 C 41 6.449219 40.550781 6 40 6 Z M 45 6 C 44.449219 6 44 6.449219 44 7 L 44 9 C 44 9.550781 44.449219 10 45 10 C 45.550781 10 46 9.550781 46 9 L 46 7 C 46 6.449219 45.550781 6 45 6 Z M 49.875 6 C 49.324219 6 48.875 6.449219 48.875 7 L 48.875 9 C 48.875 9.550781 49.324219 10 49.875 10 C 50.425781 10 50.875 9.550781 50.875 9 L 50.875 7 C 50.875 6.449219 50.425781 6 49.875 6 Z M 54.628906 9.09375 C 54.5 9.09375 54.367188 9.117188 54.242188 9.167969 L 52.390625 9.933594 C 51.882812 10.144531 51.636719 10.726562 51.847656 11.238281 C 52.007812 11.625 52.378906 11.855469 52.773438 11.855469 C 52.902344 11.855469 53.027344 11.832031 53.152344 11.78125 L 55.003906 11.019531 C 55.515625 10.808594 55.757812 10.222656 55.546875 9.710938 C 55.386719 9.332031 55.019531 9.097656 54.628906 9.09375 Z M 53 14.28125 C 52.449219 14.28125 52 14.730469 52 15.28125 C 52 15.832031 52.449219 16.28125 53 16.28125 L 55 16.28125 C 55.550781 16.28125 56 15.832031 56 15.28125 C 56 14.730469 55.550781 14.28125 55 14.28125 Z M 33 15 C 28.589844 15 25 18.589844 25 23 C 25 27.0625 31.441406 36.503906 32.175781 37.566406 C 32.363281 37.839844 32.671875 38 33 38 C 33.328125 38 33.636719 37.839844 33.824219 37.566406 C 34.558594 36.503906 41 27.0625 41 23 C 41 18.589844 37.410156 15 33 15 Z M 33 17 C 36.308594 17 39 19.691406 39 23 C 39 25.554688 35.210938 31.84375 33 35.207031 C 30.789062 31.847656 27 25.558594 27 23 C 27 19.691406 29.691406 17 33 17 Z M 33 19 C 30.792969 19 29 20.792969 29 23 C 29 25.207031 30.792969 27 33 27 C 35.207031 27 37 25.207031 37 23 C 37 20.792969 35.207031 19 33 19 Z M 53 19.125 C 52.449219 19.125 52 19.574219 52 20.125 C 52 20.675781 52.449219 21.125 53 21.125 L 55 21.125 C 55.550781 21.125 56 20.675781 56 20.125 C 56 19.574219 55.550781 19.125 55 19.125 Z M 33 21 C 34.101562 21 35 21.898438 35 23 C 35 24.101562 34.101562 25 33 25 C 31.898438 25 31 24.101562 31 23 C 31 21.898438 31.898438 21 33 21 Z M 54 23 C 51.792969 23 50 24.792969 50 27 C 50 29.207031 51.792969 31 54 31 C 56.207031 31 58 29.207031 58 27 C 58 24.792969 56.207031 23 54 23 Z M 54 25 C 55.101562 25 56 25.898438 56 27 C 56 28.101562 55.101562 29 54 29 C 52.898438 29 52 28.101562 52 27 C 52 25.898438 52.898438 25 54 25 Z M 52.9375 33.105469 C 52.386719 33.105469 51.9375 33.550781 51.9375 34.105469 C 51.9375 34.65625 52.386719 35.105469 52.9375 35.105469 L 54.9375 35.105469 C 55.492188 35.105469 55.9375 34.65625 55.9375 34.105469 C 55.9375 33.550781 55.488281 33.105469 54.9375 33.105469 Z M 52.9375 37.609375 C 52.386719 37.609375 51.9375 38.054688 51.9375 38.609375 C 51.9375 39.160156 52.386719 39.609375 52.9375 39.609375 L 54.9375 39.609375 C 55.492188 39.609375 55.9375 39.160156 55.9375 38.609375 C 55.9375 38.054688 55.488281 37.609375 54.9375 37.609375 Z M 52.050781 41.074219 C 51.792969 41.070312 51.535156 41.167969 51.339844 41.363281 C 50.945312 41.75 50.9375 42.382812 51.328125 42.773438 L 52.730469 44.203125 C 52.925781 44.398438 53.183594 44.503906 53.441406 44.503906 C 53.695312 44.503906 53.949219 44.40625 54.144531 44.214844 C 54.535156 43.828125 54.542969 43.195312 54.15625 42.800781 L 52.753906 41.371094 C 52.558594 41.175781 52.304688 41.078125 52.050781 41.074219 Z M 48.542969 41.9375 C 47.988281 41.9375 47.542969 42.386719 47.542969 42.9375 L 47.542969 44.9375 C 47.542969 45.488281 47.988281 45.9375 48.542969 45.9375 C 49.09375 45.9375 49.542969 45.488281 49.542969 44.9375 L 49.542969 42.9375 C 49.542969 42.386719 49.09375 41.9375 48.542969 41.9375 Z M 13 42 C 12.449219 42 12 42.449219 12 43 L 12 45 C 12 45.550781 12.449219 46 13 46 C 13.550781 46 14 45.550781 14 45 L 14 43 C 14 42.449219 13.550781 42 13 42 Z M 18 42 C 17.449219 42 17 42.449219 17 43 L 17 45 C 17 45.550781 17.449219 46 18 46 C 18.550781 46 19 45.550781 19 45 L 19 43 C 19 42.449219 18.550781 42 18 42 Z M 23 42 C 22.449219 42 22 42.449219 22 43 L 22 45 C 22 45.550781 22.449219 46 23 46 C 23.550781 46 24 45.550781 24 45 L 24 43 C 24 42.449219 23.550781 42 23 42 Z M 28 42 C 27.449219 42 27 42.449219 27 43 L 27 45 C 27 45.550781 27.449219 46 28 46 C 28.550781 46 29 45.550781 29 45 L 29 43 C 29 42.449219 28.550781 42 28 42 Z M 33 42 C 32.449219 42 32 42.449219 32 43 L 32 45 C 32 45.550781 32.449219 46 33 46 C 33.550781 46 34 45.550781 34 45 L 34 43 C 34 42.449219 33.550781 42 33 42 Z M 38 42 C 37.449219 42 37 42.449219 37 43 L 37 45 C 37 45.550781 37.449219 46 38 46 C 38.550781 46 39 45.550781 39 45 L 39 43 C 39 42.449219 38.550781 42 38 42 Z M 43 42 C 42.449219 42 42 42.449219 42 43 L 42 45 C 42 45.550781 42.449219 46 43 46 C 43.550781 46 44 45.550781 44 45 L 44 43 C 44 42.449219 43.550781 42 43 42 Z M 7.554688 43.605469 C 7.300781 43.582031 7.039062 43.65625 6.828125 43.832031 C 6.402344 44.1875 6.347656 44.816406 6.703125 45.242188 L 7.984375 46.773438 C 8.183594 47.011719 8.464844 47.132812 8.753906 47.132812 C 8.976562 47.132812 9.207031 47.058594 9.394531 46.902344 C 9.816406 46.546875 9.871094 45.917969 9.519531 45.492188 L 8.234375 43.957031 C 8.058594 43.746094 7.8125 43.625 7.558594 43.605469 Z M 5 49 C 4.449219 49 4 49.449219 4 50 C 4 50.550781 4.449219 51 5 51 L 7 51 C 7.550781 51 8 50.550781 8 50 C 8 49.449219 7.550781 49 7 49 Z M 56 52 C 53.792969 52 52 53.792969 52 56 C 52 58.207031 53.792969 60 56 60 C 58.207031 60 60 58.207031 60 56 C 60 53.792969 58.207031 52 56 52 Z M 8.664062 52.871094 C 8.40625 52.890625 8.160156 53.011719 7.984375 53.226562 L 6.703125 54.757812 C 6.347656 55.183594 6.402344 55.8125 6.828125 56.167969 C 7.011719 56.324219 7.242188 56.402344 7.46875 56.402344 C 7.753906 56.402344 8.039062 56.277344 8.238281 56.042969 L 9.519531 54.507812 C 9.875 54.082031 9.816406 53.453125 9.394531 53.097656 C 9.183594 52.921875 8.917969 52.847656 8.664062 52.871094 Z M 13 54 C 12.449219 54 12 54.449219 12 55 L 12 57 C 12 57.550781 12.449219 58 13 58 C 13.550781 58 14 57.550781 14 57 L 14 55 C 14 54.449219 13.550781 54 13 54 Z M 18 54 C 17.449219 54 17 54.449219 17 55 L 17 57 C 17 57.550781 17.449219 58 18 58 C 18.550781 58 19 57.550781 19 57 L 19 55 C 19 54.449219 18.550781 54 18 54 Z M 23 54 C 22.449219 54 22 54.449219 22 55 L 22 57 C 22 57.550781 22.449219 58 23 58 C 23.550781 58 24 57.550781 24 57 L 24 55 C 24 54.449219 23.550781 54 23 54 Z M 28 54 C 27.449219 54 27 54.449219 27 55 L 27 57 C 27 57.550781 27.449219 58 28 58 C 28.550781 58 29 57.550781 29 57 L 29 55 C 29 54.449219 28.550781 54 28 54 Z M 33 54 C 32.449219 54 32 54.449219 32 55 L 32 57 C 32 57.550781 32.449219 58 33 58 C 33.550781 58 34 57.550781 34 57 L 34 55 C 34 54.449219 33.550781 54 33 54 Z M 38 54 C 37.449219 54 37 54.449219 37 55 L 37 57 C 37 57.550781 37.449219 58 38 58 C 38.550781 58 39 57.550781 39 57 L 39 55 C 39 54.449219 38.550781 54 38 54 Z M 43 54 C 42.449219 54 42 54.449219 42 55 L 42 57 C 42 57.550781 42.449219 58 43 58 C 43.550781 58 44 57.550781 44 57 L 44 55 C 44 54.449219 43.550781 54 43 54 Z M 48 54 C 47.449219 54 47 54.449219 47 55 L 47 57 C 47 57.550781 47.449219 58 48 58 C 48.550781 58 49 57.550781 49 57 L 49 55 C 49 54.449219 48.550781 54 48 54 Z M 56 54 C 57.101562 54 58 54.898438 58 56 C 58 57.101562 57.101562 58 56 58 C 54.898438 58 54 57.101562 54 56 C 54 54.898438 54.898438 54 56 54 Z M 56 54 "/>
</g>
</svg>
