<?xml version="1.0" encoding="UTF-8" standalone="yes"?>
<svg xmlns="http://www.w3.org/2000/svg" xmlns:xlink="http://www.w3.org/1999/xlink" width="64px" height="64px" viewBox="0 0 64 64" version="1.1" fill="#000000">
  <g id="surface9170">
    <path style=" stroke:none;fill-rule:nonzero;fill:#000000;fill-opacity:1;" d="M 7.550781 15.648438 C 6.699219 15.648438 6.050781 16.300781 6.050781 17.148438 L 6.050781 21.148438 C 6.050781 23.351562 7.851562 25.148438 10.050781 25.148438 L 13.148438 25.148438 C 14 25.148438 14.648438 24.5 14.648438 23.648438 C 14.648438 22.800781 14 22.148438 13.148438 22.148438 L 10.050781 22.148438 C 9.5 22.148438 9.050781 21.699219 9.050781 21.148438 L 9.050781 18.648438 L 44.148438 18.648438 L 44.148438 21.148438 C 44.148438 21.699219 43.699219 22.148438 43.148438 22.148438 L 40.050781 22.148438 C 39.199219 22.148438 38.550781 22.800781 38.550781 23.648438 C 38.550781 24.5 39.199219 25.148438 40.050781 25.148438 L 43.148438 25.148438 C 45.351562 25.148438 47.148438 23.351562 47.148438 21.148438 L 47.148438 18.648438 L 49.699219 18.648438 C 52.351562 22.25 54.550781 27.5 56.101562 33.148438 L 48.949219 33.148438 C 47 33.148438 45.449219 31.601562 45.449219 29.648438 L 45.449219 28.648438 C 45.449219 27.800781 44.800781 27.148438 43.949219 27.148438 C 43.101562 27.148438 42.449219 27.800781 42.449219 28.648438 L 42.449219 29.648438 C 42.449219 33.25 45.351562 36.148438 48.949219 36.148438 L 52.949219 36.148438 C 53.101562 36.148438 53.25 36.101562 53.398438 36.101562 C 54.699219 41.648438 55.449219 47.300781 55.449219 51.949219 C 54.300781 50.398438 52.449219 49.398438 50.398438 49.398438 C 48.25 49.398438 46.300781 50.5 45.199219 52.148438 L 23.601562 52.148438 C 22.449219 50.5 20.550781 49.398438 18.398438 49.398438 C 16.25 49.398438 14.300781 50.5 13.199219 52.148438 L 12 52.148438 L 12 28.648438 C 12 27.800781 11.351562 27.148438 10.5 27.148438 C 9.648438 27.148438 9 27.800781 9 28.648438 L 9 53.648438 C 9 54.5 9.648438 55.148438 10.5 55.148438 L 12.148438 55.148438 C 12.148438 55.351562 12.101562 55.5 12.101562 55.699219 C 12.101562 56.898438 12.449219 58.050781 13.050781 59 L 10.898438 59 C 10.050781 59 9.398438 59.648438 9.398438 60.5 C 9.398438 61.351562 10.050781 62 10.898438 62 L 50.398438 62 C 53.898438 62 56.699219 59.148438 56.699219 55.699219 C 56.699219 55.5 56.699219 55.351562 56.648438 55.148438 L 60.398438 55.148438 C 61.25 55.148438 61.898438 54.5 61.898438 53.648438 L 61.898438 52.148438 C 61.898438 40.851562 58.050781 24.300781 51.550781 16.199219 C 51.351562 15.851562 50.898438 15.648438 50.449219 15.648438 Z M 17.550781 22.148438 C 16.699219 22.148438 16.050781 22.800781 16.050781 23.648438 C 16.050781 24.5 16.699219 25.148438 17.550781 25.148438 L 20.648438 25.148438 C 21.5 25.148438 22.148438 24.5 22.148438 23.648438 C 22.148438 22.800781 21.5 22.148438 20.648438 22.148438 Z M 25.050781 22.148438 C 24.199219 22.148438 23.550781 22.800781 23.550781 23.648438 C 23.550781 24.5 24.199219 25.148438 25.050781 25.148438 L 28.148438 25.148438 C 29 25.148438 29.648438 24.5 29.648438 23.648438 C 29.648438 22.800781 29 22.148438 28.148438 22.148438 Z M 32.550781 22.148438 C 31.699219 22.148438 31.050781 22.800781 31.050781 23.648438 C 31.050781 24.5 31.699219 25.148438 32.550781 25.148438 L 35.648438 25.148438 C 36.5 25.148438 37.148438 24.5 37.148438 23.648438 C 37.148438 22.800781 36.5 22.148438 35.648438 22.148438 Z M 16.351562 27.148438 C 15.5 27.148438 14.851562 27.851562 14.851562 28.648438 L 14.851562 32.148438 C 14.851562 34.351562 16.648438 36.148438 18.851562 36.148438 L 34.351562 36.148438 C 36.550781 36.148438 38.351562 34.351562 38.351562 32.148438 L 38.351562 28.648438 C 38.351562 27.800781 37.699219 27.148438 36.851562 27.148438 C 36 27.148438 35.351562 27.800781 35.351562 28.648438 L 35.351562 32.148438 C 35.351562 32.699219 34.898438 33.148438 34.351562 33.148438 L 18.851562 33.148438 C 18.300781 33.148438 17.851562 32.699219 17.851562 32.148438 L 17.851562 28.648438 C 17.851562 27.800781 17.199219 27.148438 16.351562 27.148438 Z M 18.398438 52.398438 C 20.25 52.398438 21.699219 53.898438 21.699219 55.699219 C 21.699219 57.5 20.25 59 18.398438 59 C 16.550781 59 15.101562 57.5 15.101562 55.699219 C 15.101562 53.898438 16.601562 52.398438 18.398438 52.398438 Z M 50.398438 52.398438 C 52.199219 52.398438 53.699219 53.898438 53.699219 55.699219 C 53.699219 57.5 52.25 59 50.398438 59 C 48.550781 59 47.101562 57.5 47.101562 55.699219 C 47.101562 53.898438 48.601562 52.398438 50.398438 52.398438 Z M 24.648438 55.148438 L 44.101562 55.148438 C 44.101562 55.351562 44.050781 55.5 44.050781 55.699219 C 44.050781 56.898438 44.398438 58.050781 45 59 L 23.75 59 C 24.351562 58.050781 24.699219 56.898438 24.699219 55.699219 C 24.699219 55.5 24.699219 55.351562 24.648438 55.148438 Z M 3.398438 59.039062 C 3.011719 59.039062 2.625 59.175781 2.351562 59.449219 C 2.050781 59.75 1.902344 60.101562 1.898438 60.5 C 1.898438 60.898438 2.050781 61.300781 2.351562 61.550781 C 2.648438 61.851562 3 62 3.398438 62 C 3.800781 62 4.199219 61.851562 4.449219 61.550781 C 4.75 61.25 4.902344 60.898438 4.898438 60.5 C 4.898438 60.101562 4.75 59.699219 4.449219 59.449219 C 4.175781 59.175781 3.789062 59.039062 3.398438 59.039062 Z M 3.398438 59.039062 "/>
  </g>
</svg>
