<?xml version="1.0" encoding="UTF-8"?>
<svg xmlns="http://www.w3.org/2000/svg" xmlns:xlink="http://www.w3.org/1999/xlink" width="64px" height="64px" viewBox="0 0 64 64" version="1.1">
<g id="surface8181">
<path style=" stroke:none;fill-rule:nonzero;fill:rgb(94.509804%,76.862745%,5.882353%);fill-opacity:1;" d="M 31 2 C 15.007812 2 2 15.007812 2 31 C 2 46.992188 15.007812 60 31 60 C 46.992188 60 60 46.992188 60 31 C 60 15.007812 46.992188 2 31 2 Z M 31 4 C 45.886719 4 58 16.113281 58 31 C 58 45.886719 45.886719 58 31 58 C 16.113281 58 4 45.886719 4 31 C 4 16.113281 16.113281 4 31 4 Z M 31 8 C 18.316406 8 8 18.316406 8 31 C 8 43.683594 18.316406 54 31 54 C 43.683594 54 54 43.683594 54 31 C 54 23.894531 50.792969 17.300781 45.199219 12.90625 C 44.765625 12.566406 44.136719 12.636719 43.796875 13.074219 C 43.457031 13.507812 43.53125 14.136719 43.964844 14.480469 C 49.070312 18.492188 52 24.515625 52 31 C 52 42.578125 42.578125 52 31 52 C 19.421875 52 10 42.578125 10 31 C 10 19.421875 19.421875 10 31 10 C 32.027344 10 33.058594 10.074219 34.0625 10.222656 C 34.613281 10.304688 35.121094 9.925781 35.199219 9.378906 C 35.277344 8.832031 34.902344 8.324219 34.355469 8.242188 C 33.253906 8.082031 32.125 8 31 8 Z M 38.53125 9.34375 C 38.144531 9.363281 37.785156 9.609375 37.640625 10 C 37.453125 10.515625 37.71875 11.089844 38.238281 11.28125 C 39.019531 11.566406 39.796875 11.910156 40.546875 12.292969 C 40.695312 12.367188 40.851562 12.402344 41.003906 12.402344 C 41.367188 12.402344 41.71875 12.203125 41.894531 11.855469 C 42.144531 11.363281 41.949219 10.761719 41.457031 10.511719 C 40.636719 10.089844 39.785156 9.71875 38.925781 9.402344 C 38.796875 9.355469 38.664062 9.335938 38.53125 9.34375 Z M 31 18 C 29.894531 18 29 18.894531 29 20 C 29 21.105469 29.894531 22 31 22 C 32.105469 22 33 21.105469 33 20 C 33 18.894531 32.105469 18 31 18 Z M 29.039062 24 C 28.558594 24 28.078125 24.398438 28.078125 25 C 28.078125 25.601562 28.4375 26 29.039062 26 L 30 26 L 30 40 L 28.039062 40 C 27.558594 40 27.078125 40.398438 27.078125 41 C 27.078125 41.601562 27.4375 42 28.039062 42 L 34 42 C 34.601562 42 34.960938 41.601562 34.960938 41 C 34.960938 40.398438 34.601562 40 34 40 L 32 40 L 32 26 L 33 26 C 33.601562 26 33.960938 25.601562 33.960938 25 C 33.960938 24.398438 33.601562 24 33 24 Z M 13 30 C 12.449219 30 12 30.449219 12 31 L 12 33 C 12 33.550781 12.449219 34 13 34 C 13.550781 34 14 33.550781 14 33 L 14 31 C 14 30.449219 13.550781 30 13 30 Z M 18 30 C 17.449219 30 17 30.449219 17 31 L 17 33 C 17 33.550781 17.449219 34 18 34 C 18.550781 34 19 33.550781 19 33 L 19 31 C 19 30.449219 18.550781 30 18 30 Z M 23 30 C 22.449219 30 22 30.449219 22 31 L 22 33 C 22 33.550781 22.449219 34 23 34 C 23.550781 34 24 33.550781 24 33 L 24 31 C 24 30.449219 23.550781 30 23 30 Z M 39 30 C 38.449219 30 38 30.449219 38 31 L 38 33 C 38 33.550781 38.449219 34 39 34 C 39.550781 34 40 33.550781 40 33 L 40 31 C 40 30.449219 39.550781 30 39 30 Z M 44 30 C 43.449219 30 43 30.449219 43 31 L 43 33 C 43 33.550781 43.449219 34 44 34 C 44.550781 34 45 33.550781 45 33 L 45 31 C 45 30.449219 44.550781 30 44 30 Z M 49 30 C 48.449219 30 48 30.449219 48 31 L 48 33 C 48 33.550781 48.449219 34 49 34 C 49.550781 34 50 33.550781 50 33 L 50 31 C 50 30.449219 49.550781 30 49 30 Z M 49 30 "/>
</g>
</svg>
