<?xml version="1.0" encoding="UTF-8"?>
<svg xmlns="http://www.w3.org/2000/svg" xmlns:xlink="http://www.w3.org/1999/xlink" width="64px" height="64px" viewBox="0 0 64 64" version="1.1">
<g id="surface7207">
<path style=" stroke:none;fill-rule:nonzero;fill:rgb(94.901961%,51.372549%,64.705882%);fill-opacity:1;" d="M 40 23 C 40 19.132812 36.867188 16 33 16 C 29.132812 16 26 19.132812 26 23 C 26 26.867188 33 37 33 37 C 33 37 40 26.867188 40 23 Z M 40 23 "/>
<path style=" stroke:none;fill-rule:nonzero;fill:rgb(55.294118%,42.352941%,62.352941%);fill-opacity:1;" d="M 33 38 C 32.671875 38 32.363281 37.839844 32.175781 37.566406 C 31.441406 36.503906 25 27.0625 25 23 C 25 18.589844 28.589844 15 33 15 C 37.410156 15 41 18.589844 41 23 C 41 27.0625 34.558594 36.503906 33.824219 37.566406 C 33.636719 37.839844 33.328125 38 33 38 Z M 33 17 C 29.691406 17 27 19.691406 27 23 C 27 25.558594 30.789062 31.847656 33 35.207031 C 35.210938 31.847656 39 25.554688 39 23 C 39 19.691406 36.308594 17 33 17 Z M 33 17 "/>
<path style=" stroke:none;fill-rule:nonzero;fill:rgb(100%,97.254902%,93.333333%);fill-opacity:1;" d="M 33 20 C 31.34375 20 30 21.34375 30 23 C 30 24.65625 31.34375 26 33 26 C 34.65625 26 36 24.65625 36 23 C 36 21.34375 34.65625 20 33 20 Z M 33 20 "/>
<path style=" stroke:none;fill-rule:nonzero;fill:rgb(55.294118%,42.352941%,62.352941%);fill-opacity:1;" d="M 33 27 C 30.792969 27 29 25.207031 29 23 C 29 20.792969 30.792969 19 33 19 C 35.207031 19 37 20.792969 37 23 C 37 25.207031 35.207031 27 33 27 Z M 33 21 C 31.898438 21 31 21.898438 31 23 C 31 24.101562 31.898438 25 33 25 C 34.101562 25 35 24.101562 35 23 C 35 21.898438 34.101562 21 33 21 Z M 33 21 "/>
<path style=" stroke:none;fill-rule:nonzero;fill:rgb(100%,97.254902%,93.333333%);fill-opacity:1;" d="M 8 5 C 6.34375 5 5 6.34375 5 8 C 5 9.65625 6.34375 11 8 11 C 9.65625 11 11 9.65625 11 8 C 11 6.34375 9.65625 5 8 5 Z M 8 5 "/>
<path style=" stroke:none;fill-rule:nonzero;fill:rgb(55.294118%,42.352941%,62.352941%);fill-opacity:1;" d="M 8 12 C 5.792969 12 4 10.207031 4 8 C 4 5.792969 5.792969 4 8 4 C 10.207031 4 12 5.792969 12 8 C 12 10.207031 10.207031 12 8 12 Z M 8 6 C 6.898438 6 6 6.898438 6 8 C 6 9.101562 6.898438 10 8 10 C 9.101562 10 10 9.101562 10 8 C 10 6.898438 9.101562 6 8 6 Z M 8 6 "/>
<path style=" stroke:none;fill-rule:nonzero;fill:rgb(100%,97.254902%,93.333333%);fill-opacity:1;" d="M 54 24 C 52.34375 24 51 25.34375 51 27 C 51 28.65625 52.34375 30 54 30 C 55.65625 30 57 28.65625 57 27 C 57 25.34375 55.65625 24 54 24 Z M 54 24 "/>
<path style=" stroke:none;fill-rule:nonzero;fill:rgb(55.294118%,42.352941%,62.352941%);fill-opacity:1;" d="M 54 31 C 51.792969 31 50 29.207031 50 27 C 50 24.792969 51.792969 23 54 23 C 56.207031 23 58 24.792969 58 27 C 58 29.207031 56.207031 31 54 31 Z M 54 25 C 52.898438 25 52 25.898438 52 27 C 52 28.101562 52.898438 29 54 29 C 55.101562 29 56 28.101562 56 27 C 56 25.898438 55.101562 25 54 25 Z M 54 25 "/>
<path style=" stroke:none;fill-rule:nonzero;fill:rgb(100%,97.254902%,93.333333%);fill-opacity:1;" d="M 56 53 C 54.34375 53 53 54.34375 53 56 C 53 57.65625 54.34375 59 56 59 C 57.65625 59 59 57.65625 59 56 C 59 54.34375 57.65625 53 56 53 Z M 56 53 "/>
<path style=" stroke:none;fill-rule:nonzero;fill:rgb(55.294118%,42.352941%,62.352941%);fill-opacity:1;" d="M 56 60 C 53.792969 60 52 58.207031 52 56 C 52 53.792969 53.792969 52 56 52 C 58.207031 52 60 53.792969 60 56 C 60 58.207031 58.207031 60 56 60 Z M 56 54 C 54.898438 54 54 54.898438 54 56 C 54 57.101562 54.898438 58 56 58 C 57.101562 58 58 57.101562 58 56 C 58 54.898438 57.101562 54 56 54 Z M 48 58 C 47.449219 58 47 57.550781 47 57 L 47 55 C 47 54.449219 47.449219 54 48 54 C 48.550781 54 49 54.449219 49 55 L 49 57 C 49 57.550781 48.550781 58 48 58 Z M 43 58 C 42.449219 58 42 57.550781 42 57 L 42 55 C 42 54.449219 42.449219 54 43 54 C 43.550781 54 44 54.449219 44 55 L 44 57 C 44 57.550781 43.550781 58 43 58 Z M 38 58 C 37.449219 58 37 57.550781 37 57 L 37 55 C 37 54.449219 37.449219 54 38 54 C 38.550781 54 39 54.449219 39 55 L 39 57 C 39 57.550781 38.550781 58 38 58 Z M 33 58 C 32.449219 58 32 57.550781 32 57 L 32 55 C 32 54.449219 32.449219 54 33 54 C 33.550781 54 34 54.449219 34 55 L 34 57 C 34 57.550781 33.550781 58 33 58 Z M 28 58 C 27.449219 58 27 57.550781 27 57 L 27 55 C 27 54.449219 27.449219 54 28 54 C 28.550781 54 29 54.449219 29 55 L 29 57 C 29 57.550781 28.550781 58 28 58 Z M 23 58 C 22.449219 58 22 57.550781 22 57 L 22 55 C 22 54.449219 22.449219 54 23 54 C 23.550781 54 24 54.449219 24 55 L 24 57 C 24 57.550781 23.550781 58 23 58 Z M 18 58 C 17.449219 58 17 57.550781 17 57 L 17 55 C 17 54.449219 17.449219 54 18 54 C 18.550781 54 19 54.449219 19 55 L 19 57 C 19 57.550781 18.550781 58 18 58 Z M 45 10 C 44.449219 10 44 9.550781 44 9 L 44 7 C 44 6.449219 44.449219 6 45 6 C 45.550781 6 46 6.449219 46 7 L 46 9 C 46 9.550781 45.550781 10 45 10 Z M 40 10 C 39.449219 10 39 9.550781 39 9 L 39 7 C 39 6.449219 39.449219 6 40 6 C 40.550781 6 41 6.449219 41 7 L 41 9 C 41 9.550781 40.550781 10 40 10 Z M 35 10 C 34.449219 10 34 9.550781 34 9 L 34 7 C 34 6.449219 34.449219 6 35 6 C 35.550781 6 36 6.449219 36 7 L 36 9 C 36 9.550781 35.550781 10 35 10 Z M 30 10 C 29.449219 10 29 9.550781 29 9 L 29 7 C 29 6.449219 29.449219 6 30 6 C 30.550781 6 31 6.449219 31 7 L 31 9 C 31 9.550781 30.550781 10 30 10 Z M 25 10 C 24.449219 10 24 9.550781 24 9 L 24 7 C 24 6.449219 24.449219 6 25 6 C 25.550781 6 26 6.449219 26 7 L 26 9 C 26 9.550781 25.550781 10 25 10 Z M 20 10 C 19.449219 10 19 9.550781 19 9 L 19 7 C 19 6.449219 19.449219 6 20 6 C 20.550781 6 21 6.449219 21 7 L 21 9 C 21 9.550781 20.550781 10 20 10 Z M 15 10 C 14.449219 10 14 9.550781 14 9 L 14 7 C 14 6.449219 14.449219 6 15 6 C 15.550781 6 16 6.449219 16 7 L 16 9 C 16 9.550781 15.550781 10 15 10 Z M 13 58 C 12.449219 58 12 57.550781 12 57 L 12 55 C 12 54.449219 12.449219 54 13 54 C 13.550781 54 14 54.449219 14 55 L 14 57 C 14 57.550781 13.550781 58 13 58 Z M 43 46 C 42.449219 46 42 45.550781 42 45 L 42 43 C 42 42.449219 42.449219 42 43 42 C 43.550781 42 44 42.449219 44 43 L 44 45 C 44 45.550781 43.550781 46 43 46 Z M 38 46 C 37.449219 46 37 45.550781 37 45 L 37 43 C 37 42.449219 37.449219 42 38 42 C 38.550781 42 39 42.449219 39 43 L 39 45 C 39 45.550781 38.550781 46 38 46 Z M 33 46 C 32.449219 46 32 45.550781 32 45 L 32 43 C 32 42.449219 32.449219 42 33 42 C 33.550781 42 34 42.449219 34 43 L 34 45 C 34 45.550781 33.550781 46 33 46 Z M 28 46 C 27.449219 46 27 45.550781 27 45 L 27 43 C 27 42.449219 27.449219 42 28 42 C 28.550781 42 29 42.449219 29 43 L 29 45 C 29 45.550781 28.550781 46 28 46 Z M 23 46 C 22.449219 46 22 45.550781 22 45 L 22 43 C 22 42.449219 22.449219 42 23 42 C 23.550781 42 24 42.449219 24 43 L 24 45 C 24 45.550781 23.550781 46 23 46 Z M 23 46 "/>
<path style=" stroke:none;fill-rule:nonzero;fill:rgb(55.294118%,42.352941%,62.352941%);fill-opacity:1;" d="M 18 46 C 17.449219 46 17 45.550781 17 45 L 17 43 C 17 42.449219 17.449219 42 18 42 C 18.550781 42 19 42.449219 19 43 L 19 45 C 19 45.550781 18.550781 46 18 46 Z M 18 46 "/>
<path style=" stroke:none;fill-rule:nonzero;fill:rgb(55.294118%,42.352941%,62.352941%);fill-opacity:1;" d="M 13 46 C 12.449219 46 12 45.550781 12 45 L 12 43 C 12 42.449219 12.449219 42 13 42 C 13.550781 42 14 42.449219 14 43 L 14 45 C 14 45.550781 13.550781 46 13 46 Z M 13 46 "/>
<path style=" stroke:none;fill-rule:nonzero;fill:rgb(55.294118%,42.352941%,62.352941%);fill-opacity:1;" d="M 8.753906 47.132812 C 8.464844 47.132812 8.183594 47.011719 7.984375 46.777344 L 6.699219 45.242188 C 6.347656 44.816406 6.402344 44.1875 6.824219 43.832031 C 7.25 43.476562 7.878906 43.535156 8.234375 43.957031 L 9.519531 45.492188 C 9.871094 45.914062 9.816406 46.546875 9.394531 46.902344 C 9.207031 47.058594 8.976562 47.132812 8.753906 47.132812 Z M 7 51 L 5 51 C 4.449219 51 4 50.550781 4 50 C 4 49.449219 4.449219 49 5 49 L 7 49 C 7.550781 49 8 49.449219 8 50 C 8 50.550781 7.550781 51 7 51 Z M 7.46875 56.398438 C 7.242188 56.398438 7.015625 56.324219 6.828125 56.167969 C 6.402344 55.8125 6.347656 55.183594 6.703125 54.757812 L 7.984375 53.222656 C 8.339844 52.800781 8.96875 52.742188 9.394531 53.097656 C 9.816406 53.453125 9.875 54.085938 9.519531 54.507812 L 8.234375 56.042969 C 8.039062 56.277344 7.753906 56.398438 7.46875 56.398438 Z M 7.46875 56.398438 "/>
<path style=" stroke:none;fill-rule:nonzero;fill:rgb(55.294118%,42.352941%,62.352941%);fill-opacity:1;" d="M 48.539062 45.9375 C 47.988281 45.9375 47.539062 45.488281 47.539062 44.9375 L 47.539062 42.9375 C 47.539062 42.386719 47.988281 41.9375 48.539062 41.9375 C 49.09375 41.9375 49.539062 42.386719 49.539062 42.9375 L 49.539062 44.9375 C 49.539062 45.488281 49.09375 45.9375 48.539062 45.9375 Z M 53.441406 44.5 C 53.183594 44.5 52.925781 44.402344 52.730469 44.203125 L 51.328125 42.777344 C 50.941406 42.382812 50.945312 41.75 51.339844 41.363281 C 51.734375 40.972656 52.363281 40.980469 52.753906 41.375 L 54.15625 42.800781 C 54.542969 43.195312 54.535156 43.828125 54.144531 44.214844 C 53.949219 44.40625 53.695312 44.5 53.441406 44.5 Z M 54.9375 39.605469 L 52.9375 39.605469 C 52.386719 39.605469 51.9375 39.160156 51.9375 38.605469 C 51.9375 38.054688 52.386719 37.605469 52.9375 37.605469 L 54.9375 37.605469 C 55.488281 37.605469 55.9375 38.054688 55.9375 38.605469 C 55.9375 39.160156 55.488281 39.605469 54.9375 39.605469 Z M 54.9375 35.105469 L 52.9375 35.105469 C 52.386719 35.105469 51.9375 34.65625 51.9375 34.105469 C 51.9375 33.550781 52.386719 33.105469 52.9375 33.105469 L 54.9375 33.105469 C 55.488281 33.105469 55.9375 33.550781 55.9375 34.105469 C 55.9375 34.65625 55.488281 35.105469 54.9375 35.105469 Z M 54.9375 35.105469 "/>
<path style=" stroke:none;fill-rule:nonzero;fill:rgb(55.294118%,42.352941%,62.352941%);fill-opacity:1;" d="M 49.875 10 C 49.324219 10 48.875 9.550781 48.875 9 L 48.875 7 C 48.875 6.449219 49.324219 6 49.875 6 C 50.425781 6 50.875 6.449219 50.875 7 L 50.875 9 C 50.875 9.550781 50.425781 10 49.875 10 Z M 52.773438 11.859375 C 52.382812 11.859375 52.007812 11.625 51.847656 11.238281 C 51.636719 10.726562 51.882812 10.144531 52.390625 9.933594 L 54.242188 9.171875 C 54.75 8.960938 55.335938 9.203125 55.546875 9.714844 C 55.757812 10.222656 55.515625 10.808594 55.003906 11.019531 L 53.15625 11.78125 C 53.03125 11.835938 52.902344 11.859375 52.773438 11.859375 Z M 55 16.28125 L 53 16.28125 C 52.449219 16.28125 52 15.832031 52 15.28125 C 52 14.730469 52.449219 14.28125 53 14.28125 L 55 14.28125 C 55.550781 14.28125 56 14.730469 56 15.28125 C 56 15.832031 55.550781 16.28125 55 16.28125 Z M 55 21.125 L 53 21.125 C 52.449219 21.125 52 20.675781 52 20.125 C 52 19.574219 52.449219 19.125 53 19.125 L 55 19.125 C 55.550781 19.125 56 19.574219 56 20.125 C 56 20.675781 55.550781 21.125 55 21.125 Z M 55 21.125 "/>
</g>
</svg>
