<?xml version="1.0" encoding="UTF-8"?>
<svg xmlns="http://www.w3.org/2000/svg" xmlns:xlink="http://www.w3.org/1999/xlink" width="64px" height="64px" viewBox="0 0 64 64" version="1.1">
<g id="surface7968">
<path style=" stroke:none;fill-rule:nonzero;fill:rgb(1,1,1);fill-opacity:1;" d="M 11.515625 8.617188 C 11.300781 8.613281 11.074219 8.65625 10.847656 8.75 C 10.347656 9 9.949219 9.550781 9.949219 10.152344 L 9.949219 21.699219 L 8.199219 26.050781 C 4.050781 36.398438 3.300781 47.601562 6 58.402344 L 7 62.351562 C 7.148438 63.050781 7.800781 63.5 8.449219 63.5 C 8.550781 63.5 8.699219 63.5 8.800781 63.449219 C 9.601562 63.25 10.101562 62.449219 9.898438 61.648438 L 8.898438 57.699219 C 6.351562 47.5 7.050781 36.949219 10.949219 27.199219 L 11.398438 26.050781 L 11.847656 27.199219 C 15.75 36.949219 16.449219 47.5 13.898438 57.699219 L 12.898438 61.648438 C 12.800781 62.101562 12.898438 62.550781 13.148438 62.949219 C 13.449219 63.300781 13.847656 63.550781 14.347656 63.550781 L 54.347656 63.550781 C 55.050781 63.550781 55.648438 63.101562 55.800781 62.402344 L 56.800781 58.449219 C 59.5 47.648438 58.75 36.449219 54.597656 26.097656 L 52.847656 21.75 L 52.847656 10.148438 C 52.847656 9.550781 52.5 9 51.898438 8.75 C 51.351562 8.5 50.699219 8.648438 50.25 9.097656 L 46.449219 13 L 43.550781 10.097656 C 42.398438 8.949219 40.5 8.949219 39.300781 10.097656 L 36.449219 13 L 33.550781 10.097656 C 32.398438 8.949219 30.5 8.949219 29.300781 10.097656 L 26.449219 13 L 23.550781 10.097656 C 22.398438 8.949219 20.5 8.949219 19.300781 10.097656 L 16.449219 13 L 12.5 9.050781 C 12.21875 8.769531 11.878906 8.625 11.519531 8.617188 Z M 21.5 12.25 L 24.402344 15.152344 C 25.550781 16.300781 27.449219 16.300781 28.652344 15.152344 L 31.550781 12.25 L 34.449219 15.152344 C 35.601562 16.300781 37.5 16.300781 38.699219 15.152344 L 41.601562 12.25 L 44.5 15.152344 C 45.648438 16.300781 47.550781 16.300781 48.75 15.152344 L 50.152344 13.75 L 50.152344 20.5 L 21.652344 20.5 C 20.800781 20.5 20.152344 21.148438 20.152344 22 C 20.152344 22.851562 20.800781 23.5 21.652344 23.5 L 50.652344 23.5 L 52.101562 27.199219 C 56 36.949219 56.699219 47.5 54.152344 57.699219 L 53.449219 60.5 L 16.402344 60.5 L 16.902344 58.449219 C 19.601562 47.648438 18.851562 36.449219 14.699219 26.101562 L 12.949219 21.75 L 12.949219 13.75 L 14.351562 15.152344 C 15.5 16.300781 17.398438 16.300781 18.601562 15.152344 Z M 32.5 32.25 C 30.800781 32.25 29.5 33.800781 29.5 35.75 C 29.5 37.699219 30.851562 39.25 32.5 39.25 C 34.199219 39.25 35.5 37.699219 35.5 35.75 C 35.5 33.800781 34.199219 32.25 32.5 32.25 Z M 40.5 32.25 C 38.800781 32.25 37.5 33.800781 37.5 35.75 C 37.5 37.699219 38.800781 39.25 40.5 39.25 C 42.199219 39.25 43.5 37.699219 43.5 35.75 C 43.5 33.800781 42.199219 32.25 40.5 32.25 Z M 27.199219 39.351562 C 25.5 39.351562 24.199219 40.898438 24.199219 42.851562 C 24.199219 44.800781 25.5 46.351562 27.199219 46.351562 C 28.898438 46.351562 30.199219 44.800781 30.199219 42.851562 C 30.199219 40.898438 28.898438 39.351562 27.199219 39.351562 Z M 46.300781 39.351562 C 44.601562 39.351562 43.300781 40.898438 43.300781 42.851562 C 43.300781 44.800781 44.601562 46.351562 46.300781 46.351562 C 48 46.351562 49.300781 44.800781 49.300781 42.851562 C 49.300781 40.898438 48 39.351562 46.300781 39.351562 Z M 36.449219 42.800781 C 35.050781 42.800781 33.75 43.5 33 44.699219 L 30.699219 48.199219 C 29.851562 49.5 29.75 51.199219 30.5 52.597656 C 31.25 54 32.648438 54.800781 34.199219 54.800781 L 38.75 54.800781 C 40.300781 54.800781 41.699219 53.949219 42.449219 52.597656 C 43.199219 51.199219 43.148438 49.5 42.25 48.199219 L 39.949219 44.699219 C 39.148438 43.5 37.851562 42.800781 36.449219 42.800781 Z M 36.449219 42.800781 "/>
</g>
</svg>
