<?xml version="1.0" encoding="utf-8"?>
<!-- Generator: Adobe Illustrator 23.0.3, SVG Export Plug-In . SVG Version: 6.00 Build 0)  -->
<svg version="1.1" id="Layer_1" xmlns="http://www.w3.org/2000/svg" xmlns:xlink="http://www.w3.org/1999/xlink" x="0px" y="0px"
	 viewBox="0 0 64 64" style="enable-background:new 0 0 64 64;" xml:space="preserve">
<style type="text/css">
	.st0{fill:#FFFFFF;}
</style>
<g>
	<path class="st0" d="M36.4,43.6c-1.2,0-2.2,0.6-2.8,1.5l-2.3,3.5c-0.7,1.1-0.8,2.5-0.2,3.6c0.6,1.1,1.7,1.8,3,1.8h4.6
		c1.3,0,2.4-0.7,3-1.8c0.6-1.2,0.6-2.6-0.2-3.6l-2.3-3.5C38.7,44.1,37.6,43.6,36.4,43.6z"/>
	<ellipse class="st0" cx="46.3" cy="42.9" rx="2.3" ry="2.8"/>
	<ellipse class="st0" cx="27.2" cy="42.9" rx="2.3" ry="2.8"/>
	<ellipse class="st0" cx="40.5" cy="35.8" rx="2.3" ry="2.8"/>
	<ellipse class="st0" cx="32.5" cy="35.8" rx="2.3" ry="2.8"/>
	<path class="st0" d="M11.5,9.4c-0.1,0-0.2,0-0.3,0.1c-0.2,0.1-0.4,0.4-0.4,0.7v11.6v0.1L10.6,22l-1.8,4.4
		C4.8,36.5,4.1,47.5,6.7,58.2l1,4c0.1,0.4,0.4,0.6,0.7,0.6c0,0,0,0,0,0c0,0,0,0,0,0l0,0l0.1,0c0.2,0,0.4-0.2,0.5-0.3
		c0.1-0.2,0.1-0.4,0.1-0.5l-1-3.9c-2.6-10.4-1.9-21.1,2.1-31l0.4-1.1l0.7-1.8l0.7,1.8l0.5,1.1c4,9.9,4.7,20.6,2.1,31l-1,4
		c0,0.2,0,0.4,0.1,0.7c0.3,0.3,0.5,0.3,0.6,0.3h40c0.4,0,0.6-0.2,0.7-0.6l1-4c2.7-10.7,1.9-21.7-2.2-31.9L52.2,22l-0.1-0.1v-0.1
		V10.1c0-0.3-0.2-0.6-0.5-0.7c-0.1,0-0.2-0.1-0.3-0.1c-0.2,0-0.4,0.1-0.6,0.3L47,13.5l-0.5,0.5l-0.5-0.5L43,10.6
		c-0.4-0.4-1-0.6-1.6-0.6c-0.6,0-1.2,0.2-1.6,0.7L37,13.5l-0.5,0.5l-0.5-0.5L33,10.6c-0.4-0.4-1-0.6-1.6-0.6c-0.6,0-1.2,0.2-1.6,0.7
		L27,13.5l-0.5,0.5l-0.5-0.5L23,10.6c-0.4-0.4-1-0.6-1.6-0.6c-0.6,0-1.2,0.2-1.6,0.7L17,13.5l-0.5,0.5l-0.5-0.5L12,9.6
		C11.8,9.4,11.7,9.4,11.5,9.4l0-0.4c0,0,0,0,0,0h0V9.4z M12.2,21.8v-8v-1.8l1.3,1.3l1.4,1.4c0.4,0.4,1,0.6,1.6,0.6
		c0.6,0,1.2-0.2,1.6-0.7l2.9-2.9l0.5-0.5l0.5,0.5l2.9,2.9c0.4,0.4,1,0.6,1.6,0.6c0.6,0,1.2-0.2,1.6-0.7l2.9-2.9l0.5-0.5l0.5,0.5
		l2.9,2.9c0.4,0.4,1,0.6,1.6,0.6c0.6,0,1.2-0.2,1.6-0.7l2.9-2.9l0.5-0.5l0.5,0.5l2.9,2.9c0.4,0.4,1,0.6,1.6,0.6
		c0.6,0,1.2-0.2,1.6-0.7l1.4-1.4l1.3-1.3v1.8v6.8v0.8h-0.8H21.6c-0.4,0-0.8,0.3-0.8,0.8s0.3,0.8,0.8,0.8h29h0.5l0.2,0.5l1.5,3.7
		c4,9.9,4.7,20.6,2.1,31l-0.7,2.8L54,61.3h-0.6H16.4h-1l0.2-0.9l0.5-2.1c2.7-10.7,1.9-21.7-2.2-31.9L12.3,22l-0.1-0.1V21.8z"/>
</g>
</svg>
