<?xml version="1.0" encoding="UTF-8"?>
<svg xmlns="http://www.w3.org/2000/svg" xmlns:xlink="http://www.w3.org/1999/xlink" width="80px" height="80px" viewBox="0 0 80 80" version="1.1">
<g id="surface9600">
<path style=" stroke:none;fill-rule:nonzero;fill:rgb(20.392157%,59.607843%,85.882353%);fill-opacity:1;" d="M 21 18 C 12.519531 18 4.546875 22.109375 4.546875 22.109375 L 4 22.386719 L 4 25.414062 L 5.074219 26.488281 C 5.164062 30.085938 6.183594 33.851562 8.648438 36.800781 C 11.21875 39.886719 15.3125 42 21 42 C 26.023438 42 29.847656 40.132812 32.339844 37.300781 C 34.828125 34.472656 36 30.730469 36 27 L 36 22.722656 C 36.6875 22.480469 38.160156 22 40 22 C 41.839844 22 43.3125 22.480469 44 22.722656 L 44 27 C 44 30.730469 45.171875 34.472656 47.660156 37.300781 C 50.152344 40.132812 53.976562 42 59 42 C 64.6875 42 68.78125 39.886719 71.355469 36.800781 C 73.816406 33.851562 74.835938 30.085938 74.925781 26.488281 L 76 25.414062 L 76 22.386719 L 75.453125 22.109375 C 75.453125 22.109375 67.480469 18 59 18 C 51.050781 18 45.585938 20.644531 44.980469 20.941406 C 44.460938 20.738281 42.503906 20 40 20 C 37.496094 20 35.539062 20.738281 35.019531 20.941406 C 34.414062 20.644531 28.949219 18 21 18 Z M 21 20 C 28.34375 20 33.269531 22.328125 34 22.683594 L 34 27 C 34 30.3125 32.953125 33.574219 30.835938 35.980469 C 28.71875 38.386719 25.539062 40 21 40 C 15.792969 40 12.386719 38.164062 10.183594 35.519531 C 7.976562 32.878906 7 29.355469 7 26 L 7 25.585938 L 6 24.585938 L 6 23.671875 C 6.796875 23.28125 13.613281 20 21 20 Z M 59 20 C 66.386719 20 73.203125 23.28125 74 23.671875 L 74 24.585938 L 73 25.585938 L 73 26 C 73 29.355469 72.023438 32.878906 69.816406 35.519531 C 67.613281 38.164062 64.207031 40 59 40 C 54.460938 40 51.28125 38.386719 49.164062 35.980469 C 47.046875 33.574219 46 30.3125 46 27 L 46 22.683594 C 46.730469 22.328125 51.65625 20 59 20 Z M 18 22 C 17.449219 22 17 22.449219 17 23 C 17 23.550781 17.449219 24 18 24 C 18.550781 24 19 23.550781 19 23 C 19 22.449219 18.550781 22 18 22 Z M 22 22 C 21.449219 22 21 22.449219 21 23 C 21 23.550781 21.449219 24 22 24 C 22.550781 24 23 23.550781 23 23 C 23 22.449219 22.550781 22 22 22 Z M 26 22 C 25.449219 22 25 22.449219 25 23 C 25 23.550781 25.449219 24 26 24 C 26.550781 24 27 23.550781 27 23 C 27 22.449219 26.550781 22 26 22 Z M 54 22 C 53.449219 22 53 22.449219 53 23 C 53 23.550781 53.449219 24 54 24 C 54.550781 24 55 23.550781 55 23 C 55 22.449219 54.550781 22 54 22 Z M 58 22 C 57.449219 22 57 22.449219 57 23 C 57 23.550781 57.449219 24 58 24 C 58.550781 24 59 23.550781 59 23 C 59 22.449219 58.550781 22 58 22 Z M 62 22 C 61.449219 22 61 22.449219 61 23 C 61 23.550781 61.449219 24 62 24 C 62.550781 24 63 23.550781 63 23 C 63 22.449219 62.550781 22 62 22 Z M 14 23 C 13.449219 23 13 23.449219 13 24 C 13 24.550781 13.449219 25 14 25 C 14.550781 25 15 24.550781 15 24 C 15 23.449219 14.550781 23 14 23 Z M 30 23 C 29.449219 23 29 23.449219 29 24 C 29 24.550781 29.449219 25 30 25 C 30.550781 25 31 24.550781 31 24 C 31 23.449219 30.550781 23 30 23 Z M 50 23 C 49.449219 23 49 23.449219 49 24 C 49 24.550781 49.449219 25 50 25 C 50.550781 25 51 24.550781 51 24 C 51 23.449219 50.550781 23 50 23 Z M 66 23 C 65.449219 23 65 23.449219 65 24 C 65 24.550781 65.449219 25 66 25 C 66.550781 25 67 24.550781 67 24 C 67 23.449219 66.550781 23 66 23 Z M 10 24 C 9.449219 24 9 24.449219 9 25 C 9 25.550781 9.449219 26 10 26 C 10.550781 26 11 25.550781 11 25 C 11 24.449219 10.550781 24 10 24 Z M 70 24 C 69.449219 24 69 24.449219 69 25 C 69 25.550781 69.449219 26 70 26 C 70.550781 26 71 25.550781 71 25 C 71 24.449219 70.550781 24 70 24 Z M 36 45 C 34.148438 45 32.632812 45.855469 31.453125 47 C 30.273438 48.148438 29.363281 49.582031 28.484375 50.964844 C 27.605469 52.34375 26.765625 53.667969 25.875 54.582031 C 24.980469 55.5 24.125 56 23 56 C 21.945312 56 21.277344 55.675781 20.734375 55.171875 C 20.191406 54.667969 19.789062 53.945312 19.519531 53.171875 C 18.984375 51.628906 19 50.019531 19 50.019531 L 19.03125 48.199219 L 17.480469 49.144531 C 17.480469 49.144531 14 51.195312 14 55 C 14 56.792969 14.648438 59.058594 16.519531 60.878906 C 18.394531 62.699219 21.4375 64 26 64 C 33.710938 64 39.058594 59.121094 40 58.238281 C 40.933594 59.125 46.246094 64 54 64 C 58.5625 64 61.605469 62.699219 63.480469 60.878906 C 65.351562 59.058594 66 56.792969 66 55 C 66 51.195312 62.519531 49.144531 62.519531 49.144531 L 60.96875 48.199219 L 61 50.019531 C 61 50.019531 61.015625 51.628906 60.480469 53.171875 C 60.210938 53.945312 59.808594 54.667969 59.265625 55.171875 C 58.722656 55.675781 58.054688 56 57 56 C 55.875 56 55.019531 55.5 54.125 54.582031 C 53.234375 53.667969 52.394531 52.34375 51.515625 50.964844 C 50.636719 49.582031 49.726562 48.148438 48.546875 47 C 47.367188 45.855469 45.851562 45 44 45 C 41.976562 45 40.726562 45.984375 40 46.667969 C 39.273438 45.984375 38.023438 45 36 45 Z M 36 47 C 37.652344 47 39.25 48.660156 39.25 48.660156 L 40 49.515625 L 40.75 48.660156 C 40.75 48.660156 42.347656 47 44 47 C 45.265625 47 46.207031 47.519531 47.152344 48.4375 C 48.09375 49.351562 48.957031 50.667969 49.828125 52.035156 C 50.699219 53.40625 51.582031 54.832031 52.691406 55.980469 C 53.804688 57.125 55.238281 58 57 58 C 58.511719 58 59.75 57.449219 60.625 56.640625 C 61.5 55.832031 62.027344 54.804688 62.371094 53.828125 C 62.601562 53.15625 62.667969 52.585938 62.761719 52.003906 C 63.382812 52.722656 64 53.742188 64 55 C 64 56.308594 63.523438 58.042969 62.082031 59.445312 C 60.644531 60.847656 58.1875 62 54 62 C 46.539062 62 40.703125 56.292969 40.703125 56.292969 L 40 55.59375 L 39.296875 56.285156 C 39.296875 56.285156 33.40625 62 26 62 C 21.8125 62 19.355469 60.847656 17.917969 59.445312 C 16.476562 58.042969 16 56.308594 16 55 C 16 53.742188 16.617188 52.722656 17.238281 52.003906 C 17.332031 52.585938 17.398438 53.15625 17.628906 53.828125 C 17.972656 54.804688 18.5 55.832031 19.375 56.640625 C 20.25 57.449219 21.488281 58 23 58 C 24.761719 58 26.195312 57.125 27.308594 55.980469 C 28.417969 54.832031 29.300781 53.40625 30.171875 52.035156 C 31.042969 50.667969 31.90625 49.351562 32.847656 48.4375 C 33.792969 47.519531 34.734375 47 36 47 Z M 36 47 "/>
</g>
</svg>
