<?xml version="1.0" encoding="UTF-8"?>
<svg xmlns="http://www.w3.org/2000/svg" xmlns:xlink="http://www.w3.org/1999/xlink" width="64pt" height="64pt" viewBox="0 0 64 64" version="1.1">
<g id="surface386012">
<path style=" stroke:none;fill-rule:nonzero;fill:rgb(94.509804%,76.862745%,5.882353%);fill-opacity:1;" d="M 32.007812 2 C 31.75 2 31.496094 2.097656 31.300781 2.289062 L 20.300781 13.289062 C 19.914062 13.679688 19.914062 14.3125 20.300781 14.699219 L 24.300781 18.699219 C 24.691406 19.089844 25.320312 19.089844 25.710938 18.699219 L 28.011719 16.5 L 28.011719 22 L 7 22 C 5.34375 22 4 23.34375 4 25 L 4 53 C 4 54.65625 5.34375 56 7 56 L 57 56 C 58.65625 56 60 54.65625 60 53 L 60 25 C 60 23.34375 58.65625 22 57 22 L 36 22 L 36 16 L 38.300781 18.699219 C 38.691406 19.089844 39.320312 19.089844 39.710938 18.699219 L 43.710938 14.699219 C 44.097656 14.3125 44.097656 13.679688 43.710938 13.289062 L 32.710938 2.289062 C 32.515625 2.097656 32.261719 2 32.007812 2 Z M 32.011719 4.410156 L 41.597656 14 L 39.011719 16.589844 L 35.722656 13.300781 C 35.332031 12.910156 34.699219 12.90625 34.308594 13.292969 C 34.117188 13.480469 34.011719 13.738281 34.011719 14 L 34.011719 40 L 30 40 L 30 14 C 30.003906 13.449219 29.566406 12.996094 29.015625 12.992188 C 28.746094 12.992188 28.488281 13.101562 28.300781 13.289062 L 25.011719 16.589844 L 22.417969 14 Z M 7 24 L 28.011719 24 L 28.011719 41.003906 C 28.011719 41.554688 28.449219 42 29 42 L 35 42 C 35.550781 42 36 41.550781 36 41 L 36 24 L 57 24 C 57.550781 24 58 24.449219 58 25 L 58 53 C 58 53.550781 57.550781 54 57 54 L 7 54 C 6.449219 54 6 53.550781 6 53 L 6 25 C 6 24.449219 6.449219 24 7 24 Z M 10 48 C 9.449219 48 9 48.449219 9 49 L 9 51 C 9 51.550781 9.449219 52 10 52 C 10.550781 52 11 51.550781 11 51 L 11 49 C 11 48.449219 10.550781 48 10 48 Z M 15 48 C 14.449219 48 14 48.449219 14 49 L 14 51 C 14 51.550781 14.449219 52 15 52 C 15.550781 52 16 51.550781 16 51 L 16 49 C 16 48.449219 15.550781 48 15 48 Z M 20 48 C 19.449219 48 19 48.449219 19 49 L 19 51 C 19 51.550781 19.449219 52 20 52 C 20.550781 52 21 51.550781 21 51 L 21 49 C 21 48.449219 20.550781 48 20 48 Z M 25 48 C 24.449219 48 24 48.449219 24 49 L 24 51 C 24 51.550781 24.449219 52 25 52 C 25.550781 52 26 51.550781 26 51 L 26 49 C 26 48.449219 25.550781 48 25 48 Z M 30 48 C 29.449219 48 29 48.449219 29 49 L 29 51 C 29 51.550781 29.449219 52 30 52 C 30.550781 52 31 51.550781 31 51 L 31 49 C 31 48.449219 30.550781 48 30 48 Z M 35 48 C 34.449219 48 34 48.449219 34 49 L 34 51 C 34 51.550781 34.449219 52 35 52 C 35.550781 52 36 51.550781 36 51 L 36 49 C 36 48.449219 35.550781 48 35 48 Z M 40 48 C 39.449219 48 39 48.449219 39 49 L 39 51 C 39 51.550781 39.449219 52 40 52 C 40.550781 52 41 51.550781 41 51 L 41 49 C 41 48.449219 40.550781 48 40 48 Z M 45 48 C 44.449219 48 44 48.449219 44 49 L 44 51 C 44 51.550781 44.449219 52 45 52 C 45.550781 52 46 51.550781 46 51 L 46 49 C 46 48.449219 45.550781 48 45 48 Z M 50 48 C 49.449219 48 49 48.449219 49 49 L 49 51 C 49 51.550781 49.449219 52 50 52 C 50.550781 52 51 51.550781 51 51 L 51 49 C 51 48.449219 50.550781 48 50 48 Z M 55 48 C 54.449219 48 54 48.449219 54 49 L 54 51 C 54 51.550781 54.449219 52 55 52 C 55.550781 52 56 51.550781 56 51 L 56 49 C 56 48.449219 55.550781 48 55 48 Z M 55 48 "/>
</g>
</svg>
