<?xml version="1.0" encoding="UTF-8"?>
<svg xmlns="http://www.w3.org/2000/svg" xmlns:xlink="http://www.w3.org/1999/xlink" width="64pt" height="64pt" viewBox="0 0 64 64" version="1.1">
<g id="surface299271">
<path style=" stroke:none;fill-rule:nonzero;fill:rgb(94.509804%,76.862745%,5.882353%);fill-opacity:1;" d="M 3 8 C 1.300781 8 0 9.300781 0 11 C 0 12.300781 0.800781 13.402344 2 13.800781 L 2 42.199219 C 0.800781 42.597656 0 43.699219 0 45 L 0 51 C 0 52.699219 1.300781 54 3 54 L 8.101562 54 C 8.601562 57.398438 11.5 60 15 60 C 18.5 60 21.402344 57.398438 21.902344 54 L 44.097656 54 C 44.597656 57.398438 47.5 60 51 60 C 54.5 60 57.402344 57.398438 57.902344 54 L 61 54 C 62.699219 54 64 52.699219 64 51 L 64 45 C 64 43.699219 63.101562 42.597656 62 42.199219 L 62 38.199219 C 62 37.199219 61.699219 36.300781 61.199219 35.5 L 54 24.300781 C 53.101562 22.902344 51.5 22 49.800781 22 L 48 22 L 48 20 C 48 19.398438 47.601562 19 47 19 C 46.398438 19 46 19.398438 46 20 L 46 22 L 42 22 L 42 13.800781 C 43.199219 13.402344 44 12.300781 44 11 C 44 9.300781 42.699219 8 41 8 Z M 3 10 L 41 10 C 41.601562 10 42 10.398438 42 11 C 42 11.601562 41.601562 12 41 12 L 3 12 C 2.398438 12 2 11.601562 2 11 C 2 10.398438 2.398438 10 3 10 Z M 4 14 L 40 14 L 40 32 L 4 32 L 4 24 L 29 24 C 29.601562 24 30 23.601562 30 23 C 30 22.398438 29.601562 22 29 22 L 4 22 Z M 33 22 C 32.398438 22 32 22.398438 32 23 C 32 23.601562 32.398438 24 33 24 L 37 24 C 37.601562 24 38 23.601562 38 23 C 38 22.398438 37.601562 22 37 22 Z M 42 24 L 49.800781 24 C 50.800781 24 51.800781 24.5 52.300781 25.402344 L 59.5 36.597656 C 59.800781 37.097656 60 37.597656 60 38.199219 L 60 42 L 42 42 Z M 7 26 C 6.398438 26 6 26.398438 6 27 L 6 29 C 6 29.601562 6.398438 30 7 30 C 7.601562 30 8 29.601562 8 29 L 8 27 C 8 26.398438 7.601562 26 7 26 Z M 12 26 C 11.398438 26 11 26.398438 11 27 L 11 29 C 11 29.601562 11.398438 30 12 30 C 12.601562 30 13 29.601562 13 29 L 13 27 C 13 26.398438 12.601562 26 12 26 Z M 17 26 C 16.398438 26 16 26.398438 16 27 L 16 29 C 16 29.601562 16.398438 30 17 30 C 17.601562 30 18 29.601562 18 29 L 18 27 C 18 26.398438 17.601562 26 17 26 Z M 22 26 C 21.398438 26 21 26.398438 21 27 L 21 29 C 21 29.601562 21.398438 30 22 30 C 22.601562 30 23 29.601562 23 29 L 23 27 C 23 26.398438 22.601562 26 22 26 Z M 27 26 C 26.398438 26 26 26.398438 26 27 L 26 29 C 26 29.601562 26.398438 30 27 30 C 27.601562 30 28 29.601562 28 29 L 28 27 C 28 26.398438 27.601562 26 27 26 Z M 32 26 C 31.398438 26 31 26.398438 31 27 L 31 29 C 31 29.601562 31.398438 30 32 30 C 32.601562 30 33 29.601562 33 29 L 33 27 C 33 26.398438 32.601562 26 32 26 Z M 37 26 C 36.398438 26 36 26.398438 36 27 L 36 29 C 36 29.601562 36.398438 30 37 30 C 37.601562 30 38 29.601562 38 29 L 38 27 C 38 26.398438 37.601562 26 37 26 Z M 46 26.097656 C 44.898438 26.097656 44 27 44 28.097656 L 44 34.097656 C 44 35.097656 44.898438 36 46 36 L 53.199219 36 C 53.898438 36 54.601562 35.601562 54.902344 35 C 55.199219 34.398438 55.199219 33.601562 54.800781 33 L 51 27 C 50.601562 26.398438 50 26.097656 49.300781 26.097656 Z M 46 28 L 49.402344 28 L 53.199219 34 L 46 34 Z M 4 34 L 40 34 L 40 42 L 4 42 Z M 45 38 C 44.398438 38 44 38.398438 44 39 C 44 39.601562 44.398438 40 45 40 L 47 40 C 47.601562 40 48 39.601562 48 39 C 48 38.398438 47.601562 38 47 38 Z M 3 44 L 61 44 C 61.601562 44 62 44.398438 62 45 L 62 51 C 62 51.601562 61.601562 52 61 52 L 57.902344 52 C 57.402344 48.601562 54.5 46 51 46 C 47.5 46 44.597656 48.601562 44.097656 52 L 21.902344 52 C 21.402344 48.601562 18.5 46 15 46 C 11.5 46 8.601562 48.601562 8.101562 52 L 3 52 C 2.398438 52 2 51.601562 2 51 L 2 45 C 2 44.398438 2.398438 44 3 44 Z M 15 48 C 17.800781 48 20 50.199219 20 53 C 20 55.800781 17.800781 58 15 58 C 12.199219 58 10 55.800781 10 53 C 10 50.199219 12.199219 48 15 48 Z M 51 48 C 53.800781 48 56 50.199219 56 53 C 56 55.800781 53.800781 58 51 58 C 48.199219 58 46 55.800781 46 53 C 46 50.199219 48.199219 48 51 48 Z M 15 51 C 13.894531 51 13 51.894531 13 53 C 13 54.105469 13.894531 55 15 55 C 16.105469 55 17 54.105469 17 53 C 17 51.894531 16.105469 51 15 51 Z M 51 51 C 49.894531 51 49 51.894531 49 53 C 49 54.105469 49.894531 55 51 55 C 52.105469 55 53 54.105469 53 53 C 53 51.894531 52.105469 51 51 51 Z M 51 51 "/>
</g>
</svg>
