<?xml version="1.0" encoding="UTF-8"?>
<svg xmlns="http://www.w3.org/2000/svg" xmlns:xlink="http://www.w3.org/1999/xlink" width="64pt" height="64pt" viewBox="0 0 64 64" version="1.1">
<g id="surface704347">
<path style=" stroke:none;fill-rule:nonzero;fill:rgb(94.509804%,76.862745%,5.882353%);fill-opacity:1;" d="M 31 2 C 15.007812 2 2 15.007812 2 31 C 2 46.992188 15.007812 60 31 60 C 46.992188 60 60 46.992188 60 31 C 60 15.007812 46.992188 2 31 2 Z M 31 4 C 45.886719 4 58 16.113281 58 31 C 58 45.886719 45.886719 58 31 58 C 16.113281 58 4 45.886719 4 31 C 4 16.113281 16.113281 4 31 4 Z M 30.5625 8.007812 C 24.667969 8.125 18.964844 10.511719 14.738281 14.734375 C 10.394531 19.082031 8 24.855469 8 31 C 8 37.144531 10.390625 42.917969 14.734375 47.265625 C 14.929688 47.457031 15.1875 47.558594 15.441406 47.558594 C 15.699219 47.558594 15.957031 47.457031 16.152344 47.265625 C 16.542969 46.871094 16.542969 46.242188 16.152344 45.847656 C 15.691406 45.390625 15.265625 44.914062 14.855469 44.421875 C 14.867188 44.402344 14.890625 44.386719 14.902344 44.363281 C 17.144531 39.75 21.109375 36.570312 25.667969 35.535156 C 27.160156 37.019531 28.996094 38 31 38 C 33.003906 38 34.84375 37.019531 36.332031 35.535156 C 40.894531 36.566406 44.859375 39.75 47.101562 44.363281 C 47.113281 44.386719 47.128906 44.40625 47.140625 44.425781 C 46.730469 44.914062 46.304688 45.394531 45.847656 45.847656 C 45.457031 46.242188 45.457031 46.871094 45.847656 47.265625 C 46.042969 47.457031 46.300781 47.558594 46.558594 47.558594 C 46.8125 47.558594 47.070312 47.457031 47.265625 47.265625 C 51.609375 42.917969 54 37.144531 54 31 C 54 24.855469 51.609375 19.082031 47.265625 14.734375 C 46.601562 14.074219 45.898438 13.449219 45.171875 12.878906 C 44.734375 12.539062 44.105469 12.617188 43.765625 13.050781 C 43.425781 13.484375 43.5 14.113281 43.9375 14.453125 C 44.601562 14.976562 45.246094 15.546875 45.847656 16.152344 C 49.816406 20.117188 52 25.390625 52 31 C 52 35.214844 50.765625 39.238281 48.46875 42.660156 C 46.066406 38.253906 42.207031 35.121094 37.75 33.828125 C 39.144531 31.785156 40 29.285156 40 27 L 40 25 C 40 20.039062 35.960938 16 31 16 C 26.039062 16 22 20.039062 22 25 L 22 27 C 22 29.285156 22.851562 31.785156 24.25 33.828125 C 19.792969 35.121094 15.929688 38.253906 13.53125 42.660156 C 11.234375 39.238281 10 35.214844 10 31 C 10 25.390625 12.183594 20.117188 16.152344 16.152344 C 20.898438 11.402344 27.695312 9.203125 34.339844 10.265625 C 34.890625 10.355469 35.398438 9.980469 35.484375 9.4375 C 35.570312 8.890625 35.199219 8.375 34.65625 8.289062 C 33.289062 8.070312 31.921875 7.976562 30.5625 8.007812 Z M 38.660156 9.386719 C 38.269531 9.402344 37.910156 9.648438 37.765625 10.035156 C 37.570312 10.550781 37.832031 11.128906 38.351562 11.324219 C 39.0625 11.589844 39.769531 11.898438 40.449219 12.238281 C 40.59375 12.3125 40.75 12.347656 40.902344 12.347656 C 41.265625 12.347656 41.617188 12.148438 41.796875 11.796875 C 42.042969 11.304688 41.84375 10.703125 41.351562 10.453125 C 40.605469 10.078125 39.832031 9.742188 39.050781 9.449219 C 38.925781 9.402344 38.789062 9.382812 38.660156 9.386719 Z M 31 18 C 34.859375 18 38 21.140625 38 25 L 38 27 C 38 30.96875 34.703125 36 31 36 C 27.296875 36 24 30.96875 24 27 L 24 25 C 24 21.140625 27.140625 18 31 18 Z M 21.375 47.394531 C 20.984375 47.347656 20.589844 47.527344 20.386719 47.886719 L 19.386719 49.621094 C 19.109375 50.097656 19.273438 50.707031 19.75 50.984375 C 19.90625 51.074219 20.078125 51.121094 20.25 51.121094 C 20.59375 51.121094 20.929688 50.941406 21.113281 50.621094 L 22.113281 48.886719 C 22.390625 48.410156 22.230469 47.796875 21.75 47.519531 C 21.628906 47.453125 21.503906 47.410156 21.375 47.394531 Z M 40.625 47.394531 C 40.496094 47.410156 40.371094 47.453125 40.25 47.519531 C 39.769531 47.796875 39.609375 48.410156 39.886719 48.890625 L 40.886719 50.621094 C 41.070312 50.941406 41.40625 51.121094 41.75 51.121094 C 41.921875 51.121094 42.09375 51.078125 42.25 50.984375 C 42.730469 50.710938 42.890625 50.097656 42.613281 49.621094 L 41.613281 47.890625 C 41.40625 47.53125 41.011719 47.347656 40.625 47.394531 Z M 25.8125 49.34375 C 25.429688 49.398438 25.09375 49.675781 24.984375 50.078125 L 24.46875 52.011719 C 24.324219 52.542969 24.644531 53.089844 25.175781 53.234375 C 25.261719 53.257812 25.351562 53.269531 25.4375 53.269531 C 25.878906 53.269531 26.28125 52.972656 26.402344 52.527344 L 26.917969 50.59375 C 27.0625 50.0625 26.746094 49.511719 26.214844 49.371094 C 26.078125 49.332031 25.941406 49.324219 25.8125 49.34375 Z M 36.1875 49.34375 C 36.058594 49.324219 35.921875 49.332031 35.785156 49.371094 C 35.253906 49.511719 34.9375 50.0625 35.078125 50.59375 L 35.597656 52.527344 C 35.71875 52.972656 36.121094 53.269531 36.5625 53.269531 C 36.648438 53.269531 36.734375 53.257812 36.824219 53.234375 C 37.355469 53.089844 37.671875 52.542969 37.53125 52.011719 L 37.015625 50.078125 C 36.90625 49.675781 36.570312 49.398438 36.1875 49.34375 Z M 31 50 C 30.449219 50 30 50.449219 30 51 L 30 53 C 30 53.550781 30.449219 54 31 54 C 31.550781 54 32 53.550781 32 53 L 32 51 C 32 50.449219 31.550781 50 31 50 Z M 31 50 "/>
</g>
</svg>
