<?xml version="1.0" encoding="UTF-8"?>
<svg xmlns="http://www.w3.org/2000/svg" xmlns:xlink="http://www.w3.org/1999/xlink" width="64px" height="64px" viewBox="0 0 64 64" version="1.1">
<g id="surface15444">
<path style=" stroke:none;fill-rule:nonzero;fill:rgb(20%,20%,20%);fill-opacity:1;" d="M 19 2 C 16.242188 2 14 4.242188 14 7 L 14 57 C 14 59.757812 16.242188 62 19 62 L 45 62 C 47.757812 62 50 59.757812 50 57 L 50 7 C 50 4.242188 47.757812 2 45 2 Z M 19 4 L 45 4 C 46.652344 4 48 5.347656 48 7 L 48 8 L 37 8 C 36.445312 8 36 8.449219 36 9 C 36 9.550781 36.445312 10 37 10 L 48 10 L 48 50 L 16 50 L 16 10 L 27 10 C 27.554688 10 28 9.550781 28 9 C 28 8.449219 27.554688 8 27 8 L 16 8 L 16 7 C 16 5.347656 17.347656 4 19 4 Z M 31 8 C 30.445312 8 30 8.449219 30 9 C 30 9.550781 30.445312 10 31 10 L 33 10 C 33.554688 10 34 9.550781 34 9 C 34 8.449219 33.554688 8 33 8 Z M 19 42 C 18.445312 42 18 42.449219 18 43 L 18 45 C 18 45.550781 18.445312 46 19 46 C 19.554688 46 20 45.550781 20 45 L 20 43 C 20 42.449219 19.554688 42 19 42 Z M 24 42 C 23.445312 42 23 42.449219 23 43 L 23 45 C 23 45.550781 23.445312 46 24 46 C 24.554688 46 25 45.550781 25 45 L 25 43 C 25 42.449219 24.554688 42 24 42 Z M 29 42 C 28.445312 42 28 42.449219 28 43 L 28 45 C 28 45.550781 28.445312 46 29 46 C 29.554688 46 30 45.550781 30 45 L 30 43 C 30 42.449219 29.554688 42 29 42 Z M 35 42 C 34.445312 42 34 42.449219 34 43 L 34 45 C 34 45.550781 34.445312 46 35 46 C 35.554688 46 36 45.550781 36 45 L 36 43 C 36 42.449219 35.554688 42 35 42 Z M 40 42 C 39.445312 42 39 42.449219 39 43 L 39 45 C 39 45.550781 39.445312 46 40 46 C 40.554688 46 41 45.550781 41 45 L 41 43 C 41 42.449219 40.554688 42 40 42 Z M 45 42 C 44.445312 42 44 42.449219 44 43 L 44 45 C 44 45.550781 44.445312 46 45 46 C 45.554688 46 46 45.550781 46 45 L 46 43 C 46 42.449219 45.554688 42 45 42 Z M 16 52 L 48 52 L 48 57 C 48 58.652344 46.652344 60 45 60 L 19 60 C 17.347656 60 16 58.652344 16 57 Z M 29 54 C 28.445312 54 28 54.449219 28 55 C 28 55.550781 28.445312 56 29 56 L 35 56 C 35.554688 56 36 55.550781 36 55 C 36 54.449219 35.554688 54 35 54 Z M 29 54 "/>
</g>
</svg>
