<?xml version="1.0" encoding="UTF-8"?>
<svg xmlns="http://www.w3.org/2000/svg" xmlns:xlink="http://www.w3.org/1999/xlink" width="128px" height="128px" viewBox="0 0 128 128" version="1.1">
<g id="surface14916">
<path style=" stroke:none;fill-rule:nonzero;fill:rgb(100%,100%,100%);fill-opacity:1;" d="M 38 4 C 32.484375 4 28 8.484375 28 14 L 28 114 C 28 119.515625 32.484375 124 38 124 L 90 124 C 95.515625 124 100 119.515625 100 114 L 100 14 C 100 8.484375 95.515625 4 90 4 Z M 38 8 L 90 8 C 93.304688 8 96 10.695312 96 14 L 96 16 L 74 16 C 72.890625 16 72 16.898438 72 18 C 72 19.101562 72.890625 20 74 20 L 96 20 L 96 100 L 32 100 L 32 20 L 54 20 C 55.109375 20 56 19.101562 56 18 C 56 16.898438 55.109375 16 54 16 L 32 16 L 32 14 C 32 10.695312 34.695312 8 38 8 Z M 62 16 C 60.890625 16 60 16.898438 60 18 C 60 19.101562 60.890625 20 62 20 L 66 20 C 67.109375 20 68 19.101562 68 18 C 68 16.898438 67.109375 16 66 16 Z M 38 84 C 36.890625 84 36 84.898438 36 86 L 36 90 C 36 91.101562 36.890625 92 38 92 C 39.109375 92 40 91.101562 40 90 L 40 86 C 40 84.898438 39.109375 84 38 84 Z M 48 84 C 46.890625 84 46 84.898438 46 86 L 46 90 C 46 91.101562 46.890625 92 48 92 C 49.109375 92 50 91.101562 50 90 L 50 86 C 50 84.898438 49.109375 84 48 84 Z M 58 84 C 56.890625 84 56 84.898438 56 86 L 56 90 C 56 91.101562 56.890625 92 58 92 C 59.109375 92 60 91.101562 60 90 L 60 86 C 60 84.898438 59.109375 84 58 84 Z M 70 84 C 68.890625 84 68 84.898438 68 86 L 68 90 C 68 91.101562 68.890625 92 70 92 C 71.109375 92 72 91.101562 72 90 L 72 86 C 72 84.898438 71.109375 84 70 84 Z M 80 84 C 78.890625 84 78 84.898438 78 86 L 78 90 C 78 91.101562 78.890625 92 80 92 C 81.109375 92 82 91.101562 82 90 L 82 86 C 82 84.898438 81.109375 84 80 84 Z M 90 84 C 88.890625 84 88 84.898438 88 86 L 88 90 C 88 91.101562 88.890625 92 90 92 C 91.109375 92 92 91.101562 92 90 L 92 86 C 92 84.898438 91.109375 84 90 84 Z M 32 104 L 96 104 L 96 114 C 96 117.304688 93.304688 120 90 120 L 38 120 C 34.695312 120 32 117.304688 32 114 Z M 58 108 C 56.890625 108 56 108.898438 56 110 C 56 111.101562 56.890625 112 58 112 L 70 112 C 71.109375 112 72 111.101562 72 110 C 72 108.898438 71.109375 108 70 108 Z M 58 108 "/>
</g>
</svg>
