<?xml version="1.0" encoding="UTF-8"?>
<svg xmlns="http://www.w3.org/2000/svg" xmlns:xlink="http://www.w3.org/1999/xlink" width="64px" height="64px" viewBox="0 0 64 64" version="1.1">
<g id="surface16439">
<path style=" stroke:none;fill-rule:nonzero;fill:rgb(20%,20%,20%);fill-opacity:1;" d="M 32 3 C 24.699219 3 17.75 5.699219 12.351562 10.648438 C 7.050781 15.550781 3.75 22.25 3.101562 29.449219 C 3.050781 30.25 3.648438 31 4.5 31.050781 C 5.300781 31.148438 6.050781 30.5 6.148438 29.699219 C 6.699219 23.25 9.648438 17.300781 14.449219 12.898438 C 16.300781 11.199219 18.351562 9.800781 20.601562 8.699219 C 20.851562 16.199219 23.300781 23.351562 27.550781 29.449219 C 22.800781 33.5 17 36.300781 10.699219 37.449219 C 9.898438 35.449219 7.898438 34.050781 5.601562 34.050781 C 2.449219 34 0 36.449219 0 39.5 C 0 42.550781 2.449219 45 5.5 45 C 8.199219 45 10.5 43 10.898438 40.398438 C 17.800781 39.199219 24.101562 36.148438 29.25 31.800781 C 29.75 32.398438 30.25 33 30.800781 33.601562 C 31.199219 34 31.550781 34.398438 31.949219 34.800781 C 31.648438 35.5 31.449219 36.25 31.449219 37.050781 C 31.449219 40.101562 33.898438 42.550781 36.949219 42.550781 C 38.300781 42.550781 39.550781 42.050781 40.5 41.25 C 41.648438 41.898438 42.851562 42.5 44.101562 43 C 41 48.851562 36.699219 54 31.398438 58 C 23.351562 57.851562 16 54.050781 11.148438 47.550781 C 10.648438 46.898438 9.699219 46.75 9.050781 47.25 C 8.398438 47.75 8.25 48.699219 8.75 49.351562 C 14.300781 56.75 22.75 61 32 61 C 48 61 61 48 61 32 C 61 16 48 3 32 3 Z M 5.5 42 C 4.101562 42 3 40.898438 3 39.5 C 3 38.101562 4.101562 37 5.5 37 C 6.898438 37 8 38.101562 8 39.5 C 8 40.898438 6.898438 42 5.5 42 Z M 29.699219 27.351562 C 25.699219 21.5 23.550781 14.601562 23.5 7.449219 C 26.199219 6.5 29.050781 6 32 6 C 34.648438 6 37.25 6.398438 39.648438 7.148438 C 38.601562 15 34.949219 22 29.699219 27.351562 Z M 37 39.5 C 35.601562 39.5 34.5 38.398438 34.5 37 C 34.5 35.601562 35.601562 34.5 37 34.5 C 38.398438 34.5 39.5 35.601562 39.5 37 C 39.5 38.398438 38.398438 39.5 37 39.5 Z M 42.25 38.699219 C 42.398438 38.148438 42.5 37.601562 42.5 37 C 42.5 33.949219 40.050781 31.5 37 31.5 C 35.851562 31.5 34.800781 31.851562 33.898438 32.449219 C 33.601562 32.148438 33.300781 31.851562 33 31.550781 C 32.5 30.949219 32 30.351562 31.5 29.75 C 37.25 24.050781 41.25 16.601562 42.550781 8.25 C 51.648438 12.300781 58 21.398438 58 32 C 58 35.851562 57.148438 39.5 55.648438 42.800781 C 53.148438 42.550781 50.699219 42.050781 48.300781 41.300781 C 50.5 36.449219 51.949219 31.148438 52.699219 25.601562 C 52.800781 24.800781 52.25 24.050781 51.398438 23.898438 C 50.601562 23.800781 49.851562 24.351562 49.699219 25.199219 C 49 30.550781 47.550781 35.648438 45.449219 40.25 C 44.351562 39.800781 43.300781 39.25 42.25 38.699219 Z M 36.601562 57.601562 C 40.800781 53.75 44.300781 49.148438 47 44 C 49.300781 44.75 51.699219 45.300781 54.101562 45.648438 C 50.300781 51.800781 44 56.25 36.601562 57.601562 Z M 36.601562 57.601562 "/>
</g>
</svg>
