<?xml version="1.0" encoding="UTF-8"?>
<svg xmlns="http://www.w3.org/2000/svg" xmlns:xlink="http://www.w3.org/1999/xlink" width="64px" height="64px" viewBox="0 0 64 64" version="1.1">
<g id="surface282560">
<path style=" stroke:none;fill-rule:nonzero;fill:rgb(100%,100%,100%);fill-opacity:1;" d="M 50 0.28125 C 45.382812 0.28125 41.289062 2.539062 38.738281 6 L 13 6 C 9.140625 6 6 9.140625 6 13 L 6 51 C 6 51.117188 6.011719 51.234375 6.015625 51.351562 C 6.007812 51.4375 6.015625 51.515625 6.03125 51.597656 C 6.320312 54.980469 9.019531 57.679688 12.402344 57.96875 C 12.453125 57.976562 12.503906 58 12.558594 58 C 12.585938 58 12.617188 57.984375 12.648438 57.980469 C 12.765625 57.988281 12.882812 58 13 58 L 51 58 C 54.859375 58 58 54.859375 58 51 L 58 28.332031 C 58 28.316406 57.992188 28.304688 57.988281 28.285156 C 61.097656 23.628906 64 19.214844 64 14.28125 C 64 6.5625 57.71875 0.28125 50 0.28125 Z M 50 2.28125 C 56.617188 2.28125 62 7.664062 62 14.28125 C 62 18.675781 59.183594 22.898438 56.199219 27.371094 C 53.820312 30.929688 51.382812 34.582031 50 38.710938 C 48.613281 34.582031 46.179688 30.929688 43.800781 27.367188 C 40.820312 22.898438 38 18.679688 38 14.28125 C 38 7.664062 43.382812 2.28125 50 2.28125 Z M 13 8 L 37.503906 8 C 36.550781 9.890625 36 12.019531 36 14.28125 C 36 16.214844 36.449219 18.066406 37.175781 19.886719 C 37.144531 19.910156 37.105469 19.921875 37.078125 19.953125 L 8 49.03125 L 8 13 C 8 10.242188 10.242188 8 13 8 Z M 48.605469 8.234375 C 48.472656 8.21875 48.339844 8.234375 48.207031 8.273438 C 45.691406 9.058594 44 11.359375 44 14 C 44 17.308594 46.691406 20 50 20 C 53.308594 20 56 17.308594 56 14 C 56 13.445312 55.550781 13 55 13 C 54.449219 13 54 13.445312 54 14 C 54 16.207031 52.207031 18 50 18 C 47.792969 18 46 16.207031 46 14 C 46 12.238281 47.125 10.707031 48.804688 10.183594 C 49.332031 10.015625 49.625 9.453125 49.460938 8.929688 C 49.335938 8.53125 48.992188 8.269531 48.605469 8.234375 Z M 51.824219 8.351562 C 51.433594 8.355469 51.070312 8.597656 50.917969 8.984375 C 50.714844 9.496094 50.964844 10.078125 51.480469 10.28125 C 52.023438 10.5 52.523438 10.839844 52.925781 11.269531 C 53.121094 11.484375 53.390625 11.589844 53.65625 11.589844 C 53.902344 11.589844 54.144531 11.5 54.339844 11.320312 C 54.742188 10.941406 54.765625 10.308594 54.386719 9.90625 C 53.785156 9.261719 53.035156 8.75 52.21875 8.421875 C 52.089844 8.371094 51.953125 8.347656 51.824219 8.351562 Z M 12 12 C 11.449219 12 11 12.445312 11 13 L 11 15 C 11 15.554688 11.449219 16 12 16 C 12.550781 16 13 15.554688 13 15 L 13 13 C 13 12.445312 12.550781 12 12 12 Z M 17 12 C 16.449219 12 16 12.445312 16 13 L 16 15 C 16 15.554688 16.449219 16 17 16 C 17.550781 16 18 15.554688 18 15 L 18 13 C 18 12.445312 17.550781 12 17 12 Z M 22 12 C 21.449219 12 21 12.445312 21 13 L 21 15 C 21 15.554688 21.449219 16 22 16 C 22.550781 16 23 15.554688 23 15 L 23 13 C 23 12.445312 22.550781 12 22 12 Z M 27 12 C 26.449219 12 26 12.445312 26 13 L 26 15 C 26 15.554688 26.449219 16 27 16 C 27.550781 16 28 15.554688 28 15 L 28 13 C 28 12.445312 27.550781 12 27 12 Z M 32 12 C 31.449219 12 31 12.445312 31 13 L 31 15 C 31 15.554688 31.449219 16 32 16 C 32.550781 16 33 15.554688 33 15 L 33 13 C 33 12.445312 32.550781 12 32 12 Z M 50 12 C 48.894531 12 48 12.894531 48 14 C 48 15.105469 48.894531 16 50 16 C 51.105469 16 52 15.105469 52 14 C 52 12.894531 51.105469 12 50 12 Z M 18 18 C 14.691406 18 12 20.691406 12 24 C 12 27.308594 14.691406 30 18 30 C 21.308594 30 24 27.308594 24 24 C 24 23.445312 23.550781 23 23 23 L 19.25 23 C 18.699219 23 18.25 23.445312 18.25 24 C 18.25 24.554688 18.699219 25 19.25 25 L 21.875 25 C 21.429688 26.722656 19.859375 28 18 28 C 15.792969 28 14 26.207031 14 24 C 14 21.792969 15.792969 20 18 20 C 18.664062 20 19.324219 20.167969 19.90625 20.484375 C 20.390625 20.746094 20.996094 20.5625 21.261719 20.078125 C 21.527344 19.59375 21.34375 18.988281 20.859375 18.722656 C 19.988281 18.25 19 18 18 18 Z M 38.050781 21.808594 C 38.921875 23.539062 40 25.253906 41.148438 26.992188 L 12.21875 55.921875 C 10.089844 55.585938 8.414062 53.910156 8.078125 51.78125 Z M 42.277344 28.691406 C 45.269531 33.175781 48.324219 37.820312 49.003906 43.25 C 49.066406 43.75 49.492188 44.125 49.996094 44.125 C 50.5 44.125 50.925781 43.75 50.988281 43.25 C 51.539062 38.867188 53.636719 35 56 31.3125 L 56 51 C 56 51.183594 55.964844 51.355469 55.945312 51.53125 L 51.574219 47.15625 C 51.179688 46.765625 50.550781 46.765625 50.15625 47.15625 C 49.765625 47.550781 49.765625 48.179688 50.15625 48.574219 L 55.226562 53.640625 C 54.34375 55.050781 52.785156 56 51 56 L 50.300781 56 L 32.636719 38.332031 L 36.277344 34.691406 L 40.539062 38.953125 C 40.734375 39.148438 40.988281 39.25 41.246094 39.25 C 41.503906 39.25 41.757812 39.148438 41.953125 38.953125 C 42.34375 38.5625 42.34375 37.933594 41.953125 37.542969 L 37.691406 33.277344 Z M 31.222656 39.75 L 47.472656 56 L 14.96875 56 Z M 44.1875 40.1875 C 43.929688 40.1875 43.675781 40.28125 43.480469 40.480469 C 43.085938 40.871094 43.085938 41.5 43.480469 41.890625 L 45.332031 43.746094 C 45.527344 43.941406 45.78125 44.039062 46.039062 44.039062 C 46.296875 44.039062 46.550781 43.941406 46.746094 43.746094 C 47.136719 43.355469 47.136719 42.722656 46.746094 42.332031 L 44.890625 40.480469 C 44.695312 40.28125 44.441406 40.1875 44.1875 40.1875 Z M 44.1875 40.1875 "/>
</g>
</svg>
