<?xml version="1.0" encoding="UTF-8"?>
<svg xmlns="http://www.w3.org/2000/svg" xmlns:xlink="http://www.w3.org/1999/xlink" width="64px" height="64px" viewBox="0 0 64 64" version="1.1">
<g id="surface47593">
<path style=" stroke:none;fill-rule:nonzero;fill:rgb(100%,100%,100%);fill-opacity:1;" d="M 29.375 2 C 27.09375 1.996094 24.824219 2.007812 22.589844 2.023438 C 20.699219 2.03125 18.8125 2.042969 16.921875 2.042969 C 15.121094 2.042969 13.554688 3.382812 13.277344 5.15625 C 12.808594 8.214844 12.335938 11.257812 11.855469 14.3125 C 11.40625 17.199219 10.941406 20.089844 10.480469 22.980469 L 6.890625 45.734375 C 6.558594 47.808594 6.226562 49.886719 5.90625 51.960938 C 5.777344 52.789062 5.972656 53.558594 6.457031 54.121094 C 6.945312 54.691406 7.6875 55.011719 8.539062 55.011719 L 18.144531 55.011719 L 17.578125 58.792969 C 17.40625 59.988281 17.777344 60.710938 18.121094 61.109375 C 18.457031 61.5 19.101562 61.96875 20.265625 61.980469 C 21.867188 61.996094 23.363281 62 24.875 62 C 25.945312 62 27.023438 61.996094 28.15625 61.992188 C 30.433594 61.976562 31.5625 61.019531 31.9375 58.792969 C 32.496094 55.417969 33.148438 51.433594 33.730469 47.460938 C 33.855469 46.5625 34.414062 46.066406 35.269531 46.050781 C 38.6875 46.117188 41.441406 45.78125 43.933594 44.988281 C 48.027344 43.667969 51.105469 41.238281 53.078125 37.773438 C 54.707031 34.917969 55.625 31.730469 55.875 28.015625 C 56.042969 25.410156 55.589844 23.171875 54.496094 21.171875 C 53.777344 19.867188 52.785156 18.824219 51.558594 18.03125 C 51.898438 16.074219 52.019531 13.953125 51.511719 11.78125 C 50.828125 8.867188 49.21875 6.554688 46.730469 4.902344 C 43.21875 2.5625 39.269531 2.167969 36.21875 2.085938 C 33.949219 2.03125 31.65625 2.007812 29.375 2 Z M 28.246094 4 C 30.886719 4 33.542969 4.019531 36.167969 4.085938 C 40.296875 4.199219 43.214844 4.960938 45.625 6.566406 C 47.675781 7.925781 49 9.835938 49.5625 12.238281 C 50.203125 14.96875 49.671875 17.730469 49.066406 20.070312 C 48.664062 21.589844 48.175781 22.980469 47.609375 24.207031 C 45.203125 29.402344 40.992188 32.445312 34.746094 33.515625 C 32.542969 33.890625 30.351562 33.875 28.03125 33.859375 C 27.035156 33.851562 26.042969 33.84375 25.03125 33.871094 L 24.917969 33.875 C 24.65625 33.882812 24.332031 33.894531 24.019531 33.984375 C 22.320312 34.40625 21.25 35.617188 20.921875 37.488281 C 20.617188 39.292969 20.335938 41.097656 20.050781 42.90625 L 19.652344 45.449219 C 19.261719 47.949219 18.859375 50.457031 18.449219 53.011719 L 8.539062 53.011719 C 8.28125 53.007812 8.082031 52.941406 7.976562 52.820312 C 7.84375 52.667969 7.859375 52.410156 7.882812 52.265625 C 8.203125 50.195312 8.53125 48.121094 8.859375 46.046875 L 12.453125 23.296875 C 12.917969 20.402344 13.378906 17.507812 13.828125 14.625 C 14.3125 11.5625 14.785156 8.519531 15.253906 5.460938 C 15.378906 4.664062 16.113281 4.039062 16.921875 4.039062 C 18.816406 4.039062 20.707031 4.03125 22.597656 4.019531 C 24.460938 4.011719 26.347656 4 28.246094 4 Z M 39.597656 16.070312 C 37.070312 16.050781 34.539062 16.0625 32.011719 16.078125 C 30.386719 16.085938 28.761719 16.097656 27.140625 16.097656 C 25.519531 16.097656 24.109375 17.300781 23.859375 18.902344 C 23.457031 21.535156 23.050781 24.15625 22.636719 26.789062 C 22.4375 28.066406 22.234375 29.347656 22.03125 30.625 C 21.941406 31.171875 22.316406 31.6875 22.859375 31.769531 C 22.914062 31.78125 22.96875 31.78125 23.019531 31.78125 C 23.503906 31.78125 23.929688 31.433594 24.003906 30.941406 C 24.210938 29.660156 24.410156 28.378906 24.609375 27.097656 C 25.027344 24.464844 25.433594 21.839844 25.839844 19.203125 C 25.933594 18.582031 26.503906 18.097656 27.140625 18.097656 C 28.765625 18.097656 30.394531 18.085938 32.019531 18.078125 C 34.542969 18.0625 37.0625 18.050781 39.582031 18.070312 C 40.101562 18.066406 40.585938 17.628906 40.59375 17.078125 C 40.597656 16.523438 40.152344 16.074219 39.597656 16.070312 Z M 43.769531 16.140625 C 43.210938 16.113281 42.757812 16.558594 42.742188 17.109375 C 42.726562 17.664062 43.164062 18.121094 43.714844 18.140625 C 44.632812 18.164062 45.445312 18.222656 46.207031 18.316406 C 46.25 18.324219 46.292969 18.328125 46.335938 18.328125 C 46.832031 18.328125 47.261719 17.957031 47.328125 17.453125 C 47.394531 16.90625 47.007812 16.40625 46.460938 16.335938 C 45.632812 16.230469 44.753906 16.164062 43.769531 16.140625 Z M 51.101562 20.160156 C 51.761719 20.707031 52.316406 21.359375 52.738281 22.132812 C 53.648438 23.789062 54.019531 25.671875 53.878906 27.886719 C 53.648438 31.285156 52.816406 34.195312 51.339844 36.78125 C 49.597656 39.84375 46.972656 41.90625 43.320312 43.085938 C 41.050781 43.8125 38.503906 44.117188 35.308594 44.050781 C 33.445312 44.03125 32.015625 45.273438 31.746094 47.171875 C 31.167969 51.125 30.519531 55.101562 29.964844 58.464844 C 29.75 59.726562 29.445312 59.984375 28.144531 59.992188 C 25.421875 60.003906 23.003906 60.003906 20.28125 59.980469 C 19.96875 59.976562 19.730469 59.914062 19.640625 59.808594 C 19.539062 59.691406 19.507812 59.417969 19.558594 59.078125 L 20.300781 54.113281 C 20.304688 54.105469 20.296875 54.097656 20.300781 54.085938 C 20.753906 51.265625 21.195312 48.503906 21.625 45.757812 L 22.027344 43.214844 C 22.308594 41.414062 22.589844 39.613281 22.894531 37.824219 C 23.082031 36.738281 23.578125 36.148438 24.527344 35.910156 C 24.632812 35.882812 24.816406 35.875 24.988281 35.871094 L 25.09375 35.863281 C 26.066406 35.839844 27.042969 35.847656 28.015625 35.855469 C 30.320312 35.875 32.703125 35.886719 35.078125 35.484375 C 41.929688 34.3125 46.753906 30.800781 49.421875 25.046875 C 50.039062 23.714844 50.570312 22.210938 51 20.574219 C 51.035156 20.4375 51.066406 20.296875 51.101562 20.160156 Z M 11 47 C 10.449219 47 10 47.445312 10 48 L 10 50 C 10 50.554688 10.449219 51 11 51 C 11.550781 51 12 50.554688 12 50 L 12 48 C 12 47.445312 11.550781 47 11 47 Z M 16 47 C 15.449219 47 15 47.445312 15 48 L 15 50 C 15 50.554688 15.449219 51 16 51 C 16.550781 51 17 50.554688 17 50 L 17 48 C 17 47.445312 16.550781 47 16 47 Z M 23 54 C 22.449219 54 22 54.445312 22 55 L 22 57 C 22 57.554688 22.449219 58 23 58 C 23.550781 58 24 57.554688 24 57 L 24 55 C 24 54.445312 23.550781 54 23 54 Z M 28 54 C 27.449219 54 27 54.445312 27 55 L 27 57 C 27 57.554688 27.449219 58 28 58 C 28.550781 58 29 57.554688 29 57 L 29 55 C 29 54.445312 28.550781 54 28 54 Z M 28 54 "/>
</g>
</svg>
