<?xml version="1.0" encoding="UTF-8"?>
<svg xmlns="http://www.w3.org/2000/svg" xmlns:xlink="http://www.w3.org/1999/xlink" width="96px" height="96px" viewBox="0 0 96 96" version="1.1">
<g id="surface15109">
<path style=" stroke:none;fill-rule:nonzero;fill:rgb(100%,75.686275%,2.745098%);fill-opacity:1;" d="M 87.222656 40.164062 L 84 40.164062 L 84 40 L 48 40 L 48 56 L 70.605469 56 C 67.308594 65.3125 58.445312 72 48 72 C 34.746094 72 24 61.253906 24 48 C 24 34.746094 34.746094 24 48 24 C 54.117188 24 59.683594 26.308594 63.921875 30.078125 L 75.234375 18.765625 C 68.09375 12.105469 58.535156 8 48 8 C 25.910156 8 8 25.910156 8 48 C 8 70.089844 25.910156 88 48 88 C 70.089844 88 88 70.089844 88 48 C 88 45.316406 87.722656 42.699219 87.222656 40.164062 Z M 87.222656 40.164062 "/>
<path style=" stroke:none;fill-rule:nonzero;fill:rgb(100%,23.921569%,0%);fill-opacity:1;" d="M 12.613281 29.382812 L 25.753906 39.019531 C 29.308594 30.214844 37.921875 24 48 24 C 54.117188 24 59.683594 26.308594 63.921875 30.078125 L 75.234375 18.765625 C 68.09375 12.105469 58.535156 8 48 8 C 32.636719 8 19.3125 16.675781 12.613281 29.382812 Z M 12.613281 29.382812 "/>
<path style=" stroke:none;fill-rule:nonzero;fill:rgb(29.803922%,68.627451%,31.372549%);fill-opacity:1;" d="M 48 88 C 58.332031 88 67.71875 84.046875 74.816406 77.617188 L 62.4375 67.140625 C 58.421875 70.183594 53.429688 72 48 72 C 37.597656 72 28.761719 65.367188 25.433594 56.109375 L 12.390625 66.15625 C 19.011719 79.113281 32.453125 88 48 88 Z M 48 88 "/>
<path style=" stroke:none;fill-rule:nonzero;fill:rgb(9.803922%,46.27451%,82.352941%);fill-opacity:1;" d="M 87.222656 40.164062 L 84 40.164062 L 84 40 L 48 40 L 48 56 L 70.605469 56 C 69.023438 60.472656 66.144531 64.332031 62.433594 67.140625 C 62.433594 67.140625 62.4375 67.140625 62.4375 67.136719 L 74.816406 77.613281 C 73.941406 78.410156 88 68 88 48 C 88 45.316406 87.722656 42.699219 87.222656 40.164062 Z M 87.222656 40.164062 "/>
</g>
</svg>
