<?xml version="1.0" encoding="UTF-8"?>
<svg xmlns="http://www.w3.org/2000/svg" xmlns:xlink="http://www.w3.org/1999/xlink" width="80px" height="80px" viewBox="0 0 80 80" version="1.1">
<g id="surface751656">
<path style=" stroke:none;fill-rule:nonzero;fill:rgb(100%,100%,100%);fill-opacity:1;" d="M 25 8 C 22.25 8 20 10.25 20 13 L 20 16.761719 L 15 26.761719 L 15 32 C 15 34.75 17.25 37 20 37 L 20 67 C 20 69.75 22.25 72 25 72 L 55 72 C 57.75 72 60 69.75 60 67 L 60 37 C 62.75 37 65 34.75 65 32 L 65 26.761719 L 60 16.761719 L 60 13 C 60 10.25 57.75 8 55 8 Z M 25 10 L 55 10 C 56.667969 10 58 11.332031 58 13 L 58 16 L 22 16 L 22 13 C 22 11.332031 23.332031 10 25 10 Z M 31.945312 12 C 31.394531 12 30.945312 12.449219 30.945312 13 C 30.945312 13.550781 31.394531 14 31.945312 14 C 32.5 14 32.945312 13.550781 32.945312 13 C 32.945312 12.449219 32.5 12 31.945312 12 Z M 36 12 C 35.640625 11.996094 35.304688 12.183594 35.121094 12.496094 C 34.941406 12.808594 34.941406 13.191406 35.121094 13.503906 C 35.304688 13.816406 35.640625 14.003906 36 14 L 44 14 C 44.359375 14.003906 44.695312 13.816406 44.878906 13.503906 C 45.058594 13.191406 45.058594 12.808594 44.878906 12.496094 C 44.695312 12.183594 44.359375 11.996094 44 12 Z M 21.617188 18 L 58.382812 18 L 63 27.238281 L 63 32 C 63 33.667969 61.667969 35 60 35 C 58.332031 35 57 33.667969 57 32 L 55 32 C 55 33.667969 53.667969 35 52 35 C 50.332031 35 49 33.667969 49 32 L 47 32 C 47 33.667969 45.667969 35 44 35 C 42.332031 35 41 33.667969 41 32 L 39 32 C 39 33.667969 37.667969 35 36 35 C 34.332031 35 33 33.667969 33 32 L 31 32 C 31 33.667969 29.667969 35 28 35 C 26.332031 35 25 33.667969 25 32 L 23 32 C 23 33.667969 21.667969 35 20 35 C 18.332031 35 17 33.667969 17 32 L 17 27.238281 Z M 20 27 C 19.449219 27 19 27.449219 19 28 C 19 28.550781 19.449219 29 20 29 C 20.550781 29 21 28.550781 21 28 C 21 27.449219 20.550781 27 20 27 Z M 24 27 C 23.449219 27 23 27.449219 23 28 C 23 28.550781 23.449219 29 24 29 C 24.550781 29 25 28.550781 25 28 C 25 27.449219 24.550781 27 24 27 Z M 28 27 C 27.449219 27 27 27.449219 27 28 C 27 28.550781 27.449219 29 28 29 C 28.550781 29 29 28.550781 29 28 C 29 27.449219 28.550781 27 28 27 Z M 32 27 C 31.449219 27 31 27.449219 31 28 C 31 28.550781 31.449219 29 32 29 C 32.550781 29 33 28.550781 33 28 C 33 27.449219 32.550781 27 32 27 Z M 36 27 C 35.449219 27 35 27.449219 35 28 C 35 28.550781 35.449219 29 36 29 C 36.550781 29 37 28.550781 37 28 C 37 27.449219 36.550781 27 36 27 Z M 40 27 C 39.449219 27 39 27.449219 39 28 C 39 28.550781 39.449219 29 40 29 C 40.550781 29 41 28.550781 41 28 C 41 27.449219 40.550781 27 40 27 Z M 44 27 C 43.449219 27 43 27.449219 43 28 C 43 28.550781 43.449219 29 44 29 C 44.550781 29 45 28.550781 45 28 C 45 27.449219 44.550781 27 44 27 Z M 48 27 C 47.449219 27 47 27.449219 47 28 C 47 28.550781 47.449219 29 48 29 C 48.550781 29 49 28.550781 49 28 C 49 27.449219 48.550781 27 48 27 Z M 52 27 C 51.449219 27 51 27.449219 51 28 C 51 28.550781 51.449219 29 52 29 C 52.550781 29 53 28.550781 53 28 C 53 27.449219 52.550781 27 52 27 Z M 56 27 C 55.449219 27 55 27.449219 55 28 C 55 28.550781 55.449219 29 56 29 C 56.550781 29 57 28.550781 57 28 C 57 27.449219 56.550781 27 56 27 Z M 60 27 C 59.449219 27 59 27.449219 59 28 C 59 28.550781 59.449219 29 60 29 C 60.550781 29 61 28.550781 61 28 C 61 27.449219 60.550781 27 60 27 Z M 24 34.839844 C 24.910156 36.113281 26.324219 37 28 37 C 29.675781 37 31.089844 36.113281 32 34.839844 C 32.910156 36.113281 34.324219 37 36 37 C 37.675781 37 39.089844 36.113281 40 34.839844 C 40.910156 36.113281 42.324219 37 44 37 C 45.675781 37 47.089844 36.113281 48 34.839844 C 48.910156 36.113281 50.324219 37 52 37 C 53.636719 37 55.085938 36.191406 56 34.964844 C 56.515625 35.65625 57.207031 36.207031 58 36.566406 L 58 60 L 22 60 L 22 36.539062 C 22.796875 36.15625 23.484375 35.5625 24 34.839844 Z M 26 39 C 25.449219 39 25 39.449219 25 40 C 25 40.550781 25.449219 41 26 41 C 26.550781 41 27 40.550781 27 40 C 27 39.449219 26.550781 39 26 39 Z M 26 43 C 25.449219 43 25 43.449219 25 44 C 25 44.550781 25.449219 45 26 45 C 26.550781 45 27 44.550781 27 44 C 27 43.449219 26.550781 43 26 43 Z M 26 47 C 25.449219 47 25 47.449219 25 48 C 25 48.550781 25.449219 49 26 49 C 26.550781 49 27 48.550781 27 48 C 27 47.449219 26.550781 47 26 47 Z M 26 51 C 25.449219 51 25 51.449219 25 52 C 25 52.550781 25.449219 53 26 53 C 26.550781 53 27 52.550781 27 52 C 27 51.449219 26.550781 51 26 51 Z M 26 55 C 25.449219 55 25 55.449219 25 56 C 25 56.550781 25.449219 57 26 57 C 26.550781 57 27 56.550781 27 56 C 27 55.449219 26.550781 55 26 55 Z M 22 62 L 58 62 L 58 67 C 58 68.667969 56.667969 70 55 70 L 25 70 C 23.332031 70 22 68.667969 22 67 Z M 40 64 C 38.894531 64 38 64.894531 38 66 C 38 67.105469 38.894531 68 40 68 C 41.105469 68 42 67.105469 42 66 C 42 64.894531 41.105469 64 40 64 Z M 40 64 "/>
</g>
</svg>
