<?xml version="1.0" encoding="UTF-8"?>
<svg xmlns="http://www.w3.org/2000/svg" xmlns:xlink="http://www.w3.org/1999/xlink" width="60px" height="60px" viewBox="0 0 60 60" version="1.1">
<g id="surface14790">
<path style=" stroke:none;fill-rule:nonzero;fill:rgb(100%,100%,100%);fill-opacity:1;" d="M 51.128906 19.570312 C 50.882812 19.722656 45.027344 22.972656 45.027344 30.179688 C 45.304688 38.398438 52.417969 41.28125 52.539062 41.28125 C 52.417969 41.433594 51.464844 45.207031 48.644531 49.160156 C 46.40625 52.566406 43.925781 56 40.152344 56 C 36.5625 56 35.277344 53.730469 31.136719 53.730469 C 26.691406 53.730469 25.433594 56 22.027344 56 C 18.257812 56 15.589844 52.382812 13.226562 49.007812 C 10.160156 44.59375 7.554688 37.660156 7.464844 31.007812 C 7.402344 27.480469 8.078125 24.015625 9.792969 21.070312 C 12.214844 16.960938 16.539062 14.171875 21.261719 14.078125 C 24.878906 13.957031 28.101562 16.5625 30.308594 16.5625 C 32.425781 16.5625 36.378906 14.078125 40.855469 14.078125 C 42.789062 14.082031 47.941406 14.664062 51.128906 19.570312 Z M 30.003906 13.375 C 29.359375 10.15625 31.136719 6.9375 32.792969 4.882812 C 34.90625 2.398438 38.25 0.710938 41.132812 0.710938 C 41.316406 3.933594 40.148438 7.089844 38.066406 9.390625 C 36.195312 11.875 32.976562 13.742188 30.003906 13.375 Z M 30.003906 13.375 "/>
</g>
</svg>
