<?xml version="1.0" encoding="UTF-8"?>
<svg xmlns="http://www.w3.org/2000/svg" xmlns:xlink="http://www.w3.org/1999/xlink" width="50px" height="50px" viewBox="0 0 50 50" version="1.1">
<g id="surface15923">
<path style=" stroke:none;fill-rule:nonzero;fill:rgb(100%,100%,100%);fill-opacity:1;" d="M 25 0 C 15.625 0 8 7.625 8 17 C 8 25.347656 14.054688 32.296875 22 33.71875 L 22 31.699219 C 15.160156 30.304688 10 24.242188 10 17 C 10 8.730469 16.730469 2 25 2 C 33.269531 2 40 8.730469 40 17 C 40 24.242188 34.839844 30.304688 28 31.699219 L 28 33.71875 C 35.945312 32.296875 42 25.347656 42 17 C 42 7.625 34.375 0 25 0 Z M 24.984375 15.988281 C 24.433594 15.996094 23.992188 16.449219 24 17 L 24 45.871094 L 18.722656 40.3125 C 18.542969 40.113281 18.285156 39.996094 18.015625 39.988281 C 17.609375 39.980469 17.238281 40.21875 17.074219 40.589844 C 16.914062 40.960938 16.992188 41.394531 17.277344 41.6875 L 25 49.828125 L 32.722656 41.6875 C 32.992188 41.433594 33.097656 41.050781 32.996094 40.695312 C 32.898438 40.339844 32.613281 40.066406 32.25 39.988281 C 31.890625 39.90625 31.515625 40.03125 31.273438 40.3125 L 26 45.871094 L 26 17 C 26.003906 16.730469 25.898438 16.46875 25.707031 16.277344 C 25.515625 16.085938 25.253906 15.980469 24.984375 15.984375 Z M 24.984375 15.988281 "/>
</g>
</svg>
