<?xml version="1.0" encoding="UTF-8"?>
<svg xmlns="http://www.w3.org/2000/svg" xmlns:xlink="http://www.w3.org/1999/xlink" width="50px" height="50px" viewBox="0 0 50 50" version="1.1">
<g id="surface10984">
<path style=" stroke:none;fill-rule:nonzero;fill:rgb(100%,100%,100%);fill-opacity:1;" d="M 0 7 L 0 43 L 50 43 L 50 7 Z M 2 9 L 5.96875 9 L 19 17.90625 L 19 9 L 22 9 L 22 22 L 2 22 L 2 19 L 13.59375 19 L 2 11.09375 Z M 28 9 L 31 9 L 31 17.90625 L 44.03125 9 L 48 9 L 48 11.09375 L 36.40625 19 L 48 19 L 48 22 L 28 22 Z M 2 28 L 22 28 L 22 41 L 19 41 L 19 32.09375 L 5.96875 41 L 2 41 L 2 38.90625 L 13.59375 31 L 2 31 Z M 28 28 L 48 28 L 48 31 L 36.40625 31 L 48 38.90625 L 48 41 L 44.03125 41 L 31 32.09375 L 31 41 L 28 41 Z M 28 28 "/>
</g>
</svg>
