<?xml version="1.0" encoding="utf-8"?>
<!-- Generator: Adobe Illustrator 23.0.3, SVG Export Plug-In . SVG Version: 6.00 Build 0)  -->
<svg version="1.1" id="Layer_1" xmlns="http://www.w3.org/2000/svg" xmlns:xlink="http://www.w3.org/1999/xlink" x="0px" y="0px"
	 viewBox="0 0 612 792" style="enable-background:new 0 0 612 792;" xml:space="preserve">
<style type="text/css">
	.st0{enable-background:new    ;}
	.st1{fill:#0F0F0F;}
</style>
<g class="st0">
	<path class="st1" d="M294.91,145.74v0.1h-0.31v2.57l0.29,0.94v0.17h-0.05l-3.1-1.1v-1.8l-0.5-0.5h-2.83l-0.5,0.5v3.07l5.98,2.28
		l1.03,0.96v0.07h-0.31v4.54h0.31v0.1l-2.5,2.42h-5.18l-2.18-2.18v-3.05l-0.29-0.94v-0.17h0.05l3.1,1.1v1.87l0.5,0.5h2.83l0.5-0.5
		c0-1.39,0-1.44,0-2.86l-5.98-2.26l-1.03-0.96v-0.1h0.31v-4.68h-0.31v-0.1c0.82-0.84,1.66-1.66,2.5-2.5h5.18
		C293.26,144.08,294.07,144.9,294.91,145.74z"/>
	<path class="st1" d="M300.6,143.41l-0.12,0.34l3.94,8.86h0.05l0.07-0.19l-0.02-8.06l-0.29-0.94v-0.17c1.13,0,2.28,0,3.43,0v0.17
		l-0.31,0.94v14.59l0.31,0.94v0.17c-1.2,0-2.4,0-3.58,0v-0.17l0.17-0.55l-3.86-7.66h-0.02l-0.07,0.19v7.08l0.31,0.94v0.17
		c-1.15,0-2.3,0-3.43,0v-0.17l0.29-0.94v-14.59l-0.29-0.94v-0.17c1.13,0,2.28,0,3.43,0V143.41z"/>
	<path class="st1" d="M309.79,159.88l0.41-0.86l2.5-14.71l-0.26-0.89v-0.17c1.99,0,3.98,0,5.98,0v0.17l-0.26,0.86l2.5,14.67
		l0.41,0.94v0.17c-1.18,0-2.35,0-3.55,0v-0.17l0.29-0.89l-0.53-3.14l-0.5-0.53h-2.66l-0.5,0.53l-0.53,3.17l0.26,0.86v0.17
		c-1.18,0-2.35,0-3.53,0V159.88z M316.25,152.48l0.46-0.46l-1.22-5.95h-0.14l-1.2,5.95l0.43,0.46H316.25z"/>
	<path class="st1" d="M332.59,145.74v0.1h-0.34v2.3l0.29,0.91v0.17h-0.05l-3.07-1.08v-1.54l-0.5-0.5h-2.74l-0.53,0.5l0.02,10.08
		l0.5,0.5h2.74l0.5-0.5v-2.06l3.1-1.1h0.05v0.19l-0.29,0.91v2.83h0.31v0.1c-0.84,0.84-1.66,1.66-2.5,2.5h-5.09
		c-0.84-0.84-1.66-1.66-2.5-2.5v-0.1h0.31v-11.62h-0.31v-0.1c0.82-0.84,1.66-1.66,2.5-2.5c1.68,0,3.38,0,5.09,0L332.59,145.74z"/>
	<path class="st1" d="M338.23,143.41l-0.29,0.94v4.9h0.22l3.05-5.33l-0.17-0.5v-0.17c1.22,0,2.45,0,3.67,0v0.17l-0.7,0.94
		l-3.55,6.17v0.41l3.65,8.02l0.6,0.94v0.17c-1.22,0-2.45,0-3.67,0v-0.17l0.26-0.82l-2.76-6.17h-0.07l-0.53,0.91v5.14l0.29,0.94v0.17
		c-1.15,0-2.28,0-3.43,0v-0.17l0.29-0.94v-14.59l-0.29-0.94v-0.17c1.15,0,2.28,0,3.43,0V143.41z"/>
</g>
<g class="st0">
	<path class="st1" d="M284.35,165.1l-0.43,1.4v21.88l0.43,1.4v0.25c-1.69,0-3.42,0-5.15,0l0.04-0.25l0.43-1.4v-8.6l-0.79-0.47h-3.13
		l-0.76,0.47v8.6l0.43,1.4v0.25c-1.73,0-3.42,0-5.15,0v-0.25l0.43-1.4V166.5l-0.43-1.4v-0.25c1.73,0,3.42,0,5.15,0v0.25l-0.43,1.4
		v8.21l0.76,0.36h3.13l0.79-0.36v-8.21l-0.43-1.4l-0.04-0.25c1.73,0,3.46,0,5.15,0V165.1z"/>
	<path class="st1" d="M302.74,168.59v0.14h-0.47v17.42h0.47v0.14l-3.74,3.74c-2.52,0-5,0-7.52,0c-1.26-1.26-2.52-2.48-3.74-3.74
		v-0.14h0.47v-17.42h-0.47v-0.14c1.22-1.26,2.48-2.48,3.74-3.74H299L302.74,168.59z M293.24,169.13l-0.76,0.76V185l0.76,0.76h4
		l0.76-0.76v-15.12l-0.76-0.76H293.24z"/>
	<path class="st1" d="M311.6,185.76h4.03l0.76-0.76v-18.5l-0.43-1.4v-0.25c1.73,0,3.42,0,5.15,0v0.25l-0.43,1.4v19.69h0.43v0.14
		c-1.22,1.22-2.48,2.48-3.71,3.71h-7.56l-3.74-3.74v-0.14h0.47V166.5l-0.43-1.4v-0.25c1.69,0,3.42,0,5.15,0v0.25l-0.43,1.4V185
		L311.6,185.76z"/>
	<path class="st1" d="M329.78,165.1l-0.18,0.5l5.9,13.28h0.07l0.11-0.29l-0.04-12.09l-0.43-1.4v-0.25c1.69,0,3.42,0,5.15,0v0.25
		l-0.47,1.4v21.88l0.47,1.4v0.25c-1.8,0-3.6,0-5.36,0v-0.25l0.25-0.83l-5.79-11.48h-0.04l-0.11,0.29v10.62l0.47,1.4v0.25
		c-1.73,0-3.46,0-5.15,0v-0.25l0.43-1.4V166.5l-0.43-1.4v-0.25c1.69,0,3.42,0,5.15,0V165.1z"/>
	<path class="st1" d="M358.83,168.59v0.14h-0.5l0.04,17.42h0.47v0.14c-1.04,1.04-2.09,2.09-3.74,3.74c-3.74,0-7.49,0-11.23,0v-0.25
		l0.47-1.4l-0.04-21.88l-0.43-1.4v-0.25c3.74,0,7.49,0,11.23,0L358.83,168.59z M353.32,169.13h-4l-0.76,0.76V185l0.76,0.76h4
		l0.76-0.76v-15.12L353.32,169.13z"/>
</g>
</svg>
