<svg xmlns="http://www.w3.org/2000/svg" width="25.303" height="23.616" viewBox="0 0 25.303 23.616"><defs><style>.a{fill:#c2cde7;}.b{fill:#acb7d0;}.c{fill:#bbdef9;}.d{fill:#def0ff;}.e{fill:#fff;}.f{fill:#ffefb8;}.g{fill:#faefde;}.h{fill:#dce5f5;}.i{fill:#f75f83;}.j{fill:#8d6c9f;}</style></defs><g transform="translate(-2 -4)"><path class="a" d="M26.195,27.652H4.265A1.243,1.243,0,0,1,3,26.386V16.265A1.243,1.243,0,0,1,4.265,15H26.195a1.243,1.243,0,0,1,1.265,1.265V26.386A1.243,1.243,0,0,1,26.195,27.652Zm0,0" transform="translate(-0.578 -6.361)"/><path class="b" d="M26.195,38.061H4.265A1.243,1.243,0,0,1,3,36.8v-2.53A1.243,1.243,0,0,1,4.265,33H26.195a1.243,1.243,0,0,1,1.265,1.265V36.8A1.243,1.243,0,0,1,26.195,38.061Zm0,0" transform="translate(-0.578 -16.77)"/><path class="c" d="M25.146,47.434H14.265A1.243,1.243,0,0,1,13,46.169V39H29.025v4.555a1.149,1.149,0,0,1-.379.885L26.03,47.056A1.213,1.213,0,0,1,25.146,47.434Zm0,0" transform="translate(-6.361 -20.24)"/><path class="d" d="M32.132,44.466V39.195l-6.326,8.013H29.18Zm-12.4,2.741L26.312,38.9h-.633L19.1,47.208Zm3.8,0L30.107,38.9h-1.9l-6.578,8.309Zm0,0" transform="translate(-9.89 -20.181)"/><path class="e" d="M17.976,44.193l.506.97.97.506-.97.549-.506.927-.506-.927-.97-.549.97-.506ZM22.488,42l.338.675.675.336-.675.381-.338.633-.379-.633-.675-.381.675-.336Zm3.29,2.868.254.422.463.252-.463.254-.254.465-.211-.465-.465-.254.465-.252Zm0,0" transform="translate(-8.385 -21.975)"/><path class="f" d="M43,39.338V35.965h3.374ZM48.061,25h2.53v3.374h-2.53Zm0,0" transform="translate(-23.709 -12.144)"/><path class="g" d="M29.338,9.217H15L16.265,5H28.073Zm0,0" transform="translate(-7.518 -0.578)"/><path class="h" d="M32.869,19.422a.4.4,0,0,1-.422.422H16.422a.422.422,0,1,1,0-.843H32.447A.4.4,0,0,1,32.869,19.422Zm0,0" transform="translate(-8.096 -8.674)"/><path class="i" d="M7,19H8.687v1.265H7Zm0,0" transform="translate(-2.891 -8.674)"/><path class="j" d="M7.952,19.265v-.422A.845.845,0,0,0,7.109,18H6.265a.845.845,0,0,0-.843.843v.422a.845.845,0,0,0,.843.843h.843A.845.845,0,0,0,7.952,19.265Zm-.843,0H6.265v-.422h.843ZM5.422,21.8A.4.4,0,0,0,5,22.217v.843a.422.422,0,1,0,.843,0v-.843A.4.4,0,0,0,5.422,21.8Zm2.109,0a.4.4,0,0,0-.422.422v.843a.422.422,0,0,0,.843,0v-.843A.4.4,0,0,0,7.53,21.8Zm2.109,0a.4.4,0,0,0-.422.422v.843a.422.422,0,0,0,.843,0v-.843A.4.4,0,0,0,9.639,21.8Zm2.109,0a.4.4,0,0,0-.422.422v.843a.422.422,0,1,0,.843,0v-.843A.4.4,0,0,0,11.748,21.8Zm2.109,0a.4.4,0,0,0-.422.422v.843a.422.422,0,1,0,.843,0v-.843A.4.4,0,0,0,13.856,21.8Zm2.109,0a.4.4,0,0,0-.422.422v.843a.422.422,0,0,0,.843,0v-.843A.4.4,0,0,0,15.965,21.8Zm2.109,0a.4.4,0,0,0-.422.422v.843a.422.422,0,1,0,.843,0v-.843A.4.4,0,0,0,18.073,21.8Zm2.109,0a.4.4,0,0,0-.422.422v.843a.422.422,0,1,0,.843,0v-.843A.4.4,0,0,0,20.182,21.8Zm4.217,0a.4.4,0,0,0-.422.422v.843a.422.422,0,1,0,.843,0v-.843A.4.4,0,0,0,24.4,21.8Zm-2.109,0a.4.4,0,0,0-.422.422v.843a.422.422,0,1,0,.843,0v-.843A.4.4,0,0,0,22.291,21.8Zm0,0" transform="translate(-1.735 -8.096)"/><path class="j" d="M26.038,8.217H22.159l-.591-2.868A1.669,1.669,0,0,0,19.923,4H9.337A1.711,1.711,0,0,0,7.693,5.349L7.1,8.217H3.265A1.243,1.243,0,0,0,2,9.482V20.447a1.152,1.152,0,0,0,.379.886,1.219,1.219,0,0,0,.886.379H6.217v4.639a1.152,1.152,0,0,0,.379.886,1.219,1.219,0,0,0,.886.379h11.64a.827.827,0,0,0,.59-.254l3.12-3.12a.827.827,0,0,0,.254-.59V21.712h2.952a1.152,1.152,0,0,0,.886-.379,1.219,1.219,0,0,0,.379-.886V9.482A1.243,1.243,0,0,0,26.038,8.217ZM19.712,26.183V24.243h1.941Zm2.53-2.784h-2.53a.867.867,0,0,0-.843.843v2.53H7.482a.434.434,0,0,1-.422-.422V19.182H22.243ZM26.5,12.434H24.816a.864.864,0,0,0-.843.843v2.53a.864.864,0,0,0,.843.843H26.5v3.8a.686.686,0,0,1-.17.295.383.383,0,0,1-.295.127H23.086V19.182h1.265a.422.422,0,1,0,0-.843H4.952a.422.422,0,1,0,0,.843H6.217v1.687H3.265a.434.434,0,0,1-.422-.422V9.482a.4.4,0,0,1,.422-.422H19.712a.422.422,0,1,0,0-.843H7.988l.549-2.7a.861.861,0,0,1,.843-.675H19.966a.862.862,0,0,1,.843.675l.633,3.2a.41.41,0,0,0,.422.338h4.217a.4.4,0,0,1,.422.422Zm-.043.843v2.53H24.773v-2.53Zm0,0"/></g></svg>