<?xml version="1.0" encoding="UTF-8"?>
<svg xmlns="http://www.w3.org/2000/svg" xmlns:xlink="http://www.w3.org/1999/xlink" width="48px" height="48px" viewBox="0 0 48 48" version="1.1">
<g id="surface18199">
<path style="fill-rule:nonzero;fill:rgb(100%,23.921569%,0%);fill-opacity:1;stroke-width:10;stroke-linecap:butt;stroke-linejoin:round;stroke:rgb(0%,0%,0%);stroke-opacity:1;stroke-miterlimit:10;" d="M 116.942391 28.662519 C 137.457093 28.662519 154.076224 45.148341 154.076224 65.470486 C 154.076224 102.382137 96.205509 119.727059 86 143.337481 C 75.794491 119.727059 17.923776 102.071084 17.923776 65.470486 C 17.923776 45.148341 34.542907 28.662519 55.057609 28.662519 C 67.988536 28.662519 79.349385 35.224261 86 45.133529 C 92.650615 35.224261 104.011464 28.662519 116.942391 28.662519 " transform="matrix(0.263721,0,0,0.263721,1.32,1.32)"/>
<path style=" stroke:none;fill-rule:nonzero;fill:rgb(100%,23.921569%,0%);fill-opacity:1;" d="M 32.160156 8.878906 C 28.75 8.878906 25.753906 10.609375 24 13.222656 C 22.246094 10.609375 19.25 8.878906 15.839844 8.878906 C 10.429688 8.878906 6.046875 13.226562 6.046875 18.585938 C 6.046875 28.238281 21.308594 32.894531 24 39.121094 C 26.691406 32.894531 41.953125 28.320312 41.953125 18.585938 C 41.953125 13.226562 37.570312 8.878906 32.160156 8.878906 "/>
</g>
</svg>
