<?xml version="1.0" encoding="UTF-8"?>
<svg xmlns="http://www.w3.org/2000/svg" xmlns:xlink="http://www.w3.org/1999/xlink" width="48px" height="48px" viewBox="0 0 48 48" version="1.1">
<g id="surface19016">
<path style="fill-rule:nonzero;fill:rgb(90.588235%,29.803922%,23.529412%);fill-opacity:1;stroke-width:10;stroke-linecap:butt;stroke-linejoin:round;stroke:rgb(0%,0%,0%);stroke-opacity:1;stroke-miterlimit:10;" d="M 150.506517 64.49289 C 150.565766 107.521922 86 171.998815 86 171.998815 C 86 171.998815 21.434234 107.433049 21.493483 64.49289 C 21.552731 28.618083 54.465126 3.585703 86 3.585703 C 117.534874 3.585703 150.447269 28.677331 150.506517 64.49289 Z M 114.661334 64.49289 C 114.661334 48.673611 101.834091 35.831556 86 35.831556 C 70.165909 35.831556 57.338666 48.673611 57.338666 64.49289 C 57.338666 80.326981 70.165909 93.169037 86 93.169037 C 101.834091 93.169037 114.661334 80.326981 114.661334 64.49289 Z M 114.661334 64.49289 " transform="matrix(0.263721,0,0,0.263721,1.32,1.32)"/>
<path style=" stroke:none;fill-rule:nonzero;fill:rgb(100%,61.960784%,58.823529%);fill-opacity:1;" d="M 24 2.265625 C 15.683594 2.265625 7.003906 8.867188 6.988281 18.328125 C 6.972656 29.652344 24 46.679688 24 46.679688 C 24 46.679688 41.027344 29.675781 41.011719 18.328125 C 40.996094 8.882812 32.316406 2.265625 24 2.265625 Z M 24 25.890625 C 19.824219 25.890625 16.441406 22.503906 16.441406 18.328125 C 16.441406 14.15625 19.824219 10.769531 24 10.769531 C 28.175781 10.769531 31.558594 14.15625 31.558594 18.328125 C 31.558594 22.503906 28.175781 25.890625 24 25.890625 Z M 24 25.890625 "/>
</g>
</svg>
