<?xml version="1.0" encoding="UTF-8"?>
<svg xmlns="http://www.w3.org/2000/svg" xmlns:xlink="http://www.w3.org/1999/xlink" width="48px" height="48px" viewBox="0 0 48 48" version="1.1">
<g id="surface18268">
<path style="fill-rule:nonzero;fill:rgb(100%,100%,100%);fill-opacity:1;stroke-width:10;stroke-linecap:butt;stroke-linejoin:round;stroke:rgb(0%,0%,0%);stroke-opacity:1;stroke-miterlimit:10;" d="M 116.936919 28.673086 C 137.457518 28.673086 154.084998 45.137114 154.084998 65.464542 C 154.084998 102.389732 96.208292 119.715596 86 143.326914 C 75.791708 119.715596 17.915002 102.077688 17.915002 65.464542 C 17.915002 45.137114 34.542482 28.673086 55.063081 28.673086 C 67.990612 28.673086 79.357924 35.211148 86 45.137114 C 92.642076 35.211148 104.009388 28.673086 116.936919 28.673086 " transform="matrix(0.262884,0,0,0.262884,1.392,1.392)"/>
<path style=" stroke:none;fill-rule:nonzero;fill:rgb(100%,100%,100%);fill-opacity:1;" d="M 32.132812 8.929688 C 28.734375 8.929688 25.746094 10.648438 24 13.257812 C 22.253906 10.648438 19.265625 8.929688 15.867188 8.929688 C 10.472656 8.929688 6.101562 13.257812 6.101562 18.601562 C 6.101562 28.226562 21.316406 32.863281 24 39.070312 C 26.683594 32.863281 41.898438 28.308594 41.898438 18.601562 C 41.898438 13.257812 37.527344 8.929688 32.132812 8.929688 "/>
</g>
</svg>
