<?xml version="1.0" encoding="UTF-8"?>
<svg xmlns="http://www.w3.org/2000/svg" xmlns:xlink="http://www.w3.org/1999/xlink" width="50px" height="50px" viewBox="0 0 50 50" version="1.1">
<g id="surface28413">
<path style="fill-rule:nonzero;fill:rgb(94.509804%,76.862745%,5.882353%);fill-opacity:1;stroke-width:5;stroke-linecap:butt;stroke-linejoin:round;stroke:rgb(0%,0%,0%);stroke-opacity:1;stroke-miterlimit:10;" d="M 35.086959 167.178553 C 34.395018 167.178553 33.716916 166.846421 33.024974 166.500451 C 31.987062 165.808509 31.30896 164.092495 31.641092 162.708612 L 46.780767 106.301558 L 1.375579 69.490281 C 0.00553553 68.798339 -0.340435 67.082325 0.00553553 65.698442 C 0.337667 64.328399 1.72155 63.290487 3.091594 63.290487 L 61.574472 60.204428 L 82.554132 5.499549 C 83.246074 4.475476 84.629956 3.437564 86 3.437564 C 87.370044 3.437564 88.753926 4.475476 89.099897 5.499549 L 110.079557 60.204428 L 168.562436 63.290487 C 169.932479 63.290487 171.316362 64.328399 171.662333 65.698442 C 171.994464 67.082325 171.662333 68.452369 170.624421 69.490281 L 125.219233 106.301558 L 140.358908 162.708612 C 140.69104 164.092495 140.358908 165.462539 138.975026 166.500451 C 137.937114 167.178553 136.221099 167.524524 135.197026 166.500451 L 86 134.851056 L 36.802974 166.500451 C 36.124871 167.178553 35.778901 167.178553 35.086959 167.178553 Z M 35.086959 167.178553 " transform="matrix(0.282267,0,0,0.282267,0.725,0.725)"/>
<path style=" stroke:none;fill-rule:nonzero;fill:rgb(100%,100%,100%);fill-opacity:1;" d="M 10.628906 47.914062 C 10.433594 47.914062 10.242188 47.820312 10.046875 47.722656 C 9.753906 47.527344 9.5625 47.042969 9.65625 46.652344 L 13.929688 30.730469 L 1.113281 20.339844 C 0.726562 20.144531 0.628906 19.660156 0.726562 19.269531 C 0.820312 18.882812 1.210938 18.589844 1.597656 18.589844 L 18.105469 17.71875 L 24.027344 2.277344 C 24.222656 1.988281 24.613281 1.695312 25 1.695312 C 25.386719 1.695312 25.777344 1.988281 25.875 2.277344 L 31.796875 17.71875 L 48.304688 18.589844 C 48.691406 18.589844 49.082031 18.882812 49.179688 19.269531 C 49.273438 19.660156 49.179688 20.046875 48.886719 20.339844 L 36.070312 30.730469 L 40.34375 46.652344 C 40.4375 47.042969 40.34375 47.429688 39.953125 47.722656 C 39.660156 47.914062 39.175781 48.011719 38.886719 47.722656 L 25 38.789062 L 11.113281 47.722656 C 10.921875 47.914062 10.824219 47.914062 10.628906 47.914062 Z M 10.628906 47.914062 "/>
</g>
</svg>
