<?xml version="1.0" encoding="UTF-8"?>
<svg xmlns="http://www.w3.org/2000/svg" xmlns:xlink="http://www.w3.org/1999/xlink" width="64px" height="64px" viewBox="0 0 64 64" version="1.1">
<g id="surface172480">
<path style=" stroke:none;fill-rule:nonzero;fill:rgb(100%,41.176471%,49.019608%);fill-opacity:1;" d="M 15.949219 55.5 C 38.699219 56.398438 47 41.050781 53.148438 25.699219 C 55.050781 20.949219 51.449219 15 43.199219 14.699219 C 39.300781 14.699219 35.851562 17.300781 34.851562 21.050781 C 31.199219 34.398438 21.300781 45.851562 10.800781 51.851562 C 9.050781 52.851562 9.75 55.550781 11.800781 55.550781 L 15.949219 55.550781 Z M 15.949219 55.5 "/>
<path style=" stroke:none;fill-rule:nonzero;fill:rgb(78.823529%,31.372549%,39.607843%);fill-opacity:1;" d="M 48.199219 28.75 C 47 28.550781 45.75 29.148438 45.25 30.300781 C 40.898438 40 35 47.300781 24.449219 51.101562 C 20.5 52.5 22.148438 55.449219 24.851562 54.949219 C 38.199219 52.550781 45.199219 43.199219 50.199219 32.601562 C 50.949219 30.949219 49.949219 29.050781 48.199219 28.75 Z M 48.199219 28.75 "/>
<path style=" stroke:none;fill-rule:nonzero;fill:rgb(32.156863%,86.666667%,69.803922%);fill-opacity:1;" d="M 38.882812 16.648438 C 37.882812 19.011719 40.449219 22.363281 44.621094 24.128906 C 48.789062 25.894531 52.980469 25.410156 53.984375 23.046875 C 54.984375 20.683594 52.417969 17.332031 48.25 15.566406 C 44.078125 13.800781 39.886719 14.28125 38.882812 16.648438 Z M 38.882812 16.648438 "/>
<path style=" stroke:none;fill-rule:nonzero;fill:rgb(26.666667%,29.411765%,32.941176%);fill-opacity:1;" d="M 17.851562 57 C 17.199219 57 16.601562 57 15.949219 56.949219 L 11.800781 56.949219 C 10.199219 56.949219 8.851562 55.898438 8.449219 54.351562 C 8.050781 52.800781 8.699219 51.25 10.101562 50.449219 C 21.199219 44.050781 30.148438 32.601562 33.449219 20.550781 C 34.648438 16.148438 38.699219 13.101562 43.25 13.101562 C 44.101562 13.101562 44.75 13.75 44.75 14.601562 C 44.75 15.449219 44.101562 16.101562 43.25 16.101562 C 40 16.101562 37.199219 18.25 36.351562 21.351562 C 32.851562 34.148438 23.398438 46.300781 11.601562 53.050781 C 11.398438 53.148438 11.300781 53.351562 11.398438 53.601562 C 11.449219 53.75 11.550781 53.949219 11.851562 53.949219 L 16.050781 53.949219 C 16.050781 53.949219 16.101562 53.949219 16.101562 53.949219 C 16.699219 53.949219 17.300781 54 17.898438 54 C 38.5 54 45.949219 39.75 51.800781 25.101562 C 52.5 23.351562 52.25 21.449219 51.148438 19.851562 C 50.75 19.300781 50.300781 18.800781 49.699219 18.300781 C 49.300781 18 48.851562 17.699219 48.398438 17.449219 C 47.648438 17.050781 47.398438 16.148438 47.800781 15.398438 C 48.199219 14.648438 49.101562 14.398438 49.851562 14.800781 C 50.5 15.148438 51.050781 15.550781 51.601562 15.949219 C 52.398438 16.601562 53.050781 17.300781 53.601562 18.101562 C 55.300781 20.550781 55.648438 23.5 54.550781 26.148438 C 48.601562 41.148438 40.351562 57 17.851562 57 Z M 17.851562 57 "/>
<path style=" stroke:none;fill-rule:nonzero;fill:rgb(26.666667%,29.411765%,32.941176%);fill-opacity:1;" d="M 49.601562 26.898438 C 46.800781 26.898438 43.851562 25.800781 41.148438 23.699219 C 40.5 23.199219 40.398438 22.25 40.898438 21.601562 C 41.398438 20.949219 42.351562 20.851562 43 21.351562 C 46.25 23.851562 49.800781 24.601562 52.5 23.300781 C 53.25 22.949219 54.148438 23.25 54.5 24 C 54.851562 24.75 54.550781 25.648438 53.800781 26 C 52.5 26.550781 51.050781 26.898438 49.601562 26.898438 Z M 49.601562 26.898438 "/>
<path style=" stroke:none;fill-rule:nonzero;fill:rgb(100%,100%,100%);fill-opacity:1;" d="M 26.75 43.648438 C 26.398438 43.648438 26.050781 43.550781 25.800781 43.300781 C 25.148438 42.75 25.101562 41.800781 25.601562 41.199219 C 29.25 36.851562 32.300781 31.898438 34.351562 26.898438 C 34.648438 26.148438 35.550781 25.75 36.300781 26.101562 C 37.050781 26.398438 37.449219 27.300781 37.101562 28.050781 C 34.949219 33.398438 31.851562 38.5 27.898438 43.101562 C 27.601562 43.5 27.199219 43.648438 26.75 43.648438 Z M 22.800781 47.898438 C 22.398438 47.898438 22 47.75 21.75 47.449219 C 21.699219 47.398438 21.601562 47.300781 21.550781 47.199219 C 21.5 47.101562 21.449219 47.050781 21.398438 46.949219 C 21.351562 46.851562 21.351562 46.75 21.300781 46.648438 C 21.25 46.550781 21.25 46.449219 21.25 46.351562 C 21.25 45.949219 21.398438 45.550781 21.699219 45.300781 C 22.050781 44.949219 22.550781 44.800781 23.050781 44.898438 C 23.148438 44.898438 23.25 44.949219 23.351562 45 C 23.449219 45.050781 23.5 45.101562 23.601562 45.148438 C 23.699219 45.199219 23.75 45.25 23.800781 45.351562 C 24.101562 45.601562 24.25 46 24.25 46.398438 C 24.25 46.800781 24.101562 47.199219 23.800781 47.449219 C 23.550781 47.75 23.199219 47.898438 22.800781 47.898438 Z M 22.800781 47.898438 "/>
<path style=" stroke:none;fill-rule:nonzero;fill:rgb(26.666667%,29.411765%,32.941176%);fill-opacity:1;" d="M 49.449219 21.351562 C 49.148438 21.351562 48.898438 21.25 48.648438 21.101562 C 47.5 20.351562 46.898438 19.101562 46.898438 17.351562 C 46.898438 15.648438 47.398438 14.050781 48.648438 11.898438 L 51.050781 7.699219 C 51.449219 7 52.398438 6.75 53.101562 7.148438 C 53.800781 7.550781 54.050781 8.5 53.648438 9.199219 L 51.25 13.351562 C 50.300781 15 49.898438 16.148438 49.898438 17.300781 C 49.898438 17.949219 50 18.398438 50.25 18.550781 C 50.949219 19 51.148438 19.898438 50.699219 20.601562 C 50.398438 21.101562 49.949219 21.351562 49.449219 21.351562 Z M 49.449219 21.351562 "/>
</g>
</svg>
