<?xml version="1.0" encoding="UTF-8"?>
<svg xmlns="http://www.w3.org/2000/svg" xmlns:xlink="http://www.w3.org/1999/xlink" width="64px" height="64px" viewBox="0 0 64 64" version="1.1">
<g id="surface173856">
<path style=" stroke:none;fill-rule:nonzero;fill:rgb(1.960784%,62.745098%,50.588235%);fill-opacity:1;" d="M 56.628906 9.871094 C 56.5625 8.816406 55.6875 7.996094 54.628906 8 L 53.71875 8 C 46.269531 8.109375 25.71875 9.46875 15.210938 20.699219 C 14.496094 21.472656 13.828125 22.289062 13.210938 23.140625 C 6.148438 32.871094 8.359375 43.53125 14.71875 50.339844 C 18.660156 54.652344 24.164062 57.199219 30 57.421875 C 35.246094 57.476562 40.324219 55.589844 44.261719 52.121094 C 45.066406 51.4375 45.835938 50.710938 46.558594 49.941406 C 49.511719 46.644531 51.765625 42.789062 53.191406 38.601562 C 57.238281 27.429688 56.921875 14.578125 56.628906 9.871094 Z M 56.628906 9.871094 "/>
<path style=" stroke:none;fill-rule:nonzero;fill:rgb(0%,100%,48.235294%);fill-opacity:1;" d="M 53.789062 12.941406 C 46.101562 13.042969 38.476562 14.324219 31.179688 16.738281 C 29.863281 17.167969 28.445312 16.460938 28 15.148438 C 27.5625 13.832031 28.261719 12.410156 29.570312 11.949219 C 38.929688 8.648438 49 8.078125 53.71875 8 L 54.628906 8 C 55.6875 7.996094 56.5625 8.816406 56.628906 9.871094 C 56.683594 10.660156 56.410156 11.4375 55.875 12.019531 C 55.335938 12.601562 54.582031 12.933594 53.789062 12.941406 Z M 53.789062 12.941406 "/>
<path style=" stroke:none;fill-rule:nonzero;fill:rgb(0%,100%,65.490196%);fill-opacity:1;" d="M 48.71875 38.601562 C 49.734375 38.621094 50.671875 39.15625 51.207031 40.019531 C 51.742188 40.882812 51.804688 41.960938 51.371094 42.878906 C 50.117188 45.453125 48.5 47.828125 46.570312 49.941406 C 45.84375 50.710938 45.078125 51.4375 44.269531 52.121094 C 40.332031 55.59375 35.25 57.480469 30 57.421875 C 24.160156 57.207031 18.648438 54.660156 14.699219 50.351562 C 16.449219 48.839844 18.976562 48.648438 20.929688 49.878906 C 23.476562 51.511719 26.425781 52.394531 29.449219 52.429688 C 33.347656 52.359375 37.09375 50.890625 40 48.289062 C 40.652344 47.738281 41.273438 47.152344 41.859375 46.53125 C 43.550781 44.667969 44.953125 42.5625 46.011719 40.28125 C 46.507812 39.261719 47.539062 38.613281 48.671875 38.601562 Z M 48.71875 38.601562 "/>
<path style=" stroke:none;fill-rule:nonzero;fill:rgb(20%,20%,20%);fill-opacity:1;" d="M 57.628906 9.808594 C 57.53125 8.226562 56.214844 6.996094 54.628906 7 C 48 7 25.671875 8 14.46875 20 C 13.722656 20.804688 13.023438 21.652344 12.378906 22.539062 C 4.949219 32.769531 7.378906 43.539062 13.378906 50.421875 C 9.660156 53.171875 5.777344 55.703125 1.761719 58 L 1.539062 58.128906 C 1.058594 58.40625 0.894531 59.019531 1.171875 59.5 C 1.445312 59.980469 2.058594 60.144531 2.539062 59.871094 L 2.761719 59.75 C 6.933594 57.378906 10.960938 54.753906 14.820312 51.898438 L 15.140625 52.210938 C 19.289062 56.148438 24.769531 58.378906 30.488281 58.460938 C 35.808594 58.386719 40.925781 56.40625 44.910156 52.878906 C 45.75 52.175781 46.550781 51.421875 47.300781 50.621094 C 58.488281 38.621094 58 16.351562 57.628906 9.808594 Z M 45.828125 49.261719 C 45.136719 50 44.398438 50.699219 43.621094 51.351562 C 34 59.429688 23.058594 56.871094 16.5 50.75 L 16.429688 50.679688 C 18.890625 48.800781 21.285156 46.828125 23.609375 44.761719 L 23.738281 44.640625 C 25.441406 43.121094 27.078125 41.550781 28.738281 39.929688 C 28.824219 39.964844 28.910156 39.988281 29 40 L 35 40 C 35.550781 40 36 39.550781 36 39 C 36 38.449219 35.550781 38 35 38 L 30.640625 38 C 31.753906 36.839844 32.847656 35.652344 33.921875 34.441406 L 39.261719 28.441406 C 39.628906 28.027344 39.589844 27.390625 39.175781 27.023438 C 38.761719 26.65625 38.128906 26.695312 37.761719 27.109375 L 32.421875 33.109375 C 29.738281 36.109375 26.929688 38.980469 24 41.691406 L 24 33 C 24 32.449219 23.550781 32 23 32 C 22.449219 32 22 32.449219 22 33 L 22 43.539062 C 19.746094 45.539062 17.414062 47.441406 15 49.238281 C 9.488281 43 7.199219 33.121094 14 23.738281 C 14.59375 22.917969 15.238281 22.132812 15.929688 21.390625 C 26.578125 10 48.25 9 54.628906 9 C 55.15625 9 55.59375 9.40625 55.628906 9.929688 C 56 16.269531 56.480469 37.839844 45.828125 49.261719 Z M 45.828125 49.261719 "/>
<path style=" stroke:none;fill-rule:nonzero;fill:rgb(20%,20%,20%);fill-opacity:1;" d="M 50.671875 12.089844 C 50.078125 12.089844 49.109375 12.089844 47.851562 12.21875 C 47.296875 12.238281 46.867188 12.703125 46.886719 13.253906 C 46.90625 13.808594 47.367188 14.238281 47.921875 14.21875 L 48 14.21875 C 49.210938 14.140625 50.148438 14.101562 50.71875 14.089844 C 51.273438 14.089844 51.71875 13.640625 51.71875 13.089844 C 51.71875 12.816406 51.609375 12.554688 51.410156 12.363281 C 51.210938 12.175781 50.945312 12.078125 50.671875 12.089844 Z M 43.910156 13.609375 C 43.832031 13.0625 43.328125 12.683594 42.78125 12.761719 C 39.242188 13.246094 35.761719 14.066406 32.378906 15.210938 C 31.925781 15.375 31.652344 15.839844 31.734375 16.316406 C 31.816406 16.792969 32.226562 17.144531 32.710938 17.148438 C 32.808594 17.148438 32.90625 17.132812 33 17.101562 C 36.25 16 39.597656 15.207031 43 14.738281 C 43.273438 14.71875 43.527344 14.585938 43.699219 14.371094 C 43.871094 14.15625 43.945312 13.882812 43.910156 13.609375 Z M 40.941406 45.480469 C 40.542969 45.140625 39.953125 45.164062 39.582031 45.53125 C 39.214844 45.902344 39.191406 46.492188 39.53125 46.890625 L 41.050781 48.410156 C 41.4375 48.800781 42.074219 48.804688 42.464844 48.414062 C 42.855469 48.027344 42.859375 47.390625 42.46875 47 Z M 30.328125 49.128906 C 29.777344 49.128906 29.328125 49.578125 29.328125 50.128906 L 29.328125 52.441406 C 29.328125 52.992188 29.777344 53.441406 30.328125 53.441406 C 30.882812 53.441406 31.328125 52.992188 31.328125 52.441406 L 31.328125 50.128906 C 31.328125 49.578125 30.882812 49.128906 30.328125 49.128906 Z M 25.320312 48.109375 C 24.8125 47.894531 24.226562 48.132812 24.011719 48.640625 L 23.109375 50.769531 C 22.953125 51.101562 22.992188 51.492188 23.207031 51.789062 C 23.425781 52.082031 23.785156 52.234375 24.148438 52.1875 C 24.511719 52.136719 24.820312 51.894531 24.949219 51.550781 L 25.851562 49.421875 C 26.066406 48.910156 25.828125 48.324219 25.320312 48.109375 Z M 45.601562 41.679688 L 43.601562 40.839844 C 43.097656 40.648438 42.535156 40.890625 42.324219 41.386719 C 42.117188 41.878906 42.332031 42.453125 42.820312 42.679688 L 44.820312 43.519531 C 45.324219 43.710938 45.886719 43.46875 46.09375 42.976562 C 46.304688 42.480469 46.085938 41.910156 45.601562 41.679688 Z M 36.449219 48.75 C 36.222656 48.273438 35.660156 48.054688 35.171875 48.253906 C 34.683594 48.453125 34.433594 49 34.601562 49.5 L 35.46875 51.640625 C 35.699219 52.117188 36.257812 52.332031 36.746094 52.136719 C 37.238281 51.9375 37.488281 51.390625 37.320312 50.890625 Z M 36.449219 48.75 "/>
</g>
</svg>
