<svg xmlns="http://www.w3.org/2000/svg" viewBox="0 0 88.56 46.8"><title>Asset 3</title><g id="Layer_2" data-name="Layer 2"><g id="Layer_1-2" data-name="Layer 1"><path d="M24.64,14.38v-.1h-.31V9.75h.31V9.67l-1-1-6-2.28V3.36l.51-.5H21l.5.5v1.8l3.1,1.1h.05V6.1l-.29-.94V2.59h.31V2.5L22.15,0H17c-.84.84-1.68,1.66-2.49,2.5v.09h.31V7.27h-.31v.1l1,1,6,2.25v2.86L21,14H18.14l-.51-.51V11.57l-3.09-1.11h0v.17l.29.94v3L17,16.8h5.19Z"/><path d="M33.81,16.8h3.58v-.17l-.32-.93V1.1l.32-.93V0H34V.17l.29.93,0,8.07-.08.19h0L30.21.5l.12-.33V0H26.9V.17l.29.93V15.7l-.29.93v.17h3.43v-.17L30,15.7V8.62l.07-.2h0L34,16.08l-.17.55Z"/><path d="M43.05,16.63l-.26-.86.52-3.17.51-.53h2.66l.51.53.52,3.15-.28.88v.17h3.55v-.17l-.41-.93L47.87,1l.27-.86V0h-6V.17l.27.89-2.5,14.71-.41.86v.17h3.53Zm2-13.8h.14l1.22,6L46,9.24H44.3l-.43-.45Z"/><path d="M59.83,16.8l2.49-2.49v-.1H62V11.38l.29-.92v-.19h0l-3.1,1.11v2.06l-.5.51H55.91l-.5-.51,0-10.08.53-.5h2.74l.5.5V4.9L62.23,6h0V5.81L62,4.9V2.59h.33V2.5L59.83,0H54.74c-.84.84-1.68,1.66-2.5,2.5v.09h.31V14.21h-.31v.1l2.5,2.49Z"/><path d="M70.77,16.8h3.67v-.17l-.6-.93-3.65-8V7.27L73.75,1.1l.69-.93V0H70.77V.17l.17.5L67.89,6h-.22V1.1L68,.17V0H64.53V.17l.29.93V15.7l-.29.93v.17H68v-.17l-.29-.93V10.56l.53-.91h.07L71,15.82l-.26.81Z"/><path d="M9,21.86l.43,1.4v8.21l-.79.36H5.47l-.76-.36V23.26l.44-1.4V21.6H0v.26l.43,1.4V45.15L0,46.55v.25H5.15v-.25l-.44-1.4V36.54l.76-.46H8.6l.79.46v8.61L9,46.55l0,.25h5.14v-.25l-.43-1.4V23.26l.43-1.4V21.6H8.93Z"/><path d="M21.2,21.6c-1.26,1.27-2.52,2.49-3.74,3.75v.14h.47V42.91h-.47v.15c1.22,1.26,2.48,2.48,3.74,3.74h7.53l3.74-3.74v-.15H32V25.49h.47v-.14L28.73,21.6Zm6.52,20.16-.76.76H23l-.76-.76V26.64l.76-.75h4l.76.75Z"/><path d="M45.68,21.86l.43,1.4v18.5l-.75.76h-4l-.76-.76V23.26l.43-1.4V21.6H35.86v.26l.43,1.4V42.91h-.47v.15l3.74,3.74h7.56c1.23-1.22,2.49-2.48,3.71-3.71V43H50.4V23.26l.43-1.4V21.6H45.68Z"/><path d="M64.94,21.86l.43,1.4,0,12.1-.11.28h-.07l-5.9-13.28.18-.5V21.6H54.36v.26l.43,1.4V45.15l-.43,1.4v.25h5.15v-.25L59,45.15V34.53l.11-.29h0L65,45.72l-.25.83v.25h5.36v-.25l-.47-1.4V23.26l.47-1.4V21.6H64.94Z"/><path d="M88.56,25.35,84.81,21.6H73.58v.26l.43,1.4,0,21.89-.47,1.4v.25H84.81l3.75-3.74v-.15h-.47l0-17.42h.51ZM83.8,41.76l-.75.76h-4l-.75-.76V26.64l.75-.75h4l.75.75Z"/></g></g></svg>