<svg xmlns="http://www.w3.org/2000/svg" width="25" height="30.663" viewBox="0 0 25 30.663"><defs><style>.a{fill:#fff;}</style></defs><g transform="translate(11.539 -46.711)"><path class="a" d="M31.679,11.17a6.923,6.923,0,0,0-3.384,5.884,6.931,6.931,0,0,0,4.166,6.157,16.525,16.525,0,0,1-2.16,4.37c-1.241,1.889-2.617,3.793-4.71,3.793-1.991,0-2.7-1.259-5-1.259-2.465,0-3.163,1.259-5.052,1.259-2.091,0-3.57-2.006-4.881-3.878a19.1,19.1,0,0,1-3.2-9.983A10.528,10.528,0,0,1,8.754,12a7.69,7.69,0,0,1,6.36-3.878C17.121,8.057,18.908,9.5,20.132,9.5c1.174,0,3.367-1.378,5.849-1.378A6.822,6.822,0,0,1,31.679,11.17ZM19.963,7.734a6.054,6.054,0,0,1,1.547-4.71A6.525,6.525,0,0,1,26.135.711a6.665,6.665,0,0,1-1.7,4.814A5.225,5.225,0,0,1,19.963,7.734Zm0,0" transform="translate(-19 46)"/></g></svg>