<svg xmlns="http://www.w3.org/2000/svg" width="40" height="55.652" viewBox="0 0 40 55.652"><defs><style>.a{fill:#fff;}</style></defs><g transform="translate(-3 1)"><path class="a" d="M29,0A13.931,13.931,0,0,0,15.087,13.913v7.381a20,20,0,1,0,27.826,0V13.913A13.931,13.931,0,0,0,29,0Zm0,1.739a12.256,12.256,0,0,1,1.739.139V5.394a8.65,8.65,0,0,0-3.478,0V1.878A12.257,12.257,0,0,1,29,1.739Zm-3.478.513v3.7A8.707,8.707,0,0,0,20.3,13.913v3.733A19.745,19.745,0,0,0,16.826,19.8V13.913A12.19,12.19,0,0,1,25.522,2.252Zm6.957,0a12.19,12.19,0,0,1,8.7,11.661V19.8A19.761,19.761,0,0,0,37.7,17.643v-3.73a8.7,8.7,0,0,0-5.217-7.962ZM29,6.957a6.966,6.966,0,0,1,6.957,6.957V16.9a19.982,19.982,0,0,0-13.913,0V13.913A6.966,6.966,0,0,1,29,6.957Zm0,10.435a18,18,0,0,1,6.957,1.382A17.348,17.348,0,0,1,37.7,19.6a18.646,18.646,0,0,1,3.478,2.452,18.387,18.387,0,0,1,6.087,13.6A18.261,18.261,0,1,1,15.087,23.845a18.057,18.057,0,0,1,1.739-1.793A18.645,18.645,0,0,1,20.3,19.6a17.349,17.349,0,0,1,1.739-.825A18,18,0,0,1,29,17.391Zm0,3.478A14.793,14.793,0,0,0,14.493,38.5a.871.871,0,0,0,.853.7.924.924,0,0,0,.166-.017.869.869,0,0,0,.69-1.019A13.046,13.046,0,0,1,29,22.609a13.113,13.113,0,0,1,3.726.54.87.87,0,1,0,.5-1.668A14.747,14.747,0,0,0,29,20.87Zm7.507,2.12a.882.882,0,0,0-.876.4.873.873,0,0,0,.275,1.2,12.775,12.775,0,0,1,1.42,1.026.864.864,0,0,0,.557.2.87.87,0,0,0,.557-1.539,15.018,15.018,0,0,0-1.61-1.162A.892.892,0,0,0,36.507,22.989Zm3.933,3.685a.873.873,0,0,0-.846,1.369A13.046,13.046,0,0,1,32.23,48.291.869.869,0,0,0,32.441,50a.756.756,0,0,0,.214-.027,14.785,14.785,0,0,0,8.353-22.948A.88.88,0,0,0,40.44,26.675ZM29.071,27.826a5.572,5.572,0,0,0-1.179.115,5.207,5.207,0,0,0-2.371,8.971V40a3.478,3.478,0,1,0,6.957,0V36.912a5.208,5.208,0,0,0-3.407-9.086Zm-.061,1.739a3.464,3.464,0,0,1,2.072,6.243.867.867,0,0,0-.343.7V40a1.739,1.739,0,0,1-3.478,0V36.5a.867.867,0,0,0-.343-.7,3.464,3.464,0,0,1,1.328-6.162A3.7,3.7,0,0,1,29.01,29.565ZM17.478,41.746a.868.868,0,0,0-.326.112l-1.5.87a.868.868,0,0,0,.435,1.62.848.848,0,0,0,.435-.119l1.5-.87a.864.864,0,0,0,.319-1.185A.873.873,0,0,0,17.478,41.746Zm2.751,3.237a.865.865,0,0,0-.591.306L18.521,46.62a.872.872,0,0,0,1.335,1.121l1.114-1.335a.866.866,0,0,0-.74-1.423Zm3.692,2.109a.871.871,0,0,0-.771.571L22.556,49.3a.869.869,0,0,0,.52,1.114.832.832,0,0,0,.3.054.866.866,0,0,0,.815-.574l.594-1.634a.865.865,0,0,0-.52-1.111A.8.8,0,0,0,23.922,47.092Zm4.209.734a.871.871,0,0,0-.87.87v1.739a.87.87,0,0,0,1.739,0V48.7A.871.871,0,0,0,28.13,47.826Zm0,0" transform="translate(-6 -1)"/></g></svg>