<svg xmlns="http://www.w3.org/2000/svg" width="19.04" height="26.491" viewBox="0 0 19.04 26.491"><defs><style>.a{fill:#333;}</style></defs><g transform="translate(-9)"><path class="a" d="M18.52,0A6.631,6.631,0,0,0,11.9,6.623v3.513a9.52,9.52,0,1,0,13.245,0V6.623A6.631,6.631,0,0,0,18.52,0Zm0,.828a5.834,5.834,0,0,1,.828.066V2.568a4.117,4.117,0,0,0-1.656,0V.894A5.834,5.834,0,0,1,18.52.828Zm-1.656.244V2.833a4.145,4.145,0,0,0-2.484,3.79V8.4a9.4,9.4,0,0,0-1.656,1.025v-2.8A5.8,5.8,0,0,1,16.865,1.072Zm3.311,0a5.8,5.8,0,0,1,4.139,5.551v2.8A9.407,9.407,0,0,0,22.659,8.4V6.623a4.143,4.143,0,0,0-2.484-3.79ZM18.52,3.311a3.316,3.316,0,0,1,3.311,3.311V8.046a9.512,9.512,0,0,0-6.623,0V6.623A3.316,3.316,0,0,1,18.52,3.311Zm0,4.967a8.57,8.57,0,0,1,3.311.658,8.258,8.258,0,0,1,.828.393A8.875,8.875,0,0,1,24.315,10.5a8.752,8.752,0,0,1,2.9,6.474A8.692,8.692,0,1,1,11.9,11.351a8.6,8.6,0,0,1,.828-.854,8.875,8.875,0,0,1,1.656-1.167,8.258,8.258,0,0,1,.828-.393A8.57,8.57,0,0,1,18.52,8.278Zm0,1.656a7.041,7.041,0,0,0-6.906,8.393.415.415,0,0,0,.406.335.44.44,0,0,0,.079-.008.414.414,0,0,0,.328-.485,6.21,6.21,0,0,1,6.092-7.407,6.242,6.242,0,0,1,1.774.257.414.414,0,1,0,.236-.794A7.02,7.02,0,0,0,18.52,9.934Zm3.573,1.009a.42.42,0,0,0-.417.189.415.415,0,0,0,.131.571,6.08,6.08,0,0,1,.676.488.411.411,0,0,0,.265.1.414.414,0,0,0,.265-.732A7.149,7.149,0,0,0,22.247,11,.425.425,0,0,0,22.094,10.943ZM23.966,12.7a.415.415,0,0,0-.4.652,6.21,6.21,0,0,1-3.505,9.638.414.414,0,0,0,.1.815.36.36,0,0,0,.1-.013,7.038,7.038,0,0,0,3.976-10.924A.419.419,0,0,0,23.966,12.7Zm-5.412.548a2.652,2.652,0,0,0-.561.055,2.479,2.479,0,0,0-1.129,4.27v1.47a1.656,1.656,0,0,0,3.311,0v-1.47a2.479,2.479,0,0,0-1.622-4.325Zm-.029.828a1.649,1.649,0,0,1,.986,2.972.413.413,0,0,0-.163.331V19.04a.828.828,0,1,1-1.656,0V17.377a.413.413,0,0,0-.163-.331,1.649,1.649,0,0,1,.632-2.933A1.763,1.763,0,0,1,18.525,14.073Zm-5.489,5.8a.413.413,0,0,0-.155.053l-.716.414a.413.413,0,0,0,.207.771.4.4,0,0,0,.207-.057l.716-.414a.411.411,0,0,0,.152-.564A.416.416,0,0,0,13.036,19.871Zm1.31,1.541a.412.412,0,0,0-.281.145l-.532.634a.415.415,0,0,0,.635.534l.53-.635a.412.412,0,0,0-.352-.677Zm1.758,1a.414.414,0,0,0-.367.272l-.283.778A.414.414,0,0,0,15.7,24a.4.4,0,0,0,.142.026.412.412,0,0,0,.388-.273l.283-.778a.412.412,0,0,0-.247-.529A.38.38,0,0,0,16.1,22.416Zm2,.349a.415.415,0,0,0-.414.414v.828a.414.414,0,1,0,.828,0V23.18A.415.415,0,0,0,18.106,22.766Zm0,0"/></g></svg>