<?xml version="1.0" encoding="utf-8"?>
<!-- Generator: Adobe Illustrator 23.0.3, SVG Export Plug-In . SVG Version: 6.00 Build 0)  -->
<svg version="1.1" id="TEXT" xmlns="http://www.w3.org/2000/svg" xmlns:xlink="http://www.w3.org/1999/xlink" x="0px" y="0px"
	 viewBox="0 0 600 600" style="enable-background:new 0 0 600 600;" xml:space="preserve">
<style type="text/css">
	.st0{fill:#FFFFFF;}
	.st1{fill:none;stroke:#FFFFFF;stroke-width:1.3884;stroke-miterlimit:10;}
</style>
<g>
	<g>
		<g>
			<path class="st0" d="M222.68,427.19c1.95,3.22,2.88,7.54,1.5,10.31c-2.74,5.85-15.53,9.28-30.33-1.08
				c-26.96-20.42-19.86-42.24-18.42-55.15c-2.87-2-5.82-4.99-8.5-9.25c-7.99-13.65,0.56-15.13,6.97-4.27
				c2.82,4.47,4.97,8.82,6.81,13.26c1.43-0.39,2.73-1.18,4-2.19c1.1-0.87,2.18-1.89,3.23-2.95c-1.51-1.58-3.02-3.43-4.46-5.49
				c-14.21-22.44,1.62-29.25,8.47-16.3c1.71,2.79,2.1,4.9,1.97,6.89c-0.08-0.01-0.16-0.02-0.24-0.04c0.04-2.26-0.34-3.91-2-6.62
				c-6.58-12.39-21.74-5.95-7.86,15.9c1.44,2.06,2.91,3.85,4.42,5.43c1.25-1.21,2.47-2.4,3.72-3.38c7.03-5.27,15.89-3.24,20.89,1.78
				c2.54,2.58,2.43,5.81,0.25,8.23c-2.79,3.06-9.63,4.82-18.62-0.89c-2.78,2.39-7.18,4.11-12.43,2.92
				c6.51,16.45,10.61,36.37,31.84,49.24c5.89,3.41,8.62,2.62,9.63,0.66c0.8-1.54,0.59-4.1-1.32-7.29
				C222.34,427.01,222.51,427.1,222.68,427.19z M175.46,380.41c0.48-4.84,0.28-8.96-2.22-12.95c-5.62-9.56-13.55-8.43-6.02,4.37
				C170.27,376.65,173.07,379.22,175.46,380.41z M194.78,381.1c8.55,5.34,15.13,3.76,17.92,0.73c1.95-2.14,2.24-5.12-0.06-7.46
				c-4.05-4.17-7.51-3.38-10.3-0.95C199.46,375.95,196.67,379.33,194.78,381.1z"/>
			<path class="st0" d="M202.54,387.43c0.83-0.85,0.39-1.54-0.33-2.27c-0.92-0.91-4.25-2.55-7.28-0.43
				c-0.11-0.12-0.21-0.23-0.32-0.35c3.24-2.21,7.16-0.65,9.9,2c2.17,2.12,3.57,4.76,1.91,6.66c-1.75,2.09-9.44,4.28-11.83,6.71
				c-1.06,1.13-0.51,2.5,0.76,3.66c1.79,1.64,4.97,2.8,6.93,2.95c0.07-0.08,0.14-0.17,0.21-0.25c1.25-1.38,10.96-7.03,13.51-8.88
				c0.73,1.06,1.3,1.8,2.33,2.55c0.81,0.59,2.05,1.25,3.22,1.7c0.39-0.3,0.77-0.61,1.16-0.91c0.12,0.08,0.24,0.16,0.36,0.25
				c-2.72,2.43-14.06,9.42-15.64,11.32c-0.54,0.72,0.1,1.65,1.27,2.5c1.68,1.23,5.5,2.06,7.79-0.68c0.15,0.1,0.3,0.2,0.45,0.3
				c-2.7,2.96-6.77,2.48-11.59-1.14c-2.53-1.9-4.21-4.59-3.21-6.48c-2.92-0.14-7.89-2.63-11.13-5.8c-2.74-2.66-4.12-5.58-2.26-7.33
				C190.59,391.91,201.06,389.11,202.54,387.43z"/>
			<path class="st0" d="M237.26,421.84c-1.65,3.5-2.29,7.03,2.8,9.16c3.68,1.51,6.93,1.03,9.77-0.09c0.09,0.1,0.19,0.19,0.28,0.29
				c-3.46,2.08-9.87,1.86-14.57-0.25c-5.84-2.62-7.2-6.48-4.79-11.14c-4.54,5.43-9.91,3.78-12.83,1.96
				c-3.82-2.31-6.48-6.31-5.13-8.23c0.93-1.33,3.36-1.56,5.71-0.05c1.85,1.2,2.91,3.01,2.09,4.37c-0.82,1.35-3.08,1.75-5.89-0.09
				c-0.31-0.2-1.27-1.01-1.55-1.59c0.3,1.21,2.27,3.69,4.94,5.31c7.69,4.57,12.41-1.68,14.16-5.05c1.92-3.69,1.92-6.4-1.56-8.37
				c-3.1-1.78-6.04-2.15-9.15-1.47c-0.06-0.11-0.12-0.23-0.18-0.34c3.79-1.15,9.05-0.25,13,1.86c4.94,2.64,5.98,6.4,3.97,10.9
				c4.29-5.58,9.26-4.63,12.03-3.6c3.54,1.37,6.62,4.2,5.92,6.43c-0.49,1.54-2.65,2.53-5.17,1.64c-1.98-0.7-3.25-2.27-2.67-3.75
				c0.58-1.48,2.54-2.29,5.3-1.32c0.31,0.11,1.29,0.59,1.65,1.06c-0.52-1.04-2.64-2.79-5.15-3.75
				C243.44,413.07,239.06,418.05,237.26,421.84z"/>
			<path class="st0" d="M276.87,426.56c-0.48,3.35-7.02,7.28-18.16,4.86c-0.64,3.21,0.84,6.46,5.77,7.61
				c3.31,0.76,6.5,0.24,9.74-2.94c0.15,0.03,0.31,0.05,0.46,0.08c-3.58,3.96-8.99,4.72-15.58,2.98
				c-17.33-5.45-5.31-21.76,12.25-17.49C275.47,422.51,277.21,424.45,276.87,426.56z M258.74,431.09
				c10.89,2.35,17.13-1.56,17.6-4.69c0.31-1.85-1.15-3.53-4.5-4.2C265.85,420.97,260.03,426.05,258.74,431.09z"/>
			<path class="st0" d="M312.16,441.71c0.09,1.18,1.15,1.5,2.24,1.4c1.4-0.11,4.64-1.89,4.62-5.6c0.16-0.02,0.31-0.04,0.47-0.06
				c0,3.92-3.53,6.33-7.7,6.63c-3.3,0.25-6.4-0.88-6.47-3.4c-0.04-3.3,3.6-10.5,3.35-13.42c-0.07-1.11-0.65-1.73-1.61-1.68
				c-1.33,0.08-4.23,2.18-5.66,3.48c-0.56,3.15-4.04,12.24-5.15,14.9c-1.33-0.43-2.29-0.71-3.68-0.78
				c-1.09-0.05-2.61,0.04-3.97,0.23c-0.2,0.46-0.39,0.91-0.59,1.37c-0.16-0.01-0.33-0.02-0.49-0.04c1.57-3.36,6.85-14.83,6.84-17.34
				c0.04-1.12-0.47-1.78-1.43-1.83c-1.33-0.06-4.49,1.74-6.05,2.93c-0.9,3.22-5.22,11.78-6.59,14.28c-1.28-0.56-2.21-0.94-3.59-1.14
				c-1.08-0.16-2.61-0.22-3.98-0.16c-0.24,0.43-0.48,0.87-0.73,1.3c-0.16-0.03-0.32-0.06-0.48-0.09c1.92-3.18,8.75-14.85,8.97-17.35
				c0.1-0.75-0.51-1.38-1.47-1.52c-1.54-0.23-3.31,0.24-4.44,0.94c-0.16-0.05-0.31-0.11-0.47-0.16c1.79-1.28,4.85-1.49,7.55-1.14
				c2.85,0.38,5.71,1.28,5.47,4.08c-0.01,0.11-0.02,0.25-0.09,0.39c2.2-1.54,5.7-3.4,9.68-3.31c2.87,0.07,4.75,0.82,4.79,3.63
				c0,0.08,0,0.17,0,0.25c2.03-1.75,5.26-3.95,9.23-4.25c2.87-0.22,4.81,0.34,5.14,3.13C316.21,429.42,312.08,439.29,312.16,441.71z
				"/>
			<path class="st0" d="M321.84,417.91c5.71-26.16,24.17-34.08,28.96-26.24c3.08,5.44-2.8,20.13-22.54,25.47
				c-0.18,2.57-0.4,5.14-0.67,7.71c1.88-2.02,3.96-3.43,7.13-4.23c5.98-1.56,9.64,0.85,10.85,4.42c2.61,7.27-6.32,15.11-15.03,16.69
				c-5.81,1.13-10.96-0.45-11.53-5.27c-0.35-2.43,0.88-6.44,2.45-16.34c0.06-0.59,0.18-1.19,0.29-1.8
				c-17.26,1.66-23.28-5.75-23.09-10.71c0.2-7.14,8.54-8.3,8.84-4.3c0.05,0.75-0.41,2.12-1.17,2.59c-0.12-0.02-0.25-0.04-0.37-0.05
				c0.63-0.39,1.15-1.54,1.09-2.51c-0.24-3.55-7.73-2.35-7.88,4.28C299.03,412.18,304.64,419.6,321.84,417.91z M327.54,425.44
				c-0.96,7.53-2.23,12.91-2.04,13.97c0.3,1.85,2.12,2.36,4.41,1.93c4-0.69,10.8-7.09,8.09-16.34c-0.79-2.81-2.86-3.85-4.79-3.38
				C331.79,421.97,329.31,423.34,327.54,425.44z M328.33,416.72c20-5.49,24.74-19.9,21.98-24.82c-4.03-6.72-20.07-1.65-21.9,23.51
				C328.38,415.85,328.35,416.28,328.33,416.72z"/>
			<path class="st0" d="M369.31,414.39c2.8,4.81,0.13,14.73-9,18.48c-7.15,2.88-11.66,0.76-12.85-2.91
				c-2.01-6.47,2.28-13.9,10.6-17.72c1.24-0.56,3.83-1.61,6.11-1.17c0.07,0.09,0.13,0.18,0.2,0.26c-2.18-0.37-4.48,0.46-5.37,0.87
				c-5.12,2.4-6.51,9.61-4.79,14.21c1.31,3.42,4.48,5.36,9.33,3.25c5.82-2.56,7.62-10.86,5.21-15.09c-0.07-0.13-0.14-0.25-0.21-0.38
				c0.37,1.4-0.51,3.31-2.69,4.39c-1.92,0.96-3.97,0.79-4.64-0.65c-0.67-1.44,0.02-3.64,2.68-4.98
				C366.41,411.67,368.42,412.78,369.31,414.39z"/>
			<path class="st0" d="M372.01,407.12c-0.62-1.02-1.37-0.78-2.22-0.28c-1.08,0.64-3.36,3.38-2.04,6.83
				c-0.13,0.07-0.27,0.14-0.4,0.21c-1.35-3.68,0.97-7,4.12-8.92c2.52-1.52,5.37-2.17,6.78-0.08c1.56,2.23,1.82,10.18,3.57,13.1
				c0.82,1.32,2.26,1.15,3.67,0.23c1.99-1.29,3.88-4.05,4.52-5.9c-0.06-0.09-0.13-0.18-0.19-0.26c-1.02-1.56-4.03-12.39-5.17-15.33
				c1.21-0.44,2.07-0.8,3.07-1.62c0.78-0.64,1.75-1.68,2.49-2.71c-0.19-0.45-0.39-0.91-0.58-1.36c0.11-0.1,0.22-0.2,0.34-0.29
				c1.64,3.26,5.47,16.06,6.9,18.07c0.56,0.71,1.63,0.32,2.75-0.61c1.63-1.33,3.45-4.86,1.39-7.78c0.14-0.12,0.28-0.25,0.41-0.37
				c2.16,3.38,0.6,7.26-4.14,11.02c-2.49,1.97-5.49,2.9-7.06,1.45c-0.87,2.79-4.46,6.91-8.22,9.17c-3.16,1.92-6.2,2.46-7.43,0.22
				C373.51,419.73,373.26,408.97,372.01,407.12z"/>
			<path class="st0" d="M390.7,394.78c0.11-2.17,1.92-4.95,4.04-6.98c2.33-2.21,5.15-3.61,6.87-1.96c0.05,0.05,0.1,0.1,0.16,0.15
				c0.09-3.26,1.09-6.36,2.78-8.34c2.21-2.59,4.8-4.2,6.48-2.89c1.28,0.99,1.37,3.48-0.46,5.69c-1.44,1.74-3.43,2.46-4.61,1.4
				c-1.82-1.63-0.2-4.38,0.51-5.38c-0.49,0.2-1.27,0.91-1.65,1.35c-1.8,2.12-2.71,5.47-2.56,8.9c1.9,2.83,5.43,11.1,6.47,13.74
				c-1.29,0.7-2.21,1.22-3.28,2.21c-0.84,0.78-1.9,1.98-2.77,3.12c0.18,0.47,0.36,0.93,0.53,1.4c-0.13,0.11-0.26,0.22-0.39,0.34
				c-1.23-3.52-5.48-15.7-7.28-17.46c-0.54-0.58-1.38-0.48-2.18,0.25c-1.25,1.15-2.03,2.83-2.23,4.19
				C391,394.6,390.85,394.69,390.7,394.78z"/>
			<path class="st0" d="M420.75,357.09c-0.62,0.14-1.18,0.1-1.67-0.19c-1.33-0.79-1.36-2.88-0.33-4.78
				c1.14-2.12,2.68-2.78,3.48-2.37c0.55,0.27,1.01,1.35,0.28,2.73c-0.1-0.05-0.19-0.1-0.29-0.15c0.02-0.04,0.04-0.07,0.06-0.11
				c0.49-0.93,0.2-1.71-0.31-1.97c-0.87-0.44-2.14,0.55-2.95,2.03c-1.01,1.85-0.73,3.53,0.29,4.13c0.9,0.52,1.99,0.15,2.76-0.2
				c-0.05,0.14-0.1,0.28-0.15,0.41c-1.82,1.18-3.06,2.64-3.98,4.14c-3.32,5.4-1.11,12.33,3,15.46c2.93,2.18,6.76,1.95,9.98-2.97
				c3.44-5.26,1.57-13.7-2.64-16.38c0.45,1.13,0.3,2.93-0.71,4.68c-1.21,2.1-3.12,3.27-4.46,2.42c-1.34-0.85-1.88-3.22-0.21-6.15
				c1.63-2.89,3.75-2.57,5.28-1.75c4.51,2.22,8.04,12.51,1.54,22.03c-1.46,2.13-4.04,5.07-7.6,6.21c-0.71,0.44-1.47,1.27-1.88,1.78
				c-2.31,2.84-2.59,5.36-1.19,6.62c4.8,4.43,22.57-27.76,34.44-22.21c5.93,2.92,3.66,20.04-6.35,32.75
				c-23.58,28.18-41.88,20.22-56.55,30.35c-14.23,7.79-8.39,23.35,15.72,8.22c3.03-2.08,5.84-4.88,7.24-7.34
				c0.09,0.04,0.18,0.07,0.27,0.11c-1.66,2.99-4.79,5.77-7.33,7.5c-29.54,17.6-32.67-5.42-8.78-20.92
				c17.32-13.1,39.66-12.56,53.32-32.28c2.24-3.11,8.08-14.47,2.05-17.71c-6.12-2.81-24.58,31.37-34.47,22.04
				c-1.34-1.22-1.34-3.99,1.37-7.32c0.41-0.51,0.88-0.97,1.44-1.45c-1.55,0.11-3.25-0.37-4.4-1.3c-4.32-3.73-5.41-13.14,0.01-21.8
				C418.16,359.54,419.36,358.14,420.75,357.09z"/>
		</g>
	</g>
	<path class="st1" d="M369.89,316.14c3.16-26.46-20.36-34.63-20.36-34.63c1.85-2.31,6.63-1.16,6.63-1.16
		c-6.79-7.87-18.67-11.11-18.67-11.11c-44.12-14.19-74.98,0-74.98,0s-11.88,3.24-18.67,11.11c0,0,4.78-1.16,6.63,1.16
		c0,0-23.53,8.18-20.36,34.63c0,0,4.63-6.33,8.41-6.25c0,0-16.51,23.53,1.31,35.95c0,0,8.18-20.44,20.44-15.97
		c0,0-17.66,14.93-10.37,26.73c0,0,4.05-8.79,11.11-4.51c0,0,0.12,3.93-4.51,6.48c0,0,43.85,22.79,43.5,38.76h0
		c-0.35-15.97,43.5-38.76,43.5-38.76c-4.63-2.55-4.51-6.48-4.51-6.48c7.06-4.28,11.11,4.51,11.11,4.51
		c7.29-11.8-10.37-26.73-10.37-26.73c12.26-4.47,20.44,15.97,20.44,15.97c17.82-12.42,1.31-35.95,1.31-35.95
		C365.26,309.82,369.89,316.14,369.89,316.14z"/>
	<path class="st0" d="M314.52,349.99c-5.15,1.27-14.52-7-14.52-7s-9.37,8.27-14.52,7c0,0-1.62,8.1,4.63,11.63
		c6.25,3.53,9.89,9.31,9.89,9.31s3.64-5.79,9.89-9.31C316.14,358.09,314.52,349.99,314.52,349.99z"/>
	<path class="st0" d="M335.64,315.68c0,0-2.55-9.83-9.95-16.89c-7.4-7.06-2.78-10.41-2.78-10.41c-11.34-11.57-22.91,3.01-22.91,3.01
		s-11.57-14.58-22.91-3.01c0,0,4.63,3.36-2.78,10.41c-7.4,7.06-9.95,16.89-9.95,16.89s9.95,12.03,15.97,8.79
		c0,0-9.02,19.55,3.36,20.13c12.38,0.58,14.12-2.78,14.12-2.78s1.91-3.24-1.48-6.28c-3.38-3.04-5.79-4.77-5.79-4.77
		s-2.86-1.53,0-1.5s9.46,0,9.46,0s6.6,0.03,9.46,0s0,1.5,0,1.5s-2.4,1.74-5.79,4.77c-3.38,3.04-1.48,6.28-1.48,6.28
		s1.74,3.36,14.12,2.78c12.38-0.58,3.36-20.13,3.36-20.13C325.69,327.71,335.64,315.68,335.64,315.68z M289.28,316.43
		c1.48-5.67-1.54-7.51-1.54-7.51s-6.02-0.59-7.06-2.73c-1.04-2.14-5.09-3.07-5.09-3.07s0.81-1.97,7-1.68s10.01,4.98,10.01,4.98
		C292.54,308.68,289.28,316.43,289.28,316.43z M320.77,306.19c-1.04,2.14-7.06,2.73-7.06,2.73s-3.03,1.84-1.54,7.51
		c0,0-3.26-7.75-3.32-10.01c0,0,3.82-4.69,10.01-4.98s7,1.68,7,1.68S321.81,304.05,320.77,306.19z"/>
	<g id="CROWN">
		<path class="st1" d="M348.19,239.63c0,0,5.7-16.75-13.86-15.36c0,0,1.48-2.6,3.24-3.56c0,0-2.46-0.32-4.46,0.72
			c0,0,0.84-3.76-5.32-6.48c0,0,4.45,6.02-0.38,9.05c0,0-5.27-24.19-22.48-8.61c0,0-1.93-2.78,6.79-8.79c0,0-2.7-1.31-7.4,1.31
			c0,0,0.46-6.79,2.31-8.25c0,0-5.01,0.85-5.55,6.17c-0.05,0.48-0.09,1.28-0.12,2.33c-0.03-1.05-0.07-1.85-0.12-2.33
			c-0.54-5.32-5.55-6.17-5.55-6.17c1.85,1.47,2.31,8.25,2.31,8.25c-4.71-2.62-7.4-1.31-7.4-1.31c8.72,6.02,6.79,8.79,6.79,8.79
			c-17.2-15.58-22.48,8.61-22.48,8.61c-4.83-3.04-0.38-9.05-0.38-9.05c-6.16,2.72-5.32,6.48-5.32,6.48c-2-1.04-4.46-0.72-4.46-0.72
			c1.76,0.95,3.24,3.56,3.24,3.56c-19.55-1.39-13.86,15.36-13.86,15.36c-7.06-1.48-7.55,2.11-7.55,2.11
			c17.59,0.46,18.16,20.19,18.16,20.19c16.43-6.38,36.49-5.56,36.49-5.56h0.24c0,0,19.27,0.29,36.49,5.56
			c0,0,0.58-19.73,18.16-20.19C355.74,241.74,355.25,238.16,348.19,239.63z"/>
		<path class="st1" d="M270.11,256.71c0,0,5.32-2.08,8.1-2.31l-6.6-23.6c0,0-11.04-5.52-10.76,5.31
			C260.86,236.12,261.67,240.28,270.11,256.71z"/>
		<path class="st1" d="M283.07,253.59l-3.7-25.45c0,0,7.52-22.79,17.24-7.06v31.82L283.07,253.59z"/>
		<path class="st1" d="M331.95,256.71c0,0-5.32-2.08-8.1-2.31l6.6-23.6c0,0,11.04-5.52,10.76,5.31
			C341.21,236.12,340.4,240.28,331.95,256.71z"/>
		<path class="st1" d="M318.99,253.59l3.7-25.45c0,0-7.52-22.79-17.24-7.06v31.82L318.99,253.59z"/>
	</g>
	<g>
		<g>
			<path class="st0" d="M263.67,163.56c2.21,6.64,4.41,13.29,6.62,19.93c-0.71,0.24-1.42,0.48-2.12,0.73
				c-1.88-5.27-3.76-10.55-5.65-15.82c-1.6,5.57-2.79,11.15-3.56,16.68c-0.35,0.16-0.69,0.32-1.04,0.48
				c-4.71-2.95-9.75-5.61-15.09-7.92c2.8,4.81,5.6,9.63,8.41,14.44c-0.66,0.38-1.32,0.78-1.97,1.18
				c-3.66-5.97-7.31-11.94-10.97-17.9c0.68-0.42,1.36-0.82,2.05-1.23c6.04,2.48,11.71,5.38,16.99,8.66
				c0.88-6.13,2.26-12.31,4.15-18.48C262.19,164.05,262.93,163.8,263.67,163.56z"/>
			<path class="st0" d="M285.96,169.74c0.48,3.22,0.95,6.45,1.43,9.67c-0.7,0.1-1.4,0.21-2.1,0.33c-0.14-0.81-0.27-1.62-0.41-2.43
				c-0.75,1.77-2.47,3.07-5.12,3.68c-3.61,0.83-6.33-0.27-7.12-2.89c-0.69-2.3,0.42-4.86,5.48-6.02c1.86-0.42,3.72-0.78,5.59-1.1
				c-0.05-0.32-0.11-0.63-0.16-0.95c-0.44-2.66-2.48-3.84-5.92-3.1c-2.38,0.52-4.43,1.79-5.59,3.29c-0.5-0.41-1.01-0.82-1.53-1.22
				c1.45-1.82,4.01-3.31,6.96-3.94C282.32,164.03,285.4,165.72,285.96,169.74z M284.4,175.09c-0.14-0.85-0.29-1.7-0.43-2.54
				c-1.82,0.31-3.64,0.67-5.44,1.07c-3.36,0.77-4.11,2.26-3.69,3.81c0.48,1.77,2.29,2.44,4.89,1.86
				C282.2,178.73,283.83,177.29,284.4,175.09z"/>
			<path class="st0" d="M307.81,156.19c-0.33,7.41-0.67,14.82-1,22.24c-0.71-0.03-1.42-0.06-2.12-0.07
				c0.03-1.04,0.05-2.08,0.08-3.12c-1.44,2.1-3.7,3.21-6.41,3.31c-4.62,0.17-8.48-2.6-9.11-7.34c-0.63-4.72,3.01-8.48,8.49-8.7
				c3.04-0.12,5.66,0.99,7.15,3.06c0.07-3.16,0.15-6.32,0.22-9.48C306.01,156.12,306.91,156.15,307.81,156.19z M304.81,170.47
				c0.12-3.68-2.81-6.25-6.79-6.1c-4.02,0.15-6.76,2.92-6.36,6.59c0.39,3.67,3.29,5.83,6.81,5.71
				C301.96,176.53,304.69,174.16,304.81,170.47z"/>
			<path class="st0" d="M327.24,174.01c-4.81-1.14-9.67-1.94-14.56-2.41c-0.02,3.32,2.42,5.73,6.01,6.31c2.01,0.32,3.91,0,5.48-1.08
				c0.33,0.54,0.65,1.08,0.97,1.63c-1.85,1.3-4.25,1.72-6.81,1.31c-5-0.8-8.25-4.34-7.96-9.02c0.28-4.66,4.47-7.76,9.83-6.93
				c5.36,0.83,8.38,4.98,7.23,9.57C327.39,173.55,327.3,173.78,327.24,174.01z M312.83,170.02c4.21,0.41,8.39,1.05,12.54,1.94
				c0.37-3.08-1.81-5.78-5.46-6.34C316.29,165.06,313.41,166.97,312.83,170.02z"/>
			<path class="st0" d="M341.02,163.88c0.25-0.77,1.31-1.14,2.37-0.77c1.06,0.37,1.66,1.3,1.38,2.06c-0.31,0.81-1.32,1.17-2.39,0.8
				C341.35,165.61,340.75,164.68,341.02,163.88z M339.99,168.79c0.82,0.28,1.64,0.57,2.45,0.86c-1.8,4.94-3.61,9.88-5.41,14.82
				c-0.7-0.26-1.41-0.51-2.12-0.75C336.6,178.75,338.29,173.77,339.99,168.79z"/>
			<path class="st0" d="M360,185.47c-1.59,2.6-3.19,5.2-4.78,7.8c-0.65-0.4-1.31-0.79-1.97-1.18c1.5-2.58,3-5.15,4.5-7.73
				c1.69-2.86,0.72-5.45-2.54-7.14c-3.7-1.9-6.92-0.99-8.36,2.31c-1.12,2.52-2.24,5.04-3.37,7.56c-0.69-0.31-1.38-0.61-2.08-0.9
				c2.03-4.85,4.06-9.7,6.09-14.56c0.77,0.32,1.54,0.65,2.3,0.99c-0.39,0.89-0.79,1.77-1.18,2.66c2.02-1.2,4.89-1.12,7.9,0.45
				C360.76,177.96,362.4,181.64,360,185.47z"/>
		</g>
	</g>
</g>
</svg>
